G04 #@! TF.GenerationSoftware,KiCad,Pcbnew,8.0.9-8.0.9-0~ubuntu22.04.1*
G04 #@! TF.CreationDate,2026-05-27T12:16:12+02:00*
G04 #@! TF.ProjectId,Carte_puissance,43617274-655f-4707-9569-7373616e6365,2.0*
G04 #@! TF.SameCoordinates,Original*
G04 #@! TF.FileFunction,Copper,L3,Inr*
G04 #@! TF.FilePolarity,Positive*
%FSLAX46Y46*%
G04 Gerber Fmt 4.6, Leading zero omitted, Abs format (unit mm)*
G04 Created by KiCad (PCBNEW 8.0.9-8.0.9-0~ubuntu22.04.1) date 2026-05-27 12:16:12*
%MOMM*%
%LPD*%
G01*
G04 APERTURE LIST*
G04 Aperture macros list*
%AMRoundRect*
0 Rectangle with rounded corners*
0 $1 Rounding radius*
0 $2 $3 $4 $5 $6 $7 $8 $9 X,Y pos of 4 corners*
0 Add a 4 corners polygon primitive as box body*
4,1,4,$2,$3,$4,$5,$6,$7,$8,$9,$2,$3,0*
0 Add four circle primitives for the rounded corners*
1,1,$1+$1,$2,$3*
1,1,$1+$1,$4,$5*
1,1,$1+$1,$6,$7*
1,1,$1+$1,$8,$9*
0 Add four rect primitives between the rounded corners*
20,1,$1+$1,$2,$3,$4,$5,0*
20,1,$1+$1,$4,$5,$6,$7,0*
20,1,$1+$1,$6,$7,$8,$9,0*
20,1,$1+$1,$8,$9,$2,$3,0*%
G04 Aperture macros list end*
G04 #@! TA.AperFunction,ComponentPad*
%ADD10R,1.700000X1.700000*%
G04 #@! TD*
G04 #@! TA.AperFunction,ComponentPad*
%ADD11O,1.700000X1.700000*%
G04 #@! TD*
G04 #@! TA.AperFunction,ComponentPad*
%ADD12R,1.575000X1.575000*%
G04 #@! TD*
G04 #@! TA.AperFunction,ComponentPad*
%ADD13C,1.575000*%
G04 #@! TD*
G04 #@! TA.AperFunction,ComponentPad*
%ADD14R,1.665000X1.665000*%
G04 #@! TD*
G04 #@! TA.AperFunction,ComponentPad*
%ADD15C,1.665000*%
G04 #@! TD*
G04 #@! TA.AperFunction,ComponentPad*
%ADD16C,2.400000*%
G04 #@! TD*
G04 #@! TA.AperFunction,ComponentPad*
%ADD17RoundRect,0.250001X0.899999X0.899999X-0.899999X0.899999X-0.899999X-0.899999X0.899999X-0.899999X0*%
G04 #@! TD*
G04 #@! TA.AperFunction,ComponentPad*
%ADD18C,2.300000*%
G04 #@! TD*
G04 #@! TA.AperFunction,ComponentPad*
%ADD19C,1.500000*%
G04 #@! TD*
G04 #@! TA.AperFunction,ComponentPad*
%ADD20C,1.300000*%
G04 #@! TD*
G04 #@! TA.AperFunction,ComponentPad*
%ADD21RoundRect,0.250001X-1.099999X-1.099999X1.099999X-1.099999X1.099999X1.099999X-1.099999X1.099999X0*%
G04 #@! TD*
G04 #@! TA.AperFunction,ComponentPad*
%ADD22C,2.700000*%
G04 #@! TD*
G04 #@! TA.AperFunction,ComponentPad*
%ADD23RoundRect,0.250000X0.750000X-0.600000X0.750000X0.600000X-0.750000X0.600000X-0.750000X-0.600000X0*%
G04 #@! TD*
G04 #@! TA.AperFunction,ComponentPad*
%ADD24O,2.000000X1.700000*%
G04 #@! TD*
G04 #@! TA.AperFunction,ComponentPad*
%ADD25RoundRect,0.250000X-0.600000X-0.750000X0.600000X-0.750000X0.600000X0.750000X-0.600000X0.750000X0*%
G04 #@! TD*
G04 #@! TA.AperFunction,ComponentPad*
%ADD26O,1.700000X2.000000*%
G04 #@! TD*
G04 #@! TA.AperFunction,ComponentPad*
%ADD27R,1.438000X1.438000*%
G04 #@! TD*
G04 #@! TA.AperFunction,ComponentPad*
%ADD28C,1.438000*%
G04 #@! TD*
G04 #@! TA.AperFunction,ViaPad*
%ADD29C,0.800000*%
G04 #@! TD*
G04 #@! TA.AperFunction,ViaPad*
%ADD30C,0.700000*%
G04 #@! TD*
G04 #@! TA.AperFunction,ViaPad*
%ADD31C,1.500000*%
G04 #@! TD*
G04 #@! TA.AperFunction,Conductor*
%ADD32C,0.400000*%
G04 #@! TD*
G04 #@! TA.AperFunction,Conductor*
%ADD33C,5.000000*%
G04 #@! TD*
G04 #@! TA.AperFunction,Conductor*
%ADD34C,0.500000*%
G04 #@! TD*
G04 APERTURE END LIST*
D10*
X179986666Y-142531000D03*
D11*
X179986666Y-145071000D03*
X179986666Y-147611000D03*
D12*
X125186666Y-143556000D03*
D13*
X123186666Y-143556000D03*
X121186666Y-143556000D03*
X119186666Y-143556000D03*
X117186666Y-143556000D03*
D12*
X195986666Y-143556000D03*
D13*
X193986666Y-143556000D03*
X191986666Y-143556000D03*
X189986666Y-143556000D03*
X187986666Y-143556000D03*
D10*
X142986666Y-91056000D03*
D14*
X171486666Y-105096000D03*
D15*
X171486666Y-102556000D03*
X171486666Y-100016000D03*
D16*
X160906666Y-104356000D03*
X160906666Y-107756000D03*
X150986666Y-104356000D03*
X150986666Y-107756000D03*
D10*
X133986666Y-124516000D03*
D11*
X133986666Y-127056000D03*
X133986666Y-129596000D03*
D10*
X145986666Y-127056000D03*
X117486666Y-139556000D03*
X145986666Y-132056000D03*
D17*
X178486666Y-91556000D03*
D18*
X173686666Y-91556000D03*
X168886666Y-91556000D03*
D19*
X135986666Y-142306000D03*
X141986666Y-142306000D03*
X135986666Y-146806000D03*
X141986666Y-146806000D03*
D20*
X138986666Y-141406000D03*
X138986666Y-147706000D03*
D14*
X140846666Y-99516000D03*
D15*
X140846666Y-102056000D03*
X140846666Y-104596000D03*
D10*
X117486666Y-97056000D03*
D21*
X101006666Y-136281000D03*
D22*
X104966666Y-136281000D03*
D23*
X134961666Y-118056000D03*
D24*
X134961666Y-115556000D03*
D10*
X151486666Y-148056000D03*
D25*
X207736666Y-95031000D03*
D26*
X210236666Y-95031000D03*
D10*
X166986666Y-96556000D03*
X165486666Y-122056000D03*
X194986666Y-139556000D03*
X97486666Y-119556000D03*
X179486666Y-116056000D03*
X166986666Y-148056000D03*
D27*
X106486666Y-97056000D03*
D28*
X104486666Y-97056000D03*
X102486666Y-97056000D03*
X100486666Y-97056000D03*
D10*
X214986666Y-114056000D03*
D21*
X207006666Y-136281000D03*
D22*
X210966666Y-136281000D03*
D29*
X154986666Y-141056000D03*
X147986666Y-138056000D03*
X145986666Y-137556000D03*
X147486666Y-135556000D03*
D30*
X133986666Y-97056000D03*
X152986666Y-129056000D03*
X157986666Y-135056000D03*
X153986666Y-134056000D03*
X144486666Y-122556000D03*
X173986666Y-118556000D03*
X144486666Y-124056000D03*
X146486666Y-124056000D03*
X144486666Y-121056000D03*
X146486666Y-121056000D03*
X146486666Y-122556000D03*
X120986666Y-122056000D03*
X118986666Y-104056000D03*
X145486666Y-121056000D03*
X158986666Y-130556000D03*
X145486666Y-122556000D03*
X142486666Y-132556000D03*
X136986666Y-136556000D03*
X156436666Y-145056000D03*
X145486666Y-124056000D03*
X184486666Y-125956000D03*
X97986666Y-129056000D03*
X203986666Y-130056000D03*
X205986666Y-129056000D03*
X163486666Y-117056000D03*
X164486666Y-115056000D03*
X204986666Y-127056000D03*
X162486666Y-116056000D03*
X166486666Y-117056000D03*
X97986666Y-130556000D03*
X163486666Y-116056000D03*
X163486666Y-113056000D03*
X165486666Y-116056000D03*
X202986666Y-128056000D03*
X96986666Y-129056000D03*
X203986666Y-127056000D03*
X204986666Y-128056000D03*
X164486666Y-116056000D03*
X97986666Y-127706000D03*
X204986666Y-129056000D03*
X164486666Y-114056000D03*
X206986666Y-127056000D03*
X161486666Y-115056000D03*
X205986666Y-127056000D03*
X95986666Y-130556000D03*
X95986666Y-127556000D03*
X162486666Y-113056000D03*
X166486666Y-114056000D03*
X166486666Y-113056000D03*
X163486666Y-114056000D03*
X166486666Y-115056000D03*
X164486666Y-117056000D03*
X162486666Y-115056000D03*
X162486666Y-117056000D03*
X165486666Y-114056000D03*
X165486666Y-117056000D03*
X98986666Y-129056000D03*
X202986666Y-127056000D03*
X203986666Y-128056000D03*
X98986666Y-130556000D03*
X203986666Y-129056000D03*
X165486666Y-115056000D03*
X163486666Y-115056000D03*
X173976666Y-131096000D03*
X206986666Y-129056000D03*
X205986666Y-128056000D03*
X205986666Y-130056000D03*
X166486666Y-116056000D03*
X161486666Y-114056000D03*
X96986666Y-130556000D03*
X202986666Y-130056000D03*
X95986666Y-129056000D03*
X165486666Y-113056000D03*
X204986666Y-130056000D03*
X161486666Y-113056000D03*
X206986666Y-130056000D03*
X98986666Y-127556000D03*
X162486666Y-114056000D03*
X96986666Y-127556000D03*
X161486666Y-116056000D03*
X164486666Y-113056000D03*
X202986666Y-129056000D03*
X206986666Y-128056000D03*
X161486666Y-117056000D03*
X147986666Y-145556000D03*
D31*
X153986666Y-111056000D03*
X144986666Y-108556000D03*
D30*
X140486666Y-124056000D03*
X153986666Y-100056000D03*
X105986666Y-120056000D03*
X209486666Y-122056000D03*
X215486666Y-132556000D03*
X103986666Y-122056000D03*
X109986666Y-133056000D03*
X153986666Y-94056000D03*
X149986666Y-98056000D03*
X150986666Y-99056000D03*
X103986666Y-123056000D03*
X147986666Y-123556000D03*
X210486666Y-123056000D03*
X150986666Y-98056000D03*
X150986666Y-94056000D03*
X103986666Y-121056000D03*
X149986666Y-96056000D03*
X210486666Y-119056000D03*
X151986666Y-98056000D03*
X152986666Y-98056000D03*
X152986666Y-95056000D03*
X153986666Y-99056000D03*
X151986666Y-97056000D03*
X172036666Y-131106000D03*
X150986666Y-100056000D03*
X158036666Y-124506000D03*
X211486666Y-120056000D03*
X209486666Y-120056000D03*
X153986666Y-98056000D03*
X211486666Y-122056000D03*
X104986666Y-122056000D03*
X202486666Y-132556000D03*
X150986666Y-97056000D03*
X102986666Y-120056000D03*
X102986666Y-122056000D03*
X153986666Y-95056000D03*
X209486666Y-121056000D03*
X210486666Y-121056000D03*
X208486666Y-121056000D03*
X150986666Y-96056000D03*
X209486666Y-123056000D03*
X210486666Y-122056000D03*
X150986666Y-95056000D03*
X152986666Y-96056000D03*
X153986666Y-97056000D03*
X153986666Y-96056000D03*
X210486666Y-120056000D03*
X151986666Y-100056000D03*
X152986666Y-99056000D03*
X152986666Y-94056000D03*
X149986666Y-94056000D03*
X104986666Y-123056000D03*
D31*
X199486666Y-91056000D03*
D30*
X149986666Y-95056000D03*
X149986666Y-99056000D03*
X151986666Y-96056000D03*
X152986666Y-100056000D03*
X105986666Y-121056000D03*
X102986666Y-121056000D03*
X151986666Y-94056000D03*
X151986666Y-95056000D03*
X152986666Y-97056000D03*
X152486666Y-124556000D03*
X208486666Y-122056000D03*
X104986666Y-120056000D03*
X212486666Y-121056000D03*
X105986666Y-122056000D03*
X211486666Y-121056000D03*
X211486666Y-123056000D03*
X149986666Y-97056000D03*
X151986666Y-99056000D03*
X176986666Y-95056000D03*
X103986666Y-120056000D03*
X149986666Y-100056000D03*
X96486666Y-133056000D03*
X212486666Y-122056000D03*
X104986666Y-121056000D03*
X171486666Y-143556000D03*
X156611666Y-134056000D03*
X170986666Y-113556000D03*
X168986666Y-113556000D03*
X170986666Y-112556000D03*
X167986666Y-111556000D03*
X167986666Y-112556000D03*
X171986666Y-113556000D03*
X171486666Y-110556000D03*
X167986666Y-113556000D03*
X169986666Y-113556000D03*
X169986666Y-114556000D03*
X169986666Y-111556000D03*
X171986666Y-111556000D03*
X169986666Y-110556000D03*
X168986666Y-112556000D03*
X171986666Y-112556000D03*
X168486666Y-110556000D03*
X170986666Y-111556000D03*
X169986666Y-112556000D03*
X168986666Y-111556000D03*
X120986666Y-123056000D03*
X159986666Y-135556000D03*
X162486666Y-128056000D03*
X126986666Y-121056000D03*
X155486666Y-119556000D03*
X153986666Y-136556000D03*
X136986666Y-134056000D03*
X153986666Y-129556000D03*
X183486666Y-125056000D03*
X118480361Y-112087697D03*
X112986666Y-113056000D03*
X112986666Y-120056000D03*
X154986666Y-124556000D03*
X153986666Y-124556000D03*
X175986666Y-142556000D03*
X175986666Y-139556000D03*
X175986666Y-127056000D03*
X178486666Y-125056000D03*
X153986666Y-132556000D03*
X194986666Y-125056000D03*
X154986666Y-130056000D03*
X148986666Y-128556000D03*
X158986666Y-132381000D03*
X172486666Y-116056000D03*
X142986666Y-128556000D03*
D32*
X156986666Y-123806000D02*
X156986666Y-103056000D01*
X156986666Y-103056000D02*
X153986666Y-100056000D01*
D33*
X150279028Y-97056000D02*
X144083043Y-90860015D01*
D34*
X102986666Y-132556000D02*
X102986666Y-123056000D01*
D33*
X214986666Y-91556000D02*
X214986666Y-108056000D01*
X214486666Y-91056000D02*
X214986666Y-91556000D01*
D34*
X96486666Y-133056000D02*
X102486666Y-133056000D01*
D32*
X153236666Y-123806000D02*
X152486666Y-124556000D01*
X158036666Y-124506000D02*
X158586666Y-125056000D01*
X158036666Y-124506000D02*
X157336666Y-123806000D01*
D33*
X169641943Y-92956000D02*
X172241943Y-95556000D01*
D32*
X158586666Y-125056000D02*
X171986666Y-125056000D01*
X157336666Y-123806000D02*
X156986666Y-123806000D01*
D33*
X143784028Y-90561000D02*
X104486666Y-90561000D01*
X96986666Y-90561000D02*
X96986666Y-114056000D01*
D34*
X202486666Y-132556000D02*
X208986666Y-132556000D01*
X102486666Y-133056000D02*
X102986666Y-132556000D01*
D32*
X171986666Y-125056000D02*
X171986666Y-131056000D01*
D34*
X208986666Y-132556000D02*
X215486666Y-132556000D01*
D33*
X104486666Y-90561000D02*
X96986666Y-90561000D01*
X210486666Y-112056000D02*
X210486666Y-122056000D01*
X168886666Y-92956000D02*
X169641943Y-92956000D01*
X214486666Y-108056000D02*
X210486666Y-112056000D01*
X96986666Y-114056000D02*
X97986666Y-114056000D01*
X172241943Y-95556000D02*
X181486666Y-95556000D01*
D34*
X208986666Y-132556000D02*
X208986666Y-123556000D01*
D33*
X181486666Y-95556000D02*
X185986666Y-91056000D01*
X151986666Y-97056000D02*
X150279028Y-97056000D01*
X185986666Y-91056000D02*
X203486666Y-91056000D01*
X97986666Y-114056000D02*
X104986666Y-121056000D01*
D34*
X102486666Y-133056000D02*
X109986666Y-133056000D01*
D33*
X214986666Y-108056000D02*
X214486666Y-108056000D01*
D32*
X156986666Y-123806000D02*
X153236666Y-123806000D01*
D33*
X168886666Y-91556000D02*
X168886666Y-92956000D01*
D32*
X171986666Y-131056000D02*
X172036666Y-131106000D01*
D34*
X208986666Y-123556000D02*
X210486666Y-122056000D01*
D33*
X203486666Y-91056000D02*
X214486666Y-91056000D01*
D34*
X102986666Y-123056000D02*
X104986666Y-121056000D01*
D33*
X144083043Y-90860015D02*
X143784028Y-90561000D01*
G04 #@! TA.AperFunction,Conductor*
G36*
X142660411Y-93331185D02*
G01*
X142681053Y-93347819D01*
X145694847Y-96361613D01*
X145728332Y-96422936D01*
X145731166Y-96449294D01*
X145731166Y-107612606D01*
X145711481Y-107679645D01*
X145658677Y-107725400D01*
X145589519Y-107735344D01*
X145548713Y-107721964D01*
X145371399Y-107627188D01*
X145371393Y-107627186D01*
X145182798Y-107569976D01*
X145182795Y-107569975D01*
X144986666Y-107550659D01*
X144790536Y-107569975D01*
X144601932Y-107627188D01*
X144428133Y-107720086D01*
X144428126Y-107720090D01*
X144275782Y-107845116D01*
X144150756Y-107997460D01*
X144150752Y-107997467D01*
X144057854Y-108171266D01*
X144000641Y-108359870D01*
X143981325Y-108556000D01*
X144000641Y-108752129D01*
X144057854Y-108940733D01*
X144150752Y-109114532D01*
X144150756Y-109114539D01*
X144275782Y-109266883D01*
X144428126Y-109391909D01*
X144428133Y-109391913D01*
X144601932Y-109484811D01*
X144601935Y-109484811D01*
X144601939Y-109484814D01*
X144790534Y-109542024D01*
X144986666Y-109561341D01*
X145182798Y-109542024D01*
X145371393Y-109484814D01*
X145371399Y-109484811D01*
X145550577Y-109389039D01*
X145551255Y-109390308D01*
X145611045Y-109371574D01*
X145678429Y-109390046D01*
X145725129Y-109442015D01*
X145736572Y-109482292D01*
X145737004Y-109486309D01*
X145748209Y-109537818D01*
X145748212Y-109537827D01*
X145755445Y-109564192D01*
X145755449Y-109564203D01*
X145804771Y-109650818D01*
X145804776Y-109650825D01*
X145804778Y-109650828D01*
X145831246Y-109681374D01*
X145850529Y-109703628D01*
X145850532Y-109703631D01*
X145850533Y-109703632D01*
X145883307Y-109735257D01*
X145971642Y-109781465D01*
X145971643Y-109781465D01*
X145971643Y-109781466D01*
X146013827Y-109793852D01*
X146038681Y-109801150D01*
X146038685Y-109801150D01*
X146038687Y-109801151D01*
X146050318Y-109802823D01*
X146110666Y-109811500D01*
X153890808Y-109811500D01*
X153957847Y-109831185D01*
X153986393Y-109864129D01*
X153997221Y-109845503D01*
X154059419Y-109813672D01*
X154082524Y-109811500D01*
X156412166Y-109811500D01*
X156479205Y-109831185D01*
X156524960Y-109883989D01*
X156536166Y-109935500D01*
X156536166Y-123231500D01*
X156516481Y-123298539D01*
X156463677Y-123344294D01*
X156412166Y-123355500D01*
X153177357Y-123355500D01*
X153086991Y-123379713D01*
X153086990Y-123379712D01*
X153062782Y-123386199D01*
X153062779Y-123386200D01*
X152960052Y-123445511D01*
X152960049Y-123445513D01*
X152480244Y-123925317D01*
X152418921Y-123958802D01*
X152408750Y-123960575D01*
X152329904Y-123970956D01*
X152183826Y-124031463D01*
X152058384Y-124127718D01*
X151962129Y-124253160D01*
X151901622Y-124399237D01*
X151901621Y-124399239D01*
X151880984Y-124555998D01*
X151880984Y-124556001D01*
X151901621Y-124712760D01*
X151901622Y-124712761D01*
X151901622Y-124712762D01*
X151962130Y-124858841D01*
X152058384Y-124984282D01*
X152183825Y-125080536D01*
X152329904Y-125141044D01*
X152408285Y-125151363D01*
X152486665Y-125161682D01*
X152486666Y-125161682D01*
X152486667Y-125161682D01*
X152538920Y-125154802D01*
X152643428Y-125141044D01*
X152789507Y-125080536D01*
X152914948Y-124984282D01*
X153011202Y-124858841D01*
X153071710Y-124712762D01*
X153082090Y-124633914D01*
X153110354Y-124570020D01*
X153117334Y-124562433D01*
X153173262Y-124506505D01*
X153234583Y-124473022D01*
X153304275Y-124478006D01*
X153360208Y-124519878D01*
X153383880Y-124578002D01*
X153392180Y-124641043D01*
X153401622Y-124712762D01*
X153462130Y-124858841D01*
X153558384Y-124984282D01*
X153683825Y-125080536D01*
X153829904Y-125141044D01*
X153908285Y-125151363D01*
X153986665Y-125161682D01*
X153986666Y-125161682D01*
X153986667Y-125161682D01*
X154038920Y-125154802D01*
X154143428Y-125141044D01*
X154289507Y-125080536D01*
X154411181Y-124987171D01*
X154476349Y-124961979D01*
X154544793Y-124976017D01*
X154562144Y-124987167D01*
X154683825Y-125080536D01*
X154829904Y-125141044D01*
X154908285Y-125151363D01*
X154986665Y-125161682D01*
X154986666Y-125161682D01*
X154986667Y-125161682D01*
X155038920Y-125154802D01*
X155143428Y-125141044D01*
X155289507Y-125080536D01*
X155414948Y-124984282D01*
X155511202Y-124858841D01*
X155571710Y-124712762D01*
X155592348Y-124556000D01*
X155587592Y-124519878D01*
X155571374Y-124396685D01*
X155582140Y-124327650D01*
X155628520Y-124275394D01*
X155694313Y-124256500D01*
X156927357Y-124256500D01*
X157098701Y-124256500D01*
X157165740Y-124276185D01*
X157186382Y-124292819D01*
X157405983Y-124512420D01*
X157439468Y-124573743D01*
X157441241Y-124583915D01*
X157451621Y-124662761D01*
X157506416Y-124795047D01*
X157512130Y-124808841D01*
X157608384Y-124934282D01*
X157733825Y-125030536D01*
X157879904Y-125091044D01*
X157958749Y-125101424D01*
X158022644Y-125129689D01*
X158030244Y-125136681D01*
X158310052Y-125416489D01*
X158310053Y-125416490D01*
X158310055Y-125416491D01*
X158369359Y-125450729D01*
X158369362Y-125450732D01*
X158403603Y-125470500D01*
X158412780Y-125475799D01*
X158527357Y-125506500D01*
X171412166Y-125506500D01*
X171479205Y-125526185D01*
X171524960Y-125578989D01*
X171536166Y-125630500D01*
X171536166Y-130729742D01*
X171516481Y-130796781D01*
X171512739Y-130802103D01*
X171512131Y-130803156D01*
X171451622Y-130949237D01*
X171451621Y-130949239D01*
X171430984Y-131105998D01*
X171430984Y-131106001D01*
X171451621Y-131262760D01*
X171451622Y-131262762D01*
X171512130Y-131408841D01*
X171608384Y-131534282D01*
X171733825Y-131630536D01*
X171879904Y-131691044D01*
X171958285Y-131701363D01*
X172036665Y-131711682D01*
X172036666Y-131711682D01*
X172036667Y-131711682D01*
X172088920Y-131704802D01*
X172193428Y-131691044D01*
X172339507Y-131630536D01*
X172464948Y-131534282D01*
X172561202Y-131408841D01*
X172621710Y-131262762D01*
X172642050Y-131108264D01*
X172642348Y-131106001D01*
X172642348Y-131105998D01*
X172641031Y-131095998D01*
X173370984Y-131095998D01*
X173370984Y-131096001D01*
X173391621Y-131252760D01*
X173391622Y-131252762D01*
X173452130Y-131398841D01*
X173548384Y-131524282D01*
X173673825Y-131620536D01*
X173819904Y-131681044D01*
X173874738Y-131688263D01*
X173976665Y-131701682D01*
X173976666Y-131701682D01*
X173976667Y-131701682D01*
X174057470Y-131691044D01*
X174133428Y-131681044D01*
X174279507Y-131620536D01*
X174404948Y-131524282D01*
X174501202Y-131398841D01*
X174561710Y-131252762D01*
X174576418Y-131141043D01*
X174582348Y-131096001D01*
X174582348Y-131095998D01*
X174563027Y-130949239D01*
X174561710Y-130939238D01*
X174501202Y-130793159D01*
X174404948Y-130667718D01*
X174279507Y-130571464D01*
X174133428Y-130510956D01*
X174133426Y-130510955D01*
X173976667Y-130490318D01*
X173976665Y-130490318D01*
X173819905Y-130510955D01*
X173819903Y-130510956D01*
X173673826Y-130571463D01*
X173548384Y-130667718D01*
X173452129Y-130793160D01*
X173391622Y-130939237D01*
X173391621Y-130939239D01*
X173370984Y-131095998D01*
X172641031Y-131095998D01*
X172626323Y-130984281D01*
X172621710Y-130949238D01*
X172561202Y-130803159D01*
X172561201Y-130803158D01*
X172561201Y-130803157D01*
X172462790Y-130674905D01*
X172437596Y-130609736D01*
X172437166Y-130599419D01*
X172437166Y-127055998D01*
X175380984Y-127055998D01*
X175380984Y-127056001D01*
X175401621Y-127212760D01*
X175401622Y-127212762D01*
X175462130Y-127358841D01*
X175558384Y-127484282D01*
X175683825Y-127580536D01*
X175829904Y-127641044D01*
X175908285Y-127651363D01*
X175986665Y-127661682D01*
X175986666Y-127661682D01*
X175986667Y-127661682D01*
X176038920Y-127654802D01*
X176143428Y-127641044D01*
X176289507Y-127580536D01*
X176414948Y-127484282D01*
X176511202Y-127358841D01*
X176571710Y-127212762D01*
X176592348Y-127056000D01*
X176592348Y-127055998D01*
X202380984Y-127055998D01*
X202380984Y-127056001D01*
X202401621Y-127212760D01*
X202401622Y-127212762D01*
X202462130Y-127358842D01*
X202555492Y-127480514D01*
X202580686Y-127545683D01*
X202566647Y-127614128D01*
X202555492Y-127631486D01*
X202462130Y-127753157D01*
X202401622Y-127899237D01*
X202401621Y-127899239D01*
X202380984Y-128055998D01*
X202380984Y-128056001D01*
X202401621Y-128212760D01*
X202401622Y-128212762D01*
X202462130Y-128358842D01*
X202555492Y-128480514D01*
X202580686Y-128545683D01*
X202566647Y-128614128D01*
X202555492Y-128631486D01*
X202462130Y-128753157D01*
X202401622Y-128899237D01*
X202401621Y-128899239D01*
X202380984Y-129055998D01*
X202380984Y-129056001D01*
X202401621Y-129212760D01*
X202401622Y-129212762D01*
X202462130Y-129358842D01*
X202555492Y-129480514D01*
X202580686Y-129545683D01*
X202566647Y-129614128D01*
X202555492Y-129631486D01*
X202462130Y-129753157D01*
X202401622Y-129899237D01*
X202401621Y-129899239D01*
X202380984Y-130055998D01*
X202380984Y-130056001D01*
X202401621Y-130212760D01*
X202401622Y-130212762D01*
X202454565Y-130340579D01*
X202462130Y-130358841D01*
X202558384Y-130484282D01*
X202683825Y-130580536D01*
X202829904Y-130641044D01*
X202908285Y-130651363D01*
X202986665Y-130661682D01*
X202986666Y-130661682D01*
X202986667Y-130661682D01*
X203038920Y-130654802D01*
X203143428Y-130641044D01*
X203289507Y-130580536D01*
X203411181Y-130487171D01*
X203476349Y-130461979D01*
X203544793Y-130476017D01*
X203562144Y-130487167D01*
X203683825Y-130580536D01*
X203829904Y-130641044D01*
X203908285Y-130651363D01*
X203986665Y-130661682D01*
X203986666Y-130661682D01*
X203986667Y-130661682D01*
X204038920Y-130654802D01*
X204143428Y-130641044D01*
X204289507Y-130580536D01*
X204411181Y-130487171D01*
X204476349Y-130461979D01*
X204544793Y-130476017D01*
X204562144Y-130487167D01*
X204683825Y-130580536D01*
X204829904Y-130641044D01*
X204908285Y-130651363D01*
X204986665Y-130661682D01*
X204986666Y-130661682D01*
X204986667Y-130661682D01*
X205038920Y-130654802D01*
X205143428Y-130641044D01*
X205289507Y-130580536D01*
X205411181Y-130487171D01*
X205476349Y-130461979D01*
X205544793Y-130476017D01*
X205562144Y-130487167D01*
X205683825Y-130580536D01*
X205829904Y-130641044D01*
X205908285Y-130651363D01*
X205986665Y-130661682D01*
X205986666Y-130661682D01*
X205986667Y-130661682D01*
X206038920Y-130654802D01*
X206143428Y-130641044D01*
X206289507Y-130580536D01*
X206411181Y-130487171D01*
X206476349Y-130461979D01*
X206544793Y-130476017D01*
X206562144Y-130487167D01*
X206683825Y-130580536D01*
X206829904Y-130641044D01*
X206908285Y-130651363D01*
X206986665Y-130661682D01*
X206986666Y-130661682D01*
X206986667Y-130661682D01*
X207038920Y-130654802D01*
X207143428Y-130641044D01*
X207289507Y-130580536D01*
X207414948Y-130484282D01*
X207511202Y-130358841D01*
X207571710Y-130212762D01*
X207592348Y-130056000D01*
X207584351Y-129995260D01*
X207571710Y-129899239D01*
X207571710Y-129899238D01*
X207511202Y-129753159D01*
X207417837Y-129631484D01*
X207392645Y-129566317D01*
X207406683Y-129497873D01*
X207417833Y-129480521D01*
X207511202Y-129358841D01*
X207571710Y-129212762D01*
X207592348Y-129056000D01*
X207571710Y-128899238D01*
X207511202Y-128753159D01*
X207417837Y-128631484D01*
X207392645Y-128566317D01*
X207406683Y-128497873D01*
X207417833Y-128480521D01*
X207511202Y-128358841D01*
X207571710Y-128212762D01*
X207588319Y-128086601D01*
X207592348Y-128056001D01*
X207592348Y-128055998D01*
X207571710Y-127899239D01*
X207571710Y-127899238D01*
X207511202Y-127753159D01*
X207417837Y-127631484D01*
X207392645Y-127566317D01*
X207406683Y-127497873D01*
X207417833Y-127480521D01*
X207511202Y-127358841D01*
X207571710Y-127212762D01*
X207592348Y-127056000D01*
X207571710Y-126899238D01*
X207511202Y-126753159D01*
X207414948Y-126627718D01*
X207289507Y-126531464D01*
X207143428Y-126470956D01*
X207143426Y-126470955D01*
X206986667Y-126450318D01*
X206986665Y-126450318D01*
X206829905Y-126470955D01*
X206829903Y-126470956D01*
X206683823Y-126531464D01*
X206562152Y-126624826D01*
X206496983Y-126650020D01*
X206428538Y-126635981D01*
X206411180Y-126624826D01*
X206289508Y-126531464D01*
X206143428Y-126470956D01*
X206143426Y-126470955D01*
X205986667Y-126450318D01*
X205986665Y-126450318D01*
X205829905Y-126470955D01*
X205829903Y-126470956D01*
X205683823Y-126531464D01*
X205562152Y-126624826D01*
X205496983Y-126650020D01*
X205428538Y-126635981D01*
X205411180Y-126624826D01*
X205289508Y-126531464D01*
X205143428Y-126470956D01*
X205143426Y-126470955D01*
X204986667Y-126450318D01*
X204986665Y-126450318D01*
X204829905Y-126470955D01*
X204829903Y-126470956D01*
X204683823Y-126531464D01*
X204562152Y-126624826D01*
X204496983Y-126650020D01*
X204428538Y-126635981D01*
X204411180Y-126624826D01*
X204289508Y-126531464D01*
X204143428Y-126470956D01*
X204143426Y-126470955D01*
X203986667Y-126450318D01*
X203986665Y-126450318D01*
X203829905Y-126470955D01*
X203829903Y-126470956D01*
X203683823Y-126531464D01*
X203562152Y-126624826D01*
X203496983Y-126650020D01*
X203428538Y-126635981D01*
X203411180Y-126624826D01*
X203289508Y-126531464D01*
X203143428Y-126470956D01*
X203143426Y-126470955D01*
X202986667Y-126450318D01*
X202986665Y-126450318D01*
X202829905Y-126470955D01*
X202829903Y-126470956D01*
X202683826Y-126531463D01*
X202558384Y-126627718D01*
X202462129Y-126753160D01*
X202401622Y-126899237D01*
X202401621Y-126899239D01*
X202380984Y-127055998D01*
X176592348Y-127055998D01*
X176571710Y-126899238D01*
X176511202Y-126753159D01*
X176414948Y-126627718D01*
X176289507Y-126531464D01*
X176143428Y-126470956D01*
X176143426Y-126470955D01*
X175986667Y-126450318D01*
X175986665Y-126450318D01*
X175829905Y-126470955D01*
X175829903Y-126470956D01*
X175683826Y-126531463D01*
X175558384Y-126627718D01*
X175462129Y-126753160D01*
X175401622Y-126899237D01*
X175401621Y-126899239D01*
X175380984Y-127055998D01*
X172437166Y-127055998D01*
X172437166Y-125055998D01*
X177880984Y-125055998D01*
X177880984Y-125056001D01*
X177901621Y-125212760D01*
X177901622Y-125212762D01*
X177962130Y-125358841D01*
X178058384Y-125484282D01*
X178183825Y-125580536D01*
X178329904Y-125641044D01*
X178408285Y-125651363D01*
X178486665Y-125661682D01*
X178486666Y-125661682D01*
X178486667Y-125661682D01*
X178538920Y-125654802D01*
X178643428Y-125641044D01*
X178789507Y-125580536D01*
X178914948Y-125484282D01*
X179011202Y-125358841D01*
X179071710Y-125212762D01*
X179092348Y-125056000D01*
X179092348Y-125055998D01*
X182880984Y-125055998D01*
X182880984Y-125056001D01*
X182901621Y-125212760D01*
X182901622Y-125212762D01*
X182962130Y-125358841D01*
X183058384Y-125484282D01*
X183183825Y-125580536D01*
X183329904Y-125641044D01*
X183408285Y-125651363D01*
X183486665Y-125661682D01*
X183486666Y-125661682D01*
X183486667Y-125661682D01*
X183538920Y-125654802D01*
X183643428Y-125641044D01*
X183789507Y-125580536D01*
X183914948Y-125484282D01*
X184011202Y-125358841D01*
X184071710Y-125212762D01*
X184092348Y-125056000D01*
X184092348Y-125055998D01*
X194380984Y-125055998D01*
X194380984Y-125056001D01*
X194401621Y-125212760D01*
X194401622Y-125212762D01*
X194462130Y-125358841D01*
X194558384Y-125484282D01*
X194683825Y-125580536D01*
X194829904Y-125641044D01*
X194908285Y-125651363D01*
X194986665Y-125661682D01*
X194986666Y-125661682D01*
X194986667Y-125661682D01*
X195038920Y-125654802D01*
X195143428Y-125641044D01*
X195289507Y-125580536D01*
X195414948Y-125484282D01*
X195511202Y-125358841D01*
X195571710Y-125212762D01*
X195592348Y-125056000D01*
X195571710Y-124899238D01*
X195511202Y-124753159D01*
X195414948Y-124627718D01*
X195289507Y-124531464D01*
X195143428Y-124470956D01*
X195143426Y-124470955D01*
X194986667Y-124450318D01*
X194986665Y-124450318D01*
X194829905Y-124470955D01*
X194829903Y-124470956D01*
X194683826Y-124531463D01*
X194558384Y-124627718D01*
X194462129Y-124753160D01*
X194401622Y-124899237D01*
X194401621Y-124899239D01*
X194380984Y-125055998D01*
X184092348Y-125055998D01*
X184071710Y-124899238D01*
X184011202Y-124753159D01*
X183914948Y-124627718D01*
X183789507Y-124531464D01*
X183643428Y-124470956D01*
X183643426Y-124470955D01*
X183486667Y-124450318D01*
X183486665Y-124450318D01*
X183329905Y-124470955D01*
X183329903Y-124470956D01*
X183183826Y-124531463D01*
X183058384Y-124627718D01*
X182962129Y-124753160D01*
X182901622Y-124899237D01*
X182901621Y-124899239D01*
X182880984Y-125055998D01*
X179092348Y-125055998D01*
X179071710Y-124899238D01*
X179011202Y-124753159D01*
X178914948Y-124627718D01*
X178789507Y-124531464D01*
X178643428Y-124470956D01*
X178643426Y-124470955D01*
X178486667Y-124450318D01*
X178486665Y-124450318D01*
X178329905Y-124470955D01*
X178329903Y-124470956D01*
X178183826Y-124531463D01*
X178058384Y-124627718D01*
X177962129Y-124753160D01*
X177901622Y-124899237D01*
X177901621Y-124899239D01*
X177880984Y-125055998D01*
X172437166Y-125055998D01*
X172437166Y-124996693D01*
X172437166Y-124996691D01*
X172406465Y-124882114D01*
X172347155Y-124779387D01*
X172263279Y-124695511D01*
X172160552Y-124636201D01*
X172045975Y-124605500D01*
X172045972Y-124605500D01*
X158824631Y-124605500D01*
X158757592Y-124585815D01*
X158736950Y-124569181D01*
X158667347Y-124499578D01*
X158633862Y-124438255D01*
X158632091Y-124428097D01*
X158621710Y-124349238D01*
X158561202Y-124203159D01*
X158464948Y-124077718D01*
X158339507Y-123981464D01*
X158339505Y-123981463D01*
X158193427Y-123920955D01*
X158114581Y-123910575D01*
X158050684Y-123882308D01*
X158043086Y-123875317D01*
X157613282Y-123445513D01*
X157613280Y-123445511D01*
X157510553Y-123386201D01*
X157510552Y-123386200D01*
X157503514Y-123382137D01*
X157504634Y-123380196D01*
X157459302Y-123343656D01*
X157437245Y-123277360D01*
X157437166Y-123272948D01*
X157437166Y-121181321D01*
X164386166Y-121181321D01*
X164386166Y-122930678D01*
X164400698Y-123003735D01*
X164400699Y-123003739D01*
X164400700Y-123003740D01*
X164456065Y-123086601D01*
X164517602Y-123127718D01*
X164538926Y-123141966D01*
X164538930Y-123141967D01*
X164611987Y-123156499D01*
X164611990Y-123156500D01*
X164611992Y-123156500D01*
X166361342Y-123156500D01*
X166361343Y-123156499D01*
X166434406Y-123141966D01*
X166517267Y-123086601D01*
X166572632Y-123003740D01*
X166587166Y-122930674D01*
X166587166Y-121181326D01*
X166587166Y-121181323D01*
X166587165Y-121181321D01*
X166572633Y-121108264D01*
X166572632Y-121108260D01*
X166537714Y-121056001D01*
X166517267Y-121025399D01*
X166434406Y-120970034D01*
X166434405Y-120970033D01*
X166434401Y-120970032D01*
X166361343Y-120955500D01*
X166361340Y-120955500D01*
X164611992Y-120955500D01*
X164611989Y-120955500D01*
X164538930Y-120970032D01*
X164538926Y-120970033D01*
X164456065Y-121025399D01*
X164400699Y-121108260D01*
X164400698Y-121108264D01*
X164386166Y-121181321D01*
X157437166Y-121181321D01*
X157437166Y-113055998D01*
X160880984Y-113055998D01*
X160880984Y-113056001D01*
X160901621Y-113212760D01*
X160901622Y-113212762D01*
X160962130Y-113358842D01*
X161055492Y-113480514D01*
X161080686Y-113545683D01*
X161066647Y-113614128D01*
X161055492Y-113631486D01*
X160962130Y-113753157D01*
X160901622Y-113899237D01*
X160901621Y-113899239D01*
X160880984Y-114055998D01*
X160880984Y-114056001D01*
X160901621Y-114212760D01*
X160901622Y-114212762D01*
X160962130Y-114358842D01*
X161055492Y-114480514D01*
X161080686Y-114545683D01*
X161066647Y-114614128D01*
X161055492Y-114631486D01*
X160962130Y-114753157D01*
X160901622Y-114899237D01*
X160901621Y-114899239D01*
X160880984Y-115055998D01*
X160880984Y-115056001D01*
X160901621Y-115212760D01*
X160901622Y-115212762D01*
X160962130Y-115358842D01*
X161055492Y-115480514D01*
X161080686Y-115545683D01*
X161066647Y-115614128D01*
X161055492Y-115631486D01*
X160962130Y-115753157D01*
X160901622Y-115899237D01*
X160901621Y-115899239D01*
X160880984Y-116055998D01*
X160880984Y-116056001D01*
X160901621Y-116212760D01*
X160901622Y-116212762D01*
X160962130Y-116358842D01*
X161055492Y-116480514D01*
X161080686Y-116545683D01*
X161066647Y-116614128D01*
X161055492Y-116631486D01*
X160962130Y-116753157D01*
X160901622Y-116899237D01*
X160901621Y-116899239D01*
X160880984Y-117055998D01*
X160880984Y-117056001D01*
X160901621Y-117212760D01*
X160901622Y-117212762D01*
X160957853Y-117348517D01*
X160962130Y-117358841D01*
X161058384Y-117484282D01*
X161183825Y-117580536D01*
X161329904Y-117641044D01*
X161408285Y-117651363D01*
X161486665Y-117661682D01*
X161486666Y-117661682D01*
X161486667Y-117661682D01*
X161538920Y-117654802D01*
X161643428Y-117641044D01*
X161789507Y-117580536D01*
X161911181Y-117487171D01*
X161976349Y-117461979D01*
X162044793Y-117476017D01*
X162062144Y-117487167D01*
X162183825Y-117580536D01*
X162329904Y-117641044D01*
X162408285Y-117651363D01*
X162486665Y-117661682D01*
X162486666Y-117661682D01*
X162486667Y-117661682D01*
X162538920Y-117654802D01*
X162643428Y-117641044D01*
X162789507Y-117580536D01*
X162911181Y-117487171D01*
X162976349Y-117461979D01*
X163044793Y-117476017D01*
X163062144Y-117487167D01*
X163183825Y-117580536D01*
X163329904Y-117641044D01*
X163408285Y-117651363D01*
X163486665Y-117661682D01*
X163486666Y-117661682D01*
X163486667Y-117661682D01*
X163538920Y-117654802D01*
X163643428Y-117641044D01*
X163789507Y-117580536D01*
X163911181Y-117487171D01*
X163976349Y-117461979D01*
X164044793Y-117476017D01*
X164062144Y-117487167D01*
X164183825Y-117580536D01*
X164329904Y-117641044D01*
X164408285Y-117651363D01*
X164486665Y-117661682D01*
X164486666Y-117661682D01*
X164486667Y-117661682D01*
X164538920Y-117654802D01*
X164643428Y-117641044D01*
X164789507Y-117580536D01*
X164911181Y-117487171D01*
X164976349Y-117461979D01*
X165044793Y-117476017D01*
X165062144Y-117487167D01*
X165183825Y-117580536D01*
X165329904Y-117641044D01*
X165408285Y-117651363D01*
X165486665Y-117661682D01*
X165486666Y-117661682D01*
X165486667Y-117661682D01*
X165538920Y-117654802D01*
X165643428Y-117641044D01*
X165789507Y-117580536D01*
X165911181Y-117487171D01*
X165976349Y-117461979D01*
X166044793Y-117476017D01*
X166062144Y-117487167D01*
X166183825Y-117580536D01*
X166329904Y-117641044D01*
X166408285Y-117651363D01*
X166486665Y-117661682D01*
X166486666Y-117661682D01*
X166486667Y-117661682D01*
X166538920Y-117654802D01*
X166643428Y-117641044D01*
X166789507Y-117580536D01*
X166914948Y-117484282D01*
X167011202Y-117358841D01*
X167071710Y-117212762D01*
X167088319Y-117086601D01*
X167092348Y-117056001D01*
X167092348Y-117055998D01*
X167071710Y-116899239D01*
X167071710Y-116899238D01*
X167011202Y-116753159D01*
X166917837Y-116631484D01*
X166892645Y-116566317D01*
X166906683Y-116497873D01*
X166917833Y-116480521D01*
X167011202Y-116358841D01*
X167071710Y-116212762D01*
X167092348Y-116056000D01*
X167092348Y-116055998D01*
X171880984Y-116055998D01*
X171880984Y-116056001D01*
X171901621Y-116212760D01*
X171901622Y-116212762D01*
X171962130Y-116358841D01*
X172058384Y-116484282D01*
X172183825Y-116580536D01*
X172329904Y-116641044D01*
X172408285Y-116651363D01*
X172486665Y-116661682D01*
X172486666Y-116661682D01*
X172486667Y-116661682D01*
X172538920Y-116654802D01*
X172643428Y-116641044D01*
X172789507Y-116580536D01*
X172914948Y-116484282D01*
X173011202Y-116358841D01*
X173071710Y-116212762D01*
X173092348Y-116056000D01*
X173071710Y-115899238D01*
X173011202Y-115753159D01*
X172914948Y-115627718D01*
X172789507Y-115531464D01*
X172643428Y-115470956D01*
X172643426Y-115470955D01*
X172486667Y-115450318D01*
X172486665Y-115450318D01*
X172329905Y-115470955D01*
X172329903Y-115470956D01*
X172183826Y-115531463D01*
X172058384Y-115627718D01*
X171962129Y-115753160D01*
X171901622Y-115899237D01*
X171901621Y-115899239D01*
X171880984Y-116055998D01*
X167092348Y-116055998D01*
X167071710Y-115899238D01*
X167011202Y-115753159D01*
X166917837Y-115631484D01*
X166892645Y-115566317D01*
X166906683Y-115497873D01*
X166917833Y-115480521D01*
X167011202Y-115358841D01*
X167071710Y-115212762D01*
X167075849Y-115181321D01*
X178386166Y-115181321D01*
X178386166Y-116930678D01*
X178400698Y-117003735D01*
X178400699Y-117003739D01*
X178419071Y-117031235D01*
X178456065Y-117086601D01*
X178538926Y-117141966D01*
X178538930Y-117141967D01*
X178611987Y-117156499D01*
X178611990Y-117156500D01*
X178611992Y-117156500D01*
X180361342Y-117156500D01*
X180361343Y-117156499D01*
X180434406Y-117141966D01*
X180517267Y-117086601D01*
X180572632Y-117003740D01*
X180587166Y-116930674D01*
X180587166Y-115181326D01*
X180587166Y-115181323D01*
X180587165Y-115181321D01*
X180572633Y-115108264D01*
X180572632Y-115108260D01*
X180558159Y-115086600D01*
X180517267Y-115025399D01*
X180434406Y-114970034D01*
X180434405Y-114970033D01*
X180434401Y-114970032D01*
X180361343Y-114955500D01*
X180361340Y-114955500D01*
X178611992Y-114955500D01*
X178611989Y-114955500D01*
X178538930Y-114970032D01*
X178538926Y-114970033D01*
X178456065Y-115025399D01*
X178400699Y-115108260D01*
X178400698Y-115108264D01*
X178386166Y-115181321D01*
X167075849Y-115181321D01*
X167088319Y-115086601D01*
X167092348Y-115056001D01*
X167092348Y-115055998D01*
X167071710Y-114899239D01*
X167071710Y-114899238D01*
X167011202Y-114753159D01*
X166917837Y-114631484D01*
X166892645Y-114566317D01*
X166906683Y-114497873D01*
X166917833Y-114480521D01*
X167011202Y-114358841D01*
X167071710Y-114212762D01*
X167092348Y-114056000D01*
X167071710Y-113899238D01*
X167011202Y-113753159D01*
X166917837Y-113631484D01*
X166892645Y-113566317D01*
X166906683Y-113497873D01*
X166917833Y-113480521D01*
X167011202Y-113358841D01*
X167071710Y-113212762D01*
X167092348Y-113056000D01*
X167088319Y-113025399D01*
X167071710Y-112899239D01*
X167071710Y-112899238D01*
X167011202Y-112753159D01*
X166914948Y-112627718D01*
X166789507Y-112531464D01*
X166643428Y-112470956D01*
X166643426Y-112470955D01*
X166486667Y-112450318D01*
X166486665Y-112450318D01*
X166329905Y-112470955D01*
X166329903Y-112470956D01*
X166183823Y-112531464D01*
X166062152Y-112624826D01*
X165996983Y-112650020D01*
X165928538Y-112635981D01*
X165911180Y-112624826D01*
X165789508Y-112531464D01*
X165643428Y-112470956D01*
X165643426Y-112470955D01*
X165486667Y-112450318D01*
X165486665Y-112450318D01*
X165329905Y-112470955D01*
X165329903Y-112470956D01*
X165183823Y-112531464D01*
X165062152Y-112624826D01*
X164996983Y-112650020D01*
X164928538Y-112635981D01*
X164911180Y-112624826D01*
X164789508Y-112531464D01*
X164643428Y-112470956D01*
X164643426Y-112470955D01*
X164486667Y-112450318D01*
X164486665Y-112450318D01*
X164329905Y-112470955D01*
X164329903Y-112470956D01*
X164183823Y-112531464D01*
X164062152Y-112624826D01*
X163996983Y-112650020D01*
X163928538Y-112635981D01*
X163911180Y-112624826D01*
X163789508Y-112531464D01*
X163643428Y-112470956D01*
X163643426Y-112470955D01*
X163486667Y-112450318D01*
X163486665Y-112450318D01*
X163329905Y-112470955D01*
X163329903Y-112470956D01*
X163183823Y-112531464D01*
X163062152Y-112624826D01*
X162996983Y-112650020D01*
X162928538Y-112635981D01*
X162911180Y-112624826D01*
X162789508Y-112531464D01*
X162643428Y-112470956D01*
X162643426Y-112470955D01*
X162486667Y-112450318D01*
X162486665Y-112450318D01*
X162329905Y-112470955D01*
X162329903Y-112470956D01*
X162183823Y-112531464D01*
X162062152Y-112624826D01*
X161996983Y-112650020D01*
X161928538Y-112635981D01*
X161911180Y-112624826D01*
X161789508Y-112531464D01*
X161643428Y-112470956D01*
X161643426Y-112470955D01*
X161486667Y-112450318D01*
X161486665Y-112450318D01*
X161329905Y-112470955D01*
X161329903Y-112470956D01*
X161183826Y-112531463D01*
X161058384Y-112627718D01*
X160962129Y-112753160D01*
X160901622Y-112899237D01*
X160901621Y-112899239D01*
X160880984Y-113055998D01*
X157437166Y-113055998D01*
X157437166Y-109935500D01*
X157456851Y-109868461D01*
X157509655Y-109822706D01*
X157561166Y-109811500D01*
X168105195Y-109811500D01*
X168172234Y-109831185D01*
X168217989Y-109883989D01*
X168227933Y-109953147D01*
X168198908Y-110016703D01*
X168180683Y-110033874D01*
X168133635Y-110069976D01*
X168058384Y-110127718D01*
X167962129Y-110253160D01*
X167901622Y-110399237D01*
X167901621Y-110399239D01*
X167880984Y-110555998D01*
X167880984Y-110556001D01*
X167901621Y-110712760D01*
X167901623Y-110712765D01*
X167937488Y-110799352D01*
X167944957Y-110868821D01*
X167913681Y-110931300D01*
X167853592Y-110966952D01*
X167839118Y-110969742D01*
X167829910Y-110970954D01*
X167829903Y-110970956D01*
X167683826Y-111031463D01*
X167558384Y-111127718D01*
X167462129Y-111253160D01*
X167401622Y-111399237D01*
X167401621Y-111399239D01*
X167380984Y-111555998D01*
X167380984Y-111556001D01*
X167401621Y-111712760D01*
X167401622Y-111712762D01*
X167462130Y-111858842D01*
X167555492Y-111980514D01*
X167580686Y-112045683D01*
X167566647Y-112114128D01*
X167555492Y-112131486D01*
X167462130Y-112253157D01*
X167401622Y-112399237D01*
X167401621Y-112399239D01*
X167380984Y-112555998D01*
X167380984Y-112556001D01*
X167401621Y-112712760D01*
X167401622Y-112712762D01*
X167462130Y-112858842D01*
X167555492Y-112980514D01*
X167580686Y-113045683D01*
X167566647Y-113114128D01*
X167555492Y-113131486D01*
X167462130Y-113253157D01*
X167401622Y-113399237D01*
X167401621Y-113399239D01*
X167380984Y-113555998D01*
X167380984Y-113556001D01*
X167401621Y-113712760D01*
X167401622Y-113712762D01*
X167462130Y-113858841D01*
X167558384Y-113984282D01*
X167683825Y-114080536D01*
X167829904Y-114141044D01*
X167908285Y-114151363D01*
X167986665Y-114161682D01*
X167986666Y-114161682D01*
X167986667Y-114161682D01*
X168038920Y-114154802D01*
X168143428Y-114141044D01*
X168289507Y-114080536D01*
X168411181Y-113987171D01*
X168476349Y-113961979D01*
X168544793Y-113976017D01*
X168562144Y-113987167D01*
X168683825Y-114080536D01*
X168829904Y-114141044D01*
X168908285Y-114151363D01*
X168986665Y-114161682D01*
X168986666Y-114161682D01*
X168986667Y-114161682D01*
X169038920Y-114154802D01*
X169143428Y-114141044D01*
X169289507Y-114080536D01*
X169289511Y-114080532D01*
X169296547Y-114076472D01*
X169298142Y-114079235D01*
X169349291Y-114059434D01*
X169417743Y-114073440D01*
X169467755Y-114122231D01*
X169483450Y-114190315D01*
X169463894Y-114244791D01*
X169466194Y-114246119D01*
X169462131Y-114253156D01*
X169401622Y-114399237D01*
X169401621Y-114399239D01*
X169380984Y-114555998D01*
X169380984Y-114556001D01*
X169401621Y-114712760D01*
X169401622Y-114712762D01*
X169445476Y-114818636D01*
X169462130Y-114858841D01*
X169558384Y-114984282D01*
X169683825Y-115080536D01*
X169829904Y-115141044D01*
X169908285Y-115151363D01*
X169986665Y-115161682D01*
X169986666Y-115161682D01*
X169986667Y-115161682D01*
X170038920Y-115154802D01*
X170143428Y-115141044D01*
X170289507Y-115080536D01*
X170414948Y-114984282D01*
X170511202Y-114858841D01*
X170571710Y-114712762D01*
X170592348Y-114556000D01*
X170587273Y-114517455D01*
X170571710Y-114399239D01*
X170571710Y-114399238D01*
X170511202Y-114253159D01*
X170511200Y-114253156D01*
X170507138Y-114246119D01*
X170509894Y-114244527D01*
X170490095Y-114193320D01*
X170504131Y-114124875D01*
X170552944Y-114074884D01*
X170621035Y-114059218D01*
X170675453Y-114078778D01*
X170676785Y-114076472D01*
X170683823Y-114080534D01*
X170683825Y-114080536D01*
X170829904Y-114141044D01*
X170908285Y-114151363D01*
X170986665Y-114161682D01*
X170986666Y-114161682D01*
X170986667Y-114161682D01*
X171038920Y-114154802D01*
X171143428Y-114141044D01*
X171289507Y-114080536D01*
X171411181Y-113987171D01*
X171476349Y-113961979D01*
X171544793Y-113976017D01*
X171562144Y-113987167D01*
X171683825Y-114080536D01*
X171829904Y-114141044D01*
X171908285Y-114151363D01*
X171986665Y-114161682D01*
X171986666Y-114161682D01*
X171986667Y-114161682D01*
X172038920Y-114154802D01*
X172143428Y-114141044D01*
X172289507Y-114080536D01*
X172414948Y-113984282D01*
X172511202Y-113858841D01*
X172571710Y-113712762D01*
X172592348Y-113556000D01*
X172584695Y-113497873D01*
X172571710Y-113399239D01*
X172571710Y-113399238D01*
X172511202Y-113253159D01*
X172417837Y-113131484D01*
X172392645Y-113066317D01*
X172406683Y-112997873D01*
X172417833Y-112980521D01*
X172511202Y-112858841D01*
X172571710Y-112712762D01*
X172592348Y-112556000D01*
X172571710Y-112399238D01*
X172511202Y-112253159D01*
X172417837Y-112131484D01*
X172392645Y-112066317D01*
X172406683Y-111997873D01*
X172417833Y-111980521D01*
X172511202Y-111858841D01*
X172571710Y-111712762D01*
X172592348Y-111556000D01*
X172571710Y-111399238D01*
X172511202Y-111253159D01*
X172414948Y-111127718D01*
X172289507Y-111031464D01*
X172143428Y-110970956D01*
X172143422Y-110970954D01*
X172134213Y-110969742D01*
X172070318Y-110941473D01*
X172031849Y-110883147D01*
X172031021Y-110813282D01*
X172035843Y-110799352D01*
X172071710Y-110712762D01*
X172092348Y-110556000D01*
X172080643Y-110467095D01*
X172071710Y-110399239D01*
X172071710Y-110399238D01*
X172011202Y-110253159D01*
X171914948Y-110127718D01*
X171792649Y-110033875D01*
X171751448Y-109977448D01*
X171747293Y-109907702D01*
X171781506Y-109846781D01*
X171843223Y-109814029D01*
X171868137Y-109811500D01*
X177521720Y-109811500D01*
X177535300Y-109810013D01*
X177576978Y-109805453D01*
X177629347Y-109793852D01*
X177656618Y-109786202D01*
X177742870Y-109736213D01*
X177795324Y-109690057D01*
X177826700Y-109657040D01*
X177872233Y-109568355D01*
X177891406Y-109501167D01*
X177901207Y-109429108D01*
X177898810Y-109114532D01*
X177817415Y-98431445D01*
X177836588Y-98364257D01*
X177889042Y-98318101D01*
X177941411Y-98306500D01*
X181641134Y-98306500D01*
X181641135Y-98306499D01*
X181798022Y-98288822D01*
X181948103Y-98271913D01*
X181948108Y-98271912D01*
X181948118Y-98271911D01*
X182249302Y-98203168D01*
X182465311Y-98127583D01*
X182517018Y-98109489D01*
X182540894Y-98101136D01*
X182540894Y-98101135D01*
X182540896Y-98101135D01*
X182819231Y-97967096D01*
X183080809Y-97802735D01*
X183097141Y-97789711D01*
X186246166Y-97789711D01*
X186246166Y-98032288D01*
X186277827Y-98272785D01*
X186340613Y-98507104D01*
X186403459Y-98658826D01*
X186433442Y-98731212D01*
X186554730Y-98941289D01*
X186554732Y-98941292D01*
X186554733Y-98941293D01*
X186702399Y-99133736D01*
X186702405Y-99133743D01*
X186873922Y-99305260D01*
X186873928Y-99305265D01*
X187066377Y-99452936D01*
X187276454Y-99574224D01*
X187500566Y-99667054D01*
X187734877Y-99729838D01*
X187915252Y-99753584D01*
X187975377Y-99761500D01*
X187975378Y-99761500D01*
X188217955Y-99761500D01*
X188266054Y-99755167D01*
X188458455Y-99729838D01*
X188692766Y-99667054D01*
X188916878Y-99574224D01*
X189126955Y-99452936D01*
X189319404Y-99305265D01*
X189490931Y-99133738D01*
X189638602Y-98941289D01*
X189759890Y-98731212D01*
X189852720Y-98507100D01*
X189915504Y-98272789D01*
X189947166Y-98032288D01*
X189947166Y-97789712D01*
X189915504Y-97549211D01*
X189852720Y-97314900D01*
X189759890Y-97090788D01*
X189638602Y-96880711D01*
X189490931Y-96688262D01*
X189490926Y-96688256D01*
X189319409Y-96516739D01*
X189319402Y-96516733D01*
X189126959Y-96369067D01*
X189126958Y-96369066D01*
X189126955Y-96369064D01*
X188916878Y-96247776D01*
X188912557Y-96245986D01*
X188692770Y-96154947D01*
X188458451Y-96092161D01*
X188217955Y-96060500D01*
X188217954Y-96060500D01*
X187975378Y-96060500D01*
X187975377Y-96060500D01*
X187734880Y-96092161D01*
X187500561Y-96154947D01*
X187276460Y-96247773D01*
X187276451Y-96247777D01*
X187066372Y-96369067D01*
X186873929Y-96516733D01*
X186873922Y-96516739D01*
X186702405Y-96688256D01*
X186702399Y-96688263D01*
X186554733Y-96880706D01*
X186433443Y-97090785D01*
X186433439Y-97090794D01*
X186340613Y-97314895D01*
X186277827Y-97549214D01*
X186246166Y-97789711D01*
X183097141Y-97789711D01*
X183322340Y-97610120D01*
X187089641Y-93842819D01*
X187150964Y-93809334D01*
X187177322Y-93806500D01*
X203332201Y-93806500D01*
X206618949Y-93806500D01*
X206685988Y-93826185D01*
X206731743Y-93878989D01*
X206741687Y-93948147D01*
X206718216Y-94004811D01*
X206692870Y-94038668D01*
X206692868Y-94038671D01*
X206642574Y-94173517D01*
X206636167Y-94233116D01*
X206636167Y-94233123D01*
X206636166Y-94233135D01*
X206636166Y-95828870D01*
X206636167Y-95828876D01*
X206642574Y-95888483D01*
X206692868Y-96023328D01*
X206692872Y-96023335D01*
X206779118Y-96138544D01*
X206779121Y-96138547D01*
X206894330Y-96224793D01*
X206894337Y-96224797D01*
X207029183Y-96275091D01*
X207029182Y-96275091D01*
X207036110Y-96275835D01*
X207088793Y-96281500D01*
X208384538Y-96281499D01*
X208444149Y-96275091D01*
X208578997Y-96224796D01*
X208694212Y-96138546D01*
X208780462Y-96023331D01*
X208830757Y-95888483D01*
X208837166Y-95828873D01*
X208837165Y-94233128D01*
X208830757Y-94173517D01*
X208827234Y-94164072D01*
X208780463Y-94038671D01*
X208780461Y-94038668D01*
X208755116Y-94004811D01*
X208730699Y-93939346D01*
X208745551Y-93871074D01*
X208794956Y-93821668D01*
X208854383Y-93806500D01*
X209461674Y-93806500D01*
X209528713Y-93826185D01*
X209574468Y-93878989D01*
X209584412Y-93948147D01*
X209555387Y-94011703D01*
X209534559Y-94030818D01*
X209519741Y-94041583D01*
X209519735Y-94041588D01*
X209397254Y-94164069D01*
X209397254Y-94164070D01*
X209397252Y-94164072D01*
X209390391Y-94173516D01*
X209295434Y-94304211D01*
X209216794Y-94458552D01*
X209163263Y-94623302D01*
X209136166Y-94794389D01*
X209136166Y-95267611D01*
X209163264Y-95438701D01*
X209216793Y-95603445D01*
X209295434Y-95757788D01*
X209397252Y-95897928D01*
X209519738Y-96020414D01*
X209659878Y-96122232D01*
X209814221Y-96200873D01*
X209978965Y-96254402D01*
X210150055Y-96281500D01*
X210150056Y-96281500D01*
X210323276Y-96281500D01*
X210323277Y-96281500D01*
X210494367Y-96254402D01*
X210659111Y-96200873D01*
X210813454Y-96122232D01*
X210953594Y-96020414D01*
X211076080Y-95897928D01*
X211177898Y-95757788D01*
X211256539Y-95603445D01*
X211310068Y-95438701D01*
X211337166Y-95267611D01*
X211337166Y-94794389D01*
X211310068Y-94623299D01*
X211256539Y-94458555D01*
X211177898Y-94304212D01*
X211076080Y-94164072D01*
X210953594Y-94041586D01*
X210938772Y-94030817D01*
X210896107Y-93975489D01*
X210890128Y-93905875D01*
X210922733Y-93844080D01*
X210983572Y-93809723D01*
X211011658Y-93806500D01*
X212112166Y-93806500D01*
X212179205Y-93826185D01*
X212224960Y-93878989D01*
X212236166Y-93930500D01*
X212236166Y-106365344D01*
X212216481Y-106432383D01*
X212199847Y-106453025D01*
X208432545Y-110220326D01*
X208239930Y-110461858D01*
X208075566Y-110723440D01*
X207949953Y-110984282D01*
X207949953Y-110984283D01*
X207941527Y-111001778D01*
X207839501Y-111293352D01*
X207839497Y-111293364D01*
X207770755Y-111594544D01*
X207770752Y-111594562D01*
X207736166Y-111901528D01*
X207736166Y-122210471D01*
X207770752Y-122517437D01*
X207770755Y-122517455D01*
X207839497Y-122818635D01*
X207839501Y-122818647D01*
X207941528Y-123110222D01*
X207941534Y-123110236D01*
X208075569Y-123388562D01*
X208075571Y-123388565D01*
X208239931Y-123650143D01*
X208289867Y-123712760D01*
X208432545Y-123891673D01*
X208449847Y-123908975D01*
X208483332Y-123970298D01*
X208486166Y-123996656D01*
X208486166Y-131931500D01*
X208466481Y-131998539D01*
X208413677Y-132044294D01*
X208362166Y-132055500D01*
X202862923Y-132055500D01*
X202795884Y-132035815D01*
X202790566Y-132032075D01*
X202789502Y-132031461D01*
X202643431Y-131970957D01*
X202643426Y-131970955D01*
X202486667Y-131950318D01*
X202486665Y-131950318D01*
X202329905Y-131970955D01*
X202329903Y-131970956D01*
X202183826Y-132031463D01*
X202058384Y-132127718D01*
X201962129Y-132253160D01*
X201901622Y-132399237D01*
X201901621Y-132399239D01*
X201880984Y-132555998D01*
X201880984Y-132556001D01*
X201901621Y-132712760D01*
X201901622Y-132712762D01*
X201941601Y-132809281D01*
X201962130Y-132858841D01*
X202058384Y-132984282D01*
X202183825Y-133080536D01*
X202329904Y-133141044D01*
X202408285Y-133151363D01*
X202486665Y-133161682D01*
X202486666Y-133161682D01*
X202486667Y-133161682D01*
X202538920Y-133154802D01*
X202643428Y-133141044D01*
X202789507Y-133080536D01*
X202789511Y-133080532D01*
X202796542Y-133076474D01*
X202797548Y-133078216D01*
X202852598Y-133056931D01*
X202862923Y-133056500D01*
X208920774Y-133056500D01*
X209052558Y-133056500D01*
X215110409Y-133056500D01*
X215177448Y-133076185D01*
X215182765Y-133079924D01*
X215183823Y-133080534D01*
X215183825Y-133080536D01*
X215183826Y-133080536D01*
X215183829Y-133080538D01*
X215198467Y-133086601D01*
X215329904Y-133141044D01*
X215408285Y-133151363D01*
X215486665Y-133161682D01*
X215486666Y-133161682D01*
X215486667Y-133161682D01*
X215538920Y-133154802D01*
X215643428Y-133141044D01*
X215789507Y-133080536D01*
X215914948Y-132984282D01*
X216011202Y-132858841D01*
X216071710Y-132712762D01*
X216092348Y-132556000D01*
X216092225Y-132555069D01*
X216071710Y-132399239D01*
X216071710Y-132399238D01*
X216011202Y-132253159D01*
X215914948Y-132127718D01*
X215789507Y-132031464D01*
X215643428Y-131970956D01*
X215643426Y-131970955D01*
X215486667Y-131950318D01*
X215486665Y-131950318D01*
X215329905Y-131970955D01*
X215329900Y-131970957D01*
X215183829Y-132031461D01*
X215176790Y-132035526D01*
X215175783Y-132033783D01*
X215120734Y-132055069D01*
X215110409Y-132055500D01*
X209611166Y-132055500D01*
X209544127Y-132035815D01*
X209498372Y-131983011D01*
X209487166Y-131931500D01*
X209487166Y-124795047D01*
X209506851Y-124728008D01*
X209559655Y-124682253D01*
X209628813Y-124672309D01*
X209652122Y-124678006D01*
X209724018Y-124703164D01*
X209724030Y-124703168D01*
X210025214Y-124771911D01*
X210025220Y-124771911D01*
X210025228Y-124771913D01*
X210229872Y-124794970D01*
X210332195Y-124806499D01*
X210332198Y-124806500D01*
X210332201Y-124806500D01*
X210641134Y-124806500D01*
X210641135Y-124806499D01*
X210798022Y-124788822D01*
X210948103Y-124771913D01*
X210948108Y-124771912D01*
X210948118Y-124771911D01*
X211249302Y-124703168D01*
X211540895Y-124601135D01*
X211819231Y-124467095D01*
X212080809Y-124302735D01*
X212322340Y-124110120D01*
X212540786Y-123891674D01*
X212733401Y-123650143D01*
X212897761Y-123388565D01*
X213031801Y-123110229D01*
X213133834Y-122818636D01*
X213202577Y-122517452D01*
X213237166Y-122210465D01*
X213237166Y-113246655D01*
X213256350Y-113181321D01*
X213886166Y-113181321D01*
X213886166Y-114930678D01*
X213900698Y-115003735D01*
X213900699Y-115003739D01*
X213900700Y-115003740D01*
X213956065Y-115086601D01*
X214037545Y-115141043D01*
X214038926Y-115141966D01*
X214038930Y-115141967D01*
X214111987Y-115156499D01*
X214111990Y-115156500D01*
X214111992Y-115156500D01*
X215861342Y-115156500D01*
X215861343Y-115156499D01*
X215934406Y-115141966D01*
X216017267Y-115086601D01*
X216072632Y-115003740D01*
X216087166Y-114930674D01*
X216087166Y-113181326D01*
X216087166Y-113181323D01*
X216087165Y-113181321D01*
X216072633Y-113108264D01*
X216072632Y-113108260D01*
X216037714Y-113056001D01*
X216017267Y-113025399D01*
X215934406Y-112970034D01*
X215934405Y-112970033D01*
X215934401Y-112970032D01*
X215861343Y-112955500D01*
X215861340Y-112955500D01*
X214111992Y-112955500D01*
X214111989Y-112955500D01*
X214038930Y-112970032D01*
X214038926Y-112970033D01*
X213956065Y-113025399D01*
X213900699Y-113108260D01*
X213900698Y-113108264D01*
X213886166Y-113181321D01*
X213256350Y-113181321D01*
X213256851Y-113179616D01*
X213273480Y-113158979D01*
X215698576Y-110733882D01*
X215746481Y-110705646D01*
X215746017Y-110704318D01*
X215905108Y-110648648D01*
X216040895Y-110601135D01*
X216319231Y-110467095D01*
X216580809Y-110302735D01*
X216822340Y-110110120D01*
X217040786Y-109891674D01*
X217233401Y-109650143D01*
X217397761Y-109388565D01*
X217531801Y-109110229D01*
X217633834Y-108818636D01*
X217702577Y-108517452D01*
X217702579Y-108517437D01*
X217733912Y-108239349D01*
X217760978Y-108174935D01*
X217818573Y-108135379D01*
X217888410Y-108133242D01*
X217948317Y-108169200D01*
X217979272Y-108231838D01*
X217981132Y-108253232D01*
X217981132Y-148551572D01*
X217980816Y-148560418D01*
X217966552Y-148759847D01*
X217964034Y-148777359D01*
X217922480Y-148968384D01*
X217917496Y-148985359D01*
X217849177Y-149168531D01*
X217841828Y-149184624D01*
X217748137Y-149356209D01*
X217738572Y-149371093D01*
X217621412Y-149527603D01*
X217609826Y-149540973D01*
X217471592Y-149679210D01*
X217458222Y-149690796D01*
X217301722Y-149807954D01*
X217286838Y-149817519D01*
X217115259Y-149911211D01*
X217099167Y-149918561D01*
X216915992Y-149986886D01*
X216899016Y-149991871D01*
X216707987Y-150033430D01*
X216690476Y-150035948D01*
X216504677Y-150049240D01*
X216491495Y-150050184D01*
X216482648Y-150050500D01*
X95491057Y-150050500D01*
X95482213Y-150050184D01*
X95282788Y-150035924D01*
X95265277Y-150033407D01*
X95074244Y-149991855D01*
X95057267Y-149986870D01*
X94874090Y-149918552D01*
X94857996Y-149911203D01*
X94686409Y-149817512D01*
X94671526Y-149807947D01*
X94515016Y-149690788D01*
X94501664Y-149679219D01*
X94363403Y-149540961D01*
X94351826Y-149527599D01*
X94301616Y-149460528D01*
X94234670Y-149371100D01*
X94225105Y-149356218D01*
X94131406Y-149184624D01*
X94124058Y-149168532D01*
X94055739Y-148985366D01*
X94050754Y-148968390D01*
X94009197Y-148777358D01*
X94006679Y-148759846D01*
X94003221Y-148711500D01*
X93992448Y-148560865D01*
X93992132Y-148552019D01*
X93992132Y-146806000D01*
X134981325Y-146806000D01*
X135000641Y-147002129D01*
X135000642Y-147002132D01*
X135052712Y-147173784D01*
X135057854Y-147190733D01*
X135150752Y-147364532D01*
X135150756Y-147364539D01*
X135275782Y-147516883D01*
X135428126Y-147641909D01*
X135428133Y-147641913D01*
X135601932Y-147734811D01*
X135601935Y-147734811D01*
X135601939Y-147734814D01*
X135790534Y-147792024D01*
X135986666Y-147811341D01*
X136182798Y-147792024D01*
X136371393Y-147734814D01*
X136425300Y-147706000D01*
X138081206Y-147706000D01*
X138100992Y-147894256D01*
X138100993Y-147894259D01*
X138159484Y-148074277D01*
X138159487Y-148074284D01*
X138254133Y-148238216D01*
X138359809Y-148355581D01*
X138380795Y-148378888D01*
X138533931Y-148490148D01*
X138533936Y-148490151D01*
X138706858Y-148567142D01*
X138706863Y-148567144D01*
X138892020Y-148606500D01*
X138892021Y-148606500D01*
X139081310Y-148606500D01*
X139081312Y-148606500D01*
X139266469Y-148567144D01*
X139439396Y-148490151D01*
X139592537Y-148378888D01*
X139719199Y-148238216D01*
X139813845Y-148074284D01*
X139872340Y-147894256D01*
X139892126Y-147706000D01*
X139872340Y-147517744D01*
X139813845Y-147337716D01*
X139719199Y-147173784D01*
X139592537Y-147033112D01*
X139587124Y-147029179D01*
X139439400Y-146921851D01*
X139439395Y-146921848D01*
X139266473Y-146844857D01*
X139266468Y-146844855D01*
X139120667Y-146813865D01*
X139083664Y-146806000D01*
X140981325Y-146806000D01*
X141000641Y-147002129D01*
X141000642Y-147002132D01*
X141052712Y-147173784D01*
X141057854Y-147190733D01*
X141150752Y-147364532D01*
X141150756Y-147364539D01*
X141275782Y-147516883D01*
X141428126Y-147641909D01*
X141428133Y-147641913D01*
X141601932Y-147734811D01*
X141601935Y-147734811D01*
X141601939Y-147734814D01*
X141790534Y-147792024D01*
X141986666Y-147811341D01*
X142182798Y-147792024D01*
X142371393Y-147734814D01*
X142545204Y-147641910D01*
X142697549Y-147516883D01*
X142822576Y-147364538D01*
X142915480Y-147190727D01*
X142918333Y-147181321D01*
X150386166Y-147181321D01*
X150386166Y-148930678D01*
X150400698Y-149003735D01*
X150400699Y-149003739D01*
X150400700Y-149003740D01*
X150456065Y-149086601D01*
X150538926Y-149141966D01*
X150538930Y-149141967D01*
X150611987Y-149156499D01*
X150611990Y-149156500D01*
X150611992Y-149156500D01*
X152361342Y-149156500D01*
X152361343Y-149156499D01*
X152434406Y-149141966D01*
X152517267Y-149086601D01*
X152572632Y-149003740D01*
X152587166Y-148930674D01*
X152587166Y-147610999D01*
X178881451Y-147610999D01*
X178881451Y-147611000D01*
X178900268Y-147814082D01*
X178956083Y-148010247D01*
X178956088Y-148010260D01*
X179046993Y-148192821D01*
X179169903Y-148355581D01*
X179320624Y-148492980D01*
X179320626Y-148492982D01*
X179415253Y-148551572D01*
X179494029Y-148600348D01*
X179684210Y-148674024D01*
X179884690Y-148711500D01*
X179884692Y-148711500D01*
X180088640Y-148711500D01*
X180088642Y-148711500D01*
X180289122Y-148674024D01*
X180479303Y-148600348D01*
X180652707Y-148492981D01*
X180803430Y-148355579D01*
X180926339Y-148192821D01*
X181017248Y-148010250D01*
X181073063Y-147814083D01*
X181091881Y-147611000D01*
X181073063Y-147407917D01*
X181017248Y-147211750D01*
X181002097Y-147181323D01*
X180928297Y-147033112D01*
X180926339Y-147029179D01*
X180845287Y-146921849D01*
X180803428Y-146866418D01*
X180652707Y-146729019D01*
X180652705Y-146729017D01*
X180479308Y-146621655D01*
X180479301Y-146621651D01*
X180384212Y-146584814D01*
X180289122Y-146547976D01*
X180088642Y-146510500D01*
X179884690Y-146510500D01*
X179684210Y-146547976D01*
X179684207Y-146547976D01*
X179684207Y-146547977D01*
X179494030Y-146621651D01*
X179494023Y-146621655D01*
X179320626Y-146729017D01*
X179320624Y-146729019D01*
X179169903Y-146866418D01*
X179046993Y-147029178D01*
X178956088Y-147211739D01*
X178956083Y-147211752D01*
X178900268Y-147407917D01*
X178881451Y-147610999D01*
X152587166Y-147610999D01*
X152587166Y-147181326D01*
X152587166Y-147181323D01*
X152587165Y-147181321D01*
X152572633Y-147108264D01*
X152572632Y-147108260D01*
X152517267Y-147025399D01*
X152434406Y-146970034D01*
X152434405Y-146970033D01*
X152434401Y-146970032D01*
X152361343Y-146955500D01*
X152361340Y-146955500D01*
X150611992Y-146955500D01*
X150611989Y-146955500D01*
X150538930Y-146970032D01*
X150538926Y-146970033D01*
X150456065Y-147025399D01*
X150400699Y-147108260D01*
X150400698Y-147108264D01*
X150386166Y-147181321D01*
X142918333Y-147181321D01*
X142972690Y-147002132D01*
X142992007Y-146806000D01*
X142972690Y-146609868D01*
X142915480Y-146421273D01*
X142915477Y-146421269D01*
X142915477Y-146421266D01*
X142822579Y-146247467D01*
X142822575Y-146247460D01*
X142697549Y-146095116D01*
X142545205Y-145970090D01*
X142545198Y-145970086D01*
X142371399Y-145877188D01*
X142371393Y-145877186D01*
X142182798Y-145819976D01*
X142182795Y-145819975D01*
X141986666Y-145800659D01*
X141790536Y-145819975D01*
X141601932Y-145877188D01*
X141428133Y-145970086D01*
X141428126Y-145970090D01*
X141275782Y-146095116D01*
X141150756Y-146247460D01*
X141150752Y-146247467D01*
X141057854Y-146421266D01*
X141000641Y-146609870D01*
X140981325Y-146806000D01*
X139083664Y-146806000D01*
X139081312Y-146805500D01*
X138892020Y-146805500D01*
X138859563Y-146812398D01*
X138706863Y-146844855D01*
X138706858Y-146844857D01*
X138533936Y-146921848D01*
X138533931Y-146921851D01*
X138380795Y-147033111D01*
X138254132Y-147173785D01*
X138159487Y-147337715D01*
X138159484Y-147337722D01*
X138100993Y-147517740D01*
X138100992Y-147517744D01*
X138081206Y-147706000D01*
X136425300Y-147706000D01*
X136545204Y-147641910D01*
X136697549Y-147516883D01*
X136822576Y-147364538D01*
X136915480Y-147190727D01*
X136972690Y-147002132D01*
X136992007Y-146806000D01*
X136972690Y-146609868D01*
X136915480Y-146421273D01*
X136915477Y-146421269D01*
X136915477Y-146421266D01*
X136822579Y-146247467D01*
X136822575Y-146247460D01*
X136697549Y-146095116D01*
X136545205Y-145970090D01*
X136545198Y-145970086D01*
X136371399Y-145877188D01*
X136371393Y-145877186D01*
X136182798Y-145819976D01*
X136182795Y-145819975D01*
X135986666Y-145800659D01*
X135790536Y-145819975D01*
X135601932Y-145877188D01*
X135428133Y-145970086D01*
X135428126Y-145970090D01*
X135275782Y-146095116D01*
X135150756Y-146247460D01*
X135150752Y-146247467D01*
X135057854Y-146421266D01*
X135000641Y-146609870D01*
X134981325Y-146806000D01*
X93992132Y-146806000D01*
X93992132Y-145555998D01*
X147380984Y-145555998D01*
X147380984Y-145556001D01*
X147401621Y-145712760D01*
X147401622Y-145712762D01*
X147446031Y-145819976D01*
X147462130Y-145858841D01*
X147558384Y-145984282D01*
X147683825Y-146080536D01*
X147829904Y-146141044D01*
X147908285Y-146151363D01*
X147986665Y-146161682D01*
X147986666Y-146161682D01*
X147986667Y-146161682D01*
X148038920Y-146154802D01*
X148143428Y-146141044D01*
X148289507Y-146080536D01*
X148414948Y-145984282D01*
X148511202Y-145858841D01*
X148571710Y-145712762D01*
X148592348Y-145556000D01*
X148581058Y-145470247D01*
X148571710Y-145399239D01*
X148571710Y-145399238D01*
X148511202Y-145253159D01*
X148414948Y-145127718D01*
X148341030Y-145070999D01*
X178881451Y-145070999D01*
X178881451Y-145071000D01*
X178900268Y-145274082D01*
X178956083Y-145470247D01*
X178956088Y-145470260D01*
X179046993Y-145652821D01*
X179169903Y-145815581D01*
X179320624Y-145952980D01*
X179320626Y-145952982D01*
X179348257Y-145970090D01*
X179494029Y-146060348D01*
X179684210Y-146134024D01*
X179884690Y-146171500D01*
X179884692Y-146171500D01*
X180088640Y-146171500D01*
X180088642Y-146171500D01*
X180289122Y-146134024D01*
X180479303Y-146060348D01*
X180652707Y-145952981D01*
X180803430Y-145815579D01*
X180926339Y-145652821D01*
X181017248Y-145470250D01*
X181073063Y-145274083D01*
X181091881Y-145071000D01*
X181088217Y-145031463D01*
X181073063Y-144867917D01*
X181017248Y-144671750D01*
X180981033Y-144599021D01*
X180941499Y-144519625D01*
X180926339Y-144489179D01*
X180867370Y-144411091D01*
X180803428Y-144326418D01*
X180652707Y-144189019D01*
X180652705Y-144189017D01*
X180479308Y-144081655D01*
X180479301Y-144081651D01*
X180336649Y-144026388D01*
X180289122Y-144007976D01*
X180088642Y-143970500D01*
X179884690Y-143970500D01*
X179684210Y-144007976D01*
X179684207Y-144007976D01*
X179684207Y-144007977D01*
X179494030Y-144081651D01*
X179494023Y-144081655D01*
X179320626Y-144189017D01*
X179320624Y-144189019D01*
X179169903Y-144326418D01*
X179046993Y-144489178D01*
X178956088Y-144671739D01*
X178956083Y-144671752D01*
X178900268Y-144867917D01*
X178881451Y-145070999D01*
X148341030Y-145070999D01*
X148289507Y-145031464D01*
X148143428Y-144970956D01*
X148143426Y-144970955D01*
X147986667Y-144950318D01*
X147986665Y-144950318D01*
X147829905Y-144970955D01*
X147829903Y-144970956D01*
X147683826Y-145031463D01*
X147558384Y-145127718D01*
X147462129Y-145253160D01*
X147401622Y-145399237D01*
X147401621Y-145399239D01*
X147380984Y-145555998D01*
X93992132Y-145555998D01*
X93992132Y-143556000D01*
X118143644Y-143556000D01*
X118163684Y-143759481D01*
X118223040Y-143955151D01*
X118319421Y-144135466D01*
X118319426Y-144135473D01*
X118449137Y-144293528D01*
X118540097Y-144368176D01*
X118607194Y-144423241D01*
X118607197Y-144423242D01*
X118607199Y-144423244D01*
X118787514Y-144519625D01*
X118787516Y-144519625D01*
X118787519Y-144519627D01*
X118983183Y-144578981D01*
X119186666Y-144599022D01*
X119390149Y-144578981D01*
X119585813Y-144519627D01*
X119766138Y-144423241D01*
X119924194Y-144293528D01*
X120053907Y-144135472D01*
X120077307Y-144091692D01*
X120126270Y-144041849D01*
X120194407Y-144026388D01*
X120260087Y-144050219D01*
X120296025Y-144091693D01*
X120319426Y-144135473D01*
X120449137Y-144293528D01*
X120540097Y-144368176D01*
X120607194Y-144423241D01*
X120607197Y-144423242D01*
X120607199Y-144423244D01*
X120787514Y-144519625D01*
X120787516Y-144519625D01*
X120787519Y-144519627D01*
X120983183Y-144578981D01*
X121186666Y-144599022D01*
X121390149Y-144578981D01*
X121585813Y-144519627D01*
X121766138Y-144423241D01*
X121924194Y-144293528D01*
X122053907Y-144135472D01*
X122077307Y-144091692D01*
X122126270Y-144041849D01*
X122194407Y-144026388D01*
X122260087Y-144050219D01*
X122296025Y-144091693D01*
X122319426Y-144135473D01*
X122449137Y-144293528D01*
X122540097Y-144368176D01*
X122607194Y-144423241D01*
X122607197Y-144423242D01*
X122607199Y-144423244D01*
X122787514Y-144519625D01*
X122787516Y-144519625D01*
X122787519Y-144519627D01*
X122983183Y-144578981D01*
X123186666Y-144599022D01*
X123390149Y-144578981D01*
X123585813Y-144519627D01*
X123766138Y-144423241D01*
X123924194Y-144293528D01*
X123928811Y-144287901D01*
X123986556Y-144248567D01*
X124056401Y-144246695D01*
X124116170Y-144282881D01*
X124146887Y-144345636D01*
X124148666Y-144366565D01*
X124148666Y-144368178D01*
X124163198Y-144441235D01*
X124163199Y-144441239D01*
X124163200Y-144441240D01*
X124218565Y-144524101D01*
X124300700Y-144578981D01*
X124301426Y-144579466D01*
X124301430Y-144579467D01*
X124374487Y-144593999D01*
X124374490Y-144594000D01*
X124374492Y-144594000D01*
X125998842Y-144594000D01*
X125998843Y-144593999D01*
X126071906Y-144579466D01*
X126154767Y-144524101D01*
X126210132Y-144441240D01*
X126224666Y-144368174D01*
X126224666Y-143555998D01*
X170880984Y-143555998D01*
X170880984Y-143556001D01*
X170901621Y-143712760D01*
X170901622Y-143712762D01*
X170952354Y-143835241D01*
X170962130Y-143858841D01*
X171058384Y-143984282D01*
X171183825Y-144080536D01*
X171329904Y-144141044D01*
X171408285Y-144151363D01*
X171486665Y-144161682D01*
X171486666Y-144161682D01*
X171486667Y-144161682D01*
X171538920Y-144154802D01*
X171643428Y-144141044D01*
X171789507Y-144080536D01*
X171914948Y-143984282D01*
X172011202Y-143858841D01*
X172071710Y-143712762D01*
X172092348Y-143556000D01*
X188943644Y-143556000D01*
X188963684Y-143759481D01*
X189023040Y-143955151D01*
X189119421Y-144135466D01*
X189119426Y-144135473D01*
X189249137Y-144293528D01*
X189340097Y-144368176D01*
X189407194Y-144423241D01*
X189407197Y-144423242D01*
X189407199Y-144423244D01*
X189587514Y-144519625D01*
X189587516Y-144519625D01*
X189587519Y-144519627D01*
X189783183Y-144578981D01*
X189986666Y-144599022D01*
X190190149Y-144578981D01*
X190385813Y-144519627D01*
X190566138Y-144423241D01*
X190724194Y-144293528D01*
X190853907Y-144135472D01*
X190877307Y-144091692D01*
X190926270Y-144041849D01*
X190994407Y-144026388D01*
X191060087Y-144050219D01*
X191096025Y-144091693D01*
X191119426Y-144135473D01*
X191249137Y-144293528D01*
X191340097Y-144368176D01*
X191407194Y-144423241D01*
X191407197Y-144423242D01*
X191407199Y-144423244D01*
X191587514Y-144519625D01*
X191587516Y-144519625D01*
X191587519Y-144519627D01*
X191783183Y-144578981D01*
X191986666Y-144599022D01*
X192190149Y-144578981D01*
X192385813Y-144519627D01*
X192566138Y-144423241D01*
X192724194Y-144293528D01*
X192853907Y-144135472D01*
X192877307Y-144091692D01*
X192926270Y-144041849D01*
X192994407Y-144026388D01*
X193060087Y-144050219D01*
X193096025Y-144091693D01*
X193119426Y-144135473D01*
X193249137Y-144293528D01*
X193340097Y-144368176D01*
X193407194Y-144423241D01*
X193407197Y-144423242D01*
X193407199Y-144423244D01*
X193587514Y-144519625D01*
X193587516Y-144519625D01*
X193587519Y-144519627D01*
X193783183Y-144578981D01*
X193986666Y-144599022D01*
X194190149Y-144578981D01*
X194385813Y-144519627D01*
X194566138Y-144423241D01*
X194724194Y-144293528D01*
X194728811Y-144287901D01*
X194786556Y-144248567D01*
X194856401Y-144246695D01*
X194916170Y-144282881D01*
X194946887Y-144345636D01*
X194948666Y-144366565D01*
X194948666Y-144368178D01*
X194963198Y-144441235D01*
X194963199Y-144441239D01*
X194963200Y-144441240D01*
X195018565Y-144524101D01*
X195100700Y-144578981D01*
X195101426Y-144579466D01*
X195101430Y-144579467D01*
X195174487Y-144593999D01*
X195174490Y-144594000D01*
X195174492Y-144594000D01*
X196798842Y-144594000D01*
X196798843Y-144593999D01*
X196871906Y-144579466D01*
X196954767Y-144524101D01*
X197010132Y-144441240D01*
X197024666Y-144368174D01*
X197024666Y-142743826D01*
X197024666Y-142743823D01*
X197024665Y-142743821D01*
X197010133Y-142670764D01*
X197010132Y-142670760D01*
X196954767Y-142587899D01*
X196872632Y-142533019D01*
X196871905Y-142532533D01*
X196871901Y-142532532D01*
X196798843Y-142518000D01*
X196798840Y-142518000D01*
X195174492Y-142518000D01*
X195174489Y-142518000D01*
X195101430Y-142532532D01*
X195101426Y-142532533D01*
X195018565Y-142587899D01*
X194963199Y-142670760D01*
X194963198Y-142670764D01*
X194948666Y-142743821D01*
X194948666Y-142745434D01*
X194948427Y-142746246D01*
X194948069Y-142749886D01*
X194947378Y-142749818D01*
X194928981Y-142812473D01*
X194876177Y-142858228D01*
X194807019Y-142868172D01*
X194743463Y-142839147D01*
X194728815Y-142824101D01*
X194724196Y-142818473D01*
X194566139Y-142688760D01*
X194566132Y-142688755D01*
X194385817Y-142592374D01*
X194190147Y-142533018D01*
X193986666Y-142512978D01*
X193783184Y-142533018D01*
X193587514Y-142592374D01*
X193407199Y-142688755D01*
X193407192Y-142688760D01*
X193249137Y-142818471D01*
X193119426Y-142976526D01*
X193119423Y-142976529D01*
X193096024Y-143020307D01*
X193047061Y-143070151D01*
X192978924Y-143085611D01*
X192913244Y-143061779D01*
X192877308Y-143020307D01*
X192853908Y-142976529D01*
X192853905Y-142976526D01*
X192724194Y-142818471D01*
X192566139Y-142688760D01*
X192566132Y-142688755D01*
X192385817Y-142592374D01*
X192190147Y-142533018D01*
X191986666Y-142512978D01*
X191783184Y-142533018D01*
X191587514Y-142592374D01*
X191407199Y-142688755D01*
X191407192Y-142688760D01*
X191249137Y-142818471D01*
X191119426Y-142976526D01*
X191119423Y-142976529D01*
X191096024Y-143020307D01*
X191047061Y-143070151D01*
X190978924Y-143085611D01*
X190913244Y-143061779D01*
X190877308Y-143020307D01*
X190853908Y-142976529D01*
X190853905Y-142976526D01*
X190724194Y-142818471D01*
X190566139Y-142688760D01*
X190566132Y-142688755D01*
X190385817Y-142592374D01*
X190190147Y-142533018D01*
X189986666Y-142512978D01*
X189783184Y-142533018D01*
X189587514Y-142592374D01*
X189407199Y-142688755D01*
X189407192Y-142688760D01*
X189249137Y-142818471D01*
X189119426Y-142976526D01*
X189119421Y-142976533D01*
X189023040Y-143156848D01*
X188963684Y-143352518D01*
X188943644Y-143556000D01*
X172092348Y-143556000D01*
X172071710Y-143399238D01*
X172011202Y-143253159D01*
X171914948Y-143127718D01*
X171789507Y-143031464D01*
X171754305Y-143016883D01*
X171643428Y-142970956D01*
X171643426Y-142970955D01*
X171486667Y-142950318D01*
X171486665Y-142950318D01*
X171329905Y-142970955D01*
X171329903Y-142970956D01*
X171183826Y-143031463D01*
X171058384Y-143127718D01*
X170962129Y-143253160D01*
X170901622Y-143399237D01*
X170901621Y-143399239D01*
X170880984Y-143555998D01*
X126224666Y-143555998D01*
X126224666Y-142743826D01*
X126224666Y-142743823D01*
X126224665Y-142743821D01*
X126210133Y-142670764D01*
X126210132Y-142670760D01*
X126154767Y-142587899D01*
X126072632Y-142533019D01*
X126071905Y-142532533D01*
X126071901Y-142532532D01*
X125998843Y-142518000D01*
X125998840Y-142518000D01*
X124374492Y-142518000D01*
X124374489Y-142518000D01*
X124301430Y-142532532D01*
X124301426Y-142532533D01*
X124218565Y-142587899D01*
X124163199Y-142670760D01*
X124163198Y-142670764D01*
X124148666Y-142743821D01*
X124148666Y-142745434D01*
X124148427Y-142746246D01*
X124148069Y-142749886D01*
X124147378Y-142749818D01*
X124128981Y-142812473D01*
X124076177Y-142858228D01*
X124007019Y-142868172D01*
X123943463Y-142839147D01*
X123928815Y-142824101D01*
X123924196Y-142818473D01*
X123766139Y-142688760D01*
X123766132Y-142688755D01*
X123585817Y-142592374D01*
X123390147Y-142533018D01*
X123186666Y-142512978D01*
X122983184Y-142533018D01*
X122787514Y-142592374D01*
X122607199Y-142688755D01*
X122607192Y-142688760D01*
X122449137Y-142818471D01*
X122319426Y-142976526D01*
X122319423Y-142976529D01*
X122296024Y-143020307D01*
X122247061Y-143070151D01*
X122178924Y-143085611D01*
X122113244Y-143061779D01*
X122077308Y-143020307D01*
X122053908Y-142976529D01*
X122053905Y-142976526D01*
X121924194Y-142818471D01*
X121766139Y-142688760D01*
X121766132Y-142688755D01*
X121585817Y-142592374D01*
X121390147Y-142533018D01*
X121186666Y-142512978D01*
X120983184Y-142533018D01*
X120787514Y-142592374D01*
X120607199Y-142688755D01*
X120607192Y-142688760D01*
X120449137Y-142818471D01*
X120319426Y-142976526D01*
X120319423Y-142976529D01*
X120296024Y-143020307D01*
X120247061Y-143070151D01*
X120178924Y-143085611D01*
X120113244Y-143061779D01*
X120077308Y-143020307D01*
X120053908Y-142976529D01*
X120053905Y-142976526D01*
X119924194Y-142818471D01*
X119766139Y-142688760D01*
X119766132Y-142688755D01*
X119585817Y-142592374D01*
X119390147Y-142533018D01*
X119186666Y-142512978D01*
X118983184Y-142533018D01*
X118787514Y-142592374D01*
X118607199Y-142688755D01*
X118607192Y-142688760D01*
X118449137Y-142818471D01*
X118319426Y-142976526D01*
X118319421Y-142976533D01*
X118223040Y-143156848D01*
X118163684Y-143352518D01*
X118143644Y-143556000D01*
X93992132Y-143556000D01*
X93992132Y-142306000D01*
X134981325Y-142306000D01*
X135000641Y-142502129D01*
X135016982Y-142555998D01*
X135028016Y-142592373D01*
X135057854Y-142690733D01*
X135150752Y-142864532D01*
X135150756Y-142864539D01*
X135275782Y-143016883D01*
X135428126Y-143141909D01*
X135428133Y-143141913D01*
X135601932Y-143234811D01*
X135601935Y-143234811D01*
X135601939Y-143234814D01*
X135790534Y-143292024D01*
X135986666Y-143311341D01*
X136182798Y-143292024D01*
X136371393Y-143234814D01*
X136545204Y-143141910D01*
X136697549Y-143016883D01*
X136822576Y-142864538D01*
X136883895Y-142749818D01*
X136915477Y-142690733D01*
X136915477Y-142690732D01*
X136915480Y-142690727D01*
X136972690Y-142502132D01*
X136992007Y-142306000D01*
X136972690Y-142109868D01*
X136915480Y-141921273D01*
X136915477Y-141921269D01*
X136915477Y-141921266D01*
X136822579Y-141747467D01*
X136822575Y-141747460D01*
X136697549Y-141595116D01*
X136545205Y-141470090D01*
X136545198Y-141470086D01*
X136425302Y-141406000D01*
X138081206Y-141406000D01*
X138100992Y-141594256D01*
X138100993Y-141594259D01*
X138159484Y-141774277D01*
X138159487Y-141774284D01*
X138254133Y-141938216D01*
X138338093Y-142031463D01*
X138380795Y-142078888D01*
X138533931Y-142190148D01*
X138533936Y-142190151D01*
X138706858Y-142267142D01*
X138706863Y-142267144D01*
X138892020Y-142306500D01*
X138892021Y-142306500D01*
X139081310Y-142306500D01*
X139081312Y-142306500D01*
X139083664Y-142306000D01*
X140981325Y-142306000D01*
X141000641Y-142502129D01*
X141016982Y-142555998D01*
X141028016Y-142592373D01*
X141057854Y-142690733D01*
X141150752Y-142864532D01*
X141150756Y-142864539D01*
X141275782Y-143016883D01*
X141428126Y-143141909D01*
X141428133Y-143141913D01*
X141601932Y-143234811D01*
X141601935Y-143234811D01*
X141601939Y-143234814D01*
X141790534Y-143292024D01*
X141986666Y-143311341D01*
X142182798Y-143292024D01*
X142371393Y-143234814D01*
X142545204Y-143141910D01*
X142697549Y-143016883D01*
X142822576Y-142864538D01*
X142883895Y-142749818D01*
X142915477Y-142690733D01*
X142915477Y-142690732D01*
X142915480Y-142690727D01*
X142956350Y-142555998D01*
X175380984Y-142555998D01*
X175380984Y-142556001D01*
X175401621Y-142712760D01*
X175401622Y-142712762D01*
X175445408Y-142818472D01*
X175462130Y-142858841D01*
X175558384Y-142984282D01*
X175683825Y-143080536D01*
X175829904Y-143141044D01*
X175908285Y-143151363D01*
X175986665Y-143161682D01*
X175986666Y-143161682D01*
X175986667Y-143161682D01*
X176046468Y-143153809D01*
X176143428Y-143141044D01*
X176289507Y-143080536D01*
X176414948Y-142984282D01*
X176511202Y-142858841D01*
X176571710Y-142712762D01*
X176592348Y-142556000D01*
X176589322Y-142533018D01*
X176571710Y-142399239D01*
X176571710Y-142399238D01*
X176511202Y-142253159D01*
X176414948Y-142127718D01*
X176289507Y-142031464D01*
X176143428Y-141970956D01*
X176143426Y-141970955D01*
X175986667Y-141950318D01*
X175986665Y-141950318D01*
X175829905Y-141970955D01*
X175829903Y-141970956D01*
X175683826Y-142031463D01*
X175558384Y-142127718D01*
X175462129Y-142253160D01*
X175401622Y-142399237D01*
X175401621Y-142399239D01*
X175380984Y-142555998D01*
X142956350Y-142555998D01*
X142972690Y-142502132D01*
X142992007Y-142306000D01*
X142972690Y-142109868D01*
X142915480Y-141921273D01*
X142915477Y-141921269D01*
X142915477Y-141921266D01*
X142822579Y-141747467D01*
X142822575Y-141747460D01*
X142697549Y-141595116D01*
X142545205Y-141470090D01*
X142545198Y-141470086D01*
X142371399Y-141377188D01*
X142371393Y-141377186D01*
X142182798Y-141319976D01*
X142182795Y-141319975D01*
X141986666Y-141300659D01*
X141790536Y-141319975D01*
X141601932Y-141377188D01*
X141428133Y-141470086D01*
X141428126Y-141470090D01*
X141275782Y-141595116D01*
X141150756Y-141747460D01*
X141150752Y-141747467D01*
X141057854Y-141921266D01*
X141000641Y-142109870D01*
X140981325Y-142306000D01*
X139083664Y-142306000D01*
X139266469Y-142267144D01*
X139439396Y-142190151D01*
X139592537Y-142078888D01*
X139719199Y-141938216D01*
X139813845Y-141774284D01*
X139872340Y-141594256D01*
X139892126Y-141406000D01*
X139872340Y-141217744D01*
X139819786Y-141055999D01*
X154331388Y-141055999D01*
X154331388Y-141056000D01*
X154350428Y-141212818D01*
X154406446Y-141360523D01*
X154496183Y-141490530D01*
X154614426Y-141595283D01*
X154614428Y-141595284D01*
X154754300Y-141668696D01*
X154907680Y-141706500D01*
X154907681Y-141706500D01*
X155065651Y-141706500D01*
X155219031Y-141668696D01*
X155358906Y-141595283D01*
X155477149Y-141490530D01*
X155566886Y-141360523D01*
X155622903Y-141212818D01*
X155641944Y-141056000D01*
X155622903Y-140899182D01*
X155566886Y-140751477D01*
X155477149Y-140621470D01*
X155358906Y-140516717D01*
X155358904Y-140516716D01*
X155358903Y-140516715D01*
X155219031Y-140443303D01*
X155065652Y-140405500D01*
X155065651Y-140405500D01*
X154907681Y-140405500D01*
X154907680Y-140405500D01*
X154754300Y-140443303D01*
X154614428Y-140516715D01*
X154496182Y-140621471D01*
X154406447Y-140751475D01*
X154406446Y-140751476D01*
X154350428Y-140899181D01*
X154331388Y-141055999D01*
X139819786Y-141055999D01*
X139813845Y-141037716D01*
X139719199Y-140873784D01*
X139592537Y-140733112D01*
X139592536Y-140733111D01*
X139439400Y-140621851D01*
X139439395Y-140621848D01*
X139266473Y-140544857D01*
X139266468Y-140544855D01*
X139120667Y-140513865D01*
X139081312Y-140505500D01*
X138892020Y-140505500D01*
X138859563Y-140512398D01*
X138706863Y-140544855D01*
X138706858Y-140544857D01*
X138533936Y-140621848D01*
X138533931Y-140621851D01*
X138380795Y-140733111D01*
X138254132Y-140873785D01*
X138159487Y-141037715D01*
X138159484Y-141037722D01*
X138100993Y-141217740D01*
X138100992Y-141217744D01*
X138081206Y-141406000D01*
X136425302Y-141406000D01*
X136371399Y-141377188D01*
X136371393Y-141377186D01*
X136182798Y-141319976D01*
X136182795Y-141319975D01*
X135986666Y-141300659D01*
X135790536Y-141319975D01*
X135601932Y-141377188D01*
X135428133Y-141470086D01*
X135428126Y-141470090D01*
X135275782Y-141595116D01*
X135150756Y-141747460D01*
X135150752Y-141747467D01*
X135057854Y-141921266D01*
X135000641Y-142109870D01*
X134981325Y-142306000D01*
X93992132Y-142306000D01*
X93992132Y-138681321D01*
X116386166Y-138681321D01*
X116386166Y-140430678D01*
X116400698Y-140503735D01*
X116400699Y-140503739D01*
X116400700Y-140503740D01*
X116456065Y-140586601D01*
X116538926Y-140641966D01*
X116538930Y-140641967D01*
X116611987Y-140656499D01*
X116611990Y-140656500D01*
X116611992Y-140656500D01*
X118361342Y-140656500D01*
X118361343Y-140656499D01*
X118434406Y-140641966D01*
X118517267Y-140586601D01*
X118572632Y-140503740D01*
X118587166Y-140430674D01*
X118587166Y-139555998D01*
X175380984Y-139555998D01*
X175380984Y-139556001D01*
X175401621Y-139712760D01*
X175401622Y-139712762D01*
X175462130Y-139858841D01*
X175558384Y-139984282D01*
X175683825Y-140080536D01*
X175829904Y-140141044D01*
X175908285Y-140151363D01*
X175986665Y-140161682D01*
X175986666Y-140161682D01*
X175986667Y-140161682D01*
X176038920Y-140154802D01*
X176143428Y-140141044D01*
X176289507Y-140080536D01*
X176414948Y-139984282D01*
X176511202Y-139858841D01*
X176571710Y-139712762D01*
X176592348Y-139556000D01*
X176571710Y-139399238D01*
X176511202Y-139253159D01*
X176414948Y-139127718D01*
X176289507Y-139031464D01*
X176143428Y-138970956D01*
X176143426Y-138970955D01*
X175986667Y-138950318D01*
X175986665Y-138950318D01*
X175829905Y-138970955D01*
X175829903Y-138970956D01*
X175683826Y-139031463D01*
X175558384Y-139127718D01*
X175462129Y-139253160D01*
X175401622Y-139399237D01*
X175401621Y-139399239D01*
X175380984Y-139555998D01*
X118587166Y-139555998D01*
X118587166Y-138681326D01*
X118587166Y-138681323D01*
X118587165Y-138681321D01*
X118572633Y-138608264D01*
X118572632Y-138608260D01*
X118563961Y-138595283D01*
X118517267Y-138525399D01*
X118434406Y-138470034D01*
X118434405Y-138470033D01*
X118434401Y-138470032D01*
X118361343Y-138455500D01*
X118361340Y-138455500D01*
X116611992Y-138455500D01*
X116611989Y-138455500D01*
X116538930Y-138470032D01*
X116538926Y-138470033D01*
X116456065Y-138525399D01*
X116400699Y-138608260D01*
X116400698Y-138608264D01*
X116386166Y-138681321D01*
X93992132Y-138681321D01*
X93992132Y-135133136D01*
X99406166Y-135133136D01*
X99406166Y-137428863D01*
X99406167Y-137428882D01*
X99412574Y-137488481D01*
X99462868Y-137623327D01*
X99462869Y-137623328D01*
X99462870Y-137623330D01*
X99549120Y-137738546D01*
X99664336Y-137824796D01*
X99664337Y-137824796D01*
X99664338Y-137824797D01*
X99799184Y-137875091D01*
X99799183Y-137875091D01*
X99806111Y-137875835D01*
X99858794Y-137881500D01*
X99858803Y-137881500D01*
X102154529Y-137881500D01*
X102154538Y-137881500D01*
X102214148Y-137875091D01*
X102348996Y-137824796D01*
X102464212Y-137738546D01*
X102550462Y-137623330D01*
X102600757Y-137488482D01*
X102607166Y-137428872D01*
X102607166Y-136281000D01*
X103361217Y-136281000D01*
X103380983Y-136532151D01*
X103439792Y-136777110D01*
X103536199Y-137009859D01*
X103667826Y-137224653D01*
X103667827Y-137224656D01*
X103723270Y-137289571D01*
X103831442Y-137416224D01*
X103949102Y-137516715D01*
X104023009Y-137579838D01*
X104023012Y-137579839D01*
X104237806Y-137711466D01*
X104334402Y-137751477D01*
X104470555Y-137807873D01*
X104715518Y-137866683D01*
X104966666Y-137886449D01*
X105217814Y-137866683D01*
X105462777Y-137807873D01*
X105695525Y-137711466D01*
X105910325Y-137579836D01*
X105938235Y-137555999D01*
X145331388Y-137555999D01*
X145331388Y-137556000D01*
X145350428Y-137712818D01*
X145392897Y-137824797D01*
X145406446Y-137860523D01*
X145496183Y-137990530D01*
X145614426Y-138095283D01*
X145614428Y-138095284D01*
X145754300Y-138168696D01*
X145907680Y-138206500D01*
X145907681Y-138206500D01*
X146065651Y-138206500D01*
X146219031Y-138168696D01*
X146358906Y-138095283D01*
X146403249Y-138055999D01*
X147331388Y-138055999D01*
X147331388Y-138056000D01*
X147350428Y-138212818D01*
X147406446Y-138360523D01*
X147496183Y-138490530D01*
X147614426Y-138595283D01*
X147614428Y-138595284D01*
X147754300Y-138668696D01*
X147907680Y-138706500D01*
X147907681Y-138706500D01*
X148065651Y-138706500D01*
X148167808Y-138681321D01*
X193886166Y-138681321D01*
X193886166Y-140430678D01*
X193900698Y-140503735D01*
X193900699Y-140503739D01*
X193900700Y-140503740D01*
X193956065Y-140586601D01*
X194038926Y-140641966D01*
X194038930Y-140641967D01*
X194111987Y-140656499D01*
X194111990Y-140656500D01*
X194111992Y-140656500D01*
X195861342Y-140656500D01*
X195861343Y-140656499D01*
X195934406Y-140641966D01*
X196017267Y-140586601D01*
X196072632Y-140503740D01*
X196087166Y-140430674D01*
X196087166Y-138681326D01*
X196087166Y-138681323D01*
X196087165Y-138681321D01*
X196072633Y-138608264D01*
X196072632Y-138608260D01*
X196063961Y-138595283D01*
X196017267Y-138525399D01*
X195934406Y-138470034D01*
X195934405Y-138470033D01*
X195934401Y-138470032D01*
X195861343Y-138455500D01*
X195861340Y-138455500D01*
X194111992Y-138455500D01*
X194111989Y-138455500D01*
X194038930Y-138470032D01*
X194038926Y-138470033D01*
X193956065Y-138525399D01*
X193900699Y-138608260D01*
X193900698Y-138608264D01*
X193886166Y-138681321D01*
X148167808Y-138681321D01*
X148219031Y-138668696D01*
X148358906Y-138595283D01*
X148477149Y-138490530D01*
X148566886Y-138360523D01*
X148622903Y-138212818D01*
X148641944Y-138056000D01*
X148622903Y-137899182D01*
X148616196Y-137881498D01*
X148601658Y-137843164D01*
X148566886Y-137751477D01*
X148477149Y-137621470D01*
X148358906Y-137516717D01*
X148358904Y-137516716D01*
X148358903Y-137516715D01*
X148219031Y-137443303D01*
X148065652Y-137405500D01*
X148065651Y-137405500D01*
X147907681Y-137405500D01*
X147907680Y-137405500D01*
X147754300Y-137443303D01*
X147614428Y-137516715D01*
X147496182Y-137621471D01*
X147406447Y-137751475D01*
X147406446Y-137751476D01*
X147350428Y-137899181D01*
X147331388Y-138055999D01*
X146403249Y-138055999D01*
X146477149Y-137990530D01*
X146566886Y-137860523D01*
X146622903Y-137712818D01*
X146641944Y-137556000D01*
X146622903Y-137399182D01*
X146566886Y-137251477D01*
X146477149Y-137121470D01*
X146358906Y-137016717D01*
X146358904Y-137016716D01*
X146358903Y-137016715D01*
X146219031Y-136943303D01*
X146065652Y-136905500D01*
X146065651Y-136905500D01*
X145907681Y-136905500D01*
X145907680Y-136905500D01*
X145754300Y-136943303D01*
X145614428Y-137016715D01*
X145496182Y-137121471D01*
X145406447Y-137251475D01*
X145406446Y-137251476D01*
X145350428Y-137399181D01*
X145331388Y-137555999D01*
X105938235Y-137555999D01*
X106101890Y-137416224D01*
X106265502Y-137224659D01*
X106397132Y-137009859D01*
X106493539Y-136777111D01*
X106546623Y-136555998D01*
X153380984Y-136555998D01*
X153380984Y-136556001D01*
X153401621Y-136712760D01*
X153401622Y-136712762D01*
X153462130Y-136858841D01*
X153558384Y-136984282D01*
X153683825Y-137080536D01*
X153829904Y-137141044D01*
X153908285Y-137151363D01*
X153986665Y-137161682D01*
X153986666Y-137161682D01*
X153986667Y-137161682D01*
X154038920Y-137154802D01*
X154143428Y-137141044D01*
X154289507Y-137080536D01*
X154414948Y-136984282D01*
X154511202Y-136858841D01*
X154571710Y-136712762D01*
X154592348Y-136556000D01*
X154571710Y-136399238D01*
X154511202Y-136253159D01*
X154414948Y-136127718D01*
X154289507Y-136031464D01*
X154285615Y-136029852D01*
X154143428Y-135970956D01*
X154143426Y-135970955D01*
X153986667Y-135950318D01*
X153986665Y-135950318D01*
X153829905Y-135970955D01*
X153829903Y-135970956D01*
X153683826Y-136031463D01*
X153558384Y-136127718D01*
X153462129Y-136253160D01*
X153401622Y-136399237D01*
X153401621Y-136399239D01*
X153380984Y-136555998D01*
X106546623Y-136555998D01*
X106552349Y-136532148D01*
X106572115Y-136281000D01*
X106552349Y-136029852D01*
X106493539Y-135784889D01*
X106398731Y-135556001D01*
X106398730Y-135555999D01*
X146831388Y-135555999D01*
X146831388Y-135556000D01*
X146850428Y-135712818D01*
X146905807Y-135858839D01*
X146906446Y-135860523D01*
X146996183Y-135990530D01*
X147114426Y-136095283D01*
X147114428Y-136095284D01*
X147254300Y-136168696D01*
X147407680Y-136206500D01*
X147407681Y-136206500D01*
X147565651Y-136206500D01*
X147719031Y-136168696D01*
X147732395Y-136161682D01*
X147858906Y-136095283D01*
X147977149Y-135990530D01*
X148066886Y-135860523D01*
X148122903Y-135712818D01*
X148141944Y-135556000D01*
X148141944Y-135555998D01*
X159380984Y-135555998D01*
X159380984Y-135556001D01*
X159401621Y-135712760D01*
X159401622Y-135712762D01*
X159462130Y-135858841D01*
X159558384Y-135984282D01*
X159683825Y-136080536D01*
X159829904Y-136141044D01*
X159908285Y-136151363D01*
X159986665Y-136161682D01*
X159986666Y-136161682D01*
X159986667Y-136161682D01*
X160038920Y-136154802D01*
X160143428Y-136141044D01*
X160289507Y-136080536D01*
X160414948Y-135984282D01*
X160511202Y-135858841D01*
X160571710Y-135712762D01*
X160592348Y-135556000D01*
X160571710Y-135399238D01*
X160511202Y-135253159D01*
X160419105Y-135133136D01*
X205406166Y-135133136D01*
X205406166Y-137428863D01*
X205406167Y-137428882D01*
X205412574Y-137488481D01*
X205462868Y-137623327D01*
X205462869Y-137623328D01*
X205462870Y-137623330D01*
X205549120Y-137738546D01*
X205664336Y-137824796D01*
X205664337Y-137824796D01*
X205664338Y-137824797D01*
X205799184Y-137875091D01*
X205799183Y-137875091D01*
X205806111Y-137875835D01*
X205858794Y-137881500D01*
X205858803Y-137881500D01*
X208154529Y-137881500D01*
X208154538Y-137881500D01*
X208214148Y-137875091D01*
X208348996Y-137824796D01*
X208464212Y-137738546D01*
X208550462Y-137623330D01*
X208600757Y-137488482D01*
X208607166Y-137428872D01*
X208607166Y-136281000D01*
X209361217Y-136281000D01*
X209380983Y-136532151D01*
X209439792Y-136777110D01*
X209536199Y-137009859D01*
X209667826Y-137224653D01*
X209667827Y-137224656D01*
X209723270Y-137289571D01*
X209831442Y-137416224D01*
X209949102Y-137516715D01*
X210023009Y-137579838D01*
X210023012Y-137579839D01*
X210237806Y-137711466D01*
X210334402Y-137751477D01*
X210470555Y-137807873D01*
X210715518Y-137866683D01*
X210966666Y-137886449D01*
X211217814Y-137866683D01*
X211462777Y-137807873D01*
X211695525Y-137711466D01*
X211910325Y-137579836D01*
X212101890Y-137416224D01*
X212265502Y-137224659D01*
X212397132Y-137009859D01*
X212493539Y-136777111D01*
X212552349Y-136532148D01*
X212572115Y-136281000D01*
X212552349Y-136029852D01*
X212493539Y-135784889D01*
X212398731Y-135556001D01*
X212397132Y-135552140D01*
X212265505Y-135337346D01*
X212265504Y-135337343D01*
X212228541Y-135294066D01*
X212101890Y-135145776D01*
X211968047Y-135031463D01*
X211910322Y-134982161D01*
X211910319Y-134982160D01*
X211695525Y-134850533D01*
X211462776Y-134754126D01*
X211217817Y-134695317D01*
X210966666Y-134675551D01*
X210715514Y-134695317D01*
X210470555Y-134754126D01*
X210237806Y-134850533D01*
X210023012Y-134982160D01*
X210023009Y-134982161D01*
X209831442Y-135145776D01*
X209667827Y-135337343D01*
X209667826Y-135337346D01*
X209536199Y-135552140D01*
X209439792Y-135784889D01*
X209380983Y-136029848D01*
X209361217Y-136281000D01*
X208607166Y-136281000D01*
X208607166Y-135133128D01*
X208600757Y-135073518D01*
X208562504Y-134970955D01*
X208550463Y-134938672D01*
X208550462Y-134938671D01*
X208550462Y-134938670D01*
X208464212Y-134823454D01*
X208348996Y-134737204D01*
X208348994Y-134737203D01*
X208348993Y-134737202D01*
X208214147Y-134686908D01*
X208214148Y-134686908D01*
X208154548Y-134680501D01*
X208154546Y-134680500D01*
X208154538Y-134680500D01*
X205858794Y-134680500D01*
X205858786Y-134680500D01*
X205858783Y-134680501D01*
X205799184Y-134686908D01*
X205664338Y-134737202D01*
X205664336Y-134737204D01*
X205549120Y-134823454D01*
X205462870Y-134938670D01*
X205462868Y-134938672D01*
X205412574Y-135073518D01*
X205406167Y-135133117D01*
X205406166Y-135133136D01*
X160419105Y-135133136D01*
X160414948Y-135127718D01*
X160289507Y-135031464D01*
X160170486Y-134982164D01*
X160143428Y-134970956D01*
X160143426Y-134970955D01*
X159986667Y-134950318D01*
X159986665Y-134950318D01*
X159829905Y-134970955D01*
X159829903Y-134970956D01*
X159683826Y-135031463D01*
X159558384Y-135127718D01*
X159462129Y-135253160D01*
X159401622Y-135399237D01*
X159401621Y-135399239D01*
X159380984Y-135555998D01*
X148141944Y-135555998D01*
X148141476Y-135552141D01*
X148122903Y-135399181D01*
X148067524Y-135253160D01*
X148066886Y-135251477D01*
X147977149Y-135121470D01*
X147858906Y-135016717D01*
X147858904Y-135016716D01*
X147858903Y-135016715D01*
X147719031Y-134943303D01*
X147565652Y-134905500D01*
X147565651Y-134905500D01*
X147407681Y-134905500D01*
X147407680Y-134905500D01*
X147254300Y-134943303D01*
X147114428Y-135016715D01*
X146996182Y-135121471D01*
X146906447Y-135251475D01*
X146906446Y-135251476D01*
X146850428Y-135399181D01*
X146831388Y-135555999D01*
X106398730Y-135555999D01*
X106397132Y-135552140D01*
X106265505Y-135337346D01*
X106265504Y-135337343D01*
X106228541Y-135294066D01*
X106101890Y-135145776D01*
X105968047Y-135031463D01*
X105910322Y-134982161D01*
X105910319Y-134982160D01*
X105695525Y-134850533D01*
X105462776Y-134754126D01*
X105217817Y-134695317D01*
X104966666Y-134675551D01*
X104715514Y-134695317D01*
X104470555Y-134754126D01*
X104237806Y-134850533D01*
X104023012Y-134982160D01*
X104023009Y-134982161D01*
X103831442Y-135145776D01*
X103667827Y-135337343D01*
X103667826Y-135337346D01*
X103536199Y-135552140D01*
X103439792Y-135784889D01*
X103380983Y-136029848D01*
X103361217Y-136281000D01*
X102607166Y-136281000D01*
X102607166Y-135133128D01*
X102600757Y-135073518D01*
X102562504Y-134970955D01*
X102550463Y-134938672D01*
X102550462Y-134938671D01*
X102550462Y-134938670D01*
X102464212Y-134823454D01*
X102348996Y-134737204D01*
X102348994Y-134737203D01*
X102348993Y-134737202D01*
X102214147Y-134686908D01*
X102214148Y-134686908D01*
X102154548Y-134680501D01*
X102154546Y-134680500D01*
X102154538Y-134680500D01*
X99858794Y-134680500D01*
X99858786Y-134680500D01*
X99858783Y-134680501D01*
X99799184Y-134686908D01*
X99664338Y-134737202D01*
X99664336Y-134737204D01*
X99549120Y-134823454D01*
X99462870Y-134938670D01*
X99462868Y-134938672D01*
X99412574Y-135073518D01*
X99406167Y-135133117D01*
X99406166Y-135133136D01*
X93992132Y-135133136D01*
X93992132Y-130555998D01*
X95380984Y-130555998D01*
X95380984Y-130556001D01*
X95401621Y-130712760D01*
X95401622Y-130712762D01*
X95434923Y-130793159D01*
X95462130Y-130858841D01*
X95558384Y-130984282D01*
X95683825Y-131080536D01*
X95829904Y-131141044D01*
X95908285Y-131151363D01*
X95986665Y-131161682D01*
X95986666Y-131161682D01*
X95986667Y-131161682D01*
X96038920Y-131154802D01*
X96143428Y-131141044D01*
X96289507Y-131080536D01*
X96411181Y-130987171D01*
X96476349Y-130961979D01*
X96544793Y-130976017D01*
X96562144Y-130987167D01*
X96683825Y-131080536D01*
X96829904Y-131141044D01*
X96908285Y-131151363D01*
X96986665Y-131161682D01*
X96986666Y-131161682D01*
X96986667Y-131161682D01*
X97038920Y-131154802D01*
X97143428Y-131141044D01*
X97289507Y-131080536D01*
X97411181Y-130987171D01*
X97476349Y-130961979D01*
X97544793Y-130976017D01*
X97562144Y-130987167D01*
X97683825Y-131080536D01*
X97829904Y-131141044D01*
X97908285Y-131151363D01*
X97986665Y-131161682D01*
X97986666Y-131161682D01*
X97986667Y-131161682D01*
X98038920Y-131154802D01*
X98143428Y-131141044D01*
X98289507Y-131080536D01*
X98411181Y-130987171D01*
X98476349Y-130961979D01*
X98544793Y-130976017D01*
X98562144Y-130987167D01*
X98683825Y-131080536D01*
X98829904Y-131141044D01*
X98908285Y-131151363D01*
X98986665Y-131161682D01*
X98986666Y-131161682D01*
X98986667Y-131161682D01*
X99038920Y-131154802D01*
X99143428Y-131141044D01*
X99289507Y-131080536D01*
X99414948Y-130984282D01*
X99511202Y-130858841D01*
X99571710Y-130712762D01*
X99592348Y-130556000D01*
X99571710Y-130399238D01*
X99511202Y-130253159D01*
X99414948Y-130127718D01*
X99289507Y-130031464D01*
X99143428Y-129970956D01*
X99143426Y-129970955D01*
X98986667Y-129950318D01*
X98986665Y-129950318D01*
X98829905Y-129970955D01*
X98829903Y-129970956D01*
X98683823Y-130031464D01*
X98562152Y-130124826D01*
X98496983Y-130150020D01*
X98428538Y-130135981D01*
X98411180Y-130124826D01*
X98289508Y-130031464D01*
X98143428Y-129970956D01*
X98143426Y-129970955D01*
X97986667Y-129950318D01*
X97986665Y-129950318D01*
X97829905Y-129970955D01*
X97829903Y-129970956D01*
X97683823Y-130031464D01*
X97562152Y-130124826D01*
X97496983Y-130150020D01*
X97428538Y-130135981D01*
X97411180Y-130124826D01*
X97289508Y-130031464D01*
X97143428Y-129970956D01*
X97143426Y-129970955D01*
X96986667Y-129950318D01*
X96986665Y-129950318D01*
X96829905Y-129970955D01*
X96829903Y-129970956D01*
X96683823Y-130031464D01*
X96562152Y-130124826D01*
X96496983Y-130150020D01*
X96428538Y-130135981D01*
X96411180Y-130124826D01*
X96289508Y-130031464D01*
X96143428Y-129970956D01*
X96143426Y-129970955D01*
X95986667Y-129950318D01*
X95986665Y-129950318D01*
X95829905Y-129970955D01*
X95829903Y-129970956D01*
X95683826Y-130031463D01*
X95558384Y-130127718D01*
X95462129Y-130253160D01*
X95401622Y-130399237D01*
X95401621Y-130399239D01*
X95380984Y-130555998D01*
X93992132Y-130555998D01*
X93992132Y-127555998D01*
X95380984Y-127555998D01*
X95380984Y-127556001D01*
X95401621Y-127712760D01*
X95401622Y-127712762D01*
X95462130Y-127858841D01*
X95558384Y-127984282D01*
X95683825Y-128080536D01*
X95829904Y-128141044D01*
X95908285Y-128151363D01*
X95986665Y-128161682D01*
X95986666Y-128161682D01*
X95986667Y-128161682D01*
X96038920Y-128154802D01*
X96143428Y-128141044D01*
X96289507Y-128080536D01*
X96411181Y-127987171D01*
X96476349Y-127961979D01*
X96544793Y-127976017D01*
X96562144Y-127987167D01*
X96683825Y-128080536D01*
X96829904Y-128141044D01*
X96908285Y-128151363D01*
X96986665Y-128161682D01*
X96986666Y-128161682D01*
X96986667Y-128161682D01*
X97038920Y-128154802D01*
X97143428Y-128141044D01*
X97289507Y-128080536D01*
X97334407Y-128046082D01*
X97399576Y-128020888D01*
X97468021Y-128034926D01*
X97508267Y-128068969D01*
X97558384Y-128134282D01*
X97683825Y-128230536D01*
X97738442Y-128253159D01*
X97770502Y-128266439D01*
X97824905Y-128310280D01*
X97846970Y-128376574D01*
X97829691Y-128444274D01*
X97778553Y-128491884D01*
X97770502Y-128495561D01*
X97683823Y-128531464D01*
X97562152Y-128624826D01*
X97496983Y-128650020D01*
X97428538Y-128635981D01*
X97411180Y-128624826D01*
X97289508Y-128531464D01*
X97143428Y-128470956D01*
X97143426Y-128470955D01*
X96986667Y-128450318D01*
X96986665Y-128450318D01*
X96829905Y-128470955D01*
X96829903Y-128470956D01*
X96683823Y-128531464D01*
X96562152Y-128624826D01*
X96496983Y-128650020D01*
X96428538Y-128635981D01*
X96411180Y-128624826D01*
X96289508Y-128531464D01*
X96143428Y-128470956D01*
X96143426Y-128470955D01*
X95986667Y-128450318D01*
X95986665Y-128450318D01*
X95829905Y-128470955D01*
X95829903Y-128470956D01*
X95683826Y-128531463D01*
X95558384Y-128627718D01*
X95462129Y-128753160D01*
X95401622Y-128899237D01*
X95401621Y-128899239D01*
X95380984Y-129055998D01*
X95380984Y-129056001D01*
X95401621Y-129212760D01*
X95401622Y-129212762D01*
X95462130Y-129358841D01*
X95558384Y-129484282D01*
X95683825Y-129580536D01*
X95829904Y-129641044D01*
X95908285Y-129651363D01*
X95986665Y-129661682D01*
X95986666Y-129661682D01*
X95986667Y-129661682D01*
X96038920Y-129654802D01*
X96143428Y-129641044D01*
X96289507Y-129580536D01*
X96411181Y-129487171D01*
X96476349Y-129461979D01*
X96544793Y-129476017D01*
X96562144Y-129487167D01*
X96683825Y-129580536D01*
X96829904Y-129641044D01*
X96908285Y-129651363D01*
X96986665Y-129661682D01*
X96986666Y-129661682D01*
X96986667Y-129661682D01*
X97038920Y-129654802D01*
X97143428Y-129641044D01*
X97289507Y-129580536D01*
X97411181Y-129487171D01*
X97476349Y-129461979D01*
X97544793Y-129476017D01*
X97562144Y-129487167D01*
X97683825Y-129580536D01*
X97829904Y-129641044D01*
X97908285Y-129651363D01*
X97986665Y-129661682D01*
X97986666Y-129661682D01*
X97986667Y-129661682D01*
X98038920Y-129654802D01*
X98143428Y-129641044D01*
X98289507Y-129580536D01*
X98411181Y-129487171D01*
X98476349Y-129461979D01*
X98544793Y-129476017D01*
X98562144Y-129487167D01*
X98683825Y-129580536D01*
X98829904Y-129641044D01*
X98908285Y-129651363D01*
X98986665Y-129661682D01*
X98986666Y-129661682D01*
X98986667Y-129661682D01*
X99038920Y-129654802D01*
X99143428Y-129641044D01*
X99289507Y-129580536D01*
X99414948Y-129484282D01*
X99511202Y-129358841D01*
X99571710Y-129212762D01*
X99592348Y-129056000D01*
X99571710Y-128899238D01*
X99511202Y-128753159D01*
X99414948Y-128627718D01*
X99289507Y-128531464D01*
X99202682Y-128495500D01*
X99143428Y-128470956D01*
X99143426Y-128470955D01*
X98986667Y-128450318D01*
X98986665Y-128450318D01*
X98829905Y-128470955D01*
X98829903Y-128470956D01*
X98683823Y-128531464D01*
X98562152Y-128624826D01*
X98496983Y-128650020D01*
X98428538Y-128635981D01*
X98411180Y-128624826D01*
X98289508Y-128531464D01*
X98208411Y-128497873D01*
X98202828Y-128495560D01*
X98148426Y-128451720D01*
X98126361Y-128385426D01*
X98143640Y-128317727D01*
X98194777Y-128270116D01*
X98202822Y-128266441D01*
X98289507Y-128230536D01*
X98414948Y-128134282D01*
X98465063Y-128068970D01*
X98521488Y-128027769D01*
X98591234Y-128023614D01*
X98638923Y-128046082D01*
X98683823Y-128080535D01*
X98683824Y-128080535D01*
X98683825Y-128080536D01*
X98829904Y-128141044D01*
X98908285Y-128151363D01*
X98986665Y-128161682D01*
X98986666Y-128161682D01*
X98986667Y-128161682D01*
X99038920Y-128154802D01*
X99143428Y-128141044D01*
X99289507Y-128080536D01*
X99414948Y-127984282D01*
X99511202Y-127858841D01*
X99571710Y-127712762D01*
X99592348Y-127556000D01*
X99584695Y-127497873D01*
X99571710Y-127399239D01*
X99571710Y-127399238D01*
X99511202Y-127253159D01*
X99414948Y-127127718D01*
X99289507Y-127031464D01*
X99143428Y-126970956D01*
X99143426Y-126970955D01*
X98986667Y-126950318D01*
X98986665Y-126950318D01*
X98829905Y-126970955D01*
X98829903Y-126970956D01*
X98683826Y-127031463D01*
X98558381Y-127127720D01*
X98508269Y-127193028D01*
X98451841Y-127234231D01*
X98382095Y-127238385D01*
X98334408Y-127215917D01*
X98289508Y-127181464D01*
X98143428Y-127120956D01*
X98143426Y-127120955D01*
X97986667Y-127100318D01*
X97986665Y-127100318D01*
X97829905Y-127120955D01*
X97829903Y-127120956D01*
X97683824Y-127181464D01*
X97638922Y-127215918D01*
X97573752Y-127241111D01*
X97505308Y-127227072D01*
X97465061Y-127193027D01*
X97414949Y-127127719D01*
X97411179Y-127124826D01*
X97289507Y-127031464D01*
X97143428Y-126970956D01*
X97143426Y-126970955D01*
X96986667Y-126950318D01*
X96986665Y-126950318D01*
X96829905Y-126970955D01*
X96829903Y-126970956D01*
X96683823Y-127031464D01*
X96562152Y-127124826D01*
X96496983Y-127150020D01*
X96428538Y-127135981D01*
X96411180Y-127124826D01*
X96289508Y-127031464D01*
X96143428Y-126970956D01*
X96143426Y-126970955D01*
X95986667Y-126950318D01*
X95986665Y-126950318D01*
X95829905Y-126970955D01*
X95829903Y-126970956D01*
X95683826Y-127031463D01*
X95558384Y-127127718D01*
X95462129Y-127253160D01*
X95401622Y-127399237D01*
X95401621Y-127399239D01*
X95380984Y-127555998D01*
X93992132Y-127555998D01*
X93992132Y-114252629D01*
X94011817Y-114185590D01*
X94064621Y-114139835D01*
X94133779Y-114129891D01*
X94197335Y-114158916D01*
X94235109Y-114217694D01*
X94239352Y-114238746D01*
X94270752Y-114517437D01*
X94270755Y-114517455D01*
X94339497Y-114818635D01*
X94339501Y-114818647D01*
X94441528Y-115110222D01*
X94441534Y-115110236D01*
X94575569Y-115388562D01*
X94575571Y-115388565D01*
X94739931Y-115650143D01*
X94932546Y-115891674D01*
X95150992Y-116110120D01*
X95392523Y-116302735D01*
X95654101Y-116467095D01*
X95932437Y-116601135D01*
X95932443Y-116601137D01*
X96224018Y-116703164D01*
X96224030Y-116703168D01*
X96525214Y-116771911D01*
X96525218Y-116771911D01*
X96525227Y-116771913D01*
X96714104Y-116793193D01*
X96806181Y-116803568D01*
X96870595Y-116830634D01*
X96879979Y-116839107D01*
X98284691Y-118243819D01*
X98318176Y-118305142D01*
X98313192Y-118374834D01*
X98271320Y-118430767D01*
X98205856Y-118455184D01*
X98197010Y-118455500D01*
X96611989Y-118455500D01*
X96538930Y-118470032D01*
X96538926Y-118470033D01*
X96456065Y-118525399D01*
X96400699Y-118608260D01*
X96400698Y-118608264D01*
X96386166Y-118681321D01*
X96386166Y-120430678D01*
X96400698Y-120503735D01*
X96400699Y-120503739D01*
X96400700Y-120503740D01*
X96456065Y-120586601D01*
X96517602Y-120627718D01*
X96538926Y-120641966D01*
X96538930Y-120641967D01*
X96611987Y-120656499D01*
X96611990Y-120656500D01*
X96611992Y-120656500D01*
X98361342Y-120656500D01*
X98361343Y-120656499D01*
X98434406Y-120641966D01*
X98517267Y-120586601D01*
X98572632Y-120503740D01*
X98587166Y-120430674D01*
X98587166Y-118845656D01*
X98606851Y-118778617D01*
X98659655Y-118732862D01*
X98728813Y-118722918D01*
X98792369Y-118751943D01*
X98798847Y-118757975D01*
X102600181Y-122559309D01*
X102633666Y-122620632D01*
X102628682Y-122690324D01*
X102600181Y-122734671D01*
X102586168Y-122748683D01*
X102586166Y-122748686D01*
X102520274Y-122862812D01*
X102486166Y-122990108D01*
X102486166Y-132297324D01*
X102466481Y-132364363D01*
X102449847Y-132385005D01*
X102315671Y-132519181D01*
X102254348Y-132552666D01*
X102227990Y-132555500D01*
X96862923Y-132555500D01*
X96795884Y-132535815D01*
X96790566Y-132532075D01*
X96789502Y-132531461D01*
X96643431Y-132470957D01*
X96643426Y-132470955D01*
X96486667Y-132450318D01*
X96486665Y-132450318D01*
X96329905Y-132470955D01*
X96329903Y-132470956D01*
X96183826Y-132531463D01*
X96058384Y-132627718D01*
X95962129Y-132753160D01*
X95901622Y-132899237D01*
X95901621Y-132899239D01*
X95880984Y-133055998D01*
X95880984Y-133056001D01*
X95901621Y-133212760D01*
X95901622Y-133212762D01*
X95962130Y-133358841D01*
X96058384Y-133484282D01*
X96183825Y-133580536D01*
X96329904Y-133641044D01*
X96408285Y-133651363D01*
X96486665Y-133661682D01*
X96486666Y-133661682D01*
X96486667Y-133661682D01*
X96538920Y-133654802D01*
X96643428Y-133641044D01*
X96789507Y-133580536D01*
X96789511Y-133580532D01*
X96796542Y-133576474D01*
X96797548Y-133578216D01*
X96852598Y-133556931D01*
X96862923Y-133556500D01*
X102420774Y-133556500D01*
X109610409Y-133556500D01*
X109677448Y-133576185D01*
X109682765Y-133579924D01*
X109683823Y-133580534D01*
X109683825Y-133580536D01*
X109683826Y-133580536D01*
X109683829Y-133580538D01*
X109756864Y-133610790D01*
X109829904Y-133641044D01*
X109908285Y-133651363D01*
X109986665Y-133661682D01*
X109986666Y-133661682D01*
X109986667Y-133661682D01*
X110038920Y-133654802D01*
X110143428Y-133641044D01*
X110289507Y-133580536D01*
X110414948Y-133484282D01*
X110511202Y-133358841D01*
X110571710Y-133212762D01*
X110588319Y-133086601D01*
X110592348Y-133056001D01*
X110592348Y-133055998D01*
X110571710Y-132899239D01*
X110571710Y-132899238D01*
X110526342Y-132789711D01*
X123246166Y-132789711D01*
X123246166Y-133032288D01*
X123277827Y-133272785D01*
X123340613Y-133507104D01*
X123390573Y-133627718D01*
X123433442Y-133731212D01*
X123554730Y-133941289D01*
X123554732Y-133941292D01*
X123554733Y-133941293D01*
X123702399Y-134133736D01*
X123702405Y-134133743D01*
X123873922Y-134305260D01*
X123873928Y-134305265D01*
X124066377Y-134452936D01*
X124276454Y-134574224D01*
X124500566Y-134667054D01*
X124734877Y-134729838D01*
X124915252Y-134753584D01*
X124975377Y-134761500D01*
X124975378Y-134761500D01*
X125217955Y-134761500D01*
X125273966Y-134754126D01*
X125458455Y-134729838D01*
X125692766Y-134667054D01*
X125916878Y-134574224D01*
X126126955Y-134452936D01*
X126319404Y-134305265D01*
X126490931Y-134133738D01*
X126550583Y-134055998D01*
X136380984Y-134055998D01*
X136380984Y-134056001D01*
X136401621Y-134212760D01*
X136401622Y-134212762D01*
X136462130Y-134358841D01*
X136558384Y-134484282D01*
X136683825Y-134580536D01*
X136829904Y-134641044D01*
X136908285Y-134651363D01*
X136986665Y-134661682D01*
X136986666Y-134661682D01*
X136986667Y-134661682D01*
X137038920Y-134654802D01*
X137143428Y-134641044D01*
X137289507Y-134580536D01*
X137414948Y-134484282D01*
X137511202Y-134358841D01*
X137571710Y-134212762D01*
X137592348Y-134056000D01*
X137592348Y-134055998D01*
X156005984Y-134055998D01*
X156005984Y-134056001D01*
X156026621Y-134212760D01*
X156026622Y-134212762D01*
X156087130Y-134358841D01*
X156183384Y-134484282D01*
X156308825Y-134580536D01*
X156454904Y-134641044D01*
X156533285Y-134651363D01*
X156611665Y-134661682D01*
X156611666Y-134661682D01*
X156611667Y-134661682D01*
X156663920Y-134654802D01*
X156768428Y-134641044D01*
X156914507Y-134580536D01*
X157039948Y-134484282D01*
X157136202Y-134358841D01*
X157196710Y-134212762D01*
X157217348Y-134056000D01*
X157196710Y-133899238D01*
X157136202Y-133753159D01*
X157039948Y-133627718D01*
X156914507Y-133531464D01*
X156768428Y-133470956D01*
X156768426Y-133470955D01*
X156611667Y-133450318D01*
X156611665Y-133450318D01*
X156454905Y-133470955D01*
X156454903Y-133470956D01*
X156308826Y-133531463D01*
X156183384Y-133627718D01*
X156087129Y-133753160D01*
X156026622Y-133899237D01*
X156026621Y-133899239D01*
X156005984Y-134055998D01*
X137592348Y-134055998D01*
X137571710Y-133899238D01*
X137511202Y-133753159D01*
X137414948Y-133627718D01*
X137289507Y-133531464D01*
X137143428Y-133470956D01*
X137143426Y-133470955D01*
X136986667Y-133450318D01*
X136986665Y-133450318D01*
X136829905Y-133470955D01*
X136829903Y-133470956D01*
X136683826Y-133531463D01*
X136558384Y-133627718D01*
X136462129Y-133753160D01*
X136401622Y-133899237D01*
X136401621Y-133899239D01*
X136380984Y-134055998D01*
X126550583Y-134055998D01*
X126638602Y-133941289D01*
X126759890Y-133731212D01*
X126852720Y-133507100D01*
X126915504Y-133272789D01*
X126947166Y-133032288D01*
X126947166Y-132789712D01*
X126915504Y-132549211D01*
X126852720Y-132314900D01*
X126759890Y-132090788D01*
X126638602Y-131880711D01*
X126490931Y-131688262D01*
X126490926Y-131688256D01*
X126319409Y-131516739D01*
X126319402Y-131516733D01*
X126126959Y-131369067D01*
X126126958Y-131369066D01*
X126126955Y-131369064D01*
X125916878Y-131247776D01*
X125916871Y-131247773D01*
X125756442Y-131181321D01*
X144886166Y-131181321D01*
X144886166Y-132930678D01*
X144900698Y-133003735D01*
X144900699Y-133003739D01*
X144900700Y-133003740D01*
X144956065Y-133086601D01*
X145037543Y-133141042D01*
X145038926Y-133141966D01*
X145038930Y-133141967D01*
X145111987Y-133156499D01*
X145111990Y-133156500D01*
X145111992Y-133156500D01*
X146861342Y-133156500D01*
X146861343Y-133156499D01*
X146934406Y-133141966D01*
X147017267Y-133086601D01*
X147072632Y-133003740D01*
X147087166Y-132930674D01*
X147087166Y-132555998D01*
X153380984Y-132555998D01*
X153380984Y-132556001D01*
X153401621Y-132712760D01*
X153401622Y-132712762D01*
X153441601Y-132809281D01*
X153462130Y-132858841D01*
X153558384Y-132984282D01*
X153683825Y-133080536D01*
X153829904Y-133141044D01*
X153908285Y-133151363D01*
X153986665Y-133161682D01*
X153986666Y-133161682D01*
X153986667Y-133161682D01*
X154038920Y-133154802D01*
X154143428Y-133141044D01*
X154289507Y-133080536D01*
X154414948Y-132984282D01*
X154511202Y-132858841D01*
X154571710Y-132712762D01*
X154592348Y-132556000D01*
X154592225Y-132555069D01*
X154571710Y-132399239D01*
X154571710Y-132399238D01*
X154564155Y-132380998D01*
X158380984Y-132380998D01*
X158380984Y-132381001D01*
X158401621Y-132537760D01*
X158401622Y-132537762D01*
X158462130Y-132683841D01*
X158558384Y-132809282D01*
X158683825Y-132905536D01*
X158829904Y-132966044D01*
X158908285Y-132976363D01*
X158986665Y-132986682D01*
X158986666Y-132986682D01*
X158986667Y-132986682D01*
X159038920Y-132979802D01*
X159143428Y-132966044D01*
X159289507Y-132905536D01*
X159414948Y-132809282D01*
X159429965Y-132789711D01*
X186246166Y-132789711D01*
X186246166Y-133032288D01*
X186277827Y-133272785D01*
X186340613Y-133507104D01*
X186390573Y-133627718D01*
X186433442Y-133731212D01*
X186554730Y-133941289D01*
X186554732Y-133941292D01*
X186554733Y-133941293D01*
X186702399Y-134133736D01*
X186702405Y-134133743D01*
X186873922Y-134305260D01*
X186873928Y-134305265D01*
X187066377Y-134452936D01*
X187276454Y-134574224D01*
X187500566Y-134667054D01*
X187734877Y-134729838D01*
X187915252Y-134753584D01*
X187975377Y-134761500D01*
X187975378Y-134761500D01*
X188217955Y-134761500D01*
X188273966Y-134754126D01*
X188458455Y-134729838D01*
X188692766Y-134667054D01*
X188916878Y-134574224D01*
X189126955Y-134452936D01*
X189319404Y-134305265D01*
X189490931Y-134133738D01*
X189638602Y-133941289D01*
X189759890Y-133731212D01*
X189852720Y-133507100D01*
X189915504Y-133272789D01*
X189947166Y-133032288D01*
X189947166Y-132789712D01*
X189915504Y-132549211D01*
X189852720Y-132314900D01*
X189759890Y-132090788D01*
X189638602Y-131880711D01*
X189490931Y-131688262D01*
X189490926Y-131688256D01*
X189319409Y-131516739D01*
X189319402Y-131516733D01*
X189126959Y-131369067D01*
X189126958Y-131369066D01*
X189126955Y-131369064D01*
X188916878Y-131247776D01*
X188916871Y-131247773D01*
X188692770Y-131154947D01*
X188458451Y-131092161D01*
X188217955Y-131060500D01*
X188217954Y-131060500D01*
X187975378Y-131060500D01*
X187975377Y-131060500D01*
X187734880Y-131092161D01*
X187500561Y-131154947D01*
X187276460Y-131247773D01*
X187276451Y-131247777D01*
X187066372Y-131369067D01*
X186873929Y-131516733D01*
X186873922Y-131516739D01*
X186702405Y-131688256D01*
X186702399Y-131688263D01*
X186554733Y-131880706D01*
X186433443Y-132090785D01*
X186433439Y-132090794D01*
X186340613Y-132314895D01*
X186277827Y-132549214D01*
X186246166Y-132789711D01*
X159429965Y-132789711D01*
X159511202Y-132683841D01*
X159571710Y-132537762D01*
X159592348Y-132381000D01*
X159571710Y-132224238D01*
X159511202Y-132078159D01*
X159414948Y-131952718D01*
X159289507Y-131856464D01*
X159143428Y-131795956D01*
X159143426Y-131795955D01*
X158986667Y-131775318D01*
X158986665Y-131775318D01*
X158829905Y-131795955D01*
X158829903Y-131795956D01*
X158683826Y-131856463D01*
X158558384Y-131952718D01*
X158462129Y-132078160D01*
X158401622Y-132224237D01*
X158401621Y-132224239D01*
X158380984Y-132380998D01*
X154564155Y-132380998D01*
X154511202Y-132253159D01*
X154414948Y-132127718D01*
X154289507Y-132031464D01*
X154143428Y-131970956D01*
X154143426Y-131970955D01*
X153986667Y-131950318D01*
X153986665Y-131950318D01*
X153829905Y-131970955D01*
X153829903Y-131970956D01*
X153683826Y-132031463D01*
X153558384Y-132127718D01*
X153462129Y-132253160D01*
X153401622Y-132399237D01*
X153401621Y-132399239D01*
X153380984Y-132555998D01*
X147087166Y-132555998D01*
X147087166Y-131181326D01*
X147087166Y-131181323D01*
X147087165Y-131181321D01*
X147072633Y-131108264D01*
X147072632Y-131108260D01*
X147061875Y-131092161D01*
X147017267Y-131025399D01*
X146955729Y-130984281D01*
X146934405Y-130970033D01*
X146934401Y-130970032D01*
X146861343Y-130955500D01*
X146861340Y-130955500D01*
X145111992Y-130955500D01*
X145111989Y-130955500D01*
X145038930Y-130970032D01*
X145038926Y-130970033D01*
X144956065Y-131025399D01*
X144900699Y-131108260D01*
X144900698Y-131108264D01*
X144886166Y-131181321D01*
X125756442Y-131181321D01*
X125692770Y-131154947D01*
X125458451Y-131092161D01*
X125217955Y-131060500D01*
X125217954Y-131060500D01*
X124975378Y-131060500D01*
X124975377Y-131060500D01*
X124734880Y-131092161D01*
X124500561Y-131154947D01*
X124276460Y-131247773D01*
X124276451Y-131247777D01*
X124066372Y-131369067D01*
X123873929Y-131516733D01*
X123873922Y-131516739D01*
X123702405Y-131688256D01*
X123702399Y-131688263D01*
X123554733Y-131880706D01*
X123433443Y-132090785D01*
X123433439Y-132090794D01*
X123340613Y-132314895D01*
X123277827Y-132549214D01*
X123246166Y-132789711D01*
X110526342Y-132789711D01*
X110511202Y-132753159D01*
X110414948Y-132627718D01*
X110289507Y-132531464D01*
X110259853Y-132519181D01*
X110143428Y-132470956D01*
X110143426Y-132470955D01*
X109986667Y-132450318D01*
X109986665Y-132450318D01*
X109829905Y-132470955D01*
X109829900Y-132470957D01*
X109683829Y-132531461D01*
X109676790Y-132535526D01*
X109675783Y-132533783D01*
X109620734Y-132555069D01*
X109610409Y-132555500D01*
X103611166Y-132555500D01*
X103544127Y-132535815D01*
X103498372Y-132483011D01*
X103487166Y-132431500D01*
X103487166Y-129595999D01*
X132881451Y-129595999D01*
X132881451Y-129596000D01*
X132900268Y-129799082D01*
X132956083Y-129995247D01*
X132956088Y-129995260D01*
X133046993Y-130177821D01*
X133169903Y-130340581D01*
X133320624Y-130477980D01*
X133320626Y-130477982D01*
X133419807Y-130539392D01*
X133494029Y-130585348D01*
X133684210Y-130659024D01*
X133884690Y-130696500D01*
X133884692Y-130696500D01*
X134088640Y-130696500D01*
X134088642Y-130696500D01*
X134289122Y-130659024D01*
X134479303Y-130585348D01*
X134652707Y-130477981D01*
X134803430Y-130340579D01*
X134926339Y-130177821D01*
X135017248Y-129995250D01*
X135073063Y-129799083D01*
X135091881Y-129596000D01*
X135088174Y-129555998D01*
X153380984Y-129555998D01*
X153380984Y-129556001D01*
X153401621Y-129712760D01*
X153401622Y-129712762D01*
X153462130Y-129858841D01*
X153558384Y-129984282D01*
X153683825Y-130080536D01*
X153829904Y-130141044D01*
X153898084Y-130150020D01*
X153986665Y-130161682D01*
X153986666Y-130161682D01*
X153986667Y-130161682D01*
X154038920Y-130154802D01*
X154143428Y-130141044D01*
X154230018Y-130105176D01*
X154299486Y-130097708D01*
X154361966Y-130128983D01*
X154397618Y-130189072D01*
X154400408Y-130203547D01*
X154401620Y-130212756D01*
X154401622Y-130212762D01*
X154454565Y-130340579D01*
X154462130Y-130358841D01*
X154558384Y-130484282D01*
X154683825Y-130580536D01*
X154829904Y-130641044D01*
X154908285Y-130651363D01*
X154986665Y-130661682D01*
X154986666Y-130661682D01*
X154986667Y-130661682D01*
X155038920Y-130654802D01*
X155143428Y-130641044D01*
X155289507Y-130580536D01*
X155414948Y-130484282D01*
X155511202Y-130358841D01*
X155571710Y-130212762D01*
X155592348Y-130056000D01*
X155584351Y-129995260D01*
X155571710Y-129899239D01*
X155571710Y-129899238D01*
X155511202Y-129753159D01*
X155414948Y-129627718D01*
X155289507Y-129531464D01*
X155230018Y-129506823D01*
X155143428Y-129470956D01*
X155143426Y-129470955D01*
X154986667Y-129450318D01*
X154986665Y-129450318D01*
X154829906Y-129470955D01*
X154743313Y-129506823D01*
X154673843Y-129514291D01*
X154611364Y-129483015D01*
X154575712Y-129422926D01*
X154572922Y-129408445D01*
X154571710Y-129399240D01*
X154571710Y-129399239D01*
X154571710Y-129399238D01*
X154511202Y-129253159D01*
X154414948Y-129127718D01*
X154289507Y-129031464D01*
X154247777Y-129014179D01*
X154143428Y-128970956D01*
X154143426Y-128970955D01*
X153986667Y-128950318D01*
X153986665Y-128950318D01*
X153829905Y-128970955D01*
X153829903Y-128970956D01*
X153683826Y-129031463D01*
X153558384Y-129127718D01*
X153462129Y-129253160D01*
X153401622Y-129399237D01*
X153401621Y-129399239D01*
X153380984Y-129555998D01*
X135088174Y-129555998D01*
X135073063Y-129392917D01*
X135017248Y-129196750D01*
X134999786Y-129161682D01*
X134959381Y-129080536D01*
X134926339Y-129014179D01*
X134867370Y-128936091D01*
X134803428Y-128851418D01*
X134652707Y-128714019D01*
X134652705Y-128714017D01*
X134479308Y-128606655D01*
X134479301Y-128606651D01*
X134348549Y-128555998D01*
X142380984Y-128555998D01*
X142380984Y-128556001D01*
X142401621Y-128712760D01*
X142401622Y-128712762D01*
X142459056Y-128851421D01*
X142462130Y-128858841D01*
X142558384Y-128984282D01*
X142683825Y-129080536D01*
X142829904Y-129141044D01*
X142908285Y-129151363D01*
X142986665Y-129161682D01*
X142986666Y-129161682D01*
X142986667Y-129161682D01*
X143038920Y-129154802D01*
X143143428Y-129141044D01*
X143289507Y-129080536D01*
X143414948Y-128984282D01*
X143511202Y-128858841D01*
X143571710Y-128712762D01*
X143592348Y-128556000D01*
X143592348Y-128555998D01*
X148380984Y-128555998D01*
X148380984Y-128556001D01*
X148401621Y-128712760D01*
X148401622Y-128712762D01*
X148459056Y-128851421D01*
X148462130Y-128858841D01*
X148558384Y-128984282D01*
X148683825Y-129080536D01*
X148829904Y-129141044D01*
X148908285Y-129151363D01*
X148986665Y-129161682D01*
X148986666Y-129161682D01*
X148986667Y-129161682D01*
X149038920Y-129154802D01*
X149143428Y-129141044D01*
X149289507Y-129080536D01*
X149414948Y-128984282D01*
X149511202Y-128858841D01*
X149571710Y-128712762D01*
X149592348Y-128556000D01*
X149584695Y-128497873D01*
X149571710Y-128399239D01*
X149571710Y-128399238D01*
X149511202Y-128253159D01*
X149414948Y-128127718D01*
X149321480Y-128055998D01*
X161880984Y-128055998D01*
X161880984Y-128056001D01*
X161901621Y-128212760D01*
X161901622Y-128212762D01*
X161934047Y-128291044D01*
X161962130Y-128358841D01*
X162058384Y-128484282D01*
X162183825Y-128580536D01*
X162329904Y-128641044D01*
X162398084Y-128650020D01*
X162486665Y-128661682D01*
X162486666Y-128661682D01*
X162486667Y-128661682D01*
X162538920Y-128654802D01*
X162643428Y-128641044D01*
X162789507Y-128580536D01*
X162914948Y-128484282D01*
X163011202Y-128358841D01*
X163071710Y-128212762D01*
X163088319Y-128086601D01*
X163092348Y-128056001D01*
X163092348Y-128055998D01*
X163071710Y-127899239D01*
X163071710Y-127899238D01*
X163011202Y-127753159D01*
X162914948Y-127627718D01*
X162789507Y-127531464D01*
X162643428Y-127470956D01*
X162643426Y-127470955D01*
X162486667Y-127450318D01*
X162486665Y-127450318D01*
X162329905Y-127470955D01*
X162329903Y-127470956D01*
X162183826Y-127531463D01*
X162058384Y-127627718D01*
X161962129Y-127753160D01*
X161901622Y-127899237D01*
X161901621Y-127899239D01*
X161880984Y-128055998D01*
X149321480Y-128055998D01*
X149289507Y-128031464D01*
X149280586Y-128027769D01*
X149143428Y-127970956D01*
X149143426Y-127970955D01*
X148986667Y-127950318D01*
X148986665Y-127950318D01*
X148829905Y-127970955D01*
X148829903Y-127970956D01*
X148683826Y-128031463D01*
X148558384Y-128127718D01*
X148462129Y-128253160D01*
X148401622Y-128399237D01*
X148401621Y-128399239D01*
X148380984Y-128555998D01*
X143592348Y-128555998D01*
X143584695Y-128497873D01*
X143571710Y-128399239D01*
X143571710Y-128399238D01*
X143511202Y-128253159D01*
X143414948Y-128127718D01*
X143289507Y-128031464D01*
X143280586Y-128027769D01*
X143143428Y-127970956D01*
X143143426Y-127970955D01*
X142986667Y-127950318D01*
X142986665Y-127950318D01*
X142829905Y-127970955D01*
X142829903Y-127970956D01*
X142683826Y-128031463D01*
X142558384Y-128127718D01*
X142462129Y-128253160D01*
X142401622Y-128399237D01*
X142401621Y-128399239D01*
X142380984Y-128555998D01*
X134348549Y-128555998D01*
X134289122Y-128532976D01*
X134088642Y-128495500D01*
X133884690Y-128495500D01*
X133684210Y-128532976D01*
X133684207Y-128532976D01*
X133684207Y-128532977D01*
X133494030Y-128606651D01*
X133494023Y-128606655D01*
X133320626Y-128714017D01*
X133320624Y-128714019D01*
X133169903Y-128851418D01*
X133046993Y-129014178D01*
X132956088Y-129196739D01*
X132956083Y-129196752D01*
X132900268Y-129392917D01*
X132881451Y-129595999D01*
X103487166Y-129595999D01*
X103487166Y-127055999D01*
X132881451Y-127055999D01*
X132881451Y-127056000D01*
X132900268Y-127259082D01*
X132956083Y-127455247D01*
X132956088Y-127455260D01*
X133046993Y-127637821D01*
X133169903Y-127800581D01*
X133320624Y-127937980D01*
X133320626Y-127937982D01*
X133382055Y-127976017D01*
X133494029Y-128045348D01*
X133684210Y-128119024D01*
X133884690Y-128156500D01*
X133884692Y-128156500D01*
X134088640Y-128156500D01*
X134088642Y-128156500D01*
X134289122Y-128119024D01*
X134479303Y-128045348D01*
X134652707Y-127937981D01*
X134803430Y-127800579D01*
X134926339Y-127637821D01*
X135017248Y-127455250D01*
X135073063Y-127259083D01*
X135091881Y-127056000D01*
X135089607Y-127031464D01*
X135073063Y-126852917D01*
X135044679Y-126753159D01*
X135017248Y-126656750D01*
X135006906Y-126635981D01*
X134954863Y-126531463D01*
X134926339Y-126474179D01*
X134803430Y-126311421D01*
X134803428Y-126311418D01*
X134660717Y-126181321D01*
X144886166Y-126181321D01*
X144886166Y-127930678D01*
X144900698Y-128003735D01*
X144900699Y-128003739D01*
X144900700Y-128003740D01*
X144956065Y-128086601D01*
X145027426Y-128134282D01*
X145038926Y-128141966D01*
X145038930Y-128141967D01*
X145111987Y-128156499D01*
X145111990Y-128156500D01*
X145111992Y-128156500D01*
X146861342Y-128156500D01*
X146861343Y-128156499D01*
X146934406Y-128141966D01*
X147017267Y-128086601D01*
X147072632Y-128003740D01*
X147087166Y-127930674D01*
X147087166Y-126181326D01*
X147087166Y-126181323D01*
X147087165Y-126181321D01*
X147072633Y-126108264D01*
X147072632Y-126108260D01*
X147017267Y-126025399D01*
X146934406Y-125970034D01*
X146934405Y-125970033D01*
X146934401Y-125970032D01*
X146861343Y-125955500D01*
X146861340Y-125955500D01*
X145111992Y-125955500D01*
X145111989Y-125955500D01*
X145038930Y-125970032D01*
X145038926Y-125970033D01*
X144956065Y-126025399D01*
X144900699Y-126108260D01*
X144900698Y-126108264D01*
X144886166Y-126181321D01*
X134660717Y-126181321D01*
X134652707Y-126174019D01*
X134652705Y-126174017D01*
X134479308Y-126066655D01*
X134479301Y-126066651D01*
X134372816Y-126025399D01*
X134289122Y-125992976D01*
X134088642Y-125955500D01*
X133884690Y-125955500D01*
X133684210Y-125992976D01*
X133684207Y-125992976D01*
X133684207Y-125992977D01*
X133494030Y-126066651D01*
X133494023Y-126066655D01*
X133320626Y-126174017D01*
X133320624Y-126174019D01*
X133169903Y-126311418D01*
X133046993Y-126474178D01*
X132956088Y-126656739D01*
X132956083Y-126656752D01*
X132900268Y-126852917D01*
X132881451Y-127055999D01*
X103487166Y-127055999D01*
X103487166Y-124055998D01*
X139880984Y-124055998D01*
X139880984Y-124056001D01*
X139901621Y-124212760D01*
X139901622Y-124212762D01*
X139962130Y-124358841D01*
X140058384Y-124484282D01*
X140183825Y-124580536D01*
X140329904Y-124641044D01*
X140408285Y-124651363D01*
X140486665Y-124661682D01*
X140486666Y-124661682D01*
X140486667Y-124661682D01*
X140538920Y-124654802D01*
X140643428Y-124641044D01*
X140789507Y-124580536D01*
X140914948Y-124484282D01*
X141011202Y-124358841D01*
X141071710Y-124212762D01*
X141092348Y-124056000D01*
X141071710Y-123899238D01*
X141011202Y-123753159D01*
X140914948Y-123627718D01*
X140821480Y-123555998D01*
X147380984Y-123555998D01*
X147380984Y-123556001D01*
X147401621Y-123712760D01*
X147401622Y-123712762D01*
X147462130Y-123858841D01*
X147558384Y-123984282D01*
X147683825Y-124080536D01*
X147829904Y-124141044D01*
X147908285Y-124151363D01*
X147986665Y-124161682D01*
X147986666Y-124161682D01*
X147986667Y-124161682D01*
X148038920Y-124154802D01*
X148143428Y-124141044D01*
X148289507Y-124080536D01*
X148414948Y-123984282D01*
X148511202Y-123858841D01*
X148571710Y-123712762D01*
X148592348Y-123556000D01*
X148571710Y-123399238D01*
X148511202Y-123253159D01*
X148414948Y-123127718D01*
X148289507Y-123031464D01*
X148222575Y-123003740D01*
X148143428Y-122970956D01*
X148143426Y-122970955D01*
X147986667Y-122950318D01*
X147986665Y-122950318D01*
X147829905Y-122970955D01*
X147829903Y-122970956D01*
X147683826Y-123031463D01*
X147558384Y-123127718D01*
X147462129Y-123253160D01*
X147401622Y-123399237D01*
X147401621Y-123399239D01*
X147380984Y-123555998D01*
X140821480Y-123555998D01*
X140789507Y-123531464D01*
X140643428Y-123470956D01*
X140643426Y-123470955D01*
X140486667Y-123450318D01*
X140486665Y-123450318D01*
X140329905Y-123470955D01*
X140329903Y-123470956D01*
X140183826Y-123531463D01*
X140058384Y-123627718D01*
X139962129Y-123753160D01*
X139901622Y-123899237D01*
X139901621Y-123899239D01*
X139880984Y-124055998D01*
X103487166Y-124055998D01*
X103487166Y-123681081D01*
X103506851Y-123614042D01*
X103559655Y-123568287D01*
X103628813Y-123558343D01*
X103675819Y-123578144D01*
X103676785Y-123576472D01*
X103683823Y-123580534D01*
X103683825Y-123580536D01*
X103829904Y-123641044D01*
X103986666Y-123661682D01*
X104043720Y-123654170D01*
X104100854Y-123660066D01*
X104224030Y-123703167D01*
X104525214Y-123771911D01*
X104525223Y-123771912D01*
X104525228Y-123771913D01*
X104729872Y-123794970D01*
X104832195Y-123806499D01*
X104832198Y-123806500D01*
X104832201Y-123806500D01*
X105141134Y-123806500D01*
X105141135Y-123806499D01*
X105298022Y-123788822D01*
X105448103Y-123771913D01*
X105448106Y-123771912D01*
X105448118Y-123771911D01*
X105749302Y-123703167D01*
X106040896Y-123601135D01*
X106319231Y-123467096D01*
X106580809Y-123302735D01*
X106822340Y-123110120D01*
X106876462Y-123055998D01*
X120380984Y-123055998D01*
X120380984Y-123056001D01*
X120401621Y-123212760D01*
X120401622Y-123212762D01*
X120462130Y-123358841D01*
X120558384Y-123484282D01*
X120683825Y-123580536D01*
X120829904Y-123641044D01*
X120899003Y-123650141D01*
X120986665Y-123661682D01*
X120986666Y-123661682D01*
X120986667Y-123661682D01*
X121072992Y-123650317D01*
X121143428Y-123641044D01*
X121289507Y-123580536D01*
X121414948Y-123484282D01*
X121511202Y-123358841D01*
X121571710Y-123212762D01*
X121588319Y-123086601D01*
X121592348Y-123056001D01*
X121592348Y-123055998D01*
X121571710Y-122899239D01*
X121571710Y-122899238D01*
X121511202Y-122753159D01*
X121414948Y-122627718D01*
X121289507Y-122531464D01*
X121255686Y-122517455D01*
X121143428Y-122470956D01*
X121143426Y-122470955D01*
X120986667Y-122450318D01*
X120986665Y-122450318D01*
X120829905Y-122470955D01*
X120829903Y-122470956D01*
X120683826Y-122531463D01*
X120558384Y-122627718D01*
X120462129Y-122753160D01*
X120401622Y-122899237D01*
X120401621Y-122899239D01*
X120380984Y-123055998D01*
X106876462Y-123055998D01*
X107040786Y-122891674D01*
X107233401Y-122650143D01*
X107397762Y-122388565D01*
X107531801Y-122110230D01*
X107633833Y-121818636D01*
X107702577Y-121517452D01*
X107706315Y-121484282D01*
X107737165Y-121210471D01*
X107737166Y-121210467D01*
X107737166Y-121055998D01*
X126380984Y-121055998D01*
X126380984Y-121056001D01*
X126401621Y-121212760D01*
X126401622Y-121212762D01*
X126462130Y-121358841D01*
X126558384Y-121484282D01*
X126683825Y-121580536D01*
X126829904Y-121641044D01*
X126908285Y-121651363D01*
X126986665Y-121661682D01*
X126986666Y-121661682D01*
X126986667Y-121661682D01*
X127038920Y-121654802D01*
X127143428Y-121641044D01*
X127289507Y-121580536D01*
X127414948Y-121484282D01*
X127511202Y-121358841D01*
X127571710Y-121212762D01*
X127592348Y-121056000D01*
X127588319Y-121025399D01*
X127571710Y-120899239D01*
X127571710Y-120899238D01*
X127511202Y-120753159D01*
X127414948Y-120627718D01*
X127289507Y-120531464D01*
X127222575Y-120503740D01*
X127143428Y-120470956D01*
X127143426Y-120470955D01*
X126986667Y-120450318D01*
X126986665Y-120450318D01*
X126829905Y-120470955D01*
X126829903Y-120470956D01*
X126683826Y-120531463D01*
X126558384Y-120627718D01*
X126462129Y-120753160D01*
X126401622Y-120899237D01*
X126401621Y-120899239D01*
X126380984Y-121055998D01*
X107737166Y-121055998D01*
X107737166Y-120901532D01*
X107737165Y-120901528D01*
X107702579Y-120594562D01*
X107702578Y-120594557D01*
X107702577Y-120594548D01*
X107633833Y-120293364D01*
X107550776Y-120055998D01*
X112380984Y-120055998D01*
X112380984Y-120056001D01*
X112401621Y-120212760D01*
X112401622Y-120212762D01*
X112462130Y-120358841D01*
X112558384Y-120484282D01*
X112683825Y-120580536D01*
X112829904Y-120641044D01*
X112908285Y-120651363D01*
X112986665Y-120661682D01*
X112986666Y-120661682D01*
X112986667Y-120661682D01*
X113038920Y-120654802D01*
X113143428Y-120641044D01*
X113289507Y-120580536D01*
X113414948Y-120484282D01*
X113511202Y-120358841D01*
X113571710Y-120212762D01*
X113592348Y-120056000D01*
X113571710Y-119899238D01*
X113511202Y-119753159D01*
X113414948Y-119627718D01*
X113321480Y-119555998D01*
X154880984Y-119555998D01*
X154880984Y-119556001D01*
X154901621Y-119712760D01*
X154901622Y-119712762D01*
X154962130Y-119858841D01*
X155058384Y-119984282D01*
X155183825Y-120080536D01*
X155329904Y-120141044D01*
X155408285Y-120151363D01*
X155486665Y-120161682D01*
X155486666Y-120161682D01*
X155486667Y-120161682D01*
X155538920Y-120154802D01*
X155643428Y-120141044D01*
X155789507Y-120080536D01*
X155914948Y-119984282D01*
X156011202Y-119858841D01*
X156071710Y-119712762D01*
X156092348Y-119556000D01*
X156071710Y-119399238D01*
X156011202Y-119253159D01*
X155914948Y-119127718D01*
X155789507Y-119031464D01*
X155746244Y-119013544D01*
X155643428Y-118970956D01*
X155643426Y-118970955D01*
X155486667Y-118950318D01*
X155486665Y-118950318D01*
X155329905Y-118970955D01*
X155329903Y-118970956D01*
X155183826Y-119031463D01*
X155058384Y-119127718D01*
X154962129Y-119253160D01*
X154901622Y-119399237D01*
X154901621Y-119399239D01*
X154880984Y-119555998D01*
X113321480Y-119555998D01*
X113289507Y-119531464D01*
X113143428Y-119470956D01*
X113143426Y-119470955D01*
X112986667Y-119450318D01*
X112986665Y-119450318D01*
X112829905Y-119470955D01*
X112829903Y-119470956D01*
X112683826Y-119531463D01*
X112558384Y-119627718D01*
X112462129Y-119753160D01*
X112401622Y-119899237D01*
X112401621Y-119899239D01*
X112380984Y-120055998D01*
X107550776Y-120055998D01*
X107531801Y-120001770D01*
X107397762Y-119723435D01*
X107233401Y-119461857D01*
X107040786Y-119220326D01*
X105228595Y-117408135D01*
X133711166Y-117408135D01*
X133711166Y-118703870D01*
X133711167Y-118703876D01*
X133717574Y-118763483D01*
X133767868Y-118898328D01*
X133767872Y-118898335D01*
X133854118Y-119013544D01*
X133854121Y-119013547D01*
X133969330Y-119099793D01*
X133969337Y-119099797D01*
X134104183Y-119150091D01*
X134104182Y-119150091D01*
X134111110Y-119150835D01*
X134163793Y-119156500D01*
X135759538Y-119156499D01*
X135819149Y-119150091D01*
X135953997Y-119099796D01*
X136069212Y-119013546D01*
X136155462Y-118898331D01*
X136205757Y-118763483D01*
X136212166Y-118703873D01*
X136212165Y-117408128D01*
X136205757Y-117348517D01*
X136155462Y-117213669D01*
X136155461Y-117213668D01*
X136155459Y-117213664D01*
X136069213Y-117098455D01*
X136069210Y-117098452D01*
X135954001Y-117012206D01*
X135953994Y-117012202D01*
X135819148Y-116961908D01*
X135819149Y-116961908D01*
X135759549Y-116955501D01*
X135759547Y-116955500D01*
X135759539Y-116955500D01*
X135759530Y-116955500D01*
X134163795Y-116955500D01*
X134163789Y-116955501D01*
X134104182Y-116961908D01*
X133969337Y-117012202D01*
X133969330Y-117012206D01*
X133854121Y-117098452D01*
X133854118Y-117098455D01*
X133767872Y-117213664D01*
X133767868Y-117213671D01*
X133717574Y-117348517D01*
X133713027Y-117390817D01*
X133711167Y-117408123D01*
X133711166Y-117408135D01*
X105228595Y-117408135D01*
X100876458Y-113055998D01*
X112380984Y-113055998D01*
X112380984Y-113056001D01*
X112401621Y-113212760D01*
X112401622Y-113212762D01*
X112462130Y-113358841D01*
X112558384Y-113484282D01*
X112683825Y-113580536D01*
X112829904Y-113641044D01*
X112908285Y-113651363D01*
X112986665Y-113661682D01*
X112986666Y-113661682D01*
X112986667Y-113661682D01*
X113038920Y-113654802D01*
X113143428Y-113641044D01*
X113289507Y-113580536D01*
X113414948Y-113484282D01*
X113511202Y-113358841D01*
X113571710Y-113212762D01*
X113592348Y-113056000D01*
X113588319Y-113025399D01*
X113571710Y-112899239D01*
X113571710Y-112899238D01*
X113511202Y-112753159D01*
X113414948Y-112627718D01*
X113289507Y-112531464D01*
X113143428Y-112470956D01*
X113143426Y-112470955D01*
X112986667Y-112450318D01*
X112986665Y-112450318D01*
X112829905Y-112470955D01*
X112829903Y-112470956D01*
X112683826Y-112531463D01*
X112558384Y-112627718D01*
X112462129Y-112753160D01*
X112401622Y-112899237D01*
X112401621Y-112899239D01*
X112380984Y-113055998D01*
X100876458Y-113055998D01*
X99908155Y-112087695D01*
X117874679Y-112087695D01*
X117874679Y-112087698D01*
X117895316Y-112244457D01*
X117895317Y-112244459D01*
X117955825Y-112390538D01*
X118052079Y-112515979D01*
X118177520Y-112612233D01*
X118323599Y-112672741D01*
X118401980Y-112683060D01*
X118480360Y-112693379D01*
X118480361Y-112693379D01*
X118480362Y-112693379D01*
X118532615Y-112686499D01*
X118637123Y-112672741D01*
X118783202Y-112612233D01*
X118908643Y-112515979D01*
X119004897Y-112390538D01*
X119065405Y-112244459D01*
X119086043Y-112087697D01*
X119065405Y-111930935D01*
X119004897Y-111784856D01*
X118908643Y-111659415D01*
X118783202Y-111563161D01*
X118765916Y-111556001D01*
X118637123Y-111502653D01*
X118637121Y-111502652D01*
X118480362Y-111482015D01*
X118480360Y-111482015D01*
X118323600Y-111502652D01*
X118323598Y-111502653D01*
X118177521Y-111563160D01*
X118052079Y-111659415D01*
X117955824Y-111784857D01*
X117895317Y-111930934D01*
X117895316Y-111930936D01*
X117874679Y-112087695D01*
X99908155Y-112087695D01*
X99822340Y-112001880D01*
X99783851Y-111971185D01*
X99743712Y-111913996D01*
X99737166Y-111874240D01*
X99737166Y-111056000D01*
X152981325Y-111056000D01*
X153000641Y-111252129D01*
X153057854Y-111440733D01*
X153150752Y-111614532D01*
X153150756Y-111614539D01*
X153275782Y-111766883D01*
X153428126Y-111891909D01*
X153428133Y-111891913D01*
X153601932Y-111984811D01*
X153601935Y-111984811D01*
X153601939Y-111984814D01*
X153790534Y-112042024D01*
X153986666Y-112061341D01*
X154182798Y-112042024D01*
X154371393Y-111984814D01*
X154372389Y-111984282D01*
X154466543Y-111933955D01*
X154545204Y-111891910D01*
X154697549Y-111766883D01*
X154822576Y-111614538D01*
X154915480Y-111440727D01*
X154972690Y-111252132D01*
X154992007Y-111056000D01*
X154972690Y-110859868D01*
X154915480Y-110671273D01*
X154915477Y-110671269D01*
X154915477Y-110671266D01*
X154822579Y-110497467D01*
X154822575Y-110497460D01*
X154697549Y-110345116D01*
X154545205Y-110220090D01*
X154545198Y-110220086D01*
X154371399Y-110127188D01*
X154371393Y-110127186D01*
X154182798Y-110069976D01*
X154182795Y-110069975D01*
X154070370Y-110058903D01*
X154005583Y-110032742D01*
X153988330Y-110008361D01*
X153984521Y-110016703D01*
X153925743Y-110054477D01*
X153902962Y-110058903D01*
X153790536Y-110069975D01*
X153601932Y-110127188D01*
X153428133Y-110220086D01*
X153428126Y-110220090D01*
X153275782Y-110345116D01*
X153150756Y-110497460D01*
X153150752Y-110497467D01*
X153057854Y-110671266D01*
X153000641Y-110859870D01*
X152981325Y-111056000D01*
X99737166Y-111056000D01*
X99737166Y-104595999D01*
X139759026Y-104595999D01*
X139759026Y-104596000D01*
X139777544Y-104795852D01*
X139777545Y-104795854D01*
X139832470Y-104988896D01*
X139832476Y-104988911D01*
X139921936Y-105168569D01*
X140042891Y-105328740D01*
X140191215Y-105463954D01*
X140191217Y-105463956D01*
X140361859Y-105569613D01*
X140361860Y-105569613D01*
X140361863Y-105569615D01*
X140549019Y-105642120D01*
X140746311Y-105679000D01*
X140746313Y-105679000D01*
X140947019Y-105679000D01*
X140947021Y-105679000D01*
X141144313Y-105642120D01*
X141331469Y-105569615D01*
X141502116Y-105463955D01*
X141650442Y-105328738D01*
X141771396Y-105168569D01*
X141860860Y-104988901D01*
X141915787Y-104795853D01*
X141934306Y-104596000D01*
X141915787Y-104396147D01*
X141860860Y-104203099D01*
X141771396Y-104023431D01*
X141650442Y-103863262D01*
X141650440Y-103863259D01*
X141502116Y-103728045D01*
X141502114Y-103728043D01*
X141331472Y-103622386D01*
X141331466Y-103622384D01*
X141144313Y-103549880D01*
X140947021Y-103513000D01*
X140746311Y-103513000D01*
X140549019Y-103549880D01*
X140430663Y-103595731D01*
X140361865Y-103622384D01*
X140361859Y-103622386D01*
X140191217Y-103728043D01*
X140191215Y-103728045D01*
X140042891Y-103863259D01*
X139921936Y-104023430D01*
X139832476Y-104203088D01*
X139832470Y-104203103D01*
X139777545Y-104396145D01*
X139777544Y-104396147D01*
X139759026Y-104595999D01*
X99737166Y-104595999D01*
X99737166Y-97056000D01*
X101512475Y-97056000D01*
X101531193Y-97246053D01*
X101586632Y-97428811D01*
X101676652Y-97597226D01*
X101676656Y-97597233D01*
X101797808Y-97744857D01*
X101945432Y-97866009D01*
X101945439Y-97866013D01*
X102113854Y-97956033D01*
X102113856Y-97956033D01*
X102113859Y-97956035D01*
X102296611Y-98011472D01*
X102296610Y-98011472D01*
X102313650Y-98013150D01*
X102486666Y-98030191D01*
X102676721Y-98011472D01*
X102859473Y-97956035D01*
X103027898Y-97866010D01*
X103175523Y-97744857D01*
X103296676Y-97597232D01*
X103377308Y-97446381D01*
X103426270Y-97396537D01*
X103494408Y-97381076D01*
X103560087Y-97404907D01*
X103596024Y-97446381D01*
X103676652Y-97597226D01*
X103676656Y-97597233D01*
X103797808Y-97744857D01*
X103945432Y-97866009D01*
X103945439Y-97866013D01*
X104113854Y-97956033D01*
X104113856Y-97956033D01*
X104113859Y-97956035D01*
X104296611Y-98011472D01*
X104296610Y-98011472D01*
X104313650Y-98013150D01*
X104486666Y-98030191D01*
X104676721Y-98011472D01*
X104859473Y-97956035D01*
X105027898Y-97866010D01*
X105175523Y-97744857D01*
X105296676Y-97597232D01*
X105296675Y-97597232D01*
X105297313Y-97596456D01*
X105355058Y-97557122D01*
X105424903Y-97555251D01*
X105484671Y-97591438D01*
X105515387Y-97654194D01*
X105517166Y-97675121D01*
X105517166Y-97799678D01*
X105531698Y-97872735D01*
X105531699Y-97872739D01*
X105531700Y-97872740D01*
X105587065Y-97955601D01*
X105669926Y-98010966D01*
X105669930Y-98010967D01*
X105742987Y-98025499D01*
X105742990Y-98025500D01*
X105742992Y-98025500D01*
X107230342Y-98025500D01*
X107230343Y-98025499D01*
X107303406Y-98010966D01*
X107386267Y-97955601D01*
X107441632Y-97872740D01*
X107456166Y-97799674D01*
X107456166Y-96312326D01*
X107456166Y-96312323D01*
X107456165Y-96312321D01*
X107441633Y-96239264D01*
X107441632Y-96239260D01*
X107431968Y-96224797D01*
X107402919Y-96181321D01*
X116386166Y-96181321D01*
X116386166Y-97930678D01*
X116400698Y-98003735D01*
X116400699Y-98003739D01*
X116400700Y-98003740D01*
X116456065Y-98086601D01*
X116517400Y-98127583D01*
X116538926Y-98141966D01*
X116538930Y-98141967D01*
X116611987Y-98156499D01*
X116611990Y-98156500D01*
X116611992Y-98156500D01*
X118361342Y-98156500D01*
X118361343Y-98156499D01*
X118434406Y-98141966D01*
X118517267Y-98086601D01*
X118572632Y-98003740D01*
X118587166Y-97930674D01*
X118587166Y-97789711D01*
X123246166Y-97789711D01*
X123246166Y-98032288D01*
X123277827Y-98272785D01*
X123340613Y-98507104D01*
X123403459Y-98658826D01*
X123433442Y-98731212D01*
X123554730Y-98941289D01*
X123554732Y-98941292D01*
X123554733Y-98941293D01*
X123702399Y-99133736D01*
X123702405Y-99133743D01*
X123873922Y-99305260D01*
X123873928Y-99305265D01*
X124066377Y-99452936D01*
X124276454Y-99574224D01*
X124500566Y-99667054D01*
X124734877Y-99729838D01*
X124915252Y-99753584D01*
X124975377Y-99761500D01*
X124975378Y-99761500D01*
X125217955Y-99761500D01*
X125266054Y-99755167D01*
X125458455Y-99729838D01*
X125692766Y-99667054D01*
X125916878Y-99574224D01*
X126126955Y-99452936D01*
X126319404Y-99305265D01*
X126490931Y-99133738D01*
X126638602Y-98941289D01*
X126759890Y-98731212D01*
X126789875Y-98658821D01*
X139763666Y-98658821D01*
X139763666Y-100373178D01*
X139778198Y-100446235D01*
X139778199Y-100446239D01*
X139778200Y-100446240D01*
X139833565Y-100529101D01*
X139916426Y-100584466D01*
X139916430Y-100584467D01*
X139989487Y-100598999D01*
X139989490Y-100599000D01*
X139989492Y-100599000D01*
X141703842Y-100599000D01*
X141703843Y-100598999D01*
X141776906Y-100584466D01*
X141859767Y-100529101D01*
X141915132Y-100446240D01*
X141929666Y-100373174D01*
X141929666Y-98658826D01*
X141929666Y-98658823D01*
X141929665Y-98658821D01*
X141915133Y-98585764D01*
X141915132Y-98585760D01*
X141859767Y-98502899D01*
X141776906Y-98447534D01*
X141776905Y-98447533D01*
X141776901Y-98447532D01*
X141703843Y-98433000D01*
X141703840Y-98433000D01*
X139989492Y-98433000D01*
X139989489Y-98433000D01*
X139916430Y-98447532D01*
X139916426Y-98447533D01*
X139833565Y-98502899D01*
X139778199Y-98585760D01*
X139778198Y-98585764D01*
X139763666Y-98658821D01*
X126789875Y-98658821D01*
X126852720Y-98507100D01*
X126915504Y-98272789D01*
X126947166Y-98032288D01*
X126947166Y-97789712D01*
X126915504Y-97549211D01*
X126852720Y-97314900D01*
X126759890Y-97090788D01*
X126638602Y-96880711D01*
X126490931Y-96688262D01*
X126490926Y-96688256D01*
X126319409Y-96516739D01*
X126319402Y-96516733D01*
X126126959Y-96369067D01*
X126126958Y-96369066D01*
X126126955Y-96369064D01*
X125916878Y-96247776D01*
X125912557Y-96245986D01*
X125692770Y-96154947D01*
X125458451Y-96092161D01*
X125217955Y-96060500D01*
X125217954Y-96060500D01*
X124975378Y-96060500D01*
X124975377Y-96060500D01*
X124734880Y-96092161D01*
X124500561Y-96154947D01*
X124276460Y-96247773D01*
X124276451Y-96247777D01*
X124066372Y-96369067D01*
X123873929Y-96516733D01*
X123873922Y-96516739D01*
X123702405Y-96688256D01*
X123702399Y-96688263D01*
X123554733Y-96880706D01*
X123433443Y-97090785D01*
X123433439Y-97090794D01*
X123340613Y-97314895D01*
X123277827Y-97549214D01*
X123246166Y-97789711D01*
X118587166Y-97789711D01*
X118587166Y-96181326D01*
X118587166Y-96181323D01*
X118587165Y-96181321D01*
X118572633Y-96108264D01*
X118572632Y-96108260D01*
X118561875Y-96092161D01*
X118517267Y-96025399D01*
X118434406Y-95970034D01*
X118434405Y-95970033D01*
X118434401Y-95970032D01*
X118361343Y-95955500D01*
X118361340Y-95955500D01*
X116611992Y-95955500D01*
X116611989Y-95955500D01*
X116538930Y-95970032D01*
X116538926Y-95970033D01*
X116456065Y-96025399D01*
X116400699Y-96108260D01*
X116400698Y-96108264D01*
X116386166Y-96181321D01*
X107402919Y-96181321D01*
X107386267Y-96156399D01*
X107303406Y-96101034D01*
X107303405Y-96101033D01*
X107303401Y-96101032D01*
X107230343Y-96086500D01*
X107230340Y-96086500D01*
X105742992Y-96086500D01*
X105742989Y-96086500D01*
X105669930Y-96101032D01*
X105669926Y-96101033D01*
X105587065Y-96156399D01*
X105531699Y-96239260D01*
X105531698Y-96239264D01*
X105517166Y-96312321D01*
X105517166Y-96436878D01*
X105497481Y-96503917D01*
X105444677Y-96549672D01*
X105375519Y-96559616D01*
X105311963Y-96530591D01*
X105297313Y-96515543D01*
X105175523Y-96367142D01*
X105027899Y-96245990D01*
X105027892Y-96245986D01*
X104859477Y-96155966D01*
X104702210Y-96108260D01*
X104676721Y-96100528D01*
X104676719Y-96100527D01*
X104676721Y-96100527D01*
X104486666Y-96081809D01*
X104296612Y-96100527D01*
X104113854Y-96155966D01*
X103945439Y-96245986D01*
X103945432Y-96245990D01*
X103797808Y-96367142D01*
X103676656Y-96514766D01*
X103676652Y-96514773D01*
X103596024Y-96665618D01*
X103547062Y-96715463D01*
X103478924Y-96730923D01*
X103413244Y-96707091D01*
X103377308Y-96665618D01*
X103296679Y-96514773D01*
X103296675Y-96514766D01*
X103175523Y-96367142D01*
X103027899Y-96245990D01*
X103027892Y-96245986D01*
X102859477Y-96155966D01*
X102702210Y-96108260D01*
X102676721Y-96100528D01*
X102676719Y-96100527D01*
X102676721Y-96100527D01*
X102486666Y-96081809D01*
X102296612Y-96100527D01*
X102113854Y-96155966D01*
X101945439Y-96245986D01*
X101945432Y-96245990D01*
X101797808Y-96367142D01*
X101676656Y-96514766D01*
X101676652Y-96514773D01*
X101586632Y-96683188D01*
X101531193Y-96865946D01*
X101512475Y-97056000D01*
X99737166Y-97056000D01*
X99737166Y-93435500D01*
X99756851Y-93368461D01*
X99809655Y-93322706D01*
X99861166Y-93311500D01*
X104332201Y-93311500D01*
X142593372Y-93311500D01*
X142660411Y-93331185D01*
G37*
G04 #@! TD.AperFunction*
G04 #@! TA.AperFunction,Conductor*
G36*
X177430647Y-88575685D02*
G01*
X177476402Y-88628489D01*
X177487604Y-88679055D01*
X177498183Y-90067780D01*
X177479010Y-90134968D01*
X177426556Y-90181124D01*
X177417521Y-90184907D01*
X177344337Y-90212203D01*
X177344336Y-90212204D01*
X177229120Y-90298454D01*
X177142870Y-90413670D01*
X177142868Y-90413672D01*
X177092574Y-90548518D01*
X177086167Y-90608117D01*
X177086166Y-90608136D01*
X177086166Y-92503863D01*
X177086167Y-92503882D01*
X177092574Y-92563481D01*
X177142868Y-92698327D01*
X177142869Y-92698328D01*
X177142870Y-92698330D01*
X177229120Y-92813546D01*
X177344336Y-92899796D01*
X177344337Y-92899796D01*
X177344338Y-92899797D01*
X177440248Y-92935569D01*
X177496182Y-92977440D01*
X177520599Y-93042904D01*
X177520911Y-93050806D01*
X177645714Y-109431055D01*
X177626541Y-109498243D01*
X177574087Y-109544399D01*
X177521718Y-109556000D01*
X146110666Y-109556000D01*
X146043627Y-109536315D01*
X145997872Y-109483511D01*
X145986666Y-109432000D01*
X145986666Y-108616320D01*
X145987263Y-108604166D01*
X145992007Y-108556000D01*
X145987263Y-108507832D01*
X145986666Y-108495678D01*
X145986666Y-107755994D01*
X149531195Y-107755994D01*
X149531195Y-107756005D01*
X149551045Y-107995559D01*
X149610055Y-108228589D01*
X149706617Y-108448729D01*
X149808170Y-108604166D01*
X149838095Y-108649969D01*
X150000902Y-108826825D01*
X150000905Y-108826827D01*
X150000908Y-108826830D01*
X150190590Y-108974466D01*
X150190596Y-108974470D01*
X150190599Y-108974472D01*
X150402010Y-109088882D01*
X150402013Y-109088883D01*
X150629365Y-109166933D01*
X150629367Y-109166933D01*
X150629369Y-109166934D01*
X150866474Y-109206500D01*
X150866475Y-109206500D01*
X151106857Y-109206500D01*
X151106858Y-109206500D01*
X151343963Y-109166934D01*
X151571322Y-109088882D01*
X151782733Y-108974472D01*
X151972430Y-108826825D01*
X152135237Y-108649969D01*
X152266715Y-108448728D01*
X152363276Y-108228591D01*
X152422286Y-107995563D01*
X152431108Y-107889090D01*
X152442137Y-107756005D01*
X152442137Y-107755994D01*
X159451195Y-107755994D01*
X159451195Y-107756005D01*
X159471045Y-107995559D01*
X159530055Y-108228589D01*
X159626617Y-108448729D01*
X159728170Y-108604166D01*
X159758095Y-108649969D01*
X159920902Y-108826825D01*
X159920905Y-108826827D01*
X159920908Y-108826830D01*
X160110590Y-108974466D01*
X160110596Y-108974470D01*
X160110599Y-108974472D01*
X160322010Y-109088882D01*
X160322013Y-109088883D01*
X160549365Y-109166933D01*
X160549367Y-109166933D01*
X160549369Y-109166934D01*
X160786474Y-109206500D01*
X160786475Y-109206500D01*
X161026857Y-109206500D01*
X161026858Y-109206500D01*
X161263963Y-109166934D01*
X161491322Y-109088882D01*
X161702733Y-108974472D01*
X161892430Y-108826825D01*
X162055237Y-108649969D01*
X162186715Y-108448728D01*
X162283276Y-108228591D01*
X162342286Y-107995563D01*
X162351108Y-107889090D01*
X162362137Y-107756005D01*
X162362137Y-107755994D01*
X162342286Y-107516440D01*
X162342286Y-107516437D01*
X162283276Y-107283409D01*
X162186715Y-107063272D01*
X162055237Y-106862031D01*
X161892430Y-106685175D01*
X161892425Y-106685171D01*
X161892423Y-106685169D01*
X161702741Y-106537533D01*
X161702735Y-106537529D01*
X161491323Y-106423118D01*
X161491318Y-106423116D01*
X161263966Y-106345066D01*
X161086134Y-106315391D01*
X161026858Y-106305500D01*
X160786474Y-106305500D01*
X160739053Y-106313413D01*
X160549365Y-106345066D01*
X160322013Y-106423116D01*
X160322008Y-106423118D01*
X160110596Y-106537529D01*
X160110590Y-106537533D01*
X159920908Y-106685169D01*
X159920905Y-106685172D01*
X159758096Y-106862029D01*
X159758093Y-106862033D01*
X159626617Y-107063270D01*
X159530055Y-107283410D01*
X159471045Y-107516440D01*
X159451195Y-107755994D01*
X152442137Y-107755994D01*
X152422286Y-107516440D01*
X152422286Y-107516437D01*
X152363276Y-107283409D01*
X152266715Y-107063272D01*
X152135237Y-106862031D01*
X151972430Y-106685175D01*
X151972425Y-106685171D01*
X151972423Y-106685169D01*
X151782741Y-106537533D01*
X151782735Y-106537529D01*
X151571323Y-106423118D01*
X151571318Y-106423116D01*
X151343966Y-106345066D01*
X151166134Y-106315391D01*
X151106858Y-106305500D01*
X150866474Y-106305500D01*
X150819053Y-106313413D01*
X150629365Y-106345066D01*
X150402013Y-106423116D01*
X150402008Y-106423118D01*
X150190596Y-106537529D01*
X150190590Y-106537533D01*
X150000908Y-106685169D01*
X150000905Y-106685172D01*
X149838096Y-106862029D01*
X149838093Y-106862033D01*
X149706617Y-107063270D01*
X149610055Y-107283410D01*
X149551045Y-107516440D01*
X149531195Y-107755994D01*
X145986666Y-107755994D01*
X145986666Y-104355994D01*
X149531195Y-104355994D01*
X149531195Y-104356005D01*
X149551045Y-104595559D01*
X149610055Y-104828589D01*
X149706617Y-105048729D01*
X149838093Y-105249966D01*
X149838095Y-105249969D01*
X150000902Y-105426825D01*
X150000905Y-105426827D01*
X150000908Y-105426830D01*
X150190590Y-105574466D01*
X150190596Y-105574470D01*
X150190599Y-105574472D01*
X150402010Y-105688882D01*
X150402013Y-105688883D01*
X150629365Y-105766933D01*
X150629367Y-105766933D01*
X150629369Y-105766934D01*
X150866474Y-105806500D01*
X150866475Y-105806500D01*
X151106857Y-105806500D01*
X151106858Y-105806500D01*
X151343963Y-105766934D01*
X151571322Y-105688882D01*
X151782733Y-105574472D01*
X151972430Y-105426825D01*
X152135237Y-105249969D01*
X152266715Y-105048728D01*
X152363276Y-104828591D01*
X152422286Y-104595563D01*
X152442137Y-104356000D01*
X152442137Y-104355994D01*
X159451195Y-104355994D01*
X159451195Y-104356005D01*
X159471045Y-104595559D01*
X159530055Y-104828589D01*
X159626617Y-105048729D01*
X159758093Y-105249966D01*
X159758095Y-105249969D01*
X159920902Y-105426825D01*
X159920905Y-105426827D01*
X159920908Y-105426830D01*
X160110590Y-105574466D01*
X160110596Y-105574470D01*
X160110599Y-105574472D01*
X160322010Y-105688882D01*
X160322013Y-105688883D01*
X160549365Y-105766933D01*
X160549367Y-105766933D01*
X160549369Y-105766934D01*
X160786474Y-105806500D01*
X160786475Y-105806500D01*
X161026857Y-105806500D01*
X161026858Y-105806500D01*
X161263963Y-105766934D01*
X161491322Y-105688882D01*
X161702733Y-105574472D01*
X161892430Y-105426825D01*
X162055237Y-105249969D01*
X162186715Y-105048728D01*
X162283276Y-104828591D01*
X162342286Y-104595563D01*
X162362137Y-104356000D01*
X162352427Y-104238821D01*
X170403666Y-104238821D01*
X170403666Y-105953178D01*
X170418198Y-106026235D01*
X170418199Y-106026239D01*
X170418200Y-106026240D01*
X170473565Y-106109101D01*
X170556426Y-106164466D01*
X170556430Y-106164467D01*
X170629487Y-106178999D01*
X170629490Y-106179000D01*
X170629492Y-106179000D01*
X172343842Y-106179000D01*
X172343843Y-106178999D01*
X172416906Y-106164466D01*
X172499767Y-106109101D01*
X172555132Y-106026240D01*
X172569666Y-105953174D01*
X172569666Y-104238826D01*
X172569666Y-104238823D01*
X172569665Y-104238821D01*
X172555133Y-104165764D01*
X172555132Y-104165760D01*
X172499767Y-104082899D01*
X172416906Y-104027534D01*
X172416905Y-104027533D01*
X172416901Y-104027532D01*
X172343843Y-104013000D01*
X172343840Y-104013000D01*
X170629492Y-104013000D01*
X170629489Y-104013000D01*
X170556430Y-104027532D01*
X170556426Y-104027533D01*
X170473565Y-104082899D01*
X170418199Y-104165760D01*
X170418198Y-104165764D01*
X170403666Y-104238821D01*
X162352427Y-104238821D01*
X162342286Y-104116437D01*
X162283276Y-103883409D01*
X162186715Y-103663272D01*
X162055237Y-103462031D01*
X161892430Y-103285175D01*
X161892425Y-103285171D01*
X161892423Y-103285169D01*
X161702741Y-103137533D01*
X161702735Y-103137529D01*
X161491323Y-103023118D01*
X161491318Y-103023116D01*
X161263966Y-102945066D01*
X161086134Y-102915391D01*
X161026858Y-102905500D01*
X160786474Y-102905500D01*
X160739053Y-102913413D01*
X160549365Y-102945066D01*
X160322013Y-103023116D01*
X160322008Y-103023118D01*
X160110596Y-103137529D01*
X160110590Y-103137533D01*
X159920908Y-103285169D01*
X159920905Y-103285172D01*
X159758096Y-103462029D01*
X159758093Y-103462033D01*
X159626617Y-103663270D01*
X159530055Y-103883410D01*
X159471045Y-104116440D01*
X159451195Y-104355994D01*
X152442137Y-104355994D01*
X152422286Y-104116437D01*
X152363276Y-103883409D01*
X152266715Y-103663272D01*
X152135237Y-103462031D01*
X151972430Y-103285175D01*
X151972425Y-103285171D01*
X151972423Y-103285169D01*
X151782741Y-103137533D01*
X151782735Y-103137529D01*
X151571323Y-103023118D01*
X151571318Y-103023116D01*
X151343966Y-102945066D01*
X151166134Y-102915391D01*
X151106858Y-102905500D01*
X150866474Y-102905500D01*
X150819053Y-102913413D01*
X150629365Y-102945066D01*
X150402013Y-103023116D01*
X150402008Y-103023118D01*
X150190596Y-103137529D01*
X150190590Y-103137533D01*
X150000908Y-103285169D01*
X150000905Y-103285172D01*
X149838096Y-103462029D01*
X149838093Y-103462033D01*
X149706617Y-103663270D01*
X149610055Y-103883410D01*
X149551045Y-104116440D01*
X149531195Y-104355994D01*
X145986666Y-104355994D01*
X145986666Y-100015999D01*
X170399026Y-100015999D01*
X170399026Y-100016000D01*
X170417544Y-100215852D01*
X170417545Y-100215854D01*
X170472470Y-100408896D01*
X170472476Y-100408911D01*
X170561936Y-100588569D01*
X170682891Y-100748740D01*
X170831215Y-100883954D01*
X170831217Y-100883956D01*
X171001859Y-100989613D01*
X171001860Y-100989613D01*
X171001863Y-100989615D01*
X171189019Y-101062120D01*
X171386311Y-101099000D01*
X171386313Y-101099000D01*
X171587019Y-101099000D01*
X171587021Y-101099000D01*
X171784313Y-101062120D01*
X171971469Y-100989615D01*
X172142116Y-100883955D01*
X172290442Y-100748738D01*
X172411396Y-100588569D01*
X172500860Y-100408901D01*
X172555787Y-100215853D01*
X172574306Y-100016000D01*
X172555787Y-99816147D01*
X172500860Y-99623099D01*
X172411396Y-99443431D01*
X172290442Y-99283262D01*
X172290440Y-99283259D01*
X172142116Y-99148045D01*
X172142114Y-99148043D01*
X171971472Y-99042386D01*
X171971466Y-99042384D01*
X171784313Y-98969880D01*
X171587021Y-98933000D01*
X171386311Y-98933000D01*
X171189019Y-98969880D01*
X171070663Y-99015731D01*
X171001865Y-99042384D01*
X171001859Y-99042386D01*
X170831217Y-99148043D01*
X170831215Y-99148045D01*
X170682891Y-99283259D01*
X170561936Y-99443430D01*
X170472476Y-99623088D01*
X170472470Y-99623103D01*
X170417545Y-99816145D01*
X170417544Y-99816147D01*
X170399026Y-100015999D01*
X145986666Y-100015999D01*
X145986666Y-95681321D01*
X165886166Y-95681321D01*
X165886166Y-97430678D01*
X165900698Y-97503735D01*
X165900699Y-97503739D01*
X165900700Y-97503740D01*
X165956065Y-97586601D01*
X166038926Y-97641966D01*
X166038930Y-97641967D01*
X166111987Y-97656499D01*
X166111990Y-97656500D01*
X166111992Y-97656500D01*
X167861342Y-97656500D01*
X167861343Y-97656499D01*
X167934406Y-97641966D01*
X168017267Y-97586601D01*
X168072632Y-97503740D01*
X168087166Y-97430674D01*
X168087166Y-95681326D01*
X168087166Y-95681323D01*
X168087165Y-95681321D01*
X168072633Y-95608264D01*
X168072632Y-95608260D01*
X168017267Y-95525399D01*
X167934406Y-95470034D01*
X167934405Y-95470033D01*
X167934401Y-95470032D01*
X167861343Y-95455500D01*
X167861340Y-95455500D01*
X166111992Y-95455500D01*
X166111989Y-95455500D01*
X166038930Y-95470032D01*
X166038926Y-95470033D01*
X165956065Y-95525399D01*
X165900699Y-95608260D01*
X165900698Y-95608264D01*
X165886166Y-95681321D01*
X145986666Y-95681321D01*
X145986666Y-89403662D01*
X146006351Y-89336623D01*
X146059155Y-89290868D01*
X146128313Y-89280924D01*
X146191869Y-89309949D01*
X146195974Y-89313671D01*
X148719737Y-91707271D01*
X148728541Y-91716529D01*
X148780524Y-91777174D01*
X148837131Y-91823779D01*
X148914532Y-91887505D01*
X148914541Y-91887511D01*
X148973005Y-91920722D01*
X149065465Y-91973245D01*
X149228856Y-92031855D01*
X149399872Y-92061603D01*
X149486665Y-92061504D01*
X149488452Y-92061504D01*
X162484880Y-92061504D01*
X162486667Y-92061504D01*
X162488945Y-92061504D01*
X162509476Y-92061504D01*
X162573459Y-92061582D01*
X162744478Y-92031845D01*
X162907872Y-91973244D01*
X163058809Y-91887513D01*
X163192824Y-91777188D01*
X163244979Y-91716343D01*
X163253755Y-91707115D01*
X163413095Y-91555993D01*
X172281366Y-91555993D01*
X172281366Y-91556006D01*
X172300530Y-91787297D01*
X172300532Y-91787308D01*
X172357508Y-92012300D01*
X172450741Y-92224848D01*
X172577682Y-92419147D01*
X172577685Y-92419151D01*
X172577687Y-92419153D01*
X172734882Y-92589913D01*
X172734885Y-92589915D01*
X172734888Y-92589918D01*
X172918031Y-92732464D01*
X172918037Y-92732468D01*
X172918040Y-92732470D01*
X173122163Y-92842936D01*
X173236153Y-92882068D01*
X173341681Y-92918297D01*
X173341683Y-92918297D01*
X173341685Y-92918298D01*
X173570617Y-92956500D01*
X173570618Y-92956500D01*
X173802714Y-92956500D01*
X173802715Y-92956500D01*
X174031647Y-92918298D01*
X174251169Y-92842936D01*
X174455292Y-92732470D01*
X174638450Y-92589913D01*
X174795645Y-92419153D01*
X174922590Y-92224849D01*
X175015823Y-92012300D01*
X175072800Y-91787305D01*
X175072801Y-91787297D01*
X175091966Y-91556006D01*
X175091966Y-91555993D01*
X175072801Y-91324702D01*
X175072799Y-91324691D01*
X175015823Y-91099699D01*
X174922590Y-90887151D01*
X174795649Y-90692852D01*
X174795646Y-90692849D01*
X174795645Y-90692847D01*
X174638450Y-90522087D01*
X174638445Y-90522083D01*
X174638443Y-90522081D01*
X174455300Y-90379535D01*
X174455294Y-90379531D01*
X174251170Y-90269064D01*
X174251161Y-90269061D01*
X174031650Y-90193702D01*
X173841122Y-90161909D01*
X173802715Y-90155500D01*
X173570617Y-90155500D01*
X173532210Y-90161909D01*
X173341681Y-90193702D01*
X173122170Y-90269061D01*
X173122161Y-90269064D01*
X172918037Y-90379531D01*
X172918031Y-90379535D01*
X172734888Y-90522081D01*
X172734885Y-90522084D01*
X172577682Y-90692852D01*
X172450741Y-90887151D01*
X172357508Y-91099699D01*
X172300532Y-91324691D01*
X172300530Y-91324702D01*
X172281366Y-91555993D01*
X163413095Y-91555993D01*
X165801396Y-89290868D01*
X166540346Y-88590029D01*
X166602533Y-88558179D01*
X166625676Y-88556000D01*
X177363608Y-88556000D01*
X177430647Y-88575685D01*
G37*
G04 #@! TD.AperFunction*
M02*
