G04 #@! TF.GenerationSoftware,KiCad,Pcbnew,8.0.9-8.0.9-0~ubuntu22.04.1*
G04 #@! TF.CreationDate,2026-05-27T12:16:12+02:00*
G04 #@! TF.ProjectId,Carte_puissance,43617274-655f-4707-9569-7373616e6365,2.0*
G04 #@! TF.SameCoordinates,Original*
G04 #@! TF.FileFunction,Profile,NP*
%FSLAX46Y46*%
G04 Gerber Fmt 4.6, Leading zero omitted, Abs format (unit mm)*
G04 Created by KiCad (PCBNEW 8.0.9-8.0.9-0~ubuntu22.04.1) date 2026-05-27 12:16:12*
%MOMM*%
%LPD*%
G01*
G04 APERTURE LIST*
G04 #@! TA.AperFunction,Profile*
%ADD10C,0.150000*%
G04 #@! TD*
G04 #@! TA.AperFunction,Profile*
%ADD11C,0.010000*%
G04 #@! TD*
G04 APERTURE END LIST*
D10*
X167486665Y-88055996D02*
X216486632Y-88056000D01*
X93986632Y-148556000D02*
X93986632Y-89556000D01*
D11*
X126696666Y-97911000D02*
G75*
G02*
X123496666Y-97911000I-1600000J0D01*
G01*
X123496666Y-97911000D02*
G75*
G02*
X126696666Y-97911000I1600000J0D01*
G01*
X126696666Y-132911000D02*
G75*
G02*
X123496666Y-132911000I-1600000J0D01*
G01*
X123496666Y-132911000D02*
G75*
G02*
X126696666Y-132911000I1600000J0D01*
G01*
D10*
X144486666Y-88056000D02*
X95486632Y-88056000D01*
X216486632Y-88056000D02*
G75*
G02*
X217986600Y-89556000I-32J-1500000D01*
G01*
X217986632Y-89556000D02*
X217986632Y-148556000D01*
X163245140Y-91707709D02*
G75*
G02*
X162486667Y-92055978I-758440J651709D01*
G01*
X144486666Y-88056000D02*
G75*
G02*
X145245158Y-88404278I34J-1000000D01*
G01*
X93986632Y-89556000D02*
G75*
G02*
X95486632Y-88056032I1499968J0D01*
G01*
D11*
X189696666Y-97911000D02*
G75*
G02*
X186496666Y-97911000I-1600000J0D01*
G01*
X186496666Y-97911000D02*
G75*
G02*
X189696666Y-97911000I1600000J0D01*
G01*
D10*
X95486632Y-150056000D02*
G75*
G02*
X93986600Y-148556000I-32J1500000D01*
G01*
X163245140Y-91707709D02*
X166728192Y-88404291D01*
X149486665Y-92056004D02*
G75*
G02*
X148728211Y-91707692I35J1000004D01*
G01*
X166728192Y-88404291D02*
G75*
G02*
X167486665Y-88055970I758508J-651709D01*
G01*
X148728192Y-91707709D02*
X145245139Y-88404295D01*
X217986632Y-148556000D02*
G75*
G02*
X216486632Y-150056032I-1500032J0D01*
G01*
D11*
X189696666Y-132911000D02*
G75*
G02*
X186496666Y-132911000I-1600000J0D01*
G01*
X186496666Y-132911000D02*
G75*
G02*
X189696666Y-132911000I1600000J0D01*
G01*
D10*
X149486665Y-92056004D02*
X162486667Y-92056004D01*
X216486666Y-150056000D02*
X95486666Y-150056000D01*
M02*
