%TF.GenerationSoftware,KiCad,Pcbnew,8.0.9-8.0.9-0~ubuntu22.04.1*%
%TF.CreationDate,2026-05-27T12:16:14+02:00*%
%TF.ProjectId,Carte_puissance,43617274-655f-4707-9569-7373616e6365,2.0*%
%TF.SameCoordinates,Original*%
%TF.FileFunction,Plated,1,4,PTH,Drill*%
%TF.FilePolarity,Positive*%
%FSLAX46Y46*%
G04 Gerber Fmt 4.6, Leading zero omitted, Abs format (unit mm)*
G04 Created by KiCad (PCBNEW 8.0.9-8.0.9-0~ubuntu22.04.1) date 2026-05-27 12:16:14*
%MOMM*%
%LPD*%
G01*
G04 APERTURE LIST*
%TA.AperFunction,ViaDrill*%
%ADD10C,0.400000*%
%TD*%
%TA.AperFunction,ViaDrill*%
%ADD11C,0.800000*%
%TD*%
%TA.AperFunction,ComponentDrill*%
%ADD12C,0.800000*%
%TD*%
%TA.AperFunction,ComponentDrill*%
%ADD13C,0.930000*%
%TD*%
%TA.AperFunction,ComponentDrill*%
%ADD14C,1.000000*%
%TD*%
%TA.AperFunction,ComponentDrill*%
%ADD15C,1.050000*%
%TD*%
%TA.AperFunction,ComponentDrill*%
%ADD16C,1.100000*%
%TD*%
%TA.AperFunction,ComponentDrill*%
%ADD17C,1.110000*%
%TD*%
%TA.AperFunction,ComponentDrill*%
%ADD18C,1.600000*%
%TD*%
%TA.AperFunction,ComponentDrill*%
%ADD19C,1.700000*%
%TD*%
G04 APERTURE END LIST*
D10*
X95986666Y-127556000D03*
X95986666Y-129056000D03*
X95986666Y-130556000D03*
X96486666Y-133056000D03*
X96986666Y-127556000D03*
X96986666Y-129056000D03*
X96986666Y-130556000D03*
X97986666Y-127706000D03*
X97986666Y-129056000D03*
X97986666Y-130556000D03*
X98986666Y-127556000D03*
X98986666Y-129056000D03*
X98986666Y-130556000D03*
X102986666Y-120056000D03*
X102986666Y-121056000D03*
X102986666Y-122056000D03*
X103986666Y-120056000D03*
X103986666Y-121056000D03*
X103986666Y-122056000D03*
X103986666Y-123056000D03*
X104986666Y-120056000D03*
X104986666Y-121056000D03*
X104986666Y-122056000D03*
X104986666Y-123056000D03*
X105986666Y-120056000D03*
X105986666Y-121056000D03*
X105986666Y-122056000D03*
X109986666Y-133056000D03*
X112986666Y-113056000D03*
X112986666Y-120056000D03*
X118480361Y-112087697D03*
X118986666Y-104056000D03*
X120986666Y-122056000D03*
X120986666Y-123056000D03*
X126986666Y-121056000D03*
X133986666Y-97056000D03*
X136986666Y-134056000D03*
X136986666Y-136556000D03*
X140486666Y-124056000D03*
X142486666Y-132556000D03*
X142986666Y-128556000D03*
X144486666Y-121056000D03*
X144486666Y-122556000D03*
X144486666Y-124056000D03*
X145486666Y-121056000D03*
X145486666Y-122556000D03*
X145486666Y-124056000D03*
X145986666Y-137556000D03*
X146486666Y-121056000D03*
X146486666Y-122556000D03*
X146486666Y-124056000D03*
X147486666Y-135556000D03*
X147986666Y-123556000D03*
X147986666Y-138056000D03*
X147986666Y-145556000D03*
X148986666Y-128556000D03*
X149986666Y-94056000D03*
X149986666Y-95056000D03*
X149986666Y-96056000D03*
X149986666Y-97056000D03*
X149986666Y-98056000D03*
X149986666Y-99056000D03*
X149986666Y-100056000D03*
X150986666Y-94056000D03*
X150986666Y-95056000D03*
X150986666Y-96056000D03*
X150986666Y-97056000D03*
X150986666Y-98056000D03*
X150986666Y-99056000D03*
X150986666Y-100056000D03*
X151986666Y-94056000D03*
X151986666Y-95056000D03*
X151986666Y-96056000D03*
X151986666Y-97056000D03*
X151986666Y-98056000D03*
X151986666Y-99056000D03*
X151986666Y-100056000D03*
X152486666Y-124556000D03*
X152986666Y-94056000D03*
X152986666Y-95056000D03*
X152986666Y-96056000D03*
X152986666Y-97056000D03*
X152986666Y-98056000D03*
X152986666Y-99056000D03*
X152986666Y-100056000D03*
X152986666Y-129056000D03*
X153986666Y-94056000D03*
X153986666Y-95056000D03*
X153986666Y-96056000D03*
X153986666Y-97056000D03*
X153986666Y-98056000D03*
X153986666Y-99056000D03*
X153986666Y-100056000D03*
X153986666Y-124556000D03*
X153986666Y-129556000D03*
X153986666Y-132556000D03*
X153986666Y-134056000D03*
X153986666Y-136556000D03*
X154986666Y-124556000D03*
X154986666Y-130056000D03*
X154986666Y-141056000D03*
X155486666Y-119556000D03*
X156436666Y-145056000D03*
X156611666Y-134056000D03*
X157986666Y-135056000D03*
X158036666Y-124506000D03*
X158986666Y-130556000D03*
X158986666Y-132381000D03*
X159986666Y-135556000D03*
X161486666Y-113056000D03*
X161486666Y-114056000D03*
X161486666Y-115056000D03*
X161486666Y-116056000D03*
X161486666Y-117056000D03*
X162486666Y-113056000D03*
X162486666Y-114056000D03*
X162486666Y-115056000D03*
X162486666Y-116056000D03*
X162486666Y-117056000D03*
X162486666Y-128056000D03*
X163486666Y-113056000D03*
X163486666Y-114056000D03*
X163486666Y-115056000D03*
X163486666Y-116056000D03*
X163486666Y-117056000D03*
X164486666Y-113056000D03*
X164486666Y-114056000D03*
X164486666Y-115056000D03*
X164486666Y-116056000D03*
X164486666Y-117056000D03*
X165486666Y-113056000D03*
X165486666Y-114056000D03*
X165486666Y-115056000D03*
X165486666Y-116056000D03*
X165486666Y-117056000D03*
X166486666Y-113056000D03*
X166486666Y-114056000D03*
X166486666Y-115056000D03*
X166486666Y-116056000D03*
X166486666Y-117056000D03*
X167986666Y-111556000D03*
X167986666Y-112556000D03*
X167986666Y-113556000D03*
X168486666Y-110556000D03*
X168986666Y-111556000D03*
X168986666Y-112556000D03*
X168986666Y-113556000D03*
X169986666Y-110556000D03*
X169986666Y-111556000D03*
X169986666Y-112556000D03*
X169986666Y-113556000D03*
X169986666Y-114556000D03*
X170986666Y-111556000D03*
X170986666Y-112556000D03*
X170986666Y-113556000D03*
X171486666Y-110556000D03*
X171486666Y-143556000D03*
X171986666Y-111556000D03*
X171986666Y-112556000D03*
X171986666Y-113556000D03*
X172036666Y-131106000D03*
X172486666Y-116056000D03*
X173976666Y-131096000D03*
X173986666Y-118556000D03*
X175986666Y-127056000D03*
X175986666Y-139556000D03*
X175986666Y-142556000D03*
X176986666Y-95056000D03*
X178486666Y-125056000D03*
X183486666Y-125056000D03*
X184486666Y-125956000D03*
X194986666Y-125056000D03*
X202486666Y-132556000D03*
X202986666Y-127056000D03*
X202986666Y-128056000D03*
X202986666Y-129056000D03*
X202986666Y-130056000D03*
X203986666Y-127056000D03*
X203986666Y-128056000D03*
X203986666Y-129056000D03*
X203986666Y-130056000D03*
X204986666Y-127056000D03*
X204986666Y-128056000D03*
X204986666Y-129056000D03*
X204986666Y-130056000D03*
X205986666Y-127056000D03*
X205986666Y-128056000D03*
X205986666Y-129056000D03*
X205986666Y-130056000D03*
X206986666Y-127056000D03*
X206986666Y-128056000D03*
X206986666Y-129056000D03*
X206986666Y-130056000D03*
X208486666Y-121056000D03*
X208486666Y-122056000D03*
X209486666Y-120056000D03*
X209486666Y-121056000D03*
X209486666Y-122056000D03*
X209486666Y-123056000D03*
X210486666Y-119056000D03*
X210486666Y-120056000D03*
X210486666Y-121056000D03*
X210486666Y-122056000D03*
X210486666Y-123056000D03*
X211486666Y-120056000D03*
X211486666Y-121056000D03*
X211486666Y-122056000D03*
X211486666Y-123056000D03*
X212486666Y-121056000D03*
X212486666Y-122056000D03*
X215486666Y-132556000D03*
D11*
X144986666Y-108556000D03*
X153986666Y-111056000D03*
X199486666Y-91056000D03*
D12*
%TO.C,S1*%
X138986666Y-141406000D03*
X138986666Y-147706000D03*
D13*
%TO.C,J5*%
X100486666Y-97056000D03*
X102486666Y-97056000D03*
X104486666Y-97056000D03*
X106486666Y-97056000D03*
D14*
%TO.C,TP7*%
X97486666Y-119556000D03*
%TO.C,TP8*%
X117486666Y-97056000D03*
%TO.C,TP4*%
X117486666Y-139556000D03*
%TO.C,TP1*%
X133986666Y-124516000D03*
X133986666Y-127056000D03*
X133986666Y-129596000D03*
%TO.C,J2*%
X134961666Y-115556000D03*
X134961666Y-118056000D03*
%TO.C,S1*%
X135986666Y-142306000D03*
X135986666Y-146806000D03*
X141986666Y-142306000D03*
X141986666Y-146806000D03*
%TO.C,TP14*%
X142986666Y-91056000D03*
%TO.C,TP11*%
X145986666Y-127056000D03*
%TO.C,TP12*%
X145986666Y-132056000D03*
%TO.C,TP5*%
X151486666Y-148056000D03*
%TO.C,TP10*%
X165486666Y-122056000D03*
%TO.C,TP9*%
X166986666Y-96556000D03*
%TO.C,TP13*%
X166986666Y-148056000D03*
%TO.C,TP2*%
X179486666Y-116056000D03*
%TO.C,TP15*%
X179986666Y-142531000D03*
X179986666Y-145071000D03*
X179986666Y-147611000D03*
%TO.C,TP3*%
X194986666Y-139556000D03*
%TO.C,J9*%
X207736666Y-95031000D03*
X210236666Y-95031000D03*
%TO.C,TP6*%
X214986666Y-114056000D03*
D15*
%TO.C,J8*%
X117186666Y-143556000D03*
X119186666Y-143556000D03*
X121186666Y-143556000D03*
X123186666Y-143556000D03*
X125186666Y-143556000D03*
%TO.C,J7*%
X187986666Y-143556000D03*
X189986666Y-143556000D03*
X191986666Y-143556000D03*
X193986666Y-143556000D03*
X195986666Y-143556000D03*
D16*
%TO.C,J10*%
X168886666Y-91556000D03*
X173686666Y-91556000D03*
X178486666Y-91556000D03*
D17*
%TO.C,PS1*%
X140846666Y-99516000D03*
X140846666Y-102056000D03*
X140846666Y-104596000D03*
%TO.C,PS2*%
X171486666Y-100016000D03*
X171486666Y-102556000D03*
X171486666Y-105096000D03*
D18*
%TO.C,F1*%
X150986666Y-104356000D03*
X150986666Y-107756000D03*
X160906666Y-104356000D03*
X160906666Y-107756000D03*
D19*
%TO.C,J4*%
X101006666Y-136281000D03*
X104966666Y-136281000D03*
%TO.C,J3*%
X207006666Y-136281000D03*
X210966666Y-136281000D03*
M02*
