G04 #@! TF.GenerationSoftware,KiCad,Pcbnew,8.0.9-8.0.9-0~ubuntu22.04.1*
G04 #@! TF.CreationDate,2026-05-27T12:16:12+02:00*
G04 #@! TF.ProjectId,Carte_puissance,43617274-655f-4707-9569-7373616e6365,2.0*
G04 #@! TF.SameCoordinates,Original*
G04 #@! TF.FileFunction,Soldermask,Top*
G04 #@! TF.FilePolarity,Negative*
%FSLAX46Y46*%
G04 Gerber Fmt 4.6, Leading zero omitted, Abs format (unit mm)*
G04 Created by KiCad (PCBNEW 8.0.9-8.0.9-0~ubuntu22.04.1) date 2026-05-27 12:16:12*
%MOMM*%
%LPD*%
G01*
G04 APERTURE LIST*
G04 Aperture macros list*
%AMRoundRect*
0 Rectangle with rounded corners*
0 $1 Rounding radius*
0 $2 $3 $4 $5 $6 $7 $8 $9 X,Y pos of 4 corners*
0 Add a 4 corners polygon primitive as box body*
4,1,4,$2,$3,$4,$5,$6,$7,$8,$9,$2,$3,0*
0 Add four circle primitives for the rounded corners*
1,1,$1+$1,$2,$3*
1,1,$1+$1,$4,$5*
1,1,$1+$1,$6,$7*
1,1,$1+$1,$8,$9*
0 Add four rect primitives between the rounded corners*
20,1,$1+$1,$2,$3,$4,$5,0*
20,1,$1+$1,$4,$5,$6,$7,0*
20,1,$1+$1,$6,$7,$8,$9,0*
20,1,$1+$1,$8,$9,$2,$3,0*%
%AMFreePoly0*
4,1,19,0.500000,-0.750000,0.000000,-0.750000,0.000000,-0.744911,-0.071157,-0.744911,-0.207708,-0.704816,-0.327430,-0.627875,-0.420627,-0.520320,-0.479746,-0.390866,-0.500000,-0.250000,-0.500000,0.250000,-0.479746,0.390866,-0.420627,0.520320,-0.327430,0.627875,-0.207708,0.704816,-0.071157,0.744911,0.000000,0.744911,0.000000,0.750000,0.500000,0.750000,0.500000,-0.750000,0.500000,-0.750000,
$1*%
%AMFreePoly1*
4,1,19,0.000000,0.744911,0.071157,0.744911,0.207708,0.704816,0.327430,0.627875,0.420627,0.520320,0.479746,0.390866,0.500000,0.250000,0.500000,-0.250000,0.479746,-0.390866,0.420627,-0.520320,0.327430,-0.627875,0.207708,-0.704816,0.071157,-0.744911,0.000000,-0.744911,0.000000,-0.750000,-0.500000,-0.750000,-0.500000,0.750000,0.000000,0.750000,0.000000,0.744911,0.000000,0.744911,
$1*%
G04 Aperture macros list end*
%ADD10R,1.700000X1.700000*%
%ADD11O,1.700000X1.700000*%
%ADD12FreePoly0,180.000000*%
%ADD13FreePoly1,180.000000*%
%ADD14R,1.575000X1.575000*%
%ADD15C,1.575000*%
%ADD16C,3.200000*%
%ADD17RoundRect,0.250000X-0.475000X0.250000X-0.475000X-0.250000X0.475000X-0.250000X0.475000X0.250000X0*%
%ADD18RoundRect,0.250000X-0.450000X0.262500X-0.450000X-0.262500X0.450000X-0.262500X0.450000X0.262500X0*%
%ADD19RoundRect,0.250000X0.262500X0.450000X-0.262500X0.450000X-0.262500X-0.450000X0.262500X-0.450000X0*%
%ADD20RoundRect,0.250000X-0.250000X-0.475000X0.250000X-0.475000X0.250000X0.475000X-0.250000X0.475000X0*%
%ADD21RoundRect,0.250000X0.450000X-0.262500X0.450000X0.262500X-0.450000X0.262500X-0.450000X-0.262500X0*%
%ADD22RoundRect,0.243750X0.243750X0.456250X-0.243750X0.456250X-0.243750X-0.456250X0.243750X-0.456250X0*%
%ADD23RoundRect,0.250000X-0.262500X-0.450000X0.262500X-0.450000X0.262500X0.450000X-0.262500X0.450000X0*%
%ADD24R,1.665000X1.665000*%
%ADD25C,1.665000*%
%ADD26C,2.400000*%
%ADD27R,1.100000X0.400000*%
%ADD28RoundRect,1.250000X1.250000X-2.750000X1.250000X2.750000X-1.250000X2.750000X-1.250000X-2.750000X0*%
%ADD29RoundRect,0.317500X-0.382500X-0.317500X0.382500X-0.317500X0.382500X0.317500X-0.382500X0.317500X0*%
%ADD30R,4.800000X4.720000*%
%ADD31RoundRect,0.150000X-0.650000X-0.150000X0.650000X-0.150000X0.650000X0.150000X-0.650000X0.150000X0*%
%ADD32RoundRect,0.250000X0.650000X2.450000X-0.650000X2.450000X-0.650000X-2.450000X0.650000X-2.450000X0*%
%ADD33RoundRect,0.250001X0.899999X0.899999X-0.899999X0.899999X-0.899999X-0.899999X0.899999X-0.899999X0*%
%ADD34C,2.300000*%
%ADD35RoundRect,0.250000X0.475000X-0.250000X0.475000X0.250000X-0.475000X0.250000X-0.475000X-0.250000X0*%
%ADD36RoundRect,0.075000X-0.700000X-0.075000X0.700000X-0.075000X0.700000X0.075000X-0.700000X0.075000X0*%
%ADD37RoundRect,0.075000X-0.075000X-0.700000X0.075000X-0.700000X0.075000X0.700000X-0.075000X0.700000X0*%
%ADD38C,1.500000*%
%ADD39C,1.300000*%
%ADD40R,0.740000X2.790000*%
%ADD41RoundRect,0.250000X-1.750000X-1.000000X1.750000X-1.000000X1.750000X1.000000X-1.750000X1.000000X0*%
%ADD42RoundRect,0.255000X0.255000X-2.245000X0.255000X2.245000X-0.255000X2.245000X-0.255000X-2.245000X0*%
%ADD43RoundRect,0.225000X-0.225000X-0.375000X0.225000X-0.375000X0.225000X0.375000X-0.225000X0.375000X0*%
%ADD44RoundRect,0.250001X-1.099999X-1.099999X1.099999X-1.099999X1.099999X1.099999X-1.099999X1.099999X0*%
%ADD45C,2.700000*%
%ADD46RoundRect,0.250000X-1.000000X1.750000X-1.000000X-1.750000X1.000000X-1.750000X1.000000X1.750000X0*%
%ADD47RoundRect,0.150000X-0.512500X-0.150000X0.512500X-0.150000X0.512500X0.150000X-0.512500X0.150000X0*%
%ADD48RoundRect,0.250000X0.750000X-0.600000X0.750000X0.600000X-0.750000X0.600000X-0.750000X-0.600000X0*%
%ADD49O,2.000000X1.700000*%
%ADD50RoundRect,0.250000X0.250000X0.475000X-0.250000X0.475000X-0.250000X-0.475000X0.250000X-0.475000X0*%
%ADD51RoundRect,0.250000X-0.337500X-0.475000X0.337500X-0.475000X0.337500X0.475000X-0.337500X0.475000X0*%
%ADD52RoundRect,0.250000X-0.350000X0.850000X-0.350000X-0.850000X0.350000X-0.850000X0.350000X0.850000X0*%
%ADD53RoundRect,0.249997X-2.650003X2.950003X-2.650003X-2.950003X2.650003X-2.950003X2.650003X2.950003X0*%
%ADD54RoundRect,0.250000X-0.600000X-0.750000X0.600000X-0.750000X0.600000X0.750000X-0.600000X0.750000X0*%
%ADD55O,1.700000X2.000000*%
%ADD56RoundRect,0.250000X0.850000X0.350000X-0.850000X0.350000X-0.850000X-0.350000X0.850000X-0.350000X0*%
%ADD57RoundRect,0.249997X2.950003X2.650003X-2.950003X2.650003X-2.950003X-2.650003X2.950003X-2.650003X0*%
%ADD58RoundRect,0.150000X-0.725000X-0.150000X0.725000X-0.150000X0.725000X0.150000X-0.725000X0.150000X0*%
%ADD59RoundRect,0.102000X0.719000X0.719000X-0.719000X0.719000X-0.719000X-0.719000X0.719000X-0.719000X0*%
%ADD60C,1.642000*%
%ADD61RoundRect,0.125000X-0.537500X-0.125000X0.537500X-0.125000X0.537500X0.125000X-0.537500X0.125000X0*%
G04 APERTURE END LIST*
D10*
X179986666Y-142531000D03*
D11*
X179986666Y-145071000D03*
X179986666Y-147611000D03*
D12*
X148136666Y-94556000D03*
D13*
X146836666Y-94556000D03*
D12*
X148136666Y-97056000D03*
D13*
X146836666Y-97056000D03*
D14*
X125186666Y-143556000D03*
D15*
X123186666Y-143556000D03*
X121186666Y-143556000D03*
X119186666Y-143556000D03*
X117186666Y-143556000D03*
D14*
X195986666Y-143556000D03*
D15*
X193986666Y-143556000D03*
X191986666Y-143556000D03*
X189986666Y-143556000D03*
X187986666Y-143556000D03*
D16*
X125096666Y-97911000D03*
X188096666Y-97911000D03*
D17*
X96486666Y-134606000D03*
X96486666Y-136506000D03*
X181486666Y-124056000D03*
X181486666Y-125956000D03*
D18*
X181486666Y-119643500D03*
X181486666Y-121468500D03*
D17*
X202486666Y-134106000D03*
X202486666Y-136006000D03*
D19*
X196899166Y-116056000D03*
X195074166Y-116056000D03*
D20*
X140486666Y-126056000D03*
X142386666Y-126056000D03*
D18*
X194986666Y-119643500D03*
X194986666Y-121468500D03*
D17*
X180486666Y-96106000D03*
X180486666Y-98006000D03*
D21*
X159486666Y-145468500D03*
X159486666Y-143643500D03*
D22*
X174424166Y-145056000D03*
X172549166Y-145056000D03*
D19*
X123399166Y-140056000D03*
X121574166Y-140056000D03*
D23*
X176661666Y-119556000D03*
X178486666Y-119556000D03*
D10*
X142986666Y-91056000D03*
D24*
X171486666Y-105096000D03*
D25*
X171486666Y-102556000D03*
X171486666Y-100016000D03*
D19*
X174399166Y-147556000D03*
X172574166Y-147556000D03*
D26*
X160906666Y-104356000D03*
X160906666Y-107756000D03*
X150986666Y-104356000D03*
X150986666Y-107756000D03*
D10*
X133986666Y-124516000D03*
D11*
X133986666Y-127056000D03*
X133986666Y-129596000D03*
D27*
X122486666Y-122556000D03*
X122486666Y-123206000D03*
X122486666Y-123856000D03*
X122486666Y-124506000D03*
X126786666Y-124506000D03*
X126786666Y-123856000D03*
X126786666Y-123206000D03*
X126786666Y-122556000D03*
D28*
X151986666Y-97056000D03*
X159986666Y-97056000D03*
D18*
X131986666Y-141556000D03*
X131986666Y-143381000D03*
D23*
X168661666Y-121056000D03*
X170486666Y-121056000D03*
D29*
X203946666Y-124941000D03*
X206026666Y-124941000D03*
D30*
X204986666Y-128746000D03*
D10*
X145986666Y-127056000D03*
D20*
X154536666Y-146556000D03*
X156436666Y-146556000D03*
D21*
X106986666Y-103468500D03*
X106986666Y-101643500D03*
X104486666Y-103468500D03*
X104486666Y-101643500D03*
D23*
X190074166Y-140056000D03*
X191899166Y-140056000D03*
D31*
X205386666Y-100721000D03*
X205386666Y-101991000D03*
X205386666Y-103261000D03*
X205386666Y-104531000D03*
X212586666Y-104531000D03*
X212586666Y-103261000D03*
X212586666Y-101991000D03*
X212586666Y-100721000D03*
D10*
X117486666Y-139556000D03*
D19*
X215311666Y-118556000D03*
X213486666Y-118556000D03*
D10*
X145986666Y-132056000D03*
D16*
X188096666Y-132911000D03*
D32*
X158536666Y-115056000D03*
X153436666Y-115056000D03*
D33*
X178486666Y-91556000D03*
D34*
X173686666Y-91556000D03*
X168886666Y-91556000D03*
D35*
X180486666Y-102456000D03*
X180486666Y-100556000D03*
X131986666Y-99956000D03*
X131986666Y-98056000D03*
D36*
X150311666Y-129306000D03*
X150311666Y-129806000D03*
X150311666Y-130306000D03*
X150311666Y-130806000D03*
X150311666Y-131306000D03*
X150311666Y-131806000D03*
X150311666Y-132306000D03*
X150311666Y-132806000D03*
X150311666Y-133306000D03*
X150311666Y-133806000D03*
X150311666Y-134306000D03*
X150311666Y-134806000D03*
X150311666Y-135306000D03*
X150311666Y-135806000D03*
X150311666Y-136306000D03*
X150311666Y-136806000D03*
D37*
X152236666Y-138731000D03*
X152736666Y-138731000D03*
X153236666Y-138731000D03*
X153736666Y-138731000D03*
X154236666Y-138731000D03*
X154736666Y-138731000D03*
X155236666Y-138731000D03*
X155736666Y-138731000D03*
X156236666Y-138731000D03*
X156736666Y-138731000D03*
X157236666Y-138731000D03*
X157736666Y-138731000D03*
X158236666Y-138731000D03*
X158736666Y-138731000D03*
X159236666Y-138731000D03*
X159736666Y-138731000D03*
D36*
X161661666Y-136806000D03*
X161661666Y-136306000D03*
X161661666Y-135806000D03*
X161661666Y-135306000D03*
X161661666Y-134806000D03*
X161661666Y-134306000D03*
X161661666Y-133806000D03*
X161661666Y-133306000D03*
X161661666Y-132806000D03*
X161661666Y-132306000D03*
X161661666Y-131806000D03*
X161661666Y-131306000D03*
X161661666Y-130806000D03*
X161661666Y-130306000D03*
X161661666Y-129806000D03*
X161661666Y-129306000D03*
D37*
X159736666Y-127381000D03*
X159236666Y-127381000D03*
X158736666Y-127381000D03*
X158236666Y-127381000D03*
X157736666Y-127381000D03*
X157236666Y-127381000D03*
X156736666Y-127381000D03*
X156236666Y-127381000D03*
X155736666Y-127381000D03*
X155236666Y-127381000D03*
X154736666Y-127381000D03*
X154236666Y-127381000D03*
X153736666Y-127381000D03*
X153236666Y-127381000D03*
X152736666Y-127381000D03*
X152236666Y-127381000D03*
D38*
X135986666Y-142306000D03*
X141986666Y-142306000D03*
X135986666Y-146806000D03*
X141986666Y-146806000D03*
D39*
X138986666Y-141406000D03*
X138986666Y-147706000D03*
D40*
X185906666Y-123056000D03*
X185906666Y-118986000D03*
X187176666Y-123056000D03*
X187176666Y-118986000D03*
X188446666Y-123056000D03*
X188446666Y-118986000D03*
X189716666Y-118986000D03*
X190986666Y-123056000D03*
X190986666Y-118986000D03*
D12*
X148136666Y-99706000D03*
D13*
X146836666Y-99706000D03*
D41*
X184486666Y-109056000D03*
X192486666Y-109056000D03*
D24*
X140846666Y-99516000D03*
D25*
X140846666Y-102056000D03*
X140846666Y-104596000D03*
D42*
X113826666Y-116656000D03*
X113826666Y-109056000D03*
X116366666Y-116656000D03*
X116366666Y-109056000D03*
X118906666Y-116656000D03*
X118906666Y-109056000D03*
X121446666Y-116656000D03*
X121446666Y-109056000D03*
X123986666Y-116656000D03*
X123986666Y-109056000D03*
D43*
X153836666Y-143556000D03*
X157136666Y-143556000D03*
D35*
X167486666Y-104456000D03*
X167486666Y-102556000D03*
D10*
X117486666Y-97056000D03*
D44*
X101006666Y-136281000D03*
D45*
X104966666Y-136281000D03*
D16*
X125096666Y-132911000D03*
D23*
X168661666Y-123556000D03*
X170486666Y-123556000D03*
D46*
X145486666Y-114556000D03*
X145486666Y-122556000D03*
D47*
X173986666Y-115106000D03*
X173986666Y-116056000D03*
X173986666Y-117006000D03*
X176261666Y-117006000D03*
X176261666Y-115106000D03*
D48*
X134961666Y-118056000D03*
D49*
X134961666Y-115556000D03*
D50*
X100886666Y-102556000D03*
X98986666Y-102556000D03*
X140436666Y-136606000D03*
X138536666Y-136606000D03*
D51*
X138411666Y-134106000D03*
X140486666Y-134106000D03*
D35*
X109986666Y-136506000D03*
X109986666Y-134606000D03*
D52*
X215194166Y-121856000D03*
D53*
X212914166Y-128156000D03*
D52*
X210634166Y-121856000D03*
D10*
X151486666Y-148056000D03*
D50*
X173886666Y-138056000D03*
X171986666Y-138056000D03*
D19*
X207811666Y-107531000D03*
X205986666Y-107531000D03*
D54*
X207736666Y-95031000D03*
D55*
X210236666Y-95031000D03*
D10*
X166986666Y-96556000D03*
D56*
X169986666Y-117116000D03*
D57*
X163686666Y-114836000D03*
D56*
X169986666Y-112556000D03*
D21*
X151486666Y-145468500D03*
X151486666Y-143643500D03*
D35*
X131986666Y-105006000D03*
X131986666Y-103106000D03*
D17*
X158036666Y-121056000D03*
X158036666Y-122956000D03*
D50*
X173936666Y-135056000D03*
X172036666Y-135056000D03*
D10*
X165486666Y-122056000D03*
D18*
X197986666Y-119643500D03*
X197986666Y-121468500D03*
D10*
X194986666Y-139556000D03*
D58*
X170411666Y-128556000D03*
X170411666Y-129826000D03*
X170411666Y-131096000D03*
X170411666Y-132366000D03*
X175561666Y-132366000D03*
X175561666Y-131096000D03*
X175561666Y-129826000D03*
X175561666Y-128556000D03*
D21*
X116486666Y-103468500D03*
X116486666Y-101643500D03*
D10*
X97486666Y-119556000D03*
X179486666Y-116056000D03*
D17*
X131986666Y-94056000D03*
X131986666Y-95956000D03*
D10*
X166986666Y-148056000D03*
D35*
X215486666Y-136056000D03*
X215486666Y-134156000D03*
D29*
X96746666Y-125056000D03*
X98826666Y-125056000D03*
D30*
X97786666Y-128861000D03*
D59*
X106486666Y-97056000D03*
D60*
X104486666Y-97056000D03*
X102486666Y-97056000D03*
X100486666Y-97056000D03*
D21*
X112486666Y-126056000D03*
X112486666Y-124231000D03*
D61*
X152849166Y-121056000D03*
X152849166Y-121706000D03*
X152849166Y-122356000D03*
X152849166Y-123006000D03*
X155124166Y-123006000D03*
X155124166Y-122356000D03*
X155124166Y-121706000D03*
X155124166Y-121056000D03*
D10*
X214986666Y-114056000D03*
D35*
X142486666Y-136056000D03*
X142486666Y-134156000D03*
D52*
X108694166Y-121856000D03*
D53*
X106414166Y-128156000D03*
D52*
X104134166Y-121856000D03*
D44*
X207006666Y-136281000D03*
D45*
X210966666Y-136281000D03*
M02*
