%TF.GenerationSoftware,KiCad,Pcbnew,8.0.9-8.0.9-0~ubuntu22.04.1*%
%TF.CreationDate,2026-05-27T12:16:16+02:00*%
%TF.ProjectId,Carte_puissance,43617274-655f-4707-9569-7373616e6365,2.0*%
%TF.SameCoordinates,Original*%
%TF.FileFunction,Drillmap*%
%TF.FilePolarity,Positive*%
%FSLAX45Y45*%
G04 Gerber Fmt 4.5, Leading zero omitted, Abs format (unit mm)*
G04 Created by KiCad (PCBNEW 8.0.9-8.0.9-0~ubuntu22.04.1) date 2026-05-27 12:16:16*
%MOMM*%
%LPD*%
G01*
G04 APERTURE LIST*
%ADD10C,0.150000*%
%ADD11C,0.010000*%
%ADD12C,0.200000*%
%ADD13C,0.320000*%
G04 APERTURE END LIST*
D10*
X16748666Y-8805600D02*
X21648663Y-8805600D01*
X9398663Y-14855600D02*
X9398663Y-8955600D01*
D11*
X12669667Y-9791100D02*
G75*
G02*
X12349667Y-9791100I-160000J0D01*
G01*
X12349667Y-9791100D02*
G75*
G02*
X12669667Y-9791100I160000J0D01*
G01*
X12669667Y-13291100D02*
G75*
G02*
X12349667Y-13291100I-160000J0D01*
G01*
X12349667Y-13291100D02*
G75*
G02*
X12669667Y-13291100I160000J0D01*
G01*
D10*
X14448667Y-8805600D02*
X9548663Y-8805600D01*
X21648663Y-8805600D02*
G75*
G02*
X21798660Y-8955600I-3J-150000D01*
G01*
X21798663Y-8955600D02*
X21798663Y-14855600D01*
X16324514Y-9170771D02*
G75*
G02*
X16248667Y-9205598I-75844J65171D01*
G01*
X14448667Y-8805600D02*
G75*
G02*
X14524516Y-8840428I3J-100000D01*
G01*
X9398663Y-8955600D02*
G75*
G02*
X9548663Y-8805603I149997J0D01*
G01*
D11*
X18969667Y-9791100D02*
G75*
G02*
X18649667Y-9791100I-160000J0D01*
G01*
X18649667Y-9791100D02*
G75*
G02*
X18969667Y-9791100I160000J0D01*
G01*
D10*
X9548663Y-15005600D02*
G75*
G02*
X9398660Y-14855600I-3J150000D01*
G01*
X16324514Y-9170771D02*
X16672819Y-8840429D01*
X14948666Y-9205600D02*
G75*
G02*
X14872821Y-9170769I4J100000D01*
G01*
X16672819Y-8840429D02*
G75*
G02*
X16748666Y-8805597I75851J-65171D01*
G01*
X14872819Y-9170771D02*
X14524514Y-8840430D01*
X21798663Y-14855600D02*
G75*
G02*
X21648663Y-15005603I-150003J0D01*
G01*
D11*
X18969667Y-13291100D02*
G75*
G02*
X18649667Y-13291100I-160000J0D01*
G01*
X18649667Y-13291100D02*
G75*
G02*
X18969667Y-13291100I160000J0D01*
G01*
D10*
X14948666Y-9205600D02*
X16248667Y-9205600D01*
X21648667Y-15005600D02*
X9548667Y-15005600D01*
D12*
D13*
X12349667Y-9631100D02*
X12669667Y-9951100D01*
X12669667Y-9631100D02*
X12349667Y-9951100D01*
X12349667Y-13131100D02*
X12669667Y-13451100D01*
X12669667Y-13131100D02*
X12349667Y-13451100D01*
X18649667Y-9631100D02*
X18969667Y-9951100D01*
X18969667Y-9631100D02*
X18649667Y-9951100D01*
X18649667Y-13131100D02*
X18969667Y-13451100D01*
X18969667Y-13131100D02*
X18649667Y-13451100D01*
D12*
X9651940Y-15324584D02*
X9651940Y-15124584D01*
X9651940Y-15124584D02*
X9699559Y-15124584D01*
X9699559Y-15124584D02*
X9728131Y-15134108D01*
X9728131Y-15134108D02*
X9747178Y-15153155D01*
X9747178Y-15153155D02*
X9756702Y-15172203D01*
X9756702Y-15172203D02*
X9766226Y-15210298D01*
X9766226Y-15210298D02*
X9766226Y-15238869D01*
X9766226Y-15238869D02*
X9756702Y-15276965D01*
X9756702Y-15276965D02*
X9747178Y-15296012D01*
X9747178Y-15296012D02*
X9728131Y-15315060D01*
X9728131Y-15315060D02*
X9699559Y-15324584D01*
X9699559Y-15324584D02*
X9651940Y-15324584D01*
X9851940Y-15324584D02*
X9851940Y-15191250D01*
X9851940Y-15229346D02*
X9861464Y-15210298D01*
X9861464Y-15210298D02*
X9870988Y-15200774D01*
X9870988Y-15200774D02*
X9890035Y-15191250D01*
X9890035Y-15191250D02*
X9909083Y-15191250D01*
X9975750Y-15324584D02*
X9975750Y-15191250D01*
X9975750Y-15124584D02*
X9966226Y-15134108D01*
X9966226Y-15134108D02*
X9975750Y-15143631D01*
X9975750Y-15143631D02*
X9985273Y-15134108D01*
X9985273Y-15134108D02*
X9975750Y-15124584D01*
X9975750Y-15124584D02*
X9975750Y-15143631D01*
X10099559Y-15324584D02*
X10080511Y-15315060D01*
X10080511Y-15315060D02*
X10070988Y-15296012D01*
X10070988Y-15296012D02*
X10070988Y-15124584D01*
X10204321Y-15324584D02*
X10185273Y-15315060D01*
X10185273Y-15315060D02*
X10175750Y-15296012D01*
X10175750Y-15296012D02*
X10175750Y-15124584D01*
X10432892Y-15324584D02*
X10432892Y-15124584D01*
X10432892Y-15124584D02*
X10499559Y-15267441D01*
X10499559Y-15267441D02*
X10566226Y-15124584D01*
X10566226Y-15124584D02*
X10566226Y-15324584D01*
X10747178Y-15324584D02*
X10747178Y-15219822D01*
X10747178Y-15219822D02*
X10737654Y-15200774D01*
X10737654Y-15200774D02*
X10718607Y-15191250D01*
X10718607Y-15191250D02*
X10680511Y-15191250D01*
X10680511Y-15191250D02*
X10661464Y-15200774D01*
X10747178Y-15315060D02*
X10728131Y-15324584D01*
X10728131Y-15324584D02*
X10680511Y-15324584D01*
X10680511Y-15324584D02*
X10661464Y-15315060D01*
X10661464Y-15315060D02*
X10651940Y-15296012D01*
X10651940Y-15296012D02*
X10651940Y-15276965D01*
X10651940Y-15276965D02*
X10661464Y-15257917D01*
X10661464Y-15257917D02*
X10680511Y-15248393D01*
X10680511Y-15248393D02*
X10728131Y-15248393D01*
X10728131Y-15248393D02*
X10747178Y-15238869D01*
X10842416Y-15191250D02*
X10842416Y-15391250D01*
X10842416Y-15200774D02*
X10861464Y-15191250D01*
X10861464Y-15191250D02*
X10899559Y-15191250D01*
X10899559Y-15191250D02*
X10918607Y-15200774D01*
X10918607Y-15200774D02*
X10928131Y-15210298D01*
X10928131Y-15210298D02*
X10937654Y-15229346D01*
X10937654Y-15229346D02*
X10937654Y-15286488D01*
X10937654Y-15286488D02*
X10928131Y-15305536D01*
X10928131Y-15305536D02*
X10918607Y-15315060D01*
X10918607Y-15315060D02*
X10899559Y-15324584D01*
X10899559Y-15324584D02*
X10861464Y-15324584D01*
X10861464Y-15324584D02*
X10842416Y-15315060D01*
X11023369Y-15305536D02*
X11032892Y-15315060D01*
X11032892Y-15315060D02*
X11023369Y-15324584D01*
X11023369Y-15324584D02*
X11013845Y-15315060D01*
X11013845Y-15315060D02*
X11023369Y-15305536D01*
X11023369Y-15305536D02*
X11023369Y-15324584D01*
X11023369Y-15200774D02*
X11032892Y-15210298D01*
X11032892Y-15210298D02*
X11023369Y-15219822D01*
X11023369Y-15219822D02*
X11013845Y-15210298D01*
X11013845Y-15210298D02*
X11023369Y-15200774D01*
X11023369Y-15200774D02*
X11023369Y-15219822D01*
X9191163Y-15553100D02*
X9391163Y-15753100D01*
X9391163Y-15553100D02*
X9191163Y-15753100D01*
X9632892Y-15544584D02*
X9756702Y-15544584D01*
X9756702Y-15544584D02*
X9690035Y-15620774D01*
X9690035Y-15620774D02*
X9718607Y-15620774D01*
X9718607Y-15620774D02*
X9737654Y-15630298D01*
X9737654Y-15630298D02*
X9747178Y-15639822D01*
X9747178Y-15639822D02*
X9756702Y-15658869D01*
X9756702Y-15658869D02*
X9756702Y-15706488D01*
X9756702Y-15706488D02*
X9747178Y-15725536D01*
X9747178Y-15725536D02*
X9737654Y-15735060D01*
X9737654Y-15735060D02*
X9718607Y-15744584D01*
X9718607Y-15744584D02*
X9661464Y-15744584D01*
X9661464Y-15744584D02*
X9642416Y-15735060D01*
X9642416Y-15735060D02*
X9632892Y-15725536D01*
X9842416Y-15725536D02*
X9851940Y-15735060D01*
X9851940Y-15735060D02*
X9842416Y-15744584D01*
X9842416Y-15744584D02*
X9832892Y-15735060D01*
X9832892Y-15735060D02*
X9842416Y-15725536D01*
X9842416Y-15725536D02*
X9842416Y-15744584D01*
X9928131Y-15563631D02*
X9937654Y-15554108D01*
X9937654Y-15554108D02*
X9956702Y-15544584D01*
X9956702Y-15544584D02*
X10004321Y-15544584D01*
X10004321Y-15544584D02*
X10023369Y-15554108D01*
X10023369Y-15554108D02*
X10032892Y-15563631D01*
X10032892Y-15563631D02*
X10042416Y-15582679D01*
X10042416Y-15582679D02*
X10042416Y-15601727D01*
X10042416Y-15601727D02*
X10032892Y-15630298D01*
X10032892Y-15630298D02*
X9918607Y-15744584D01*
X9918607Y-15744584D02*
X10042416Y-15744584D01*
X10166226Y-15544584D02*
X10185273Y-15544584D01*
X10185273Y-15544584D02*
X10204321Y-15554108D01*
X10204321Y-15554108D02*
X10213845Y-15563631D01*
X10213845Y-15563631D02*
X10223369Y-15582679D01*
X10223369Y-15582679D02*
X10232892Y-15620774D01*
X10232892Y-15620774D02*
X10232892Y-15668393D01*
X10232892Y-15668393D02*
X10223369Y-15706488D01*
X10223369Y-15706488D02*
X10213845Y-15725536D01*
X10213845Y-15725536D02*
X10204321Y-15735060D01*
X10204321Y-15735060D02*
X10185273Y-15744584D01*
X10185273Y-15744584D02*
X10166226Y-15744584D01*
X10166226Y-15744584D02*
X10147178Y-15735060D01*
X10147178Y-15735060D02*
X10137654Y-15725536D01*
X10137654Y-15725536D02*
X10128131Y-15706488D01*
X10128131Y-15706488D02*
X10118607Y-15668393D01*
X10118607Y-15668393D02*
X10118607Y-15620774D01*
X10118607Y-15620774D02*
X10128131Y-15582679D01*
X10128131Y-15582679D02*
X10137654Y-15563631D01*
X10137654Y-15563631D02*
X10147178Y-15554108D01*
X10147178Y-15554108D02*
X10166226Y-15544584D01*
X10356702Y-15544584D02*
X10375750Y-15544584D01*
X10375750Y-15544584D02*
X10394797Y-15554108D01*
X10394797Y-15554108D02*
X10404321Y-15563631D01*
X10404321Y-15563631D02*
X10413845Y-15582679D01*
X10413845Y-15582679D02*
X10423369Y-15620774D01*
X10423369Y-15620774D02*
X10423369Y-15668393D01*
X10423369Y-15668393D02*
X10413845Y-15706488D01*
X10413845Y-15706488D02*
X10404321Y-15725536D01*
X10404321Y-15725536D02*
X10394797Y-15735060D01*
X10394797Y-15735060D02*
X10375750Y-15744584D01*
X10375750Y-15744584D02*
X10356702Y-15744584D01*
X10356702Y-15744584D02*
X10337654Y-15735060D01*
X10337654Y-15735060D02*
X10328131Y-15725536D01*
X10328131Y-15725536D02*
X10318607Y-15706488D01*
X10318607Y-15706488D02*
X10309083Y-15668393D01*
X10309083Y-15668393D02*
X10309083Y-15620774D01*
X10309083Y-15620774D02*
X10318607Y-15582679D01*
X10318607Y-15582679D02*
X10328131Y-15563631D01*
X10328131Y-15563631D02*
X10337654Y-15554108D01*
X10337654Y-15554108D02*
X10356702Y-15544584D01*
X10509083Y-15744584D02*
X10509083Y-15611250D01*
X10509083Y-15630298D02*
X10518607Y-15620774D01*
X10518607Y-15620774D02*
X10537654Y-15611250D01*
X10537654Y-15611250D02*
X10566226Y-15611250D01*
X10566226Y-15611250D02*
X10585273Y-15620774D01*
X10585273Y-15620774D02*
X10594797Y-15639822D01*
X10594797Y-15639822D02*
X10594797Y-15744584D01*
X10594797Y-15639822D02*
X10604321Y-15620774D01*
X10604321Y-15620774D02*
X10623369Y-15611250D01*
X10623369Y-15611250D02*
X10651940Y-15611250D01*
X10651940Y-15611250D02*
X10670988Y-15620774D01*
X10670988Y-15620774D02*
X10680512Y-15639822D01*
X10680512Y-15639822D02*
X10680512Y-15744584D01*
X10775750Y-15744584D02*
X10775750Y-15611250D01*
X10775750Y-15630298D02*
X10785273Y-15620774D01*
X10785273Y-15620774D02*
X10804321Y-15611250D01*
X10804321Y-15611250D02*
X10832893Y-15611250D01*
X10832893Y-15611250D02*
X10851940Y-15620774D01*
X10851940Y-15620774D02*
X10861464Y-15639822D01*
X10861464Y-15639822D02*
X10861464Y-15744584D01*
X10861464Y-15639822D02*
X10870988Y-15620774D01*
X10870988Y-15620774D02*
X10890035Y-15611250D01*
X10890035Y-15611250D02*
X10918607Y-15611250D01*
X10918607Y-15611250D02*
X10937654Y-15620774D01*
X10937654Y-15620774D02*
X10947178Y-15639822D01*
X10947178Y-15639822D02*
X10947178Y-15744584D01*
X11337654Y-15535060D02*
X11166226Y-15792203D01*
X11594797Y-15544584D02*
X11613845Y-15544584D01*
X11613845Y-15544584D02*
X11632893Y-15554108D01*
X11632893Y-15554108D02*
X11642416Y-15563631D01*
X11642416Y-15563631D02*
X11651940Y-15582679D01*
X11651940Y-15582679D02*
X11661464Y-15620774D01*
X11661464Y-15620774D02*
X11661464Y-15668393D01*
X11661464Y-15668393D02*
X11651940Y-15706488D01*
X11651940Y-15706488D02*
X11642416Y-15725536D01*
X11642416Y-15725536D02*
X11632893Y-15735060D01*
X11632893Y-15735060D02*
X11613845Y-15744584D01*
X11613845Y-15744584D02*
X11594797Y-15744584D01*
X11594797Y-15744584D02*
X11575750Y-15735060D01*
X11575750Y-15735060D02*
X11566226Y-15725536D01*
X11566226Y-15725536D02*
X11556702Y-15706488D01*
X11556702Y-15706488D02*
X11547178Y-15668393D01*
X11547178Y-15668393D02*
X11547178Y-15620774D01*
X11547178Y-15620774D02*
X11556702Y-15582679D01*
X11556702Y-15582679D02*
X11566226Y-15563631D01*
X11566226Y-15563631D02*
X11575750Y-15554108D01*
X11575750Y-15554108D02*
X11594797Y-15544584D01*
X11747178Y-15725536D02*
X11756702Y-15735060D01*
X11756702Y-15735060D02*
X11747178Y-15744584D01*
X11747178Y-15744584D02*
X11737654Y-15735060D01*
X11737654Y-15735060D02*
X11747178Y-15725536D01*
X11747178Y-15725536D02*
X11747178Y-15744584D01*
X11947178Y-15744584D02*
X11832893Y-15744584D01*
X11890035Y-15744584D02*
X11890035Y-15544584D01*
X11890035Y-15544584D02*
X11870988Y-15573155D01*
X11870988Y-15573155D02*
X11851940Y-15592203D01*
X11851940Y-15592203D02*
X11832893Y-15601727D01*
X12023369Y-15563631D02*
X12032893Y-15554108D01*
X12032893Y-15554108D02*
X12051940Y-15544584D01*
X12051940Y-15544584D02*
X12099559Y-15544584D01*
X12099559Y-15544584D02*
X12118607Y-15554108D01*
X12118607Y-15554108D02*
X12128131Y-15563631D01*
X12128131Y-15563631D02*
X12137654Y-15582679D01*
X12137654Y-15582679D02*
X12137654Y-15601727D01*
X12137654Y-15601727D02*
X12128131Y-15630298D01*
X12128131Y-15630298D02*
X12013845Y-15744584D01*
X12013845Y-15744584D02*
X12137654Y-15744584D01*
X12309083Y-15544584D02*
X12270988Y-15544584D01*
X12270988Y-15544584D02*
X12251940Y-15554108D01*
X12251940Y-15554108D02*
X12242416Y-15563631D01*
X12242416Y-15563631D02*
X12223369Y-15592203D01*
X12223369Y-15592203D02*
X12213845Y-15630298D01*
X12213845Y-15630298D02*
X12213845Y-15706488D01*
X12213845Y-15706488D02*
X12223369Y-15725536D01*
X12223369Y-15725536D02*
X12232893Y-15735060D01*
X12232893Y-15735060D02*
X12251940Y-15744584D01*
X12251940Y-15744584D02*
X12290035Y-15744584D01*
X12290035Y-15744584D02*
X12309083Y-15735060D01*
X12309083Y-15735060D02*
X12318607Y-15725536D01*
X12318607Y-15725536D02*
X12328131Y-15706488D01*
X12328131Y-15706488D02*
X12328131Y-15658869D01*
X12328131Y-15658869D02*
X12318607Y-15639822D01*
X12318607Y-15639822D02*
X12309083Y-15630298D01*
X12309083Y-15630298D02*
X12290035Y-15620774D01*
X12290035Y-15620774D02*
X12251940Y-15620774D01*
X12251940Y-15620774D02*
X12232893Y-15630298D01*
X12232893Y-15630298D02*
X12223369Y-15639822D01*
X12223369Y-15639822D02*
X12213845Y-15658869D01*
X12451940Y-15544584D02*
X12470988Y-15544584D01*
X12470988Y-15544584D02*
X12490035Y-15554108D01*
X12490035Y-15554108D02*
X12499559Y-15563631D01*
X12499559Y-15563631D02*
X12509083Y-15582679D01*
X12509083Y-15582679D02*
X12518607Y-15620774D01*
X12518607Y-15620774D02*
X12518607Y-15668393D01*
X12518607Y-15668393D02*
X12509083Y-15706488D01*
X12509083Y-15706488D02*
X12499559Y-15725536D01*
X12499559Y-15725536D02*
X12490035Y-15735060D01*
X12490035Y-15735060D02*
X12470988Y-15744584D01*
X12470988Y-15744584D02*
X12451940Y-15744584D01*
X12451940Y-15744584D02*
X12432893Y-15735060D01*
X12432893Y-15735060D02*
X12423369Y-15725536D01*
X12423369Y-15725536D02*
X12413845Y-15706488D01*
X12413845Y-15706488D02*
X12404321Y-15668393D01*
X12404321Y-15668393D02*
X12404321Y-15620774D01*
X12404321Y-15620774D02*
X12413845Y-15582679D01*
X12413845Y-15582679D02*
X12423369Y-15563631D01*
X12423369Y-15563631D02*
X12432893Y-15554108D01*
X12432893Y-15554108D02*
X12451940Y-15544584D01*
X12594797Y-15544584D02*
X12594797Y-15582679D01*
X12670988Y-15544584D02*
X12670988Y-15582679D01*
X12966226Y-15820774D02*
X12956702Y-15811250D01*
X12956702Y-15811250D02*
X12937655Y-15782679D01*
X12937655Y-15782679D02*
X12928131Y-15763631D01*
X12928131Y-15763631D02*
X12918607Y-15735060D01*
X12918607Y-15735060D02*
X12909083Y-15687441D01*
X12909083Y-15687441D02*
X12909083Y-15649346D01*
X12909083Y-15649346D02*
X12918607Y-15601727D01*
X12918607Y-15601727D02*
X12928131Y-15573155D01*
X12928131Y-15573155D02*
X12937655Y-15554108D01*
X12937655Y-15554108D02*
X12956702Y-15525536D01*
X12956702Y-15525536D02*
X12966226Y-15516012D01*
X13128131Y-15611250D02*
X13128131Y-15744584D01*
X13080512Y-15535060D02*
X13032893Y-15677917D01*
X13032893Y-15677917D02*
X13156702Y-15677917D01*
X13385274Y-15744584D02*
X13385274Y-15544584D01*
X13470988Y-15744584D02*
X13470988Y-15639822D01*
X13470988Y-15639822D02*
X13461464Y-15620774D01*
X13461464Y-15620774D02*
X13442417Y-15611250D01*
X13442417Y-15611250D02*
X13413845Y-15611250D01*
X13413845Y-15611250D02*
X13394797Y-15620774D01*
X13394797Y-15620774D02*
X13385274Y-15630298D01*
X13594797Y-15744584D02*
X13575750Y-15735060D01*
X13575750Y-15735060D02*
X13566226Y-15725536D01*
X13566226Y-15725536D02*
X13556702Y-15706488D01*
X13556702Y-15706488D02*
X13556702Y-15649346D01*
X13556702Y-15649346D02*
X13566226Y-15630298D01*
X13566226Y-15630298D02*
X13575750Y-15620774D01*
X13575750Y-15620774D02*
X13594797Y-15611250D01*
X13594797Y-15611250D02*
X13623369Y-15611250D01*
X13623369Y-15611250D02*
X13642417Y-15620774D01*
X13642417Y-15620774D02*
X13651940Y-15630298D01*
X13651940Y-15630298D02*
X13661464Y-15649346D01*
X13661464Y-15649346D02*
X13661464Y-15706488D01*
X13661464Y-15706488D02*
X13651940Y-15725536D01*
X13651940Y-15725536D02*
X13642417Y-15735060D01*
X13642417Y-15735060D02*
X13623369Y-15744584D01*
X13623369Y-15744584D02*
X13594797Y-15744584D01*
X13775750Y-15744584D02*
X13756702Y-15735060D01*
X13756702Y-15735060D02*
X13747178Y-15716012D01*
X13747178Y-15716012D02*
X13747178Y-15544584D01*
X13928131Y-15735060D02*
X13909083Y-15744584D01*
X13909083Y-15744584D02*
X13870988Y-15744584D01*
X13870988Y-15744584D02*
X13851940Y-15735060D01*
X13851940Y-15735060D02*
X13842417Y-15716012D01*
X13842417Y-15716012D02*
X13842417Y-15639822D01*
X13842417Y-15639822D02*
X13851940Y-15620774D01*
X13851940Y-15620774D02*
X13870988Y-15611250D01*
X13870988Y-15611250D02*
X13909083Y-15611250D01*
X13909083Y-15611250D02*
X13928131Y-15620774D01*
X13928131Y-15620774D02*
X13937655Y-15639822D01*
X13937655Y-15639822D02*
X13937655Y-15658869D01*
X13937655Y-15658869D02*
X13842417Y-15677917D01*
X14013845Y-15735060D02*
X14032893Y-15744584D01*
X14032893Y-15744584D02*
X14070988Y-15744584D01*
X14070988Y-15744584D02*
X14090036Y-15735060D01*
X14090036Y-15735060D02*
X14099559Y-15716012D01*
X14099559Y-15716012D02*
X14099559Y-15706488D01*
X14099559Y-15706488D02*
X14090036Y-15687441D01*
X14090036Y-15687441D02*
X14070988Y-15677917D01*
X14070988Y-15677917D02*
X14042417Y-15677917D01*
X14042417Y-15677917D02*
X14023369Y-15668393D01*
X14023369Y-15668393D02*
X14013845Y-15649346D01*
X14013845Y-15649346D02*
X14013845Y-15639822D01*
X14013845Y-15639822D02*
X14023369Y-15620774D01*
X14023369Y-15620774D02*
X14042417Y-15611250D01*
X14042417Y-15611250D02*
X14070988Y-15611250D01*
X14070988Y-15611250D02*
X14090036Y-15620774D01*
X14166226Y-15820774D02*
X14175750Y-15811250D01*
X14175750Y-15811250D02*
X14194798Y-15782679D01*
X14194798Y-15782679D02*
X14204321Y-15763631D01*
X14204321Y-15763631D02*
X14213845Y-15735060D01*
X14213845Y-15735060D02*
X14223369Y-15687441D01*
X14223369Y-15687441D02*
X14223369Y-15649346D01*
X14223369Y-15649346D02*
X14213845Y-15601727D01*
X14213845Y-15601727D02*
X14204321Y-15573155D01*
X14204321Y-15573155D02*
X14194798Y-15554108D01*
X14194798Y-15554108D02*
X14175750Y-15525536D01*
X14175750Y-15525536D02*
X14166226Y-15516012D01*
X14528131Y-15820774D02*
X14518607Y-15811250D01*
X14518607Y-15811250D02*
X14499559Y-15782679D01*
X14499559Y-15782679D02*
X14490036Y-15763631D01*
X14490036Y-15763631D02*
X14480512Y-15735060D01*
X14480512Y-15735060D02*
X14470988Y-15687441D01*
X14470988Y-15687441D02*
X14470988Y-15649346D01*
X14470988Y-15649346D02*
X14480512Y-15601727D01*
X14480512Y-15601727D02*
X14490036Y-15573155D01*
X14490036Y-15573155D02*
X14499559Y-15554108D01*
X14499559Y-15554108D02*
X14518607Y-15525536D01*
X14518607Y-15525536D02*
X14528131Y-15516012D01*
X14604321Y-15611250D02*
X14604321Y-15744584D01*
X14604321Y-15630298D02*
X14613845Y-15620774D01*
X14613845Y-15620774D02*
X14632893Y-15611250D01*
X14632893Y-15611250D02*
X14661464Y-15611250D01*
X14661464Y-15611250D02*
X14680512Y-15620774D01*
X14680512Y-15620774D02*
X14690036Y-15639822D01*
X14690036Y-15639822D02*
X14690036Y-15744584D01*
X14813845Y-15744584D02*
X14794798Y-15735060D01*
X14794798Y-15735060D02*
X14785274Y-15725536D01*
X14785274Y-15725536D02*
X14775750Y-15706488D01*
X14775750Y-15706488D02*
X14775750Y-15649346D01*
X14775750Y-15649346D02*
X14785274Y-15630298D01*
X14785274Y-15630298D02*
X14794798Y-15620774D01*
X14794798Y-15620774D02*
X14813845Y-15611250D01*
X14813845Y-15611250D02*
X14842417Y-15611250D01*
X14842417Y-15611250D02*
X14861464Y-15620774D01*
X14861464Y-15620774D02*
X14870988Y-15630298D01*
X14870988Y-15630298D02*
X14880512Y-15649346D01*
X14880512Y-15649346D02*
X14880512Y-15706488D01*
X14880512Y-15706488D02*
X14870988Y-15725536D01*
X14870988Y-15725536D02*
X14861464Y-15735060D01*
X14861464Y-15735060D02*
X14842417Y-15744584D01*
X14842417Y-15744584D02*
X14813845Y-15744584D01*
X14937655Y-15611250D02*
X15013845Y-15611250D01*
X14966226Y-15544584D02*
X14966226Y-15716012D01*
X14966226Y-15716012D02*
X14975750Y-15735060D01*
X14975750Y-15735060D02*
X14994798Y-15744584D01*
X14994798Y-15744584D02*
X15013845Y-15744584D01*
X15232893Y-15611250D02*
X15232893Y-15811250D01*
X15232893Y-15620774D02*
X15251940Y-15611250D01*
X15251940Y-15611250D02*
X15290036Y-15611250D01*
X15290036Y-15611250D02*
X15309083Y-15620774D01*
X15309083Y-15620774D02*
X15318607Y-15630298D01*
X15318607Y-15630298D02*
X15328131Y-15649346D01*
X15328131Y-15649346D02*
X15328131Y-15706488D01*
X15328131Y-15706488D02*
X15318607Y-15725536D01*
X15318607Y-15725536D02*
X15309083Y-15735060D01*
X15309083Y-15735060D02*
X15290036Y-15744584D01*
X15290036Y-15744584D02*
X15251940Y-15744584D01*
X15251940Y-15744584D02*
X15232893Y-15735060D01*
X15442417Y-15744584D02*
X15423369Y-15735060D01*
X15423369Y-15735060D02*
X15413845Y-15716012D01*
X15413845Y-15716012D02*
X15413845Y-15544584D01*
X15604321Y-15744584D02*
X15604321Y-15639822D01*
X15604321Y-15639822D02*
X15594798Y-15620774D01*
X15594798Y-15620774D02*
X15575750Y-15611250D01*
X15575750Y-15611250D02*
X15537655Y-15611250D01*
X15537655Y-15611250D02*
X15518607Y-15620774D01*
X15604321Y-15735060D02*
X15585274Y-15744584D01*
X15585274Y-15744584D02*
X15537655Y-15744584D01*
X15537655Y-15744584D02*
X15518607Y-15735060D01*
X15518607Y-15735060D02*
X15509083Y-15716012D01*
X15509083Y-15716012D02*
X15509083Y-15696965D01*
X15509083Y-15696965D02*
X15518607Y-15677917D01*
X15518607Y-15677917D02*
X15537655Y-15668393D01*
X15537655Y-15668393D02*
X15585274Y-15668393D01*
X15585274Y-15668393D02*
X15604321Y-15658869D01*
X15670988Y-15611250D02*
X15747179Y-15611250D01*
X15699560Y-15544584D02*
X15699560Y-15716012D01*
X15699560Y-15716012D02*
X15709083Y-15735060D01*
X15709083Y-15735060D02*
X15728131Y-15744584D01*
X15728131Y-15744584D02*
X15747179Y-15744584D01*
X15890036Y-15735060D02*
X15870988Y-15744584D01*
X15870988Y-15744584D02*
X15832893Y-15744584D01*
X15832893Y-15744584D02*
X15813845Y-15735060D01*
X15813845Y-15735060D02*
X15804321Y-15716012D01*
X15804321Y-15716012D02*
X15804321Y-15639822D01*
X15804321Y-15639822D02*
X15813845Y-15620774D01*
X15813845Y-15620774D02*
X15832893Y-15611250D01*
X15832893Y-15611250D02*
X15870988Y-15611250D01*
X15870988Y-15611250D02*
X15890036Y-15620774D01*
X15890036Y-15620774D02*
X15899560Y-15639822D01*
X15899560Y-15639822D02*
X15899560Y-15658869D01*
X15899560Y-15658869D02*
X15804321Y-15677917D01*
X16070988Y-15744584D02*
X16070988Y-15544584D01*
X16070988Y-15735060D02*
X16051941Y-15744584D01*
X16051941Y-15744584D02*
X16013845Y-15744584D01*
X16013845Y-15744584D02*
X15994798Y-15735060D01*
X15994798Y-15735060D02*
X15985274Y-15725536D01*
X15985274Y-15725536D02*
X15975750Y-15706488D01*
X15975750Y-15706488D02*
X15975750Y-15649346D01*
X15975750Y-15649346D02*
X15985274Y-15630298D01*
X15985274Y-15630298D02*
X15994798Y-15620774D01*
X15994798Y-15620774D02*
X16013845Y-15611250D01*
X16013845Y-15611250D02*
X16051941Y-15611250D01*
X16051941Y-15611250D02*
X16070988Y-15620774D01*
X16147179Y-15820774D02*
X16156702Y-15811250D01*
X16156702Y-15811250D02*
X16175750Y-15782679D01*
X16175750Y-15782679D02*
X16185274Y-15763631D01*
X16185274Y-15763631D02*
X16194798Y-15735060D01*
X16194798Y-15735060D02*
X16204321Y-15687441D01*
X16204321Y-15687441D02*
X16204321Y-15649346D01*
X16204321Y-15649346D02*
X16194798Y-15601727D01*
X16194798Y-15601727D02*
X16185274Y-15573155D01*
X16185274Y-15573155D02*
X16175750Y-15554108D01*
X16175750Y-15554108D02*
X16156702Y-15525536D01*
X16156702Y-15525536D02*
X16147179Y-15516012D01*
M02*
