G04 #@! TF.GenerationSoftware,KiCad,Pcbnew,8.0.9-8.0.9-0~ubuntu22.04.1*
G04 #@! TF.CreationDate,2026-05-27T12:16:12+02:00*
G04 #@! TF.ProjectId,Carte_puissance,43617274-655f-4707-9569-7373616e6365,2.0*
G04 #@! TF.SameCoordinates,Original*
G04 #@! TF.FileFunction,Copper,L4,Bot*
G04 #@! TF.FilePolarity,Positive*
%FSLAX46Y46*%
G04 Gerber Fmt 4.6, Leading zero omitted, Abs format (unit mm)*
G04 Created by KiCad (PCBNEW 8.0.9-8.0.9-0~ubuntu22.04.1) date 2026-05-27 12:16:12*
%MOMM*%
%LPD*%
G01*
G04 APERTURE LIST*
G04 Aperture macros list*
%AMRoundRect*
0 Rectangle with rounded corners*
0 $1 Rounding radius*
0 $2 $3 $4 $5 $6 $7 $8 $9 X,Y pos of 4 corners*
0 Add a 4 corners polygon primitive as box body*
4,1,4,$2,$3,$4,$5,$6,$7,$8,$9,$2,$3,0*
0 Add four circle primitives for the rounded corners*
1,1,$1+$1,$2,$3*
1,1,$1+$1,$4,$5*
1,1,$1+$1,$6,$7*
1,1,$1+$1,$8,$9*
0 Add four rect primitives between the rounded corners*
20,1,$1+$1,$2,$3,$4,$5,0*
20,1,$1+$1,$4,$5,$6,$7,0*
20,1,$1+$1,$6,$7,$8,$9,0*
20,1,$1+$1,$8,$9,$2,$3,0*%
G04 Aperture macros list end*
G04 #@! TA.AperFunction,ComponentPad*
%ADD10R,1.700000X1.700000*%
G04 #@! TD*
G04 #@! TA.AperFunction,ComponentPad*
%ADD11O,1.700000X1.700000*%
G04 #@! TD*
G04 #@! TA.AperFunction,ComponentPad*
%ADD12R,1.575000X1.575000*%
G04 #@! TD*
G04 #@! TA.AperFunction,ComponentPad*
%ADD13C,1.575000*%
G04 #@! TD*
G04 #@! TA.AperFunction,ComponentPad*
%ADD14R,1.665000X1.665000*%
G04 #@! TD*
G04 #@! TA.AperFunction,ComponentPad*
%ADD15C,1.665000*%
G04 #@! TD*
G04 #@! TA.AperFunction,ComponentPad*
%ADD16C,2.400000*%
G04 #@! TD*
G04 #@! TA.AperFunction,ComponentPad*
%ADD17RoundRect,0.250001X0.899999X0.899999X-0.899999X0.899999X-0.899999X-0.899999X0.899999X-0.899999X0*%
G04 #@! TD*
G04 #@! TA.AperFunction,ComponentPad*
%ADD18C,2.300000*%
G04 #@! TD*
G04 #@! TA.AperFunction,ComponentPad*
%ADD19C,1.500000*%
G04 #@! TD*
G04 #@! TA.AperFunction,ComponentPad*
%ADD20C,1.300000*%
G04 #@! TD*
G04 #@! TA.AperFunction,ComponentPad*
%ADD21RoundRect,0.250001X-1.099999X-1.099999X1.099999X-1.099999X1.099999X1.099999X-1.099999X1.099999X0*%
G04 #@! TD*
G04 #@! TA.AperFunction,ComponentPad*
%ADD22C,2.700000*%
G04 #@! TD*
G04 #@! TA.AperFunction,ComponentPad*
%ADD23RoundRect,0.250000X0.750000X-0.600000X0.750000X0.600000X-0.750000X0.600000X-0.750000X-0.600000X0*%
G04 #@! TD*
G04 #@! TA.AperFunction,ComponentPad*
%ADD24O,2.000000X1.700000*%
G04 #@! TD*
G04 #@! TA.AperFunction,ComponentPad*
%ADD25RoundRect,0.250000X-0.600000X-0.750000X0.600000X-0.750000X0.600000X0.750000X-0.600000X0.750000X0*%
G04 #@! TD*
G04 #@! TA.AperFunction,ComponentPad*
%ADD26O,1.700000X2.000000*%
G04 #@! TD*
G04 #@! TA.AperFunction,ComponentPad*
%ADD27R,1.438000X1.438000*%
G04 #@! TD*
G04 #@! TA.AperFunction,ComponentPad*
%ADD28C,1.438000*%
G04 #@! TD*
G04 #@! TA.AperFunction,SMDPad,CuDef*
%ADD29RoundRect,0.250000X-0.450000X0.262500X-0.450000X-0.262500X0.450000X-0.262500X0.450000X0.262500X0*%
G04 #@! TD*
G04 #@! TA.AperFunction,SMDPad,CuDef*
%ADD30RoundRect,0.250000X0.250000X0.475000X-0.250000X0.475000X-0.250000X-0.475000X0.250000X-0.475000X0*%
G04 #@! TD*
G04 #@! TA.AperFunction,SMDPad,CuDef*
%ADD31RoundRect,0.250000X-0.262500X-0.450000X0.262500X-0.450000X0.262500X0.450000X-0.262500X0.450000X0*%
G04 #@! TD*
G04 #@! TA.AperFunction,SMDPad,CuDef*
%ADD32RoundRect,0.250000X-0.475000X0.250000X-0.475000X-0.250000X0.475000X-0.250000X0.475000X0.250000X0*%
G04 #@! TD*
G04 #@! TA.AperFunction,SMDPad,CuDef*
%ADD33RoundRect,0.250000X-0.250000X-0.475000X0.250000X-0.475000X0.250000X0.475000X-0.250000X0.475000X0*%
G04 #@! TD*
G04 #@! TA.AperFunction,SMDPad,CuDef*
%ADD34RoundRect,0.250000X0.475000X-0.250000X0.475000X0.250000X-0.475000X0.250000X-0.475000X-0.250000X0*%
G04 #@! TD*
G04 #@! TA.AperFunction,ViaPad*
%ADD35C,0.800000*%
G04 #@! TD*
G04 #@! TA.AperFunction,ViaPad*
%ADD36C,0.700000*%
G04 #@! TD*
G04 #@! TA.AperFunction,ViaPad*
%ADD37C,1.500000*%
G04 #@! TD*
G04 #@! TA.AperFunction,Conductor*
%ADD38C,0.250000*%
G04 #@! TD*
G04 #@! TA.AperFunction,Conductor*
%ADD39C,5.000000*%
G04 #@! TD*
G04 #@! TA.AperFunction,Conductor*
%ADD40C,2.000000*%
G04 #@! TD*
G04 #@! TA.AperFunction,Conductor*
%ADD41C,0.500000*%
G04 #@! TD*
G04 #@! TA.AperFunction,Conductor*
%ADD42C,0.400000*%
G04 #@! TD*
G04 #@! TA.AperFunction,Conductor*
%ADD43C,1.000000*%
G04 #@! TD*
G04 #@! TA.AperFunction,Conductor*
%ADD44C,0.350000*%
G04 #@! TD*
G04 APERTURE END LIST*
D10*
X179986666Y-142531000D03*
D11*
X179986666Y-145071000D03*
X179986666Y-147611000D03*
D12*
X125186666Y-143556000D03*
D13*
X123186666Y-143556000D03*
X121186666Y-143556000D03*
X119186666Y-143556000D03*
X117186666Y-143556000D03*
D12*
X195986666Y-143556000D03*
D13*
X193986666Y-143556000D03*
X191986666Y-143556000D03*
X189986666Y-143556000D03*
X187986666Y-143556000D03*
D10*
X142986666Y-91056000D03*
D14*
X171486666Y-105096000D03*
D15*
X171486666Y-102556000D03*
X171486666Y-100016000D03*
D16*
X160906666Y-104356000D03*
X160906666Y-107756000D03*
X150986666Y-104356000D03*
X150986666Y-107756000D03*
D10*
X133986666Y-124516000D03*
D11*
X133986666Y-127056000D03*
X133986666Y-129596000D03*
D10*
X145986666Y-127056000D03*
X117486666Y-139556000D03*
X145986666Y-132056000D03*
D17*
X178486666Y-91556000D03*
D18*
X173686666Y-91556000D03*
X168886666Y-91556000D03*
D19*
X135986666Y-142306000D03*
X141986666Y-142306000D03*
X135986666Y-146806000D03*
X141986666Y-146806000D03*
D20*
X138986666Y-141406000D03*
X138986666Y-147706000D03*
D14*
X140846666Y-99516000D03*
D15*
X140846666Y-102056000D03*
X140846666Y-104596000D03*
D10*
X117486666Y-97056000D03*
D21*
X101006666Y-136281000D03*
D22*
X104966666Y-136281000D03*
D23*
X134961666Y-118056000D03*
D24*
X134961666Y-115556000D03*
D10*
X151486666Y-148056000D03*
D25*
X207736666Y-95031000D03*
D26*
X210236666Y-95031000D03*
D10*
X166986666Y-96556000D03*
X165486666Y-122056000D03*
X194986666Y-139556000D03*
X97486666Y-119556000D03*
X179486666Y-116056000D03*
X166986666Y-148056000D03*
D27*
X106486666Y-97056000D03*
D28*
X104486666Y-97056000D03*
X102486666Y-97056000D03*
X100486666Y-97056000D03*
D10*
X214986666Y-114056000D03*
D21*
X207006666Y-136281000D03*
D22*
X210966666Y-136281000D03*
D29*
X153986666Y-121118500D03*
X153986666Y-122943500D03*
D30*
X173386666Y-95556000D03*
X171486666Y-95556000D03*
D31*
X107074166Y-110056000D03*
X108899166Y-110056000D03*
D29*
X156486666Y-121143500D03*
X156486666Y-122968500D03*
D32*
X160986666Y-128606000D03*
X160986666Y-130506000D03*
D33*
X155536666Y-136556000D03*
X157436666Y-136556000D03*
D30*
X160936666Y-136556000D03*
X159036666Y-136556000D03*
D34*
X152486666Y-136006000D03*
X152486666Y-134106000D03*
D31*
X107074166Y-113056000D03*
X108899166Y-113056000D03*
D30*
X154936666Y-127556000D03*
X153036666Y-127556000D03*
D35*
X154986666Y-141056000D03*
X147986666Y-138056000D03*
X145986666Y-137556000D03*
X147486666Y-135556000D03*
D36*
X133986666Y-97056000D03*
X152986666Y-129056000D03*
X157986666Y-135056000D03*
X153986666Y-134056000D03*
X144486666Y-122556000D03*
X173986666Y-118556000D03*
X144486666Y-124056000D03*
X146486666Y-124056000D03*
X144486666Y-121056000D03*
X146486666Y-121056000D03*
X146486666Y-122556000D03*
X120986666Y-122056000D03*
X118986666Y-104056000D03*
X145486666Y-121056000D03*
X158986666Y-130556000D03*
X145486666Y-122556000D03*
X142486666Y-132556000D03*
X136986666Y-136556000D03*
X156436666Y-145056000D03*
X145486666Y-124056000D03*
X184486666Y-125956000D03*
X97986666Y-129056000D03*
X203986666Y-130056000D03*
X205986666Y-129056000D03*
X163486666Y-117056000D03*
X164486666Y-115056000D03*
X204986666Y-127056000D03*
X162486666Y-116056000D03*
X166486666Y-117056000D03*
X97986666Y-130556000D03*
X163486666Y-116056000D03*
X163486666Y-113056000D03*
X165486666Y-116056000D03*
X202986666Y-128056000D03*
X96986666Y-129056000D03*
X203986666Y-127056000D03*
X204986666Y-128056000D03*
X164486666Y-116056000D03*
X97986666Y-127706000D03*
X204986666Y-129056000D03*
X164486666Y-114056000D03*
X206986666Y-127056000D03*
X161486666Y-115056000D03*
X205986666Y-127056000D03*
X95986666Y-130556000D03*
X95986666Y-127556000D03*
X162486666Y-113056000D03*
X166486666Y-114056000D03*
X166486666Y-113056000D03*
X163486666Y-114056000D03*
X166486666Y-115056000D03*
X164486666Y-117056000D03*
X162486666Y-115056000D03*
X162486666Y-117056000D03*
X165486666Y-114056000D03*
X165486666Y-117056000D03*
X98986666Y-129056000D03*
X202986666Y-127056000D03*
X203986666Y-128056000D03*
X98986666Y-130556000D03*
X203986666Y-129056000D03*
X165486666Y-115056000D03*
X163486666Y-115056000D03*
X173976666Y-131096000D03*
X206986666Y-129056000D03*
X205986666Y-128056000D03*
X205986666Y-130056000D03*
X166486666Y-116056000D03*
X161486666Y-114056000D03*
X96986666Y-130556000D03*
X202986666Y-130056000D03*
X95986666Y-129056000D03*
X165486666Y-113056000D03*
X204986666Y-130056000D03*
X161486666Y-113056000D03*
X206986666Y-130056000D03*
X98986666Y-127556000D03*
X162486666Y-114056000D03*
X96986666Y-127556000D03*
X161486666Y-116056000D03*
X164486666Y-113056000D03*
X202986666Y-129056000D03*
X206986666Y-128056000D03*
X161486666Y-117056000D03*
X147986666Y-145556000D03*
D37*
X153986666Y-111056000D03*
X144986666Y-108556000D03*
D36*
X140486666Y-124056000D03*
X153986666Y-100056000D03*
X105986666Y-120056000D03*
X209486666Y-122056000D03*
X215486666Y-132556000D03*
X103986666Y-122056000D03*
X109986666Y-133056000D03*
X153986666Y-94056000D03*
X149986666Y-98056000D03*
X150986666Y-99056000D03*
X103986666Y-123056000D03*
X147986666Y-123556000D03*
X210486666Y-123056000D03*
X150986666Y-98056000D03*
X150986666Y-94056000D03*
X103986666Y-121056000D03*
X149986666Y-96056000D03*
X210486666Y-119056000D03*
X151986666Y-98056000D03*
X152986666Y-98056000D03*
X152986666Y-95056000D03*
X153986666Y-99056000D03*
X151986666Y-97056000D03*
X172036666Y-131106000D03*
X150986666Y-100056000D03*
X158036666Y-124506000D03*
X211486666Y-120056000D03*
X209486666Y-120056000D03*
X153986666Y-98056000D03*
X211486666Y-122056000D03*
X104986666Y-122056000D03*
X202486666Y-132556000D03*
X150986666Y-97056000D03*
X102986666Y-120056000D03*
X102986666Y-122056000D03*
X153986666Y-95056000D03*
X209486666Y-121056000D03*
X210486666Y-121056000D03*
X208486666Y-121056000D03*
X150986666Y-96056000D03*
X209486666Y-123056000D03*
X210486666Y-122056000D03*
X150986666Y-95056000D03*
X152986666Y-96056000D03*
X153986666Y-97056000D03*
X153986666Y-96056000D03*
X210486666Y-120056000D03*
X151986666Y-100056000D03*
X152986666Y-99056000D03*
X152986666Y-94056000D03*
X149986666Y-94056000D03*
X104986666Y-123056000D03*
D37*
X199486666Y-91056000D03*
D36*
X149986666Y-95056000D03*
X149986666Y-99056000D03*
X151986666Y-96056000D03*
X152986666Y-100056000D03*
X105986666Y-121056000D03*
X102986666Y-121056000D03*
X151986666Y-94056000D03*
X151986666Y-95056000D03*
X152986666Y-97056000D03*
X152486666Y-124556000D03*
X208486666Y-122056000D03*
X104986666Y-120056000D03*
X212486666Y-121056000D03*
X105986666Y-122056000D03*
X211486666Y-121056000D03*
X211486666Y-123056000D03*
X149986666Y-97056000D03*
X151986666Y-99056000D03*
X176986666Y-95056000D03*
X103986666Y-120056000D03*
X149986666Y-100056000D03*
X96486666Y-133056000D03*
X212486666Y-122056000D03*
X104986666Y-121056000D03*
X171486666Y-143556000D03*
X156611666Y-134056000D03*
X170986666Y-113556000D03*
X168986666Y-113556000D03*
X170986666Y-112556000D03*
X167986666Y-111556000D03*
X167986666Y-112556000D03*
X171986666Y-113556000D03*
X171486666Y-110556000D03*
X167986666Y-113556000D03*
X169986666Y-113556000D03*
X169986666Y-114556000D03*
X169986666Y-111556000D03*
X171986666Y-111556000D03*
X169986666Y-110556000D03*
X168986666Y-112556000D03*
X171986666Y-112556000D03*
X168486666Y-110556000D03*
X170986666Y-111556000D03*
X169986666Y-112556000D03*
X168986666Y-111556000D03*
X120986666Y-123056000D03*
X159986666Y-135556000D03*
X162486666Y-128056000D03*
X126986666Y-121056000D03*
X155486666Y-119556000D03*
X153986666Y-136556000D03*
X136986666Y-134056000D03*
X153986666Y-129556000D03*
X183486666Y-125056000D03*
X118480361Y-112087697D03*
X112986666Y-113056000D03*
X112986666Y-120056000D03*
X154986666Y-124556000D03*
X153986666Y-124556000D03*
X175986666Y-142556000D03*
X175986666Y-139556000D03*
X175986666Y-127056000D03*
X178486666Y-125056000D03*
X153986666Y-132556000D03*
X194986666Y-125056000D03*
X154986666Y-130056000D03*
X148986666Y-128556000D03*
X158986666Y-132381000D03*
X172486666Y-116056000D03*
X142986666Y-128556000D03*
D38*
X147986666Y-138056000D02*
X147986666Y-140556000D01*
X148486666Y-141056000D02*
X154986666Y-141056000D01*
X147986666Y-140556000D02*
X148486666Y-141056000D01*
X145986666Y-137556000D02*
X146486666Y-137556000D01*
X146486666Y-137556000D02*
X145986666Y-138056000D01*
X176471666Y-145071000D02*
X179986666Y-145071000D01*
X145986666Y-138056000D02*
X145986666Y-144056000D01*
X145986666Y-144056000D02*
X146486666Y-144556000D01*
X146486666Y-144556000D02*
X152986666Y-144556000D01*
X152986666Y-144556000D02*
X154486666Y-146056000D01*
X154486666Y-146056000D02*
X175486666Y-146056000D01*
X175486666Y-146056000D02*
X176471666Y-145071000D01*
X147486666Y-135556000D02*
X146961361Y-135556000D01*
X176486666Y-147556000D02*
X179931666Y-147556000D01*
X146961361Y-135556000D02*
X144986666Y-137530695D01*
X144986666Y-137530695D02*
X144986666Y-145556000D01*
X144986666Y-145556000D02*
X145986666Y-146556000D01*
X145986666Y-146556000D02*
X175486666Y-146556000D01*
X175486666Y-146556000D02*
X176486666Y-147556000D01*
X179931666Y-147556000D02*
X179986666Y-147611000D01*
X156611666Y-143181000D02*
X156611666Y-134056000D01*
X156986666Y-143556000D02*
X156611666Y-143181000D01*
X171486666Y-143556000D02*
X156986666Y-143556000D01*
X153986666Y-132556000D02*
X154486666Y-133056000D01*
X154486666Y-133056000D02*
X181986666Y-133056000D01*
X181986666Y-133056000D02*
X182986666Y-132056000D01*
X182986666Y-132056000D02*
X182986666Y-128556000D01*
X182986666Y-128556000D02*
X183486666Y-128056000D01*
X183486666Y-128056000D02*
X193486666Y-128056000D01*
X193486666Y-128056000D02*
X194986666Y-126556000D01*
X194986666Y-126556000D02*
X194986666Y-125056000D01*
X175986666Y-127056000D02*
X176486666Y-127056000D01*
X176486666Y-127056000D02*
X178486666Y-125056000D01*
D39*
X150986666Y-104356000D02*
X150986666Y-107369352D01*
X150986666Y-107369352D02*
X158300018Y-100056000D01*
X166986666Y-107056000D02*
X169986666Y-110056000D01*
X158300018Y-100056000D02*
X163986666Y-100056000D01*
X163986666Y-100056000D02*
X166986666Y-103056000D01*
X166986666Y-103056000D02*
X166986666Y-107056000D01*
X169986666Y-110056000D02*
X169986666Y-112556000D01*
D38*
X160936666Y-130556000D02*
X160986666Y-130506000D01*
X157986666Y-136006000D02*
X157436666Y-136556000D01*
X152536666Y-134056000D02*
X152486666Y-134106000D01*
X152986666Y-127606000D02*
X153036666Y-127556000D01*
X157986666Y-135056000D02*
X157986666Y-136006000D01*
X158986666Y-130556000D02*
X160936666Y-130556000D01*
X157986666Y-135056000D02*
X157986666Y-135506000D01*
X153986666Y-134056000D02*
X152536666Y-134056000D01*
X152986666Y-129056000D02*
X152986666Y-127606000D01*
X157986666Y-135506000D02*
X159036666Y-136556000D01*
D39*
X171036666Y-121606000D02*
X173986666Y-121606000D01*
X204986666Y-128056000D02*
X204986666Y-129056000D01*
D40*
X204036666Y-97481000D02*
X204036666Y-121606000D01*
D39*
X139936666Y-112006000D02*
X124536666Y-112006000D01*
X98986666Y-128056000D02*
X97986666Y-129056000D01*
X204986666Y-122556000D02*
X204986666Y-128056000D01*
X118486666Y-118056000D02*
X117486666Y-119056000D01*
X142986666Y-115056000D02*
X139986666Y-112056000D01*
X124536666Y-112006000D02*
X118486666Y-118056000D01*
X204036666Y-121606000D02*
X204986666Y-122556000D01*
D41*
X173986666Y-131086000D02*
X173976666Y-131096000D01*
D39*
X117486666Y-128056000D02*
X98986666Y-128056000D01*
X164486666Y-115056000D02*
X171036666Y-121606000D01*
X173986666Y-121606000D02*
X204036666Y-121606000D01*
D40*
X207736666Y-95031000D02*
X206486666Y-95031000D01*
D39*
X117486666Y-119056000D02*
X117486666Y-128056000D01*
X139986666Y-112056000D02*
X139936666Y-112006000D01*
D40*
X206486666Y-95031000D02*
X204036666Y-97481000D01*
D39*
X163486666Y-115056000D02*
X142986666Y-115056000D01*
D41*
X173986666Y-121606000D02*
X173986666Y-131086000D01*
D42*
X166986666Y-96556000D02*
X171486666Y-96556000D01*
D43*
X171486666Y-95556000D02*
X171486666Y-96556000D01*
X171486666Y-95556000D02*
X171486666Y-93756000D01*
X171486666Y-93756000D02*
X173686666Y-91556000D01*
X171486666Y-96556000D02*
X171486666Y-100016000D01*
X176486666Y-95556000D02*
X176986666Y-95056000D01*
D44*
X147986666Y-123581305D02*
X147986666Y-123556000D01*
X146011971Y-125556000D02*
X147986666Y-123581305D01*
X141486666Y-141806000D02*
X141486666Y-125556000D01*
X141986666Y-142306000D02*
X141486666Y-141806000D01*
X141486666Y-125556000D02*
X146011971Y-125556000D01*
D43*
X173386666Y-95556000D02*
X176486666Y-95556000D01*
D39*
X150986666Y-104356000D02*
X150986666Y-107756000D01*
D38*
X161536666Y-128056000D02*
X160986666Y-128606000D01*
X159986666Y-135556000D02*
X159986666Y-135606000D01*
X155486666Y-121118500D02*
X156461666Y-121118500D01*
X154936666Y-128606000D02*
X154936666Y-127556000D01*
X159986666Y-135606000D02*
X160936666Y-136556000D01*
X153986666Y-136556000D02*
X155536666Y-136556000D01*
X153036666Y-136556000D02*
X152486666Y-136006000D01*
X153986666Y-136556000D02*
X153036666Y-136556000D01*
X162486666Y-128056000D02*
X161536666Y-128056000D01*
X153986666Y-121118500D02*
X155486666Y-121118500D01*
X153986666Y-129556000D02*
X154936666Y-128606000D01*
X156461666Y-121118500D02*
X156486666Y-121143500D01*
X155486666Y-121118500D02*
X155486666Y-119556000D01*
D44*
X108899166Y-110056000D02*
X111486666Y-110056000D01*
X111486666Y-110056000D02*
X112986666Y-111556000D01*
X113518363Y-112087697D02*
X118480361Y-112087697D01*
X112986666Y-111556000D02*
X113518363Y-112087697D01*
X107074166Y-111556000D02*
X107074166Y-112856000D01*
X111486666Y-111556000D02*
X112986666Y-113056000D01*
X107074166Y-111556000D02*
X111486666Y-111556000D01*
X107074166Y-110056000D02*
X107074166Y-111556000D01*
X111986666Y-119056000D02*
X112986666Y-120056000D01*
X111986666Y-113556000D02*
X111986666Y-119056000D01*
X111486666Y-113056000D02*
X111986666Y-113556000D01*
X108899166Y-113056000D02*
X111486666Y-113056000D01*
D38*
X178486666Y-115056000D02*
X179486666Y-116056000D01*
X178486666Y-91556000D02*
X178486666Y-115056000D01*
X153986666Y-123556000D02*
X153986666Y-122943500D01*
X154986666Y-124556000D02*
X153986666Y-123556000D01*
X145986666Y-127056000D02*
X150099166Y-122943500D01*
X150099166Y-122943500D02*
X153986666Y-122943500D01*
X147986666Y-126556000D02*
X148986666Y-125556000D01*
X156311666Y-125231000D02*
X156486666Y-125056000D01*
X147986666Y-130056000D02*
X147986666Y-126556000D01*
X153986666Y-124556000D02*
X154661666Y-125231000D01*
X145986666Y-132056000D02*
X147986666Y-130056000D01*
X148986666Y-125556000D02*
X152986666Y-125556000D01*
X154661666Y-125231000D02*
X156311666Y-125231000D01*
X156486666Y-125056000D02*
X156486666Y-122968500D01*
X152986666Y-125556000D02*
X153986666Y-124556000D01*
X175986666Y-142556000D02*
X175986666Y-139556000D01*
X153161666Y-130231000D02*
X151486666Y-128556000D01*
X154986666Y-130056000D02*
X154811666Y-130231000D01*
X154811666Y-130231000D02*
X153161666Y-130231000D01*
X151486666Y-128556000D02*
X148986666Y-128556000D01*
X142986666Y-129056000D02*
X143986666Y-130056000D01*
X143986666Y-144806000D02*
X141986666Y-146806000D01*
X143986666Y-130056000D02*
X143986666Y-144806000D01*
X142986666Y-128556000D02*
X142986666Y-129056000D01*
G04 #@! TA.AperFunction,Conductor*
G36*
X155889705Y-101710685D02*
G01*
X155935460Y-101763489D01*
X155946666Y-101815000D01*
X155946666Y-110297000D01*
X155926981Y-110364039D01*
X155874177Y-110409794D01*
X155822666Y-110421000D01*
X154818473Y-110421000D01*
X154751434Y-110401315D01*
X154722620Y-110375665D01*
X154697549Y-110345116D01*
X154545205Y-110220090D01*
X154545198Y-110220086D01*
X154371399Y-110127188D01*
X154371393Y-110127186D01*
X154182798Y-110069976D01*
X154182795Y-110069975D01*
X153986666Y-110050659D01*
X153790536Y-110069975D01*
X153601932Y-110127188D01*
X153428133Y-110220086D01*
X153428126Y-110220090D01*
X153275782Y-110345116D01*
X153250712Y-110375665D01*
X153192966Y-110414999D01*
X153154859Y-110421000D01*
X147070666Y-110421000D01*
X147003627Y-110401315D01*
X146957872Y-110348511D01*
X146946666Y-110297000D01*
X146946666Y-101815000D01*
X146966351Y-101747961D01*
X147019155Y-101702206D01*
X147070666Y-101691000D01*
X155822666Y-101691000D01*
X155889705Y-101710685D01*
G37*
G04 #@! TD.AperFunction*
M02*
