G04 #@! TF.GenerationSoftware,KiCad,Pcbnew,8.0.9-8.0.9-0~ubuntu22.04.1*
G04 #@! TF.CreationDate,2026-05-27T12:16:12+02:00*
G04 #@! TF.ProjectId,Carte_puissance,43617274-655f-4707-9569-7373616e6365,2.0*
G04 #@! TF.SameCoordinates,Original*
G04 #@! TF.FileFunction,Copper,L1,Top*
G04 #@! TF.FilePolarity,Positive*
%FSLAX46Y46*%
G04 Gerber Fmt 4.6, Leading zero omitted, Abs format (unit mm)*
G04 Created by KiCad (PCBNEW 8.0.9-8.0.9-0~ubuntu22.04.1) date 2026-05-27 12:16:12*
%MOMM*%
%LPD*%
G01*
G04 APERTURE LIST*
G04 Aperture macros list*
%AMRoundRect*
0 Rectangle with rounded corners*
0 $1 Rounding radius*
0 $2 $3 $4 $5 $6 $7 $8 $9 X,Y pos of 4 corners*
0 Add a 4 corners polygon primitive as box body*
4,1,4,$2,$3,$4,$5,$6,$7,$8,$9,$2,$3,0*
0 Add four circle primitives for the rounded corners*
1,1,$1+$1,$2,$3*
1,1,$1+$1,$4,$5*
1,1,$1+$1,$6,$7*
1,1,$1+$1,$8,$9*
0 Add four rect primitives between the rounded corners*
20,1,$1+$1,$2,$3,$4,$5,0*
20,1,$1+$1,$4,$5,$6,$7,0*
20,1,$1+$1,$6,$7,$8,$9,0*
20,1,$1+$1,$8,$9,$2,$3,0*%
%AMFreePoly0*
4,1,19,0.500000,-0.750000,0.000000,-0.750000,0.000000,-0.744911,-0.071157,-0.744911,-0.207708,-0.704816,-0.327430,-0.627875,-0.420627,-0.520320,-0.479746,-0.390866,-0.500000,-0.250000,-0.500000,0.250000,-0.479746,0.390866,-0.420627,0.520320,-0.327430,0.627875,-0.207708,0.704816,-0.071157,0.744911,0.000000,0.744911,0.000000,0.750000,0.500000,0.750000,0.500000,-0.750000,0.500000,-0.750000,
$1*%
%AMFreePoly1*
4,1,19,0.000000,0.744911,0.071157,0.744911,0.207708,0.704816,0.327430,0.627875,0.420627,0.520320,0.479746,0.390866,0.500000,0.250000,0.500000,-0.250000,0.479746,-0.390866,0.420627,-0.520320,0.327430,-0.627875,0.207708,-0.704816,0.071157,-0.744911,0.000000,-0.744911,0.000000,-0.750000,-0.500000,-0.750000,-0.500000,0.750000,0.000000,0.750000,0.000000,0.744911,0.000000,0.744911,
$1*%
G04 Aperture macros list end*
G04 #@! TA.AperFunction,EtchedComponent*
%ADD10C,0.000000*%
G04 #@! TD*
G04 #@! TA.AperFunction,ComponentPad*
%ADD11R,1.700000X1.700000*%
G04 #@! TD*
G04 #@! TA.AperFunction,ComponentPad*
%ADD12O,1.700000X1.700000*%
G04 #@! TD*
G04 #@! TA.AperFunction,SMDPad,CuDef*
%ADD13FreePoly0,180.000000*%
G04 #@! TD*
G04 #@! TA.AperFunction,SMDPad,CuDef*
%ADD14FreePoly1,180.000000*%
G04 #@! TD*
G04 #@! TA.AperFunction,ComponentPad*
%ADD15R,1.575000X1.575000*%
G04 #@! TD*
G04 #@! TA.AperFunction,ComponentPad*
%ADD16C,1.575000*%
G04 #@! TD*
G04 #@! TA.AperFunction,SMDPad,CuDef*
%ADD17RoundRect,0.250000X-0.475000X0.250000X-0.475000X-0.250000X0.475000X-0.250000X0.475000X0.250000X0*%
G04 #@! TD*
G04 #@! TA.AperFunction,SMDPad,CuDef*
%ADD18RoundRect,0.250000X-0.450000X0.262500X-0.450000X-0.262500X0.450000X-0.262500X0.450000X0.262500X0*%
G04 #@! TD*
G04 #@! TA.AperFunction,SMDPad,CuDef*
%ADD19RoundRect,0.250000X0.262500X0.450000X-0.262500X0.450000X-0.262500X-0.450000X0.262500X-0.450000X0*%
G04 #@! TD*
G04 #@! TA.AperFunction,SMDPad,CuDef*
%ADD20RoundRect,0.250000X-0.250000X-0.475000X0.250000X-0.475000X0.250000X0.475000X-0.250000X0.475000X0*%
G04 #@! TD*
G04 #@! TA.AperFunction,SMDPad,CuDef*
%ADD21RoundRect,0.250000X0.450000X-0.262500X0.450000X0.262500X-0.450000X0.262500X-0.450000X-0.262500X0*%
G04 #@! TD*
G04 #@! TA.AperFunction,SMDPad,CuDef*
%ADD22RoundRect,0.243750X0.243750X0.456250X-0.243750X0.456250X-0.243750X-0.456250X0.243750X-0.456250X0*%
G04 #@! TD*
G04 #@! TA.AperFunction,SMDPad,CuDef*
%ADD23RoundRect,0.250000X-0.262500X-0.450000X0.262500X-0.450000X0.262500X0.450000X-0.262500X0.450000X0*%
G04 #@! TD*
G04 #@! TA.AperFunction,ComponentPad*
%ADD24R,1.665000X1.665000*%
G04 #@! TD*
G04 #@! TA.AperFunction,ComponentPad*
%ADD25C,1.665000*%
G04 #@! TD*
G04 #@! TA.AperFunction,ComponentPad*
%ADD26C,2.400000*%
G04 #@! TD*
G04 #@! TA.AperFunction,SMDPad,CuDef*
%ADD27R,1.100000X0.400000*%
G04 #@! TD*
G04 #@! TA.AperFunction,SMDPad,CuDef*
%ADD28RoundRect,1.250000X1.250000X-2.750000X1.250000X2.750000X-1.250000X2.750000X-1.250000X-2.750000X0*%
G04 #@! TD*
G04 #@! TA.AperFunction,SMDPad,CuDef*
%ADD29RoundRect,0.317500X-0.382500X-0.317500X0.382500X-0.317500X0.382500X0.317500X-0.382500X0.317500X0*%
G04 #@! TD*
G04 #@! TA.AperFunction,SMDPad,CuDef*
%ADD30R,4.800000X4.720000*%
G04 #@! TD*
G04 #@! TA.AperFunction,SMDPad,CuDef*
%ADD31RoundRect,0.150000X-0.650000X-0.150000X0.650000X-0.150000X0.650000X0.150000X-0.650000X0.150000X0*%
G04 #@! TD*
G04 #@! TA.AperFunction,SMDPad,CuDef*
%ADD32RoundRect,0.250000X0.650000X2.450000X-0.650000X2.450000X-0.650000X-2.450000X0.650000X-2.450000X0*%
G04 #@! TD*
G04 #@! TA.AperFunction,ComponentPad*
%ADD33RoundRect,0.250001X0.899999X0.899999X-0.899999X0.899999X-0.899999X-0.899999X0.899999X-0.899999X0*%
G04 #@! TD*
G04 #@! TA.AperFunction,ComponentPad*
%ADD34C,2.300000*%
G04 #@! TD*
G04 #@! TA.AperFunction,SMDPad,CuDef*
%ADD35RoundRect,0.250000X0.475000X-0.250000X0.475000X0.250000X-0.475000X0.250000X-0.475000X-0.250000X0*%
G04 #@! TD*
G04 #@! TA.AperFunction,SMDPad,CuDef*
%ADD36RoundRect,0.075000X-0.700000X-0.075000X0.700000X-0.075000X0.700000X0.075000X-0.700000X0.075000X0*%
G04 #@! TD*
G04 #@! TA.AperFunction,SMDPad,CuDef*
%ADD37RoundRect,0.075000X-0.075000X-0.700000X0.075000X-0.700000X0.075000X0.700000X-0.075000X0.700000X0*%
G04 #@! TD*
G04 #@! TA.AperFunction,ComponentPad*
%ADD38C,1.500000*%
G04 #@! TD*
G04 #@! TA.AperFunction,ComponentPad*
%ADD39C,1.300000*%
G04 #@! TD*
G04 #@! TA.AperFunction,SMDPad,CuDef*
%ADD40R,0.740000X2.790000*%
G04 #@! TD*
G04 #@! TA.AperFunction,SMDPad,CuDef*
%ADD41RoundRect,0.250000X-1.750000X-1.000000X1.750000X-1.000000X1.750000X1.000000X-1.750000X1.000000X0*%
G04 #@! TD*
G04 #@! TA.AperFunction,SMDPad,CuDef*
%ADD42RoundRect,0.255000X0.255000X-2.245000X0.255000X2.245000X-0.255000X2.245000X-0.255000X-2.245000X0*%
G04 #@! TD*
G04 #@! TA.AperFunction,SMDPad,CuDef*
%ADD43RoundRect,0.225000X-0.225000X-0.375000X0.225000X-0.375000X0.225000X0.375000X-0.225000X0.375000X0*%
G04 #@! TD*
G04 #@! TA.AperFunction,ComponentPad*
%ADD44RoundRect,0.250001X-1.099999X-1.099999X1.099999X-1.099999X1.099999X1.099999X-1.099999X1.099999X0*%
G04 #@! TD*
G04 #@! TA.AperFunction,ComponentPad*
%ADD45C,2.700000*%
G04 #@! TD*
G04 #@! TA.AperFunction,SMDPad,CuDef*
%ADD46RoundRect,0.250000X-1.000000X1.750000X-1.000000X-1.750000X1.000000X-1.750000X1.000000X1.750000X0*%
G04 #@! TD*
G04 #@! TA.AperFunction,SMDPad,CuDef*
%ADD47RoundRect,0.150000X-0.512500X-0.150000X0.512500X-0.150000X0.512500X0.150000X-0.512500X0.150000X0*%
G04 #@! TD*
G04 #@! TA.AperFunction,ComponentPad*
%ADD48RoundRect,0.250000X0.750000X-0.600000X0.750000X0.600000X-0.750000X0.600000X-0.750000X-0.600000X0*%
G04 #@! TD*
G04 #@! TA.AperFunction,ComponentPad*
%ADD49O,2.000000X1.700000*%
G04 #@! TD*
G04 #@! TA.AperFunction,SMDPad,CuDef*
%ADD50RoundRect,0.250000X0.250000X0.475000X-0.250000X0.475000X-0.250000X-0.475000X0.250000X-0.475000X0*%
G04 #@! TD*
G04 #@! TA.AperFunction,SMDPad,CuDef*
%ADD51RoundRect,0.250000X-0.337500X-0.475000X0.337500X-0.475000X0.337500X0.475000X-0.337500X0.475000X0*%
G04 #@! TD*
G04 #@! TA.AperFunction,SMDPad,CuDef*
%ADD52RoundRect,0.250000X-0.350000X0.850000X-0.350000X-0.850000X0.350000X-0.850000X0.350000X0.850000X0*%
G04 #@! TD*
G04 #@! TA.AperFunction,SMDPad,CuDef*
%ADD53RoundRect,0.250000X-1.125000X1.275000X-1.125000X-1.275000X1.125000X-1.275000X1.125000X1.275000X0*%
G04 #@! TD*
G04 #@! TA.AperFunction,SMDPad,CuDef*
%ADD54RoundRect,0.249997X-2.650003X2.950003X-2.650003X-2.950003X2.650003X-2.950003X2.650003X2.950003X0*%
G04 #@! TD*
G04 #@! TA.AperFunction,ComponentPad*
%ADD55RoundRect,0.250000X-0.600000X-0.750000X0.600000X-0.750000X0.600000X0.750000X-0.600000X0.750000X0*%
G04 #@! TD*
G04 #@! TA.AperFunction,ComponentPad*
%ADD56O,1.700000X2.000000*%
G04 #@! TD*
G04 #@! TA.AperFunction,SMDPad,CuDef*
%ADD57RoundRect,0.250000X0.850000X0.350000X-0.850000X0.350000X-0.850000X-0.350000X0.850000X-0.350000X0*%
G04 #@! TD*
G04 #@! TA.AperFunction,SMDPad,CuDef*
%ADD58RoundRect,0.250000X1.275000X1.125000X-1.275000X1.125000X-1.275000X-1.125000X1.275000X-1.125000X0*%
G04 #@! TD*
G04 #@! TA.AperFunction,SMDPad,CuDef*
%ADD59RoundRect,0.249997X2.950003X2.650003X-2.950003X2.650003X-2.950003X-2.650003X2.950003X-2.650003X0*%
G04 #@! TD*
G04 #@! TA.AperFunction,SMDPad,CuDef*
%ADD60RoundRect,0.150000X-0.725000X-0.150000X0.725000X-0.150000X0.725000X0.150000X-0.725000X0.150000X0*%
G04 #@! TD*
G04 #@! TA.AperFunction,ComponentPad*
%ADD61R,1.438000X1.438000*%
G04 #@! TD*
G04 #@! TA.AperFunction,ComponentPad*
%ADD62C,1.438000*%
G04 #@! TD*
G04 #@! TA.AperFunction,SMDPad,CuDef*
%ADD63RoundRect,0.125000X-0.537500X-0.125000X0.537500X-0.125000X0.537500X0.125000X-0.537500X0.125000X0*%
G04 #@! TD*
G04 #@! TA.AperFunction,ViaPad*
%ADD64C,0.800000*%
G04 #@! TD*
G04 #@! TA.AperFunction,ViaPad*
%ADD65C,0.700000*%
G04 #@! TD*
G04 #@! TA.AperFunction,ViaPad*
%ADD66C,1.500000*%
G04 #@! TD*
G04 #@! TA.AperFunction,Conductor*
%ADD67C,0.350000*%
G04 #@! TD*
G04 #@! TA.AperFunction,Conductor*
%ADD68C,0.250000*%
G04 #@! TD*
G04 #@! TA.AperFunction,Conductor*
%ADD69C,0.500000*%
G04 #@! TD*
G04 #@! TA.AperFunction,Conductor*
%ADD70C,1.000000*%
G04 #@! TD*
G04 #@! TA.AperFunction,Conductor*
%ADD71C,2.000000*%
G04 #@! TD*
G04 #@! TA.AperFunction,Conductor*
%ADD72C,0.400000*%
G04 #@! TD*
G04 #@! TA.AperFunction,Conductor*
%ADD73C,0.750000*%
G04 #@! TD*
G04 #@! TA.AperFunction,Conductor*
%ADD74C,3.000000*%
G04 #@! TD*
G04 #@! TA.AperFunction,Conductor*
%ADD75C,5.000000*%
G04 #@! TD*
G04 APERTURE END LIST*
D10*
G04 #@! TA.AperFunction,EtchedComponent*
G36*
X147736666Y-95156000D02*
G01*
X147236666Y-95156000D01*
X147236666Y-94756000D01*
X147736666Y-94756000D01*
X147736666Y-95156000D01*
G37*
G04 #@! TD.AperFunction*
G04 #@! TA.AperFunction,EtchedComponent*
G36*
X147736666Y-94356000D02*
G01*
X147236666Y-94356000D01*
X147236666Y-93956000D01*
X147736666Y-93956000D01*
X147736666Y-94356000D01*
G37*
G04 #@! TD.AperFunction*
G04 #@! TA.AperFunction,EtchedComponent*
G36*
X147736666Y-97656000D02*
G01*
X147236666Y-97656000D01*
X147236666Y-97256000D01*
X147736666Y-97256000D01*
X147736666Y-97656000D01*
G37*
G04 #@! TD.AperFunction*
G04 #@! TA.AperFunction,EtchedComponent*
G36*
X147736666Y-96856000D02*
G01*
X147236666Y-96856000D01*
X147236666Y-96456000D01*
X147736666Y-96456000D01*
X147736666Y-96856000D01*
G37*
G04 #@! TD.AperFunction*
G04 #@! TA.AperFunction,EtchedComponent*
G36*
X147736666Y-99506000D02*
G01*
X147236666Y-99506000D01*
X147236666Y-99106000D01*
X147736666Y-99106000D01*
X147736666Y-99506000D01*
G37*
G04 #@! TD.AperFunction*
G04 #@! TA.AperFunction,EtchedComponent*
G36*
X147736666Y-100306000D02*
G01*
X147236666Y-100306000D01*
X147236666Y-99906000D01*
X147736666Y-99906000D01*
X147736666Y-100306000D01*
G37*
G04 #@! TD.AperFunction*
D11*
X179986666Y-142531000D03*
D12*
X179986666Y-145071000D03*
X179986666Y-147611000D03*
D13*
X148136666Y-94556000D03*
D14*
X146836666Y-94556000D03*
D13*
X148136666Y-97056000D03*
D14*
X146836666Y-97056000D03*
D15*
X125186666Y-143556000D03*
D16*
X123186666Y-143556000D03*
X121186666Y-143556000D03*
X119186666Y-143556000D03*
X117186666Y-143556000D03*
D15*
X195986666Y-143556000D03*
D16*
X193986666Y-143556000D03*
X191986666Y-143556000D03*
X189986666Y-143556000D03*
X187986666Y-143556000D03*
D17*
X96486666Y-134606000D03*
X96486666Y-136506000D03*
X181486666Y-124056000D03*
X181486666Y-125956000D03*
D18*
X181486666Y-119643500D03*
X181486666Y-121468500D03*
D17*
X202486666Y-134106000D03*
X202486666Y-136006000D03*
D19*
X196899166Y-116056000D03*
X195074166Y-116056000D03*
D20*
X140486666Y-126056000D03*
X142386666Y-126056000D03*
D18*
X194986666Y-119643500D03*
X194986666Y-121468500D03*
D17*
X180486666Y-96106000D03*
X180486666Y-98006000D03*
D21*
X159486666Y-145468500D03*
X159486666Y-143643500D03*
D22*
X174424166Y-145056000D03*
X172549166Y-145056000D03*
D19*
X123399166Y-140056000D03*
X121574166Y-140056000D03*
D23*
X176661666Y-119556000D03*
X178486666Y-119556000D03*
D11*
X142986666Y-91056000D03*
D24*
X171486666Y-105096000D03*
D25*
X171486666Y-102556000D03*
X171486666Y-100016000D03*
D19*
X174399166Y-147556000D03*
X172574166Y-147556000D03*
D26*
X160906666Y-104356000D03*
X160906666Y-107756000D03*
X150986666Y-104356000D03*
X150986666Y-107756000D03*
D11*
X133986666Y-124516000D03*
D12*
X133986666Y-127056000D03*
X133986666Y-129596000D03*
D27*
X122486666Y-122556000D03*
X122486666Y-123206000D03*
X122486666Y-123856000D03*
X122486666Y-124506000D03*
X126786666Y-124506000D03*
X126786666Y-123856000D03*
X126786666Y-123206000D03*
X126786666Y-122556000D03*
D28*
X151986666Y-97056000D03*
X159986666Y-97056000D03*
D18*
X131986666Y-141556000D03*
X131986666Y-143381000D03*
D23*
X168661666Y-121056000D03*
X170486666Y-121056000D03*
D29*
X203946666Y-124941000D03*
X206026666Y-124941000D03*
D30*
X204986666Y-128746000D03*
D11*
X145986666Y-127056000D03*
D20*
X154536666Y-146556000D03*
X156436666Y-146556000D03*
D21*
X106986666Y-103468500D03*
X106986666Y-101643500D03*
X104486666Y-103468500D03*
X104486666Y-101643500D03*
D23*
X190074166Y-140056000D03*
X191899166Y-140056000D03*
D31*
X205386666Y-100721000D03*
X205386666Y-101991000D03*
X205386666Y-103261000D03*
X205386666Y-104531000D03*
X212586666Y-104531000D03*
X212586666Y-103261000D03*
X212586666Y-101991000D03*
X212586666Y-100721000D03*
D11*
X117486666Y-139556000D03*
D19*
X215311666Y-118556000D03*
X213486666Y-118556000D03*
D11*
X145986666Y-132056000D03*
D32*
X158536666Y-115056000D03*
X153436666Y-115056000D03*
D33*
X178486666Y-91556000D03*
D34*
X173686666Y-91556000D03*
X168886666Y-91556000D03*
D35*
X180486666Y-102456000D03*
X180486666Y-100556000D03*
X131986666Y-99956000D03*
X131986666Y-98056000D03*
D36*
X150311666Y-129306000D03*
X150311666Y-129806000D03*
X150311666Y-130306000D03*
X150311666Y-130806000D03*
X150311666Y-131306000D03*
X150311666Y-131806000D03*
X150311666Y-132306000D03*
X150311666Y-132806000D03*
X150311666Y-133306000D03*
X150311666Y-133806000D03*
X150311666Y-134306000D03*
X150311666Y-134806000D03*
X150311666Y-135306000D03*
X150311666Y-135806000D03*
X150311666Y-136306000D03*
X150311666Y-136806000D03*
D37*
X152236666Y-138731000D03*
X152736666Y-138731000D03*
X153236666Y-138731000D03*
X153736666Y-138731000D03*
X154236666Y-138731000D03*
X154736666Y-138731000D03*
X155236666Y-138731000D03*
X155736666Y-138731000D03*
X156236666Y-138731000D03*
X156736666Y-138731000D03*
X157236666Y-138731000D03*
X157736666Y-138731000D03*
X158236666Y-138731000D03*
X158736666Y-138731000D03*
X159236666Y-138731000D03*
X159736666Y-138731000D03*
D36*
X161661666Y-136806000D03*
X161661666Y-136306000D03*
X161661666Y-135806000D03*
X161661666Y-135306000D03*
X161661666Y-134806000D03*
X161661666Y-134306000D03*
X161661666Y-133806000D03*
X161661666Y-133306000D03*
X161661666Y-132806000D03*
X161661666Y-132306000D03*
X161661666Y-131806000D03*
X161661666Y-131306000D03*
X161661666Y-130806000D03*
X161661666Y-130306000D03*
X161661666Y-129806000D03*
X161661666Y-129306000D03*
D37*
X159736666Y-127381000D03*
X159236666Y-127381000D03*
X158736666Y-127381000D03*
X158236666Y-127381000D03*
X157736666Y-127381000D03*
X157236666Y-127381000D03*
X156736666Y-127381000D03*
X156236666Y-127381000D03*
X155736666Y-127381000D03*
X155236666Y-127381000D03*
X154736666Y-127381000D03*
X154236666Y-127381000D03*
X153736666Y-127381000D03*
X153236666Y-127381000D03*
X152736666Y-127381000D03*
X152236666Y-127381000D03*
D38*
X135986666Y-142306000D03*
X141986666Y-142306000D03*
X135986666Y-146806000D03*
X141986666Y-146806000D03*
D39*
X138986666Y-141406000D03*
X138986666Y-147706000D03*
D40*
X185906666Y-123056000D03*
X185906666Y-118986000D03*
X187176666Y-123056000D03*
X187176666Y-118986000D03*
X188446666Y-123056000D03*
X188446666Y-118986000D03*
X189716666Y-118986000D03*
X190986666Y-123056000D03*
X190986666Y-118986000D03*
D13*
X148136666Y-99706000D03*
D14*
X146836666Y-99706000D03*
D41*
X184486666Y-109056000D03*
X192486666Y-109056000D03*
D24*
X140846666Y-99516000D03*
D25*
X140846666Y-102056000D03*
X140846666Y-104596000D03*
D42*
X113826666Y-116656000D03*
X113826666Y-109056000D03*
X116366666Y-116656000D03*
X116366666Y-109056000D03*
X118906666Y-116656000D03*
X118906666Y-109056000D03*
X121446666Y-116656000D03*
X121446666Y-109056000D03*
X123986666Y-116656000D03*
X123986666Y-109056000D03*
D43*
X153836666Y-143556000D03*
X157136666Y-143556000D03*
D35*
X167486666Y-104456000D03*
X167486666Y-102556000D03*
D11*
X117486666Y-97056000D03*
D44*
X101006666Y-136281000D03*
D45*
X104966666Y-136281000D03*
D23*
X168661666Y-123556000D03*
X170486666Y-123556000D03*
D46*
X145486666Y-114556000D03*
X145486666Y-122556000D03*
D47*
X173986666Y-115106000D03*
X173986666Y-116056000D03*
X173986666Y-117006000D03*
X176261666Y-117006000D03*
X176261666Y-115106000D03*
D48*
X134961666Y-118056000D03*
D49*
X134961666Y-115556000D03*
D50*
X100886666Y-102556000D03*
X98986666Y-102556000D03*
X140436666Y-136606000D03*
X138536666Y-136606000D03*
D51*
X138411666Y-134106000D03*
X140486666Y-134106000D03*
D35*
X109986666Y-136506000D03*
X109986666Y-134606000D03*
D52*
X215194166Y-121856000D03*
D53*
X214439166Y-126481000D03*
X211389166Y-126481000D03*
D54*
X212914166Y-128156000D03*
D53*
X214439166Y-129831000D03*
X211389166Y-129831000D03*
D52*
X210634166Y-121856000D03*
D11*
X151486666Y-148056000D03*
D50*
X173886666Y-138056000D03*
X171986666Y-138056000D03*
D19*
X207811666Y-107531000D03*
X205986666Y-107531000D03*
D55*
X207736666Y-95031000D03*
D56*
X210236666Y-95031000D03*
D11*
X166986666Y-96556000D03*
D57*
X169986666Y-117116000D03*
D58*
X165361666Y-116361000D03*
X165361666Y-113311000D03*
D59*
X163686666Y-114836000D03*
D58*
X162011666Y-116361000D03*
X162011666Y-113311000D03*
D57*
X169986666Y-112556000D03*
D21*
X151486666Y-145468500D03*
X151486666Y-143643500D03*
D35*
X131986666Y-105006000D03*
X131986666Y-103106000D03*
D17*
X158036666Y-121056000D03*
X158036666Y-122956000D03*
D50*
X173936666Y-135056000D03*
X172036666Y-135056000D03*
D11*
X165486666Y-122056000D03*
D18*
X197986666Y-119643500D03*
X197986666Y-121468500D03*
D11*
X194986666Y-139556000D03*
D60*
X170411666Y-128556000D03*
X170411666Y-129826000D03*
X170411666Y-131096000D03*
X170411666Y-132366000D03*
X175561666Y-132366000D03*
X175561666Y-131096000D03*
X175561666Y-129826000D03*
X175561666Y-128556000D03*
D21*
X116486666Y-103468500D03*
X116486666Y-101643500D03*
D11*
X97486666Y-119556000D03*
X179486666Y-116056000D03*
D17*
X131986666Y-94056000D03*
X131986666Y-95956000D03*
D11*
X166986666Y-148056000D03*
D35*
X215486666Y-136056000D03*
X215486666Y-134156000D03*
D29*
X96746666Y-125056000D03*
X98826666Y-125056000D03*
D30*
X97786666Y-128861000D03*
D61*
X106486666Y-97056000D03*
D62*
X104486666Y-97056000D03*
X102486666Y-97056000D03*
X100486666Y-97056000D03*
D21*
X112486666Y-126056000D03*
X112486666Y-124231000D03*
D63*
X152849166Y-121056000D03*
X152849166Y-121706000D03*
X152849166Y-122356000D03*
X152849166Y-123006000D03*
X155124166Y-123006000D03*
X155124166Y-122356000D03*
X155124166Y-121706000D03*
X155124166Y-121056000D03*
D11*
X214986666Y-114056000D03*
D35*
X142486666Y-136056000D03*
X142486666Y-134156000D03*
D52*
X108694166Y-121856000D03*
D53*
X107939166Y-126481000D03*
X104889166Y-126481000D03*
D54*
X106414166Y-128156000D03*
D53*
X107939166Y-129831000D03*
X104889166Y-129831000D03*
D52*
X104134166Y-121856000D03*
D44*
X207006666Y-136281000D03*
D45*
X210966666Y-136281000D03*
D64*
X154986666Y-141056000D03*
X147986666Y-138056000D03*
X145986666Y-137556000D03*
X147486666Y-135556000D03*
D65*
X133986666Y-97056000D03*
X152986666Y-129056000D03*
X157986666Y-135056000D03*
X153986666Y-134056000D03*
X144486666Y-122556000D03*
X173986666Y-118556000D03*
X144486666Y-124056000D03*
X146486666Y-124056000D03*
X144486666Y-121056000D03*
X146486666Y-121056000D03*
X146486666Y-122556000D03*
X120986666Y-122056000D03*
X118986666Y-104056000D03*
X145486666Y-121056000D03*
X158986666Y-130556000D03*
X145486666Y-122556000D03*
X142486666Y-132556000D03*
X136986666Y-136556000D03*
X156436666Y-145056000D03*
X145486666Y-124056000D03*
X184486666Y-125956000D03*
X97986666Y-129056000D03*
X203986666Y-130056000D03*
X205986666Y-129056000D03*
X163486666Y-117056000D03*
X164486666Y-115056000D03*
X204986666Y-127056000D03*
X162486666Y-116056000D03*
X166486666Y-117056000D03*
X97986666Y-130556000D03*
X163486666Y-116056000D03*
X163486666Y-113056000D03*
X165486666Y-116056000D03*
X202986666Y-128056000D03*
X96986666Y-129056000D03*
X203986666Y-127056000D03*
X204986666Y-128056000D03*
X164486666Y-116056000D03*
X97986666Y-127706000D03*
X204986666Y-129056000D03*
X164486666Y-114056000D03*
X206986666Y-127056000D03*
X161486666Y-115056000D03*
X205986666Y-127056000D03*
X95986666Y-130556000D03*
X95986666Y-127556000D03*
X162486666Y-113056000D03*
X166486666Y-114056000D03*
X166486666Y-113056000D03*
X163486666Y-114056000D03*
X166486666Y-115056000D03*
X164486666Y-117056000D03*
X162486666Y-115056000D03*
X162486666Y-117056000D03*
X165486666Y-114056000D03*
X165486666Y-117056000D03*
X98986666Y-129056000D03*
X202986666Y-127056000D03*
X203986666Y-128056000D03*
X98986666Y-130556000D03*
X203986666Y-129056000D03*
X165486666Y-115056000D03*
X163486666Y-115056000D03*
X173976666Y-131096000D03*
X206986666Y-129056000D03*
X205986666Y-128056000D03*
X205986666Y-130056000D03*
X166486666Y-116056000D03*
X161486666Y-114056000D03*
X96986666Y-130556000D03*
X202986666Y-130056000D03*
X95986666Y-129056000D03*
X165486666Y-113056000D03*
X204986666Y-130056000D03*
X161486666Y-113056000D03*
X206986666Y-130056000D03*
X98986666Y-127556000D03*
X162486666Y-114056000D03*
X96986666Y-127556000D03*
X161486666Y-116056000D03*
X164486666Y-113056000D03*
X202986666Y-129056000D03*
X206986666Y-128056000D03*
X161486666Y-117056000D03*
X147986666Y-145556000D03*
D66*
X153986666Y-111056000D03*
X144986666Y-108556000D03*
D65*
X140486666Y-124056000D03*
X153986666Y-100056000D03*
X105986666Y-120056000D03*
X209486666Y-122056000D03*
X215486666Y-132556000D03*
X103986666Y-122056000D03*
X109986666Y-133056000D03*
X153986666Y-94056000D03*
X149986666Y-98056000D03*
X150986666Y-99056000D03*
X103986666Y-123056000D03*
X147986666Y-123556000D03*
X210486666Y-123056000D03*
X150986666Y-98056000D03*
X150986666Y-94056000D03*
X103986666Y-121056000D03*
X149986666Y-96056000D03*
X210486666Y-119056000D03*
X151986666Y-98056000D03*
X152986666Y-98056000D03*
X152986666Y-95056000D03*
X153986666Y-99056000D03*
X151986666Y-97056000D03*
X172036666Y-131106000D03*
X150986666Y-100056000D03*
X158036666Y-124506000D03*
X211486666Y-120056000D03*
X209486666Y-120056000D03*
X153986666Y-98056000D03*
X211486666Y-122056000D03*
X104986666Y-122056000D03*
X202486666Y-132556000D03*
X150986666Y-97056000D03*
X102986666Y-120056000D03*
X102986666Y-122056000D03*
X153986666Y-95056000D03*
X209486666Y-121056000D03*
X210486666Y-121056000D03*
X208486666Y-121056000D03*
X150986666Y-96056000D03*
X209486666Y-123056000D03*
X210486666Y-122056000D03*
X150986666Y-95056000D03*
X152986666Y-96056000D03*
X153986666Y-97056000D03*
X153986666Y-96056000D03*
X210486666Y-120056000D03*
X151986666Y-100056000D03*
X152986666Y-99056000D03*
X152986666Y-94056000D03*
X149986666Y-94056000D03*
X104986666Y-123056000D03*
D66*
X199486666Y-91056000D03*
D65*
X149986666Y-95056000D03*
X149986666Y-99056000D03*
X151986666Y-96056000D03*
X152986666Y-100056000D03*
X105986666Y-121056000D03*
X102986666Y-121056000D03*
X151986666Y-94056000D03*
X151986666Y-95056000D03*
X152986666Y-97056000D03*
X152486666Y-124556000D03*
X208486666Y-122056000D03*
X104986666Y-120056000D03*
X212486666Y-121056000D03*
X105986666Y-122056000D03*
X211486666Y-121056000D03*
X211486666Y-123056000D03*
X149986666Y-97056000D03*
X151986666Y-99056000D03*
X176986666Y-95056000D03*
X103986666Y-120056000D03*
X149986666Y-100056000D03*
X96486666Y-133056000D03*
X212486666Y-122056000D03*
X104986666Y-121056000D03*
X171486666Y-143556000D03*
X156611666Y-134056000D03*
X170986666Y-113556000D03*
X168986666Y-113556000D03*
X170986666Y-112556000D03*
X167986666Y-111556000D03*
X167986666Y-112556000D03*
X171986666Y-113556000D03*
X171486666Y-110556000D03*
X167986666Y-113556000D03*
X169986666Y-113556000D03*
X169986666Y-114556000D03*
X169986666Y-111556000D03*
X171986666Y-111556000D03*
X169986666Y-110556000D03*
X168986666Y-112556000D03*
X171986666Y-112556000D03*
X168486666Y-110556000D03*
X170986666Y-111556000D03*
X169986666Y-112556000D03*
X168986666Y-111556000D03*
X120986666Y-123056000D03*
X159986666Y-135556000D03*
X162486666Y-128056000D03*
X126986666Y-121056000D03*
X155486666Y-119556000D03*
X153986666Y-136556000D03*
X136986666Y-134056000D03*
X153986666Y-129556000D03*
X183486666Y-125056000D03*
X118480361Y-112087697D03*
X112986666Y-113056000D03*
X112986666Y-120056000D03*
X154986666Y-124556000D03*
X153986666Y-124556000D03*
X175986666Y-142556000D03*
X175986666Y-139556000D03*
X175986666Y-127056000D03*
X178486666Y-125056000D03*
X153986666Y-132556000D03*
X194986666Y-125056000D03*
X154986666Y-130056000D03*
X148986666Y-128556000D03*
X158986666Y-132381000D03*
X172486666Y-116056000D03*
X142986666Y-128556000D03*
D67*
X183486666Y-124056000D02*
X184906666Y-124056000D01*
X184906666Y-124056000D02*
X185906666Y-123056000D01*
D68*
X154736666Y-127381000D02*
X154736666Y-125942396D01*
X181541566Y-118056000D02*
X181541566Y-114001100D01*
X154736666Y-125942396D02*
X155123062Y-125556000D01*
X155123062Y-125556000D02*
X158350270Y-125556000D01*
X158850270Y-125056000D02*
X177486666Y-125056000D01*
X158350270Y-125556000D02*
X158850270Y-125056000D01*
X177486666Y-125056000D02*
X177486666Y-122056000D01*
X177486666Y-122056000D02*
X177541566Y-122056000D01*
X177541566Y-122056000D02*
X181541566Y-118056000D01*
X181541566Y-114001100D02*
X182486666Y-113056000D01*
X182486666Y-113056000D02*
X206986666Y-113056000D01*
X206986666Y-113056000D02*
X207811666Y-112231000D01*
X207811666Y-112231000D02*
X207811666Y-107531000D01*
X159236666Y-127381000D02*
X159236666Y-126306000D01*
X159236666Y-126306000D02*
X159486666Y-126056000D01*
X159486666Y-126056000D02*
X176986666Y-126056000D01*
X176986666Y-126056000D02*
X178486666Y-127556000D01*
X178486666Y-127556000D02*
X196623062Y-127556000D01*
X196099166Y-115031000D02*
X195074166Y-116056000D01*
X196623062Y-127556000D02*
X199011666Y-125167396D01*
X199011666Y-125167396D02*
X199011666Y-115081000D01*
X199011666Y-115081000D02*
X198986666Y-115056000D01*
X198986666Y-115056000D02*
X198486666Y-115056000D01*
X198486666Y-115056000D02*
X198461666Y-115031000D01*
X198461666Y-115031000D02*
X196099166Y-115031000D01*
D67*
X213486666Y-118556000D02*
X212486666Y-117556000D01*
X212486666Y-117556000D02*
X205486666Y-117556000D01*
X205486666Y-117556000D02*
X204486666Y-118556000D01*
X204486666Y-118556000D02*
X204486666Y-122721656D01*
X204486666Y-122721656D02*
X200486666Y-126721656D01*
X184216666Y-129826000D02*
X175561666Y-129826000D01*
X200486666Y-126721656D02*
X200486666Y-128556000D01*
X200486666Y-128556000D02*
X185486666Y-128556000D01*
X185486666Y-128556000D02*
X184216666Y-129826000D01*
D69*
X141014788Y-138906000D02*
X148338748Y-138906000D01*
X139449166Y-133334122D02*
X139449166Y-135796622D01*
X139486666Y-135834122D02*
X139486666Y-137377878D01*
X137871044Y-131756000D02*
X139449166Y-133334122D01*
X134308188Y-131756000D02*
X137871044Y-131756000D01*
X148338748Y-138906000D02*
X149838748Y-137406000D01*
X132723188Y-130171000D02*
X134308188Y-131756000D01*
X118601666Y-130171000D02*
X132723188Y-130171000D01*
X107486666Y-119056000D02*
X118601666Y-130171000D01*
X107486666Y-119056000D02*
X108694166Y-120263500D01*
X149838748Y-137406000D02*
X155386666Y-137406000D01*
X105986666Y-117556000D02*
X107486666Y-119056000D01*
X139449166Y-135796622D02*
X139486666Y-135834122D01*
X155386666Y-137406000D02*
X155661666Y-137131000D01*
X139486666Y-137377878D02*
X141014788Y-138906000D01*
D67*
X172574166Y-147556000D02*
X172074166Y-148056000D01*
X172074166Y-148056000D02*
X166986666Y-148056000D01*
D68*
X191899166Y-140056000D02*
X191899166Y-140468500D01*
X191899166Y-140468500D02*
X191986666Y-140556000D01*
X191986666Y-140556000D02*
X191986666Y-143556000D01*
X191899166Y-140056000D02*
X194486666Y-140056000D01*
X194486666Y-140056000D02*
X194986666Y-139556000D01*
X150311666Y-136806000D02*
X149236666Y-136806000D01*
X149236666Y-136806000D02*
X147986666Y-138056000D01*
X154986666Y-141056000D02*
X176986666Y-141056000D01*
X176986666Y-141056000D02*
X177986666Y-140056000D01*
X177986666Y-140056000D02*
X190074166Y-140056000D01*
X121186666Y-143556000D02*
X121186666Y-140443500D01*
X121186666Y-140443500D02*
X121574166Y-140056000D01*
X117486666Y-139556000D02*
X121074166Y-139556000D01*
X121074166Y-139556000D02*
X121574166Y-140056000D01*
X151411666Y-139556000D02*
X138486666Y-139556000D01*
X152236666Y-138731000D02*
X151411666Y-139556000D01*
X138486666Y-139556000D02*
X137986666Y-140056000D01*
X137986666Y-140056000D02*
X123399166Y-140056000D01*
X171486666Y-143556000D02*
X172549166Y-144618500D01*
X172549166Y-144618500D02*
X172549166Y-145056000D01*
X147736666Y-135806000D02*
X147486666Y-135556000D01*
X150311666Y-135806000D02*
X147736666Y-135806000D01*
X147236666Y-136306000D02*
X145986666Y-137556000D01*
X150311666Y-136306000D02*
X147236666Y-136306000D01*
X175986666Y-127056000D02*
X175486666Y-126556000D01*
X175486666Y-126556000D02*
X159736666Y-126556000D01*
X159736666Y-126556000D02*
X159736666Y-127381000D01*
X158736666Y-127381000D02*
X158736666Y-125806000D01*
X158986666Y-125556000D02*
X177486666Y-125556000D01*
X158736666Y-125806000D02*
X158986666Y-125556000D01*
X177486666Y-125556000D02*
X178986666Y-127056000D01*
X178986666Y-127056000D02*
X196486666Y-127056000D01*
X196486666Y-127056000D02*
X197986666Y-125556000D01*
X197986666Y-125556000D02*
X197986666Y-121468500D01*
D70*
X131986666Y-94056000D02*
X139986666Y-94056000D01*
X139986666Y-94056000D02*
X140846666Y-94916000D01*
X140846666Y-94916000D02*
X140846666Y-99516000D01*
X131986666Y-105006000D02*
X130936666Y-105006000D01*
X130936666Y-105006000D02*
X130486666Y-104556000D01*
X130486666Y-104556000D02*
X130486666Y-100556000D01*
X130486666Y-100556000D02*
X131086666Y-99956000D01*
X131086666Y-99956000D02*
X131986666Y-99956000D01*
D71*
X140846666Y-102056000D02*
X144486666Y-102056000D01*
X144486666Y-102056000D02*
X145986666Y-100556000D01*
X145986666Y-100556000D02*
X145986666Y-94556000D01*
D70*
X148136666Y-99706000D02*
X149336666Y-99706000D01*
X149336666Y-99706000D02*
X151986666Y-97056000D01*
X148136666Y-97056000D02*
X151986666Y-97056000D01*
X148136666Y-94556000D02*
X150486666Y-94556000D01*
X150486666Y-94556000D02*
X151986666Y-96056000D01*
X146836666Y-94556000D02*
X146836666Y-99706000D01*
X148136666Y-94556000D02*
X148136666Y-99706000D01*
X131986666Y-98056000D02*
X133986666Y-98056000D01*
X133986666Y-98056000D02*
X133986666Y-100056000D01*
X133986666Y-97556000D02*
X133986666Y-96556000D01*
X133386666Y-95956000D02*
X131986666Y-95956000D01*
X133986666Y-96556000D02*
X133386666Y-95956000D01*
X133986666Y-100056000D02*
X133986666Y-97556000D01*
X133986666Y-97556000D02*
X133986666Y-97056000D01*
X133986666Y-100056000D02*
X133986666Y-103106000D01*
X131986666Y-95956000D02*
X131986666Y-97056000D01*
X131986666Y-97056000D02*
X131986666Y-98056000D01*
D67*
X138536666Y-136606000D02*
X137036666Y-136606000D01*
D68*
X153736666Y-134306000D02*
X153986666Y-134056000D01*
D72*
X98986666Y-100056000D02*
X98986666Y-102556000D01*
D67*
X186586666Y-125956000D02*
X187176666Y-125366000D01*
D72*
X100486666Y-98556000D02*
X98986666Y-100056000D01*
D67*
X184486666Y-125956000D02*
X186586666Y-125956000D01*
X173986666Y-117006000D02*
X173986666Y-118556000D01*
D73*
X142386666Y-125656000D02*
X145486666Y-122556000D01*
D67*
X118906666Y-104136000D02*
X118986666Y-104056000D01*
X157136666Y-143556000D02*
X159399166Y-143556000D01*
X122486666Y-122556000D02*
X121986666Y-122056000D01*
X187176666Y-125366000D02*
X187176666Y-123056000D01*
X156436666Y-145056000D02*
X156436666Y-144256000D01*
X156436666Y-144256000D02*
X157136666Y-143556000D01*
D70*
X139796666Y-103106000D02*
X140846666Y-102056000D01*
D67*
X181486666Y-125956000D02*
X184486666Y-125956000D01*
X156436666Y-146556000D02*
X156436666Y-145056000D01*
X142486666Y-134156000D02*
X142486666Y-132556000D01*
X121986666Y-122056000D02*
X120986666Y-122056000D01*
D68*
X153736666Y-127381000D02*
X153736666Y-128306000D01*
D70*
X131986666Y-103106000D02*
X133986666Y-103106000D01*
D68*
X153736666Y-128306000D02*
X152986666Y-129056000D01*
X161661666Y-129806000D02*
X159736666Y-129806000D01*
X157736666Y-138731000D02*
X157736666Y-135306000D01*
D73*
X142386666Y-126056000D02*
X142386666Y-125656000D01*
D67*
X118906666Y-109056000D02*
X118906666Y-104136000D01*
X137036666Y-136606000D02*
X136986666Y-136556000D01*
D68*
X150311666Y-134306000D02*
X153736666Y-134306000D01*
D67*
X187176666Y-123056000D02*
X188446666Y-123056000D01*
D70*
X133986666Y-103106000D02*
X139796666Y-103106000D01*
D67*
X188446666Y-123056000D02*
X190986666Y-123056000D01*
D72*
X100486666Y-97056000D02*
X100486666Y-98556000D01*
D68*
X159736666Y-129806000D02*
X158986666Y-130556000D01*
X157736666Y-135306000D02*
X157986666Y-135056000D01*
D67*
X159399166Y-143556000D02*
X159486666Y-143643500D01*
D71*
X101006666Y-133576000D02*
X101006666Y-136281000D01*
D69*
X206731666Y-136006000D02*
X207006666Y-136281000D01*
X173976666Y-131096000D02*
X173936666Y-131056000D01*
X173936666Y-131606000D02*
X173936666Y-131056000D01*
D71*
X97986666Y-130556000D02*
X101006666Y-133576000D01*
D69*
X96486666Y-136506000D02*
X100781666Y-136506000D01*
X175561666Y-131096000D02*
X173976666Y-131096000D01*
D71*
X207006666Y-130841000D02*
X205026666Y-128861000D01*
D69*
X173886666Y-135106000D02*
X173936666Y-135056000D01*
X173936666Y-135056000D02*
X173936666Y-131606000D01*
X173886666Y-138056000D02*
X173886666Y-135106000D01*
X100781666Y-136506000D02*
X101006666Y-136281000D01*
D71*
X97986666Y-128746000D02*
X97986666Y-130556000D01*
X207006666Y-136281000D02*
X207006666Y-130841000D01*
D69*
X202486666Y-136006000D02*
X206731666Y-136006000D01*
D73*
X140486666Y-119056000D02*
X138986666Y-117556000D01*
D71*
X145486666Y-109056000D02*
X144986666Y-108556000D01*
D74*
X138486666Y-118056000D02*
X138986666Y-117556000D01*
D73*
X140486666Y-124056000D02*
X140486666Y-119056000D01*
D71*
X153436666Y-115056000D02*
X153436666Y-111606000D01*
D75*
X152936666Y-114556000D02*
X153436666Y-115056000D01*
D70*
X170846666Y-104456000D02*
X171486666Y-105096000D01*
D67*
X151486666Y-145468500D02*
X148074166Y-145468500D01*
D75*
X142486666Y-114556000D02*
X141986666Y-115056000D01*
D71*
X153436666Y-111606000D02*
X153986666Y-111056000D01*
D75*
X141486666Y-115056000D02*
X141986666Y-115056000D01*
D71*
X145486666Y-114556000D02*
X145486666Y-109056000D01*
D75*
X138986666Y-117556000D02*
X141486666Y-115056000D01*
D71*
X134961666Y-118056000D02*
X137486666Y-118056000D01*
D75*
X145486666Y-114556000D02*
X152936666Y-114556000D01*
D73*
X140486666Y-126056000D02*
X140486666Y-124056000D01*
D70*
X167486666Y-104456000D02*
X170846666Y-104456000D01*
D74*
X137486666Y-118056000D02*
X138486666Y-118056000D01*
D75*
X145486666Y-114556000D02*
X142486666Y-114556000D01*
D67*
X148074166Y-145468500D02*
X147986666Y-145556000D01*
D68*
X156486666Y-121056000D02*
X158036666Y-121056000D01*
X155836666Y-121706000D02*
X156486666Y-121056000D01*
X155124166Y-121706000D02*
X155836666Y-121706000D01*
D70*
X173686666Y-93256000D02*
X173686666Y-91556000D01*
X181086666Y-102456000D02*
X180486666Y-102456000D01*
D67*
X176261666Y-112281000D02*
X180486666Y-108056000D01*
D70*
X181486666Y-109056000D02*
X184486666Y-109056000D01*
D67*
X173986666Y-115106000D02*
X176261666Y-115106000D01*
X176261666Y-115106000D02*
X176261666Y-112281000D01*
D70*
X182486666Y-97056000D02*
X182486666Y-101056000D01*
X181536666Y-96106000D02*
X182486666Y-97056000D01*
X180486666Y-108056000D02*
X181486666Y-109056000D01*
X182486666Y-101056000D02*
X181086666Y-102456000D01*
X180486666Y-96106000D02*
X176536666Y-96106000D01*
X180486666Y-96106000D02*
X181536666Y-96106000D01*
X176536666Y-96106000D02*
X173686666Y-93256000D01*
X180486666Y-102456000D02*
X180486666Y-108056000D01*
X203946666Y-124941000D02*
X206026666Y-124941000D01*
D71*
X211389166Y-127843590D02*
X211389166Y-129831000D01*
D69*
X211191666Y-136056000D02*
X210966666Y-136281000D01*
X215486666Y-136056000D02*
X211191666Y-136056000D01*
D71*
X208486576Y-124941000D02*
X211389166Y-127843590D01*
X210966666Y-130103500D02*
X212914166Y-128156000D01*
X206026666Y-124941000D02*
X208486576Y-124941000D01*
X210966666Y-136281000D02*
X210966666Y-130103500D01*
D69*
X109986666Y-136506000D02*
X105191666Y-136506000D01*
D71*
X104966666Y-136281000D02*
X104966666Y-129603500D01*
X104966666Y-129603500D02*
X106414166Y-128156000D01*
X104889166Y-127843590D02*
X104889166Y-129831000D01*
D69*
X105191666Y-136506000D02*
X104966666Y-136281000D01*
D71*
X98826666Y-125056000D02*
X102101576Y-125056000D01*
X102101576Y-125056000D02*
X104889166Y-127843590D01*
D70*
X96746666Y-125056000D02*
X98826666Y-125056000D01*
D67*
X132986666Y-140556000D02*
X138136666Y-140556000D01*
X138136666Y-140556000D02*
X138986666Y-141406000D01*
X131986666Y-141556000D02*
X132986666Y-140556000D01*
X174424166Y-145056000D02*
X174424166Y-147531000D01*
X174424166Y-147531000D02*
X174399166Y-147556000D01*
D68*
X150311666Y-134806000D02*
X146736666Y-134806000D01*
X146736666Y-134806000D02*
X145486666Y-136056000D01*
D67*
X140486666Y-136556000D02*
X140436666Y-136606000D01*
X140486666Y-134106000D02*
X140486666Y-136556000D01*
D68*
X145486666Y-136056000D02*
X142486666Y-136056000D01*
D67*
X140436666Y-136606000D02*
X141936666Y-136606000D01*
X141936666Y-136606000D02*
X142486666Y-136056000D01*
X154536666Y-147106000D02*
X154536666Y-146556000D01*
X155486666Y-148056000D02*
X154536666Y-147106000D01*
X153036666Y-148056000D02*
X154536666Y-146556000D01*
X159486666Y-145468500D02*
X159486666Y-147556000D01*
X153836666Y-145856000D02*
X154536666Y-146556000D01*
X151486666Y-143643500D02*
X153749166Y-143643500D01*
X153749166Y-143643500D02*
X153836666Y-143556000D01*
X151486666Y-148056000D02*
X153036666Y-148056000D01*
X153836666Y-143556000D02*
X153836666Y-145856000D01*
X158986666Y-148056000D02*
X155486666Y-148056000D01*
D68*
X153736666Y-138731000D02*
X153736666Y-143456000D01*
X153736666Y-143456000D02*
X153836666Y-143556000D01*
D67*
X159486666Y-147556000D02*
X158986666Y-148056000D01*
D75*
X210634166Y-121203500D02*
X210634166Y-121856000D01*
D72*
X158036666Y-122956000D02*
X158036666Y-124506000D01*
D67*
X133311666Y-143381000D02*
X133986666Y-144056000D01*
D69*
X171986666Y-138056000D02*
X171986666Y-135106000D01*
X171986666Y-131056000D02*
X171946666Y-131096000D01*
D70*
X173486666Y-100556000D02*
X180486666Y-100556000D01*
X171486666Y-102556000D02*
X173486666Y-100556000D01*
D69*
X202486666Y-134106000D02*
X202486666Y-132556000D01*
D71*
X199486666Y-94556000D02*
X199486666Y-91056000D01*
X193986666Y-101556000D02*
X199486666Y-101556000D01*
D69*
X109986666Y-133056000D02*
X109986666Y-134606000D01*
D71*
X199486666Y-101556000D02*
X205386666Y-101556000D01*
X199486666Y-101556000D02*
X199486666Y-94556000D01*
D69*
X172036666Y-135056000D02*
X172036666Y-131106000D01*
D67*
X147986666Y-123556000D02*
X148986666Y-124556000D01*
D72*
X152849166Y-123006000D02*
X152849166Y-124193500D01*
D69*
X172036666Y-131106000D02*
X171986666Y-131056000D01*
D70*
X149986666Y-98206000D02*
X149986666Y-97056000D01*
D69*
X215486666Y-134156000D02*
X215486666Y-132556000D01*
D70*
X167486666Y-102556000D02*
X171486666Y-102556000D01*
D71*
X192486666Y-103056000D02*
X193986666Y-101556000D01*
D72*
X152849166Y-124193500D02*
X152486666Y-124556000D01*
D71*
X192486666Y-109056000D02*
X192486666Y-103056000D01*
D69*
X96486666Y-134606000D02*
X96486666Y-133056000D01*
D71*
X205386666Y-100721000D02*
X205386666Y-103031000D01*
D75*
X210634166Y-121203500D02*
X210486666Y-121056000D01*
D67*
X148986666Y-124556000D02*
X152486666Y-124556000D01*
D69*
X171986666Y-135106000D02*
X172036666Y-135056000D01*
X171946666Y-131096000D02*
X170411666Y-131096000D01*
D75*
X104934166Y-121056000D02*
X104986666Y-121056000D01*
D67*
X131986666Y-143381000D02*
X133311666Y-143381000D01*
D70*
X180486666Y-98006000D02*
X180486666Y-100556000D01*
D67*
X140236666Y-144056000D02*
X141986666Y-142306000D01*
X133986666Y-144056000D02*
X140236666Y-144056000D01*
D68*
X156611666Y-134056000D02*
X155736666Y-133181000D01*
X155736666Y-133181000D02*
X155736666Y-127381000D01*
X152849166Y-121056000D02*
X156261666Y-117643500D01*
X156261666Y-117643500D02*
X156261666Y-108831000D01*
D67*
X167986666Y-115556000D02*
X168486666Y-115056000D01*
X167986666Y-118556000D02*
X167986666Y-115556000D01*
D68*
X155186666Y-107756000D02*
X150986666Y-107756000D01*
D67*
X168661666Y-121056000D02*
X168661666Y-119231000D01*
D68*
X156261666Y-108831000D02*
X155186666Y-107756000D01*
D67*
X168486666Y-115056000D02*
X168486666Y-114056000D01*
D75*
X169986666Y-112556000D02*
X169986666Y-112056000D01*
D67*
X168661666Y-119231000D02*
X167986666Y-118556000D01*
X168486666Y-114056000D02*
X168986666Y-113556000D01*
D68*
X122486666Y-123856000D02*
X121686666Y-123856000D01*
X110986666Y-121056000D02*
X108486666Y-118556000D01*
X108074166Y-101643500D02*
X106986666Y-101643500D01*
X121486666Y-128056000D02*
X130486666Y-128056000D01*
X135696666Y-130306000D02*
X134986666Y-129596000D01*
X120986666Y-123856000D02*
X120986666Y-127556000D01*
X121686666Y-123856000D02*
X114786666Y-123856000D01*
X150311666Y-130306000D02*
X135696666Y-130306000D01*
D72*
X106986666Y-101643500D02*
X106986666Y-97556000D01*
D68*
X120986666Y-127556000D02*
X121486666Y-128056000D01*
X130486666Y-128056000D02*
X132026666Y-129596000D01*
X121686666Y-123856000D02*
X120986666Y-123856000D01*
D72*
X106986666Y-97556000D02*
X106486666Y-97056000D01*
D68*
X111986666Y-121056000D02*
X110986666Y-121056000D01*
X108486666Y-102056000D02*
X108074166Y-101643500D01*
X114786666Y-123856000D02*
X111986666Y-121056000D01*
X108486666Y-118556000D02*
X108486666Y-102056000D01*
X132026666Y-129596000D02*
X134986666Y-129596000D01*
X122486666Y-126556000D02*
X122486666Y-124506000D01*
X123311666Y-121381000D02*
X113311666Y-121381000D01*
X108986666Y-95056000D02*
X104986666Y-95056000D01*
X134986666Y-127056000D02*
X122986666Y-127056000D01*
X123486666Y-121556000D02*
X123311666Y-121381000D01*
X122486666Y-124506000D02*
X123236666Y-124506000D01*
X113311666Y-121381000D02*
X112486666Y-120556000D01*
X104486666Y-95556000D02*
X104486666Y-97056000D01*
X137986666Y-127556000D02*
X137486666Y-127056000D01*
X137986666Y-129056000D02*
X137986666Y-127556000D01*
X137486666Y-127056000D02*
X134986666Y-127056000D01*
X123236666Y-124506000D02*
X123486666Y-124256000D01*
X123486666Y-124256000D02*
X123486666Y-121556000D01*
X150311666Y-129806000D02*
X138736666Y-129806000D01*
X111486666Y-120556000D02*
X108986666Y-118056000D01*
X104986666Y-95056000D02*
X104486666Y-95556000D01*
D72*
X104486666Y-97056000D02*
X104486666Y-101643500D01*
D68*
X138736666Y-129806000D02*
X137986666Y-129056000D01*
X112486666Y-120556000D02*
X111486666Y-120556000D01*
X122986666Y-127056000D02*
X122486666Y-126556000D01*
X108986666Y-118056000D02*
X108986666Y-95056000D01*
D67*
X181486666Y-124056000D02*
X183486666Y-124056000D01*
X121136666Y-123206000D02*
X120986666Y-123056000D01*
D68*
X161661666Y-128881000D02*
X162486666Y-128056000D01*
X153986666Y-129556000D02*
X154236666Y-129306000D01*
X152236666Y-135306000D02*
X153486666Y-136556000D01*
D72*
X102486666Y-98556000D02*
X102486666Y-97056000D01*
D67*
X126786666Y-121256000D02*
X126986666Y-121056000D01*
D68*
X161661666Y-129306000D02*
X161661666Y-128881000D01*
X154236666Y-129306000D02*
X154236666Y-127381000D01*
X156236666Y-136806000D02*
X155986666Y-136556000D01*
D72*
X103074166Y-103468500D02*
X106986666Y-103468500D01*
X100886666Y-102556000D02*
X101886666Y-103556000D01*
D68*
X155986666Y-136556000D02*
X153986666Y-136556000D01*
D67*
X183486666Y-124056000D02*
X183486666Y-125056000D01*
D68*
X150311666Y-135306000D02*
X152236666Y-135306000D01*
D67*
X138411666Y-134106000D02*
X137036666Y-134106000D01*
D72*
X101886666Y-103556000D02*
X102986666Y-103556000D01*
D67*
X122486666Y-123206000D02*
X121136666Y-123206000D01*
D68*
X158236666Y-138731000D02*
X158236666Y-137306000D01*
D72*
X100886666Y-102556000D02*
X100886666Y-100156000D01*
X100886666Y-100156000D02*
X102486666Y-98556000D01*
X102986666Y-103556000D02*
X103074166Y-103468500D01*
D67*
X137036666Y-134106000D02*
X136986666Y-134056000D01*
X126786666Y-122556000D02*
X126786666Y-121256000D01*
D68*
X156236666Y-138731000D02*
X156236666Y-136806000D01*
X153486666Y-136556000D02*
X153986666Y-136556000D01*
D70*
X131986666Y-105006000D02*
X140436666Y-105006000D01*
D68*
X158236666Y-137306000D02*
X159986666Y-135556000D01*
D70*
X140436666Y-105006000D02*
X140846666Y-104596000D01*
D75*
X160906666Y-104356000D02*
X160906666Y-107756000D01*
X159986666Y-103436000D02*
X160906666Y-104356000D01*
X159986666Y-97056000D02*
X159986666Y-103436000D01*
D67*
X169986666Y-118556000D02*
X170486666Y-119056000D01*
X170486666Y-119056000D02*
X170486666Y-123556000D01*
X169986666Y-117116000D02*
X169986666Y-118556000D01*
X205986666Y-105131000D02*
X205386666Y-104531000D01*
X205986666Y-107531000D02*
X205986666Y-105131000D01*
X214986666Y-118231000D02*
X215311666Y-118556000D01*
D72*
X215311666Y-118556000D02*
X215311666Y-121738500D01*
D67*
X214986666Y-114056000D02*
X214986666Y-118231000D01*
X215311666Y-121738500D02*
X215194166Y-121856000D01*
D72*
X116366666Y-109056000D02*
X116366666Y-103588500D01*
X116366666Y-103588500D02*
X116486666Y-103468500D01*
D67*
X123986666Y-112556000D02*
X123986666Y-116656000D01*
X128986666Y-124056000D02*
X128986666Y-117556000D01*
X128986666Y-117556000D02*
X124886666Y-117556000D01*
X126786666Y-124506000D02*
X128536666Y-124506000D01*
X118480361Y-112087697D02*
X123518363Y-112087697D01*
X123518363Y-112087697D02*
X123986666Y-112556000D01*
X128536666Y-124506000D02*
X128986666Y-124056000D01*
X124886666Y-117556000D02*
X123986666Y-116656000D01*
X113486666Y-113556000D02*
X113986666Y-113556000D01*
X122486666Y-113056000D02*
X122486666Y-119056000D01*
X113826666Y-116656000D02*
X113826666Y-113716000D01*
X122486666Y-119056000D02*
X123436666Y-120006000D01*
X113826666Y-113716000D02*
X113986666Y-113556000D01*
X123436666Y-120006000D02*
X124436666Y-120006000D01*
X112986666Y-113056000D02*
X113486666Y-113556000D01*
X125486666Y-121056000D02*
X125486666Y-123056000D01*
X113986666Y-113556000D02*
X114486666Y-113056000D01*
X114486666Y-113056000D02*
X122486666Y-113056000D01*
X125486666Y-123056000D02*
X125636666Y-123206000D01*
X124436666Y-120006000D02*
X125486666Y-121056000D01*
X125636666Y-123206000D02*
X126786666Y-123206000D01*
X123986666Y-120556000D02*
X124486666Y-121056000D01*
X121986666Y-120556000D02*
X123986666Y-120556000D01*
X112986666Y-120056000D02*
X113486666Y-120556000D01*
X121446666Y-120516000D02*
X121486666Y-120556000D01*
X124786666Y-123856000D02*
X124486666Y-123556000D01*
X121446666Y-116656000D02*
X121446666Y-120516000D01*
X124486666Y-121056000D02*
X124486666Y-123556000D01*
X121486666Y-120556000D02*
X121986666Y-120556000D01*
X126786666Y-123856000D02*
X124786666Y-123856000D01*
X113486666Y-120556000D02*
X121986666Y-120556000D01*
D71*
X212586666Y-97381000D02*
X210236666Y-95031000D01*
X212586666Y-100721000D02*
X212586666Y-97381000D01*
X212586666Y-104531000D02*
X212586666Y-100721000D01*
D67*
X179486666Y-118556000D02*
X179486666Y-116056000D01*
X178486666Y-119556000D02*
X179486666Y-118556000D01*
X181486666Y-119643500D02*
X185249166Y-119643500D01*
X185249166Y-119643500D02*
X185906666Y-118986000D01*
X194329166Y-118986000D02*
X194986666Y-119643500D01*
X190986666Y-118986000D02*
X194329166Y-118986000D01*
X188446666Y-118986000D02*
X188446666Y-120516000D01*
X188986666Y-121056000D02*
X193486666Y-121056000D01*
X193986666Y-120556000D02*
X197074166Y-120556000D01*
X188446666Y-120516000D02*
X188986666Y-121056000D01*
X193486666Y-121056000D02*
X193986666Y-120556000D01*
X197074166Y-120556000D02*
X197986666Y-119643500D01*
X187486666Y-117056000D02*
X193986666Y-117056000D01*
X196486666Y-117556000D02*
X196899166Y-117143500D01*
X187176666Y-117366000D02*
X187486666Y-117056000D01*
X196899166Y-117143500D02*
X196899166Y-116056000D01*
X187176666Y-118986000D02*
X187176666Y-117366000D01*
X194486666Y-117556000D02*
X196486666Y-117556000D01*
X193986666Y-117056000D02*
X194486666Y-117556000D01*
D72*
X111069166Y-124231000D02*
X108694166Y-121856000D01*
D69*
X97486666Y-119556000D02*
X99486666Y-117556000D01*
X108694166Y-120263500D02*
X108694166Y-121856000D01*
D72*
X112486666Y-124231000D02*
X111069166Y-124231000D01*
D69*
X99486666Y-117556000D02*
X105986666Y-117556000D01*
D68*
X156289116Y-122356000D02*
X156589116Y-122056000D01*
X155124166Y-122356000D02*
X156289116Y-122356000D01*
X156589116Y-122056000D02*
X165486666Y-122056000D01*
D67*
X166986666Y-123556000D02*
X165486666Y-122056000D01*
X168661666Y-123556000D02*
X166986666Y-123556000D01*
D68*
X154986666Y-125056000D02*
X154986666Y-124556000D01*
X153486666Y-125556000D02*
X154486666Y-125556000D01*
X154986666Y-124556000D02*
X155124166Y-124418500D01*
X153236666Y-127381000D02*
X153236666Y-125806000D01*
X153236666Y-125806000D02*
X153486666Y-125556000D01*
X154486666Y-125556000D02*
X154986666Y-125056000D01*
X155124166Y-124418500D02*
X155124166Y-123006000D01*
X152736666Y-125306000D02*
X153486666Y-124556000D01*
X153986666Y-121531001D02*
X154461667Y-121056000D01*
X152736666Y-127381000D02*
X152736666Y-125306000D01*
X153486666Y-124556000D02*
X153986666Y-124556000D01*
X153986666Y-124556000D02*
X153986666Y-121531001D01*
X154461667Y-121056000D02*
X155124166Y-121056000D01*
X161986666Y-148206000D02*
X161986666Y-143056000D01*
X112486666Y-147556000D02*
X114486666Y-149556000D01*
X160636666Y-149556000D02*
X161986666Y-148206000D01*
X175986666Y-139556000D02*
X175986666Y-132791000D01*
X175986666Y-132791000D02*
X175561666Y-132366000D01*
X161986666Y-143056000D02*
X162486666Y-142556000D01*
X162486666Y-142556000D02*
X175986666Y-142556000D01*
X114486666Y-149556000D02*
X160636666Y-149556000D01*
X112486666Y-147556000D02*
X112486666Y-126056000D01*
X178486666Y-125056000D02*
X178486666Y-122056000D01*
X179074166Y-121468500D02*
X181486666Y-121468500D01*
X178486666Y-122056000D02*
X179074166Y-121468500D01*
X153736666Y-132806000D02*
X153986666Y-132556000D01*
X194986666Y-125056000D02*
X194986666Y-121468500D01*
X150311666Y-132806000D02*
X153736666Y-132806000D01*
X131486666Y-122056000D02*
X130986666Y-121556000D01*
X120486666Y-103556000D02*
X118486666Y-101556000D01*
X146311666Y-129231000D02*
X140161666Y-129231000D01*
X118486666Y-101556000D02*
X118399166Y-101643500D01*
X146986666Y-128556000D02*
X146311666Y-129231000D01*
X138986666Y-128056000D02*
X138986666Y-122556000D01*
X155236666Y-129806000D02*
X154986666Y-130056000D01*
X148986666Y-128556000D02*
X146986666Y-128556000D01*
X138486666Y-122056000D02*
X131486666Y-122056000D01*
X127486666Y-104056000D02*
X127486666Y-103556000D01*
X127486666Y-103556000D02*
X120486666Y-103556000D01*
X130986666Y-121556000D02*
X130986666Y-107556000D01*
X140161666Y-129231000D02*
X138986666Y-128056000D01*
X155236666Y-127381000D02*
X155236666Y-129806000D01*
X138986666Y-122556000D02*
X138486666Y-122056000D01*
X118399166Y-101643500D02*
X116486666Y-101643500D01*
X130986666Y-107556000D02*
X127486666Y-104056000D01*
D67*
X176261666Y-119156000D02*
X176661666Y-119556000D01*
X176261666Y-117006000D02*
X176261666Y-119156000D01*
D68*
X161661666Y-131806000D02*
X165736666Y-131806000D01*
X165736666Y-131806000D02*
X166296666Y-132366000D01*
X166296666Y-132366000D02*
X170411666Y-132366000D01*
X167216666Y-129826000D02*
X170411666Y-129826000D01*
X165736666Y-131306000D02*
X167216666Y-129826000D01*
X161661666Y-131306000D02*
X165736666Y-131306000D01*
X172486666Y-116056000D02*
X173986666Y-116056000D01*
X161661666Y-132306000D02*
X159061666Y-132306000D01*
X159061666Y-132306000D02*
X158986666Y-132381000D01*
X148486666Y-120056000D02*
X142486666Y-120056000D01*
X141486666Y-127056000D02*
X142986666Y-128556000D01*
X150836666Y-121706000D02*
X150136666Y-121706000D01*
X150136666Y-121706000D02*
X148486666Y-120056000D01*
X141486666Y-121056000D02*
X141486666Y-127056000D01*
X142486666Y-120056000D02*
X141486666Y-121056000D01*
X152849166Y-121706000D02*
X150836666Y-121706000D01*
G04 #@! TA.AperFunction,Conductor*
G36*
X166929705Y-111075685D02*
G01*
X166975460Y-111128489D01*
X166986666Y-111180000D01*
X166986666Y-118432000D01*
X166966981Y-118499039D01*
X166914177Y-118544794D01*
X166862666Y-118556000D01*
X157110666Y-118556000D01*
X157043627Y-118536315D01*
X156997872Y-118483511D01*
X156986666Y-118432000D01*
X156986666Y-111180000D01*
X157006351Y-111112961D01*
X157059155Y-111067206D01*
X157110666Y-111056000D01*
X166862666Y-111056000D01*
X166929705Y-111075685D01*
G37*
G04 #@! TD.AperFunction*
G04 #@! TA.AperFunction,Conductor*
G36*
X154429705Y-92575685D02*
G01*
X154475460Y-92628489D01*
X154486666Y-92680000D01*
X154486666Y-101432000D01*
X154466981Y-101499039D01*
X154414177Y-101544794D01*
X154362666Y-101556000D01*
X148110666Y-101556000D01*
X148043627Y-101536315D01*
X147997872Y-101483511D01*
X147986666Y-101432000D01*
X147986666Y-92680000D01*
X148006351Y-92612961D01*
X148059155Y-92567206D01*
X148110666Y-92556000D01*
X154362666Y-92556000D01*
X154429705Y-92575685D01*
G37*
G04 #@! TD.AperFunction*
G04 #@! TA.AperFunction,Conductor*
G36*
X164929427Y-92575685D02*
G01*
X164975182Y-92628489D01*
X164986388Y-92680278D01*
X164946938Y-110299496D01*
X164927103Y-110366491D01*
X164874197Y-110412127D01*
X164825182Y-110423198D01*
X157612910Y-110553715D01*
X157545525Y-110535246D01*
X157498822Y-110483279D01*
X157486666Y-110429735D01*
X157486666Y-92680000D01*
X157506351Y-92612961D01*
X157559155Y-92567206D01*
X157610666Y-92556000D01*
X164862388Y-92556000D01*
X164929427Y-92575685D01*
G37*
G04 #@! TD.AperFunction*
M02*
