%TF.GenerationSoftware,KiCad,Pcbnew,8.0.9-8.0.9-0~ubuntu22.04.1*%
%TF.CreationDate,2026-05-27T12:16:16+02:00*%
%TF.ProjectId,Carte_puissance,43617274-655f-4707-9569-7373616e6365,2.0*%
%TF.SameCoordinates,Original*%
%TF.FileFunction,Drillmap*%
%TF.FilePolarity,Positive*%
%FSLAX45Y45*%
G04 Gerber Fmt 4.5, Leading zero omitted, Abs format (unit mm)*
G04 Created by KiCad (PCBNEW 8.0.9-8.0.9-0~ubuntu22.04.1) date 2026-05-27 12:16:16*
%MOMM*%
%LPD*%
G01*
G04 APERTURE LIST*
%ADD10C,0.150000*%
%ADD11C,0.010000*%
%ADD12C,0.200000*%
%ADD13C,0.100000*%
%ADD14C,0.105000*%
%ADD15C,0.110000*%
%ADD16C,0.111000*%
%ADD17C,0.160000*%
%ADD18C,0.170000*%
G04 APERTURE END LIST*
D10*
X16748666Y-8805600D02*
X21648663Y-8805600D01*
X9398663Y-14855600D02*
X9398663Y-8955600D01*
D11*
X12669667Y-9791100D02*
G75*
G02*
X12349667Y-9791100I-160000J0D01*
G01*
X12349667Y-9791100D02*
G75*
G02*
X12669667Y-9791100I160000J0D01*
G01*
X12669667Y-13291100D02*
G75*
G02*
X12349667Y-13291100I-160000J0D01*
G01*
X12349667Y-13291100D02*
G75*
G02*
X12669667Y-13291100I160000J0D01*
G01*
D10*
X14448667Y-8805600D02*
X9548663Y-8805600D01*
X21648663Y-8805600D02*
G75*
G02*
X21798660Y-8955600I-3J-150000D01*
G01*
X21798663Y-8955600D02*
X21798663Y-14855600D01*
X16324514Y-9170771D02*
G75*
G02*
X16248667Y-9205598I-75844J65171D01*
G01*
X14448667Y-8805600D02*
G75*
G02*
X14524516Y-8840428I3J-100000D01*
G01*
X9398663Y-8955600D02*
G75*
G02*
X9548663Y-8805603I149997J0D01*
G01*
D11*
X18969667Y-9791100D02*
G75*
G02*
X18649667Y-9791100I-160000J0D01*
G01*
X18649667Y-9791100D02*
G75*
G02*
X18969667Y-9791100I160000J0D01*
G01*
D10*
X9548663Y-15005600D02*
G75*
G02*
X9398660Y-14855600I-3J150000D01*
G01*
X16324514Y-9170771D02*
X16672819Y-8840429D01*
X14948666Y-9205600D02*
G75*
G02*
X14872821Y-9170769I4J100000D01*
G01*
X16672819Y-8840429D02*
G75*
G02*
X16748666Y-8805597I75851J-65171D01*
G01*
X14872819Y-9170771D02*
X14524514Y-8840430D01*
X21798663Y-14855600D02*
G75*
G02*
X21648663Y-15005603I-150003J0D01*
G01*
D11*
X18969667Y-13291100D02*
G75*
G02*
X18649667Y-13291100I-160000J0D01*
G01*
X18649667Y-13291100D02*
G75*
G02*
X18969667Y-13291100I160000J0D01*
G01*
D10*
X14948666Y-9205600D02*
X16248667Y-9205600D01*
X21648667Y-15005600D02*
X9548667Y-15005600D01*
D12*
D13*
X9578667Y-12735600D02*
X9618667Y-12775600D01*
X9618667Y-12735600D02*
X9578667Y-12775600D01*
X9578667Y-12885600D02*
X9618667Y-12925600D01*
X9618667Y-12885600D02*
X9578667Y-12925600D01*
X9578667Y-13035600D02*
X9618667Y-13075600D01*
X9618667Y-13035600D02*
X9578667Y-13075600D01*
X9628667Y-13285600D02*
X9668667Y-13325600D01*
X9668667Y-13285600D02*
X9628667Y-13325600D01*
X9678667Y-12735600D02*
X9718667Y-12775600D01*
X9718667Y-12735600D02*
X9678667Y-12775600D01*
X9678667Y-12885600D02*
X9718667Y-12925600D01*
X9718667Y-12885600D02*
X9678667Y-12925600D01*
X9678667Y-13035600D02*
X9718667Y-13075600D01*
X9718667Y-13035600D02*
X9678667Y-13075600D01*
X9778667Y-12750600D02*
X9818667Y-12790600D01*
X9818667Y-12750600D02*
X9778667Y-12790600D01*
X9778667Y-12885600D02*
X9818667Y-12925600D01*
X9818667Y-12885600D02*
X9778667Y-12925600D01*
X9778667Y-13035600D02*
X9818667Y-13075600D01*
X9818667Y-13035600D02*
X9778667Y-13075600D01*
X9878667Y-12735600D02*
X9918667Y-12775600D01*
X9918667Y-12735600D02*
X9878667Y-12775600D01*
X9878667Y-12885600D02*
X9918667Y-12925600D01*
X9918667Y-12885600D02*
X9878667Y-12925600D01*
X9878667Y-13035600D02*
X9918667Y-13075600D01*
X9918667Y-13035600D02*
X9878667Y-13075600D01*
X10278667Y-11985600D02*
X10318667Y-12025600D01*
X10318667Y-11985600D02*
X10278667Y-12025600D01*
X10278667Y-12085600D02*
X10318667Y-12125600D01*
X10318667Y-12085600D02*
X10278667Y-12125600D01*
X10278667Y-12185600D02*
X10318667Y-12225600D01*
X10318667Y-12185600D02*
X10278667Y-12225600D01*
X10378667Y-11985600D02*
X10418667Y-12025600D01*
X10418667Y-11985600D02*
X10378667Y-12025600D01*
X10378667Y-12085600D02*
X10418667Y-12125600D01*
X10418667Y-12085600D02*
X10378667Y-12125600D01*
X10378667Y-12185600D02*
X10418667Y-12225600D01*
X10418667Y-12185600D02*
X10378667Y-12225600D01*
X10378667Y-12285600D02*
X10418667Y-12325600D01*
X10418667Y-12285600D02*
X10378667Y-12325600D01*
X10478667Y-11985600D02*
X10518667Y-12025600D01*
X10518667Y-11985600D02*
X10478667Y-12025600D01*
X10478667Y-12085600D02*
X10518667Y-12125600D01*
X10518667Y-12085600D02*
X10478667Y-12125600D01*
X10478667Y-12185600D02*
X10518667Y-12225600D01*
X10518667Y-12185600D02*
X10478667Y-12225600D01*
X10478667Y-12285600D02*
X10518667Y-12325600D01*
X10518667Y-12285600D02*
X10478667Y-12325600D01*
X10578667Y-11985600D02*
X10618667Y-12025600D01*
X10618667Y-11985600D02*
X10578667Y-12025600D01*
X10578667Y-12085600D02*
X10618667Y-12125600D01*
X10618667Y-12085600D02*
X10578667Y-12125600D01*
X10578667Y-12185600D02*
X10618667Y-12225600D01*
X10618667Y-12185600D02*
X10578667Y-12225600D01*
X10978667Y-13285600D02*
X11018667Y-13325600D01*
X11018667Y-13285600D02*
X10978667Y-13325600D01*
X11278667Y-11285600D02*
X11318667Y-11325600D01*
X11318667Y-11285600D02*
X11278667Y-11325600D01*
X11278667Y-11985600D02*
X11318667Y-12025600D01*
X11318667Y-11985600D02*
X11278667Y-12025600D01*
X11828036Y-11188770D02*
X11868036Y-11228770D01*
X11868036Y-11188770D02*
X11828036Y-11228770D01*
X11878667Y-10385600D02*
X11918667Y-10425600D01*
X11918667Y-10385600D02*
X11878667Y-10425600D01*
X12078667Y-12185600D02*
X12118667Y-12225600D01*
X12118667Y-12185600D02*
X12078667Y-12225600D01*
X12078667Y-12285600D02*
X12118667Y-12325600D01*
X12118667Y-12285600D02*
X12078667Y-12325600D01*
X12678667Y-12085600D02*
X12718667Y-12125600D01*
X12718667Y-12085600D02*
X12678667Y-12125600D01*
X13378667Y-9685600D02*
X13418667Y-9725600D01*
X13418667Y-9685600D02*
X13378667Y-9725600D01*
X13678667Y-13385600D02*
X13718667Y-13425600D01*
X13718667Y-13385600D02*
X13678667Y-13425600D01*
X13678667Y-13635600D02*
X13718667Y-13675600D01*
X13718667Y-13635600D02*
X13678667Y-13675600D01*
X14028667Y-12385600D02*
X14068667Y-12425600D01*
X14068667Y-12385600D02*
X14028667Y-12425600D01*
X14228667Y-13235600D02*
X14268667Y-13275600D01*
X14268667Y-13235600D02*
X14228667Y-13275600D01*
X14278667Y-12835600D02*
X14318667Y-12875600D01*
X14318667Y-12835600D02*
X14278667Y-12875600D01*
X14428667Y-12085600D02*
X14468667Y-12125600D01*
X14468667Y-12085600D02*
X14428667Y-12125600D01*
X14428667Y-12235600D02*
X14468667Y-12275600D01*
X14468667Y-12235600D02*
X14428667Y-12275600D01*
X14428667Y-12385600D02*
X14468667Y-12425600D01*
X14468667Y-12385600D02*
X14428667Y-12425600D01*
X14528667Y-12085600D02*
X14568667Y-12125600D01*
X14568667Y-12085600D02*
X14528667Y-12125600D01*
X14528667Y-12235600D02*
X14568667Y-12275600D01*
X14568667Y-12235600D02*
X14528667Y-12275600D01*
X14528667Y-12385600D02*
X14568667Y-12425600D01*
X14568667Y-12385600D02*
X14528667Y-12425600D01*
X14578667Y-13735600D02*
X14618667Y-13775600D01*
X14618667Y-13735600D02*
X14578667Y-13775600D01*
X14628667Y-12085600D02*
X14668667Y-12125600D01*
X14668667Y-12085600D02*
X14628667Y-12125600D01*
X14628667Y-12235600D02*
X14668667Y-12275600D01*
X14668667Y-12235600D02*
X14628667Y-12275600D01*
X14628667Y-12385600D02*
X14668667Y-12425600D01*
X14668667Y-12385600D02*
X14628667Y-12425600D01*
X14728667Y-13535600D02*
X14768667Y-13575600D01*
X14768667Y-13535600D02*
X14728667Y-13575600D01*
X14778667Y-12335600D02*
X14818667Y-12375600D01*
X14818667Y-12335600D02*
X14778667Y-12375600D01*
X14778667Y-13785600D02*
X14818667Y-13825600D01*
X14818667Y-13785600D02*
X14778667Y-13825600D01*
X14778667Y-14535600D02*
X14818667Y-14575600D01*
X14818667Y-14535600D02*
X14778667Y-14575600D01*
X14878667Y-12835600D02*
X14918667Y-12875600D01*
X14918667Y-12835600D02*
X14878667Y-12875600D01*
X14978667Y-9385600D02*
X15018667Y-9425600D01*
X15018667Y-9385600D02*
X14978667Y-9425600D01*
X14978667Y-9485600D02*
X15018667Y-9525600D01*
X15018667Y-9485600D02*
X14978667Y-9525600D01*
X14978667Y-9585600D02*
X15018667Y-9625600D01*
X15018667Y-9585600D02*
X14978667Y-9625600D01*
X14978667Y-9685600D02*
X15018667Y-9725600D01*
X15018667Y-9685600D02*
X14978667Y-9725600D01*
X14978667Y-9785600D02*
X15018667Y-9825600D01*
X15018667Y-9785600D02*
X14978667Y-9825600D01*
X14978667Y-9885600D02*
X15018667Y-9925600D01*
X15018667Y-9885600D02*
X14978667Y-9925600D01*
X14978667Y-9985600D02*
X15018667Y-10025600D01*
X15018667Y-9985600D02*
X14978667Y-10025600D01*
X15078667Y-9385600D02*
X15118667Y-9425600D01*
X15118667Y-9385600D02*
X15078667Y-9425600D01*
X15078667Y-9485600D02*
X15118667Y-9525600D01*
X15118667Y-9485600D02*
X15078667Y-9525600D01*
X15078667Y-9585600D02*
X15118667Y-9625600D01*
X15118667Y-9585600D02*
X15078667Y-9625600D01*
X15078667Y-9685600D02*
X15118667Y-9725600D01*
X15118667Y-9685600D02*
X15078667Y-9725600D01*
X15078667Y-9785600D02*
X15118667Y-9825600D01*
X15118667Y-9785600D02*
X15078667Y-9825600D01*
X15078667Y-9885600D02*
X15118667Y-9925600D01*
X15118667Y-9885600D02*
X15078667Y-9925600D01*
X15078667Y-9985600D02*
X15118667Y-10025600D01*
X15118667Y-9985600D02*
X15078667Y-10025600D01*
X15178667Y-9385600D02*
X15218667Y-9425600D01*
X15218667Y-9385600D02*
X15178667Y-9425600D01*
X15178667Y-9485600D02*
X15218667Y-9525600D01*
X15218667Y-9485600D02*
X15178667Y-9525600D01*
X15178667Y-9585600D02*
X15218667Y-9625600D01*
X15218667Y-9585600D02*
X15178667Y-9625600D01*
X15178667Y-9685600D02*
X15218667Y-9725600D01*
X15218667Y-9685600D02*
X15178667Y-9725600D01*
X15178667Y-9785600D02*
X15218667Y-9825600D01*
X15218667Y-9785600D02*
X15178667Y-9825600D01*
X15178667Y-9885600D02*
X15218667Y-9925600D01*
X15218667Y-9885600D02*
X15178667Y-9925600D01*
X15178667Y-9985600D02*
X15218667Y-10025600D01*
X15218667Y-9985600D02*
X15178667Y-10025600D01*
X15228667Y-12435600D02*
X15268667Y-12475600D01*
X15268667Y-12435600D02*
X15228667Y-12475600D01*
X15278667Y-9385600D02*
X15318667Y-9425600D01*
X15318667Y-9385600D02*
X15278667Y-9425600D01*
X15278667Y-9485600D02*
X15318667Y-9525600D01*
X15318667Y-9485600D02*
X15278667Y-9525600D01*
X15278667Y-9585600D02*
X15318667Y-9625600D01*
X15318667Y-9585600D02*
X15278667Y-9625600D01*
X15278667Y-9685600D02*
X15318667Y-9725600D01*
X15318667Y-9685600D02*
X15278667Y-9725600D01*
X15278667Y-9785600D02*
X15318667Y-9825600D01*
X15318667Y-9785600D02*
X15278667Y-9825600D01*
X15278667Y-9885600D02*
X15318667Y-9925600D01*
X15318667Y-9885600D02*
X15278667Y-9925600D01*
X15278667Y-9985600D02*
X15318667Y-10025600D01*
X15318667Y-9985600D02*
X15278667Y-10025600D01*
X15278667Y-12885600D02*
X15318667Y-12925600D01*
X15318667Y-12885600D02*
X15278667Y-12925600D01*
X15378667Y-9385600D02*
X15418667Y-9425600D01*
X15418667Y-9385600D02*
X15378667Y-9425600D01*
X15378667Y-9485600D02*
X15418667Y-9525600D01*
X15418667Y-9485600D02*
X15378667Y-9525600D01*
X15378667Y-9585600D02*
X15418667Y-9625600D01*
X15418667Y-9585600D02*
X15378667Y-9625600D01*
X15378667Y-9685600D02*
X15418667Y-9725600D01*
X15418667Y-9685600D02*
X15378667Y-9725600D01*
X15378667Y-9785600D02*
X15418667Y-9825600D01*
X15418667Y-9785600D02*
X15378667Y-9825600D01*
X15378667Y-9885600D02*
X15418667Y-9925600D01*
X15418667Y-9885600D02*
X15378667Y-9925600D01*
X15378667Y-9985600D02*
X15418667Y-10025600D01*
X15418667Y-9985600D02*
X15378667Y-10025600D01*
X15378667Y-12435600D02*
X15418667Y-12475600D01*
X15418667Y-12435600D02*
X15378667Y-12475600D01*
X15378667Y-12935600D02*
X15418667Y-12975600D01*
X15418667Y-12935600D02*
X15378667Y-12975600D01*
X15378667Y-13235600D02*
X15418667Y-13275600D01*
X15418667Y-13235600D02*
X15378667Y-13275600D01*
X15378667Y-13385600D02*
X15418667Y-13425600D01*
X15418667Y-13385600D02*
X15378667Y-13425600D01*
X15378667Y-13635600D02*
X15418667Y-13675600D01*
X15418667Y-13635600D02*
X15378667Y-13675600D01*
X15478667Y-12435600D02*
X15518667Y-12475600D01*
X15518667Y-12435600D02*
X15478667Y-12475600D01*
X15478667Y-12985600D02*
X15518667Y-13025600D01*
X15518667Y-12985600D02*
X15478667Y-13025600D01*
X15478667Y-14085600D02*
X15518667Y-14125600D01*
X15518667Y-14085600D02*
X15478667Y-14125600D01*
X15528667Y-11935600D02*
X15568667Y-11975600D01*
X15568667Y-11935600D02*
X15528667Y-11975600D01*
X15623667Y-14485600D02*
X15663667Y-14525600D01*
X15663667Y-14485600D02*
X15623667Y-14525600D01*
X15641167Y-13385600D02*
X15681167Y-13425600D01*
X15681167Y-13385600D02*
X15641167Y-13425600D01*
X15778667Y-13485600D02*
X15818667Y-13525600D01*
X15818667Y-13485600D02*
X15778667Y-13525600D01*
X15783667Y-12430600D02*
X15823667Y-12470600D01*
X15823667Y-12430600D02*
X15783667Y-12470600D01*
X15878667Y-13035600D02*
X15918667Y-13075600D01*
X15918667Y-13035600D02*
X15878667Y-13075600D01*
X15878667Y-13218100D02*
X15918667Y-13258100D01*
X15918667Y-13218100D02*
X15878667Y-13258100D01*
X15978667Y-13535600D02*
X16018667Y-13575600D01*
X16018667Y-13535600D02*
X15978667Y-13575600D01*
X16128667Y-11285600D02*
X16168667Y-11325600D01*
X16168667Y-11285600D02*
X16128667Y-11325600D01*
X16128667Y-11385600D02*
X16168667Y-11425600D01*
X16168667Y-11385600D02*
X16128667Y-11425600D01*
X16128667Y-11485600D02*
X16168667Y-11525600D01*
X16168667Y-11485600D02*
X16128667Y-11525600D01*
X16128667Y-11585600D02*
X16168667Y-11625600D01*
X16168667Y-11585600D02*
X16128667Y-11625600D01*
X16128667Y-11685600D02*
X16168667Y-11725600D01*
X16168667Y-11685600D02*
X16128667Y-11725600D01*
X16228667Y-11285600D02*
X16268667Y-11325600D01*
X16268667Y-11285600D02*
X16228667Y-11325600D01*
X16228667Y-11385600D02*
X16268667Y-11425600D01*
X16268667Y-11385600D02*
X16228667Y-11425600D01*
X16228667Y-11485600D02*
X16268667Y-11525600D01*
X16268667Y-11485600D02*
X16228667Y-11525600D01*
X16228667Y-11585600D02*
X16268667Y-11625600D01*
X16268667Y-11585600D02*
X16228667Y-11625600D01*
X16228667Y-11685600D02*
X16268667Y-11725600D01*
X16268667Y-11685600D02*
X16228667Y-11725600D01*
X16228667Y-12785600D02*
X16268667Y-12825600D01*
X16268667Y-12785600D02*
X16228667Y-12825600D01*
X16328667Y-11285600D02*
X16368667Y-11325600D01*
X16368667Y-11285600D02*
X16328667Y-11325600D01*
X16328667Y-11385600D02*
X16368667Y-11425600D01*
X16368667Y-11385600D02*
X16328667Y-11425600D01*
X16328667Y-11485600D02*
X16368667Y-11525600D01*
X16368667Y-11485600D02*
X16328667Y-11525600D01*
X16328667Y-11585600D02*
X16368667Y-11625600D01*
X16368667Y-11585600D02*
X16328667Y-11625600D01*
X16328667Y-11685600D02*
X16368667Y-11725600D01*
X16368667Y-11685600D02*
X16328667Y-11725600D01*
X16428667Y-11285600D02*
X16468667Y-11325600D01*
X16468667Y-11285600D02*
X16428667Y-11325600D01*
X16428667Y-11385600D02*
X16468667Y-11425600D01*
X16468667Y-11385600D02*
X16428667Y-11425600D01*
X16428667Y-11485600D02*
X16468667Y-11525600D01*
X16468667Y-11485600D02*
X16428667Y-11525600D01*
X16428667Y-11585600D02*
X16468667Y-11625600D01*
X16468667Y-11585600D02*
X16428667Y-11625600D01*
X16428667Y-11685600D02*
X16468667Y-11725600D01*
X16468667Y-11685600D02*
X16428667Y-11725600D01*
X16528667Y-11285600D02*
X16568667Y-11325600D01*
X16568667Y-11285600D02*
X16528667Y-11325600D01*
X16528667Y-11385600D02*
X16568667Y-11425600D01*
X16568667Y-11385600D02*
X16528667Y-11425600D01*
X16528667Y-11485600D02*
X16568667Y-11525600D01*
X16568667Y-11485600D02*
X16528667Y-11525600D01*
X16528667Y-11585600D02*
X16568667Y-11625600D01*
X16568667Y-11585600D02*
X16528667Y-11625600D01*
X16528667Y-11685600D02*
X16568667Y-11725600D01*
X16568667Y-11685600D02*
X16528667Y-11725600D01*
X16628667Y-11285600D02*
X16668667Y-11325600D01*
X16668667Y-11285600D02*
X16628667Y-11325600D01*
X16628667Y-11385600D02*
X16668667Y-11425600D01*
X16668667Y-11385600D02*
X16628667Y-11425600D01*
X16628667Y-11485600D02*
X16668667Y-11525600D01*
X16668667Y-11485600D02*
X16628667Y-11525600D01*
X16628667Y-11585600D02*
X16668667Y-11625600D01*
X16668667Y-11585600D02*
X16628667Y-11625600D01*
X16628667Y-11685600D02*
X16668667Y-11725600D01*
X16668667Y-11685600D02*
X16628667Y-11725600D01*
X16778667Y-11135600D02*
X16818667Y-11175600D01*
X16818667Y-11135600D02*
X16778667Y-11175600D01*
X16778667Y-11235600D02*
X16818667Y-11275600D01*
X16818667Y-11235600D02*
X16778667Y-11275600D01*
X16778667Y-11335600D02*
X16818667Y-11375600D01*
X16818667Y-11335600D02*
X16778667Y-11375600D01*
X16828667Y-11035600D02*
X16868667Y-11075600D01*
X16868667Y-11035600D02*
X16828667Y-11075600D01*
X16878667Y-11135600D02*
X16918667Y-11175600D01*
X16918667Y-11135600D02*
X16878667Y-11175600D01*
X16878667Y-11235600D02*
X16918667Y-11275600D01*
X16918667Y-11235600D02*
X16878667Y-11275600D01*
X16878667Y-11335600D02*
X16918667Y-11375600D01*
X16918667Y-11335600D02*
X16878667Y-11375600D01*
X16978667Y-11035600D02*
X17018667Y-11075600D01*
X17018667Y-11035600D02*
X16978667Y-11075600D01*
X16978667Y-11135600D02*
X17018667Y-11175600D01*
X17018667Y-11135600D02*
X16978667Y-11175600D01*
X16978667Y-11235600D02*
X17018667Y-11275600D01*
X17018667Y-11235600D02*
X16978667Y-11275600D01*
X16978667Y-11335600D02*
X17018667Y-11375600D01*
X17018667Y-11335600D02*
X16978667Y-11375600D01*
X16978667Y-11435600D02*
X17018667Y-11475600D01*
X17018667Y-11435600D02*
X16978667Y-11475600D01*
X17078667Y-11135600D02*
X17118667Y-11175600D01*
X17118667Y-11135600D02*
X17078667Y-11175600D01*
X17078667Y-11235600D02*
X17118667Y-11275600D01*
X17118667Y-11235600D02*
X17078667Y-11275600D01*
X17078667Y-11335600D02*
X17118667Y-11375600D01*
X17118667Y-11335600D02*
X17078667Y-11375600D01*
X17128667Y-11035600D02*
X17168667Y-11075600D01*
X17168667Y-11035600D02*
X17128667Y-11075600D01*
X17128667Y-14335600D02*
X17168667Y-14375600D01*
X17168667Y-14335600D02*
X17128667Y-14375600D01*
X17178667Y-11135600D02*
X17218667Y-11175600D01*
X17218667Y-11135600D02*
X17178667Y-11175600D01*
X17178667Y-11235600D02*
X17218667Y-11275600D01*
X17218667Y-11235600D02*
X17178667Y-11275600D01*
X17178667Y-11335600D02*
X17218667Y-11375600D01*
X17218667Y-11335600D02*
X17178667Y-11375600D01*
X17183667Y-13090600D02*
X17223667Y-13130600D01*
X17223667Y-13090600D02*
X17183667Y-13130600D01*
X17228667Y-11585600D02*
X17268667Y-11625600D01*
X17268667Y-11585600D02*
X17228667Y-11625600D01*
X17377667Y-13089600D02*
X17417667Y-13129600D01*
X17417667Y-13089600D02*
X17377667Y-13129600D01*
X17378667Y-11835600D02*
X17418667Y-11875600D01*
X17418667Y-11835600D02*
X17378667Y-11875600D01*
X17578667Y-12685600D02*
X17618667Y-12725600D01*
X17618667Y-12685600D02*
X17578667Y-12725600D01*
X17578667Y-13935600D02*
X17618667Y-13975600D01*
X17618667Y-13935600D02*
X17578667Y-13975600D01*
X17578667Y-14235600D02*
X17618667Y-14275600D01*
X17618667Y-14235600D02*
X17578667Y-14275600D01*
X17678667Y-9485600D02*
X17718667Y-9525600D01*
X17718667Y-9485600D02*
X17678667Y-9525600D01*
X17828667Y-12485600D02*
X17868667Y-12525600D01*
X17868667Y-12485600D02*
X17828667Y-12525600D01*
X18328667Y-12485600D02*
X18368667Y-12525600D01*
X18368667Y-12485600D02*
X18328667Y-12525600D01*
X18428667Y-12575600D02*
X18468667Y-12615600D01*
X18468667Y-12575600D02*
X18428667Y-12615600D01*
X19478667Y-12485600D02*
X19518667Y-12525600D01*
X19518667Y-12485600D02*
X19478667Y-12525600D01*
X20228667Y-13235600D02*
X20268667Y-13275600D01*
X20268667Y-13235600D02*
X20228667Y-13275600D01*
X20278667Y-12685600D02*
X20318667Y-12725600D01*
X20318667Y-12685600D02*
X20278667Y-12725600D01*
X20278667Y-12785600D02*
X20318667Y-12825600D01*
X20318667Y-12785600D02*
X20278667Y-12825600D01*
X20278667Y-12885600D02*
X20318667Y-12925600D01*
X20318667Y-12885600D02*
X20278667Y-12925600D01*
X20278667Y-12985600D02*
X20318667Y-13025600D01*
X20318667Y-12985600D02*
X20278667Y-13025600D01*
X20378667Y-12685600D02*
X20418667Y-12725600D01*
X20418667Y-12685600D02*
X20378667Y-12725600D01*
X20378667Y-12785600D02*
X20418667Y-12825600D01*
X20418667Y-12785600D02*
X20378667Y-12825600D01*
X20378667Y-12885600D02*
X20418667Y-12925600D01*
X20418667Y-12885600D02*
X20378667Y-12925600D01*
X20378667Y-12985600D02*
X20418667Y-13025600D01*
X20418667Y-12985600D02*
X20378667Y-13025600D01*
X20478667Y-12685600D02*
X20518667Y-12725600D01*
X20518667Y-12685600D02*
X20478667Y-12725600D01*
X20478667Y-12785600D02*
X20518667Y-12825600D01*
X20518667Y-12785600D02*
X20478667Y-12825600D01*
X20478667Y-12885600D02*
X20518667Y-12925600D01*
X20518667Y-12885600D02*
X20478667Y-12925600D01*
X20478667Y-12985600D02*
X20518667Y-13025600D01*
X20518667Y-12985600D02*
X20478667Y-13025600D01*
X20578667Y-12685600D02*
X20618667Y-12725600D01*
X20618667Y-12685600D02*
X20578667Y-12725600D01*
X20578667Y-12785600D02*
X20618667Y-12825600D01*
X20618667Y-12785600D02*
X20578667Y-12825600D01*
X20578667Y-12885600D02*
X20618667Y-12925600D01*
X20618667Y-12885600D02*
X20578667Y-12925600D01*
X20578667Y-12985600D02*
X20618667Y-13025600D01*
X20618667Y-12985600D02*
X20578667Y-13025600D01*
X20678667Y-12685600D02*
X20718667Y-12725600D01*
X20718667Y-12685600D02*
X20678667Y-12725600D01*
X20678667Y-12785600D02*
X20718667Y-12825600D01*
X20718667Y-12785600D02*
X20678667Y-12825600D01*
X20678667Y-12885600D02*
X20718667Y-12925600D01*
X20718667Y-12885600D02*
X20678667Y-12925600D01*
X20678667Y-12985600D02*
X20718667Y-13025600D01*
X20718667Y-12985600D02*
X20678667Y-13025600D01*
X20828667Y-12085600D02*
X20868667Y-12125600D01*
X20868667Y-12085600D02*
X20828667Y-12125600D01*
X20828667Y-12185600D02*
X20868667Y-12225600D01*
X20868667Y-12185600D02*
X20828667Y-12225600D01*
X20928667Y-11985600D02*
X20968667Y-12025600D01*
X20968667Y-11985600D02*
X20928667Y-12025600D01*
X20928667Y-12085600D02*
X20968667Y-12125600D01*
X20968667Y-12085600D02*
X20928667Y-12125600D01*
X20928667Y-12185600D02*
X20968667Y-12225600D01*
X20968667Y-12185600D02*
X20928667Y-12225600D01*
X20928667Y-12285600D02*
X20968667Y-12325600D01*
X20968667Y-12285600D02*
X20928667Y-12325600D01*
X21028667Y-11885600D02*
X21068667Y-11925600D01*
X21068667Y-11885600D02*
X21028667Y-11925600D01*
X21028667Y-11985600D02*
X21068667Y-12025600D01*
X21068667Y-11985600D02*
X21028667Y-12025600D01*
X21028667Y-12085600D02*
X21068667Y-12125600D01*
X21068667Y-12085600D02*
X21028667Y-12125600D01*
X21028667Y-12185600D02*
X21068667Y-12225600D01*
X21068667Y-12185600D02*
X21028667Y-12225600D01*
X21028667Y-12285600D02*
X21068667Y-12325600D01*
X21068667Y-12285600D02*
X21028667Y-12325600D01*
X21128667Y-11985600D02*
X21168667Y-12025600D01*
X21168667Y-11985600D02*
X21128667Y-12025600D01*
X21128667Y-12085600D02*
X21168667Y-12125600D01*
X21168667Y-12085600D02*
X21128667Y-12125600D01*
X21128667Y-12185600D02*
X21168667Y-12225600D01*
X21168667Y-12185600D02*
X21128667Y-12225600D01*
X21128667Y-12285600D02*
X21168667Y-12325600D01*
X21168667Y-12285600D02*
X21128667Y-12325600D01*
X21228667Y-12085600D02*
X21268667Y-12125600D01*
X21268667Y-12085600D02*
X21228667Y-12125600D01*
X21228667Y-12185600D02*
X21268667Y-12225600D01*
X21268667Y-12185600D02*
X21228667Y-12225600D01*
X21528667Y-13235600D02*
X21568667Y-13275600D01*
X21568667Y-13235600D02*
X21528667Y-13275600D01*
X14538667Y-10855600D02*
G75*
G02*
X14458667Y-10855600I-40000J0D01*
G01*
X14458667Y-10855600D02*
G75*
G02*
X14538667Y-10855600I40000J0D01*
G01*
X15438667Y-11105600D02*
G75*
G02*
X15358667Y-11105600I-40000J0D01*
G01*
X15358667Y-11105600D02*
G75*
G02*
X15438667Y-11105600I40000J0D01*
G01*
X19988667Y-9105600D02*
G75*
G02*
X19908667Y-9105600I-40000J0D01*
G01*
X19908667Y-9105600D02*
G75*
G02*
X19988667Y-9105600I40000J0D01*
G01*
X13898667Y-14100600D02*
X13898667Y-14180600D01*
X13858667Y-14140600D02*
X13938667Y-14140600D01*
X13898667Y-14730600D02*
X13898667Y-14810600D01*
X13858667Y-14770600D02*
X13938667Y-14770600D01*
X10081547Y-9738481D02*
X10081547Y-9672719D01*
X10015786Y-9672719D01*
X10015786Y-9738481D01*
X10081547Y-9738481D01*
X10281547Y-9738481D02*
X10281547Y-9672719D01*
X10215786Y-9672719D01*
X10215786Y-9738481D01*
X10281547Y-9738481D01*
X10481547Y-9738481D02*
X10481547Y-9672719D01*
X10415786Y-9672719D01*
X10415786Y-9738481D01*
X10481547Y-9738481D01*
X10681547Y-9738481D02*
X10681547Y-9672719D01*
X10615786Y-9672719D01*
X10615786Y-9738481D01*
X10681547Y-9738481D01*
X9748667Y-12005600D02*
X9798667Y-11955600D01*
X9748667Y-11905600D01*
X9698667Y-11955600D01*
X9748667Y-12005600D01*
X11748667Y-9755600D02*
X11798667Y-9705600D01*
X11748667Y-9655600D01*
X11698667Y-9705600D01*
X11748667Y-9755600D01*
X11748667Y-14005600D02*
X11798667Y-13955600D01*
X11748667Y-13905600D01*
X11698667Y-13955600D01*
X11748667Y-14005600D01*
X13398667Y-12501600D02*
X13448667Y-12451600D01*
X13398667Y-12401600D01*
X13348667Y-12451600D01*
X13398667Y-12501600D01*
X13398667Y-12755600D02*
X13448667Y-12705600D01*
X13398667Y-12655600D01*
X13348667Y-12705600D01*
X13398667Y-12755600D01*
X13398667Y-13009600D02*
X13448667Y-12959600D01*
X13398667Y-12909600D01*
X13348667Y-12959600D01*
X13398667Y-13009600D01*
X13496167Y-11605600D02*
X13546167Y-11555600D01*
X13496167Y-11505600D01*
X13446167Y-11555600D01*
X13496167Y-11605600D01*
X13496167Y-11855600D02*
X13546167Y-11805600D01*
X13496167Y-11755600D01*
X13446167Y-11805600D01*
X13496167Y-11855600D01*
X13598667Y-14280600D02*
X13648667Y-14230600D01*
X13598667Y-14180600D01*
X13548667Y-14230600D01*
X13598667Y-14280600D01*
X13598667Y-14730600D02*
X13648667Y-14680600D01*
X13598667Y-14630600D01*
X13548667Y-14680600D01*
X13598667Y-14730600D01*
X14198667Y-14280600D02*
X14248667Y-14230600D01*
X14198667Y-14180600D01*
X14148667Y-14230600D01*
X14198667Y-14280600D01*
X14198667Y-14730600D02*
X14248667Y-14680600D01*
X14198667Y-14630600D01*
X14148667Y-14680600D01*
X14198667Y-14730600D01*
X14298667Y-9155600D02*
X14348667Y-9105600D01*
X14298667Y-9055600D01*
X14248667Y-9105600D01*
X14298667Y-9155600D01*
X14598667Y-12755600D02*
X14648667Y-12705600D01*
X14598667Y-12655600D01*
X14548667Y-12705600D01*
X14598667Y-12755600D01*
X14598667Y-13255600D02*
X14648667Y-13205600D01*
X14598667Y-13155600D01*
X14548667Y-13205600D01*
X14598667Y-13255600D01*
X15148667Y-14855600D02*
X15198667Y-14805600D01*
X15148667Y-14755600D01*
X15098667Y-14805600D01*
X15148667Y-14855600D01*
X16548667Y-12255600D02*
X16598667Y-12205600D01*
X16548667Y-12155600D01*
X16498667Y-12205600D01*
X16548667Y-12255600D01*
X16698667Y-9705600D02*
X16748667Y-9655600D01*
X16698667Y-9605600D01*
X16648667Y-9655600D01*
X16698667Y-9705600D01*
X16698667Y-14855600D02*
X16748667Y-14805600D01*
X16698667Y-14755600D01*
X16648667Y-14805600D01*
X16698667Y-14855600D01*
X17948667Y-11655600D02*
X17998667Y-11605600D01*
X17948667Y-11555600D01*
X17898667Y-11605600D01*
X17948667Y-11655600D01*
X17998667Y-14303100D02*
X18048667Y-14253100D01*
X17998667Y-14203100D01*
X17948667Y-14253100D01*
X17998667Y-14303100D01*
X17998667Y-14557100D02*
X18048667Y-14507100D01*
X17998667Y-14457100D01*
X17948667Y-14507100D01*
X17998667Y-14557100D01*
X17998667Y-14811100D02*
X18048667Y-14761100D01*
X17998667Y-14711100D01*
X17948667Y-14761100D01*
X17998667Y-14811100D01*
X19498667Y-14005600D02*
X19548667Y-13955600D01*
X19498667Y-13905600D01*
X19448667Y-13955600D01*
X19498667Y-14005600D01*
X20773667Y-9553100D02*
X20823667Y-9503100D01*
X20773667Y-9453100D01*
X20723667Y-9503100D01*
X20773667Y-9553100D01*
X21023667Y-9553100D02*
X21073667Y-9503100D01*
X21023667Y-9453100D01*
X20973667Y-9503100D01*
X21023667Y-9553100D01*
X21498667Y-11455600D02*
X21548667Y-11405600D01*
X21498667Y-11355600D01*
X21448667Y-11405600D01*
X21498667Y-11455600D01*
D14*
X11666167Y-14303100D02*
X11771167Y-14408100D01*
X11771167Y-14303100D02*
X11666167Y-14408100D01*
X11771167Y-14355600D02*
G75*
G02*
X11666167Y-14355600I-52500J0D01*
G01*
X11666167Y-14355600D02*
G75*
G02*
X11771167Y-14355600I52500J0D01*
G01*
X11866167Y-14303100D02*
X11971167Y-14408100D01*
X11971167Y-14303100D02*
X11866167Y-14408100D01*
X11971167Y-14355600D02*
G75*
G02*
X11866167Y-14355600I-52500J0D01*
G01*
X11866167Y-14355600D02*
G75*
G02*
X11971167Y-14355600I52500J0D01*
G01*
X12066167Y-14303100D02*
X12171167Y-14408100D01*
X12171167Y-14303100D02*
X12066167Y-14408100D01*
X12171167Y-14355600D02*
G75*
G02*
X12066167Y-14355600I-52500J0D01*
G01*
X12066167Y-14355600D02*
G75*
G02*
X12171167Y-14355600I52500J0D01*
G01*
X12266167Y-14303100D02*
X12371167Y-14408100D01*
X12371167Y-14303100D02*
X12266167Y-14408100D01*
X12371167Y-14355600D02*
G75*
G02*
X12266167Y-14355600I-52500J0D01*
G01*
X12266167Y-14355600D02*
G75*
G02*
X12371167Y-14355600I52500J0D01*
G01*
X12466167Y-14303100D02*
X12571167Y-14408100D01*
X12571167Y-14303100D02*
X12466167Y-14408100D01*
X12571167Y-14355600D02*
G75*
G02*
X12466167Y-14355600I-52500J0D01*
G01*
X12466167Y-14355600D02*
G75*
G02*
X12571167Y-14355600I52500J0D01*
G01*
X18746167Y-14303100D02*
X18851167Y-14408100D01*
X18851167Y-14303100D02*
X18746167Y-14408100D01*
X18851167Y-14355600D02*
G75*
G02*
X18746167Y-14355600I-52500J0D01*
G01*
X18746167Y-14355600D02*
G75*
G02*
X18851167Y-14355600I52500J0D01*
G01*
X18946167Y-14303100D02*
X19051167Y-14408100D01*
X19051167Y-14303100D02*
X18946167Y-14408100D01*
X19051167Y-14355600D02*
G75*
G02*
X18946167Y-14355600I-52500J0D01*
G01*
X18946167Y-14355600D02*
G75*
G02*
X19051167Y-14355600I52500J0D01*
G01*
X19146167Y-14303100D02*
X19251167Y-14408100D01*
X19251167Y-14303100D02*
X19146167Y-14408100D01*
X19251167Y-14355600D02*
G75*
G02*
X19146167Y-14355600I-52500J0D01*
G01*
X19146167Y-14355600D02*
G75*
G02*
X19251167Y-14355600I52500J0D01*
G01*
X19346167Y-14303100D02*
X19451167Y-14408100D01*
X19451167Y-14303100D02*
X19346167Y-14408100D01*
X19451167Y-14355600D02*
G75*
G02*
X19346167Y-14355600I-52500J0D01*
G01*
X19346167Y-14355600D02*
G75*
G02*
X19451167Y-14355600I52500J0D01*
G01*
X19546167Y-14303100D02*
X19651167Y-14408100D01*
X19651167Y-14303100D02*
X19546167Y-14408100D01*
X19651167Y-14355600D02*
G75*
G02*
X19546167Y-14355600I-52500J0D01*
G01*
X19546167Y-14355600D02*
G75*
G02*
X19651167Y-14355600I52500J0D01*
G01*
D15*
X16833667Y-9100600D02*
X16943667Y-9210600D01*
X16943667Y-9100600D02*
X16833667Y-9210600D01*
X16888667Y-9100600D02*
X16888667Y-9210600D01*
X16833667Y-9155600D02*
X16943667Y-9155600D01*
X17313667Y-9100600D02*
X17423667Y-9210600D01*
X17423667Y-9100600D02*
X17313667Y-9210600D01*
X17368667Y-9100600D02*
X17368667Y-9210600D01*
X17313667Y-9155600D02*
X17423667Y-9155600D01*
X17793667Y-9100600D02*
X17903667Y-9210600D01*
X17903667Y-9100600D02*
X17793667Y-9210600D01*
X17848667Y-9100600D02*
X17848667Y-9210600D01*
X17793667Y-9155600D02*
X17903667Y-9155600D01*
D16*
X14029167Y-9896100D02*
X14140167Y-10007100D01*
X14140167Y-9896100D02*
X14029167Y-10007100D01*
X14123911Y-9990845D02*
X14123911Y-9912355D01*
X14045422Y-9912355D01*
X14045422Y-9990845D01*
X14123911Y-9990845D01*
X14029167Y-10150100D02*
X14140167Y-10261100D01*
X14140167Y-10150100D02*
X14029167Y-10261100D01*
X14123911Y-10244845D02*
X14123911Y-10166355D01*
X14045422Y-10166355D01*
X14045422Y-10244845D01*
X14123911Y-10244845D01*
X14029167Y-10404100D02*
X14140167Y-10515100D01*
X14140167Y-10404100D02*
X14029167Y-10515100D01*
X14123911Y-10498845D02*
X14123911Y-10420355D01*
X14045422Y-10420355D01*
X14045422Y-10498845D01*
X14123911Y-10498845D01*
X17093167Y-9946100D02*
X17204167Y-10057100D01*
X17204167Y-9946100D02*
X17093167Y-10057100D01*
X17187911Y-10040845D02*
X17187911Y-9962355D01*
X17109422Y-9962355D01*
X17109422Y-10040845D01*
X17187911Y-10040845D01*
X17093167Y-10200100D02*
X17204167Y-10311100D01*
X17204167Y-10200100D02*
X17093167Y-10311100D01*
X17187911Y-10294845D02*
X17187911Y-10216355D01*
X17109422Y-10216355D01*
X17109422Y-10294845D01*
X17187911Y-10294845D01*
X17093167Y-10454100D02*
X17204167Y-10565100D01*
X17204167Y-10454100D02*
X17093167Y-10565100D01*
X17187911Y-10548845D02*
X17187911Y-10470355D01*
X17109422Y-10470355D01*
X17109422Y-10548845D01*
X17187911Y-10548845D01*
D17*
X15018667Y-10355600D02*
X15178667Y-10515600D01*
X15178667Y-10355600D02*
X15018667Y-10515600D01*
X15098667Y-10515600D02*
X15178667Y-10435600D01*
X15098667Y-10355600D01*
X15018667Y-10435600D01*
X15098667Y-10515600D01*
X15018667Y-10695600D02*
X15178667Y-10855600D01*
X15178667Y-10695600D02*
X15018667Y-10855600D01*
X15098667Y-10855600D02*
X15178667Y-10775600D01*
X15098667Y-10695600D01*
X15018667Y-10775600D01*
X15098667Y-10855600D01*
X16010667Y-10355600D02*
X16170667Y-10515600D01*
X16170667Y-10355600D02*
X16010667Y-10515600D01*
X16090667Y-10515600D02*
X16170667Y-10435600D01*
X16090667Y-10355600D01*
X16010667Y-10435600D01*
X16090667Y-10515600D01*
X16010667Y-10695600D02*
X16170667Y-10855600D01*
X16170667Y-10695600D02*
X16010667Y-10855600D01*
X16090667Y-10855600D02*
X16170667Y-10775600D01*
X16090667Y-10695600D01*
X16010667Y-10775600D01*
X16090667Y-10855600D01*
D18*
X10100667Y-13543100D02*
X10100667Y-13713100D01*
X10015667Y-13628100D02*
X10185667Y-13628100D01*
X10185667Y-13628100D02*
G75*
G02*
X10015667Y-13628100I-85000J0D01*
G01*
X10015667Y-13628100D02*
G75*
G02*
X10185667Y-13628100I85000J0D01*
G01*
X10496667Y-13543100D02*
X10496667Y-13713100D01*
X10411667Y-13628100D02*
X10581667Y-13628100D01*
X10581667Y-13628100D02*
G75*
G02*
X10411667Y-13628100I-85000J0D01*
G01*
X10411667Y-13628100D02*
G75*
G02*
X10581667Y-13628100I85000J0D01*
G01*
X20700667Y-13543100D02*
X20700667Y-13713100D01*
X20615667Y-13628100D02*
X20785667Y-13628100D01*
X20785667Y-13628100D02*
G75*
G02*
X20615667Y-13628100I-85000J0D01*
G01*
X20615667Y-13628100D02*
G75*
G02*
X20785667Y-13628100I85000J0D01*
G01*
X21096667Y-13543100D02*
X21096667Y-13713100D01*
X21011667Y-13628100D02*
X21181667Y-13628100D01*
X21181667Y-13628100D02*
G75*
G02*
X21011667Y-13628100I-85000J0D01*
G01*
X21011667Y-13628100D02*
G75*
G02*
X21181667Y-13628100I85000J0D01*
G01*
D12*
X9651940Y-15324584D02*
X9651940Y-15124584D01*
X9651940Y-15124584D02*
X9699559Y-15124584D01*
X9699559Y-15124584D02*
X9728131Y-15134108D01*
X9728131Y-15134108D02*
X9747178Y-15153155D01*
X9747178Y-15153155D02*
X9756702Y-15172203D01*
X9756702Y-15172203D02*
X9766226Y-15210298D01*
X9766226Y-15210298D02*
X9766226Y-15238869D01*
X9766226Y-15238869D02*
X9756702Y-15276965D01*
X9756702Y-15276965D02*
X9747178Y-15296012D01*
X9747178Y-15296012D02*
X9728131Y-15315060D01*
X9728131Y-15315060D02*
X9699559Y-15324584D01*
X9699559Y-15324584D02*
X9651940Y-15324584D01*
X9851940Y-15324584D02*
X9851940Y-15191250D01*
X9851940Y-15229346D02*
X9861464Y-15210298D01*
X9861464Y-15210298D02*
X9870988Y-15200774D01*
X9870988Y-15200774D02*
X9890035Y-15191250D01*
X9890035Y-15191250D02*
X9909083Y-15191250D01*
X9975750Y-15324584D02*
X9975750Y-15191250D01*
X9975750Y-15124584D02*
X9966226Y-15134108D01*
X9966226Y-15134108D02*
X9975750Y-15143631D01*
X9975750Y-15143631D02*
X9985273Y-15134108D01*
X9985273Y-15134108D02*
X9975750Y-15124584D01*
X9975750Y-15124584D02*
X9975750Y-15143631D01*
X10099559Y-15324584D02*
X10080511Y-15315060D01*
X10080511Y-15315060D02*
X10070988Y-15296012D01*
X10070988Y-15296012D02*
X10070988Y-15124584D01*
X10204321Y-15324584D02*
X10185273Y-15315060D01*
X10185273Y-15315060D02*
X10175750Y-15296012D01*
X10175750Y-15296012D02*
X10175750Y-15124584D01*
X10432892Y-15324584D02*
X10432892Y-15124584D01*
X10432892Y-15124584D02*
X10499559Y-15267441D01*
X10499559Y-15267441D02*
X10566226Y-15124584D01*
X10566226Y-15124584D02*
X10566226Y-15324584D01*
X10747178Y-15324584D02*
X10747178Y-15219822D01*
X10747178Y-15219822D02*
X10737654Y-15200774D01*
X10737654Y-15200774D02*
X10718607Y-15191250D01*
X10718607Y-15191250D02*
X10680511Y-15191250D01*
X10680511Y-15191250D02*
X10661464Y-15200774D01*
X10747178Y-15315060D02*
X10728131Y-15324584D01*
X10728131Y-15324584D02*
X10680511Y-15324584D01*
X10680511Y-15324584D02*
X10661464Y-15315060D01*
X10661464Y-15315060D02*
X10651940Y-15296012D01*
X10651940Y-15296012D02*
X10651940Y-15276965D01*
X10651940Y-15276965D02*
X10661464Y-15257917D01*
X10661464Y-15257917D02*
X10680511Y-15248393D01*
X10680511Y-15248393D02*
X10728131Y-15248393D01*
X10728131Y-15248393D02*
X10747178Y-15238869D01*
X10842416Y-15191250D02*
X10842416Y-15391250D01*
X10842416Y-15200774D02*
X10861464Y-15191250D01*
X10861464Y-15191250D02*
X10899559Y-15191250D01*
X10899559Y-15191250D02*
X10918607Y-15200774D01*
X10918607Y-15200774D02*
X10928131Y-15210298D01*
X10928131Y-15210298D02*
X10937654Y-15229346D01*
X10937654Y-15229346D02*
X10937654Y-15286488D01*
X10937654Y-15286488D02*
X10928131Y-15305536D01*
X10928131Y-15305536D02*
X10918607Y-15315060D01*
X10918607Y-15315060D02*
X10899559Y-15324584D01*
X10899559Y-15324584D02*
X10861464Y-15324584D01*
X10861464Y-15324584D02*
X10842416Y-15315060D01*
X11023369Y-15305536D02*
X11032892Y-15315060D01*
X11032892Y-15315060D02*
X11023369Y-15324584D01*
X11023369Y-15324584D02*
X11013845Y-15315060D01*
X11013845Y-15315060D02*
X11023369Y-15305536D01*
X11023369Y-15305536D02*
X11023369Y-15324584D01*
X11023369Y-15200774D02*
X11032892Y-15210298D01*
X11032892Y-15210298D02*
X11023369Y-15219822D01*
X11023369Y-15219822D02*
X11013845Y-15210298D01*
X11013845Y-15210298D02*
X11023369Y-15200774D01*
X11023369Y-15200774D02*
X11023369Y-15219822D01*
D13*
X9351163Y-15633100D02*
X9391163Y-15673100D01*
X9391163Y-15633100D02*
X9351163Y-15673100D01*
D12*
X9690035Y-15544584D02*
X9709083Y-15544584D01*
X9709083Y-15544584D02*
X9728131Y-15554108D01*
X9728131Y-15554108D02*
X9737654Y-15563631D01*
X9737654Y-15563631D02*
X9747178Y-15582679D01*
X9747178Y-15582679D02*
X9756702Y-15620774D01*
X9756702Y-15620774D02*
X9756702Y-15668393D01*
X9756702Y-15668393D02*
X9747178Y-15706488D01*
X9747178Y-15706488D02*
X9737654Y-15725536D01*
X9737654Y-15725536D02*
X9728131Y-15735060D01*
X9728131Y-15735060D02*
X9709083Y-15744584D01*
X9709083Y-15744584D02*
X9690035Y-15744584D01*
X9690035Y-15744584D02*
X9670988Y-15735060D01*
X9670988Y-15735060D02*
X9661464Y-15725536D01*
X9661464Y-15725536D02*
X9651940Y-15706488D01*
X9651940Y-15706488D02*
X9642416Y-15668393D01*
X9642416Y-15668393D02*
X9642416Y-15620774D01*
X9642416Y-15620774D02*
X9651940Y-15582679D01*
X9651940Y-15582679D02*
X9661464Y-15563631D01*
X9661464Y-15563631D02*
X9670988Y-15554108D01*
X9670988Y-15554108D02*
X9690035Y-15544584D01*
X9842416Y-15725536D02*
X9851940Y-15735060D01*
X9851940Y-15735060D02*
X9842416Y-15744584D01*
X9842416Y-15744584D02*
X9832892Y-15735060D01*
X9832892Y-15735060D02*
X9842416Y-15725536D01*
X9842416Y-15725536D02*
X9842416Y-15744584D01*
X10023369Y-15611250D02*
X10023369Y-15744584D01*
X9975750Y-15535060D02*
X9928131Y-15677917D01*
X9928131Y-15677917D02*
X10051940Y-15677917D01*
X10166226Y-15544584D02*
X10185273Y-15544584D01*
X10185273Y-15544584D02*
X10204321Y-15554108D01*
X10204321Y-15554108D02*
X10213845Y-15563631D01*
X10213845Y-15563631D02*
X10223369Y-15582679D01*
X10223369Y-15582679D02*
X10232892Y-15620774D01*
X10232892Y-15620774D02*
X10232892Y-15668393D01*
X10232892Y-15668393D02*
X10223369Y-15706488D01*
X10223369Y-15706488D02*
X10213845Y-15725536D01*
X10213845Y-15725536D02*
X10204321Y-15735060D01*
X10204321Y-15735060D02*
X10185273Y-15744584D01*
X10185273Y-15744584D02*
X10166226Y-15744584D01*
X10166226Y-15744584D02*
X10147178Y-15735060D01*
X10147178Y-15735060D02*
X10137654Y-15725536D01*
X10137654Y-15725536D02*
X10128131Y-15706488D01*
X10128131Y-15706488D02*
X10118607Y-15668393D01*
X10118607Y-15668393D02*
X10118607Y-15620774D01*
X10118607Y-15620774D02*
X10128131Y-15582679D01*
X10128131Y-15582679D02*
X10137654Y-15563631D01*
X10137654Y-15563631D02*
X10147178Y-15554108D01*
X10147178Y-15554108D02*
X10166226Y-15544584D01*
X10356702Y-15544584D02*
X10375750Y-15544584D01*
X10375750Y-15544584D02*
X10394797Y-15554108D01*
X10394797Y-15554108D02*
X10404321Y-15563631D01*
X10404321Y-15563631D02*
X10413845Y-15582679D01*
X10413845Y-15582679D02*
X10423369Y-15620774D01*
X10423369Y-15620774D02*
X10423369Y-15668393D01*
X10423369Y-15668393D02*
X10413845Y-15706488D01*
X10413845Y-15706488D02*
X10404321Y-15725536D01*
X10404321Y-15725536D02*
X10394797Y-15735060D01*
X10394797Y-15735060D02*
X10375750Y-15744584D01*
X10375750Y-15744584D02*
X10356702Y-15744584D01*
X10356702Y-15744584D02*
X10337654Y-15735060D01*
X10337654Y-15735060D02*
X10328131Y-15725536D01*
X10328131Y-15725536D02*
X10318607Y-15706488D01*
X10318607Y-15706488D02*
X10309083Y-15668393D01*
X10309083Y-15668393D02*
X10309083Y-15620774D01*
X10309083Y-15620774D02*
X10318607Y-15582679D01*
X10318607Y-15582679D02*
X10328131Y-15563631D01*
X10328131Y-15563631D02*
X10337654Y-15554108D01*
X10337654Y-15554108D02*
X10356702Y-15544584D01*
X10509083Y-15744584D02*
X10509083Y-15611250D01*
X10509083Y-15630298D02*
X10518607Y-15620774D01*
X10518607Y-15620774D02*
X10537654Y-15611250D01*
X10537654Y-15611250D02*
X10566226Y-15611250D01*
X10566226Y-15611250D02*
X10585273Y-15620774D01*
X10585273Y-15620774D02*
X10594797Y-15639822D01*
X10594797Y-15639822D02*
X10594797Y-15744584D01*
X10594797Y-15639822D02*
X10604321Y-15620774D01*
X10604321Y-15620774D02*
X10623369Y-15611250D01*
X10623369Y-15611250D02*
X10651940Y-15611250D01*
X10651940Y-15611250D02*
X10670988Y-15620774D01*
X10670988Y-15620774D02*
X10680512Y-15639822D01*
X10680512Y-15639822D02*
X10680512Y-15744584D01*
X10775750Y-15744584D02*
X10775750Y-15611250D01*
X10775750Y-15630298D02*
X10785273Y-15620774D01*
X10785273Y-15620774D02*
X10804321Y-15611250D01*
X10804321Y-15611250D02*
X10832893Y-15611250D01*
X10832893Y-15611250D02*
X10851940Y-15620774D01*
X10851940Y-15620774D02*
X10861464Y-15639822D01*
X10861464Y-15639822D02*
X10861464Y-15744584D01*
X10861464Y-15639822D02*
X10870988Y-15620774D01*
X10870988Y-15620774D02*
X10890035Y-15611250D01*
X10890035Y-15611250D02*
X10918607Y-15611250D01*
X10918607Y-15611250D02*
X10937654Y-15620774D01*
X10937654Y-15620774D02*
X10947178Y-15639822D01*
X10947178Y-15639822D02*
X10947178Y-15744584D01*
X11337654Y-15535060D02*
X11166226Y-15792203D01*
X11594797Y-15544584D02*
X11613845Y-15544584D01*
X11613845Y-15544584D02*
X11632893Y-15554108D01*
X11632893Y-15554108D02*
X11642416Y-15563631D01*
X11642416Y-15563631D02*
X11651940Y-15582679D01*
X11651940Y-15582679D02*
X11661464Y-15620774D01*
X11661464Y-15620774D02*
X11661464Y-15668393D01*
X11661464Y-15668393D02*
X11651940Y-15706488D01*
X11651940Y-15706488D02*
X11642416Y-15725536D01*
X11642416Y-15725536D02*
X11632893Y-15735060D01*
X11632893Y-15735060D02*
X11613845Y-15744584D01*
X11613845Y-15744584D02*
X11594797Y-15744584D01*
X11594797Y-15744584D02*
X11575750Y-15735060D01*
X11575750Y-15735060D02*
X11566226Y-15725536D01*
X11566226Y-15725536D02*
X11556702Y-15706488D01*
X11556702Y-15706488D02*
X11547178Y-15668393D01*
X11547178Y-15668393D02*
X11547178Y-15620774D01*
X11547178Y-15620774D02*
X11556702Y-15582679D01*
X11556702Y-15582679D02*
X11566226Y-15563631D01*
X11566226Y-15563631D02*
X11575750Y-15554108D01*
X11575750Y-15554108D02*
X11594797Y-15544584D01*
X11747178Y-15725536D02*
X11756702Y-15735060D01*
X11756702Y-15735060D02*
X11747178Y-15744584D01*
X11747178Y-15744584D02*
X11737654Y-15735060D01*
X11737654Y-15735060D02*
X11747178Y-15725536D01*
X11747178Y-15725536D02*
X11747178Y-15744584D01*
X11880512Y-15544584D02*
X11899559Y-15544584D01*
X11899559Y-15544584D02*
X11918607Y-15554108D01*
X11918607Y-15554108D02*
X11928131Y-15563631D01*
X11928131Y-15563631D02*
X11937654Y-15582679D01*
X11937654Y-15582679D02*
X11947178Y-15620774D01*
X11947178Y-15620774D02*
X11947178Y-15668393D01*
X11947178Y-15668393D02*
X11937654Y-15706488D01*
X11937654Y-15706488D02*
X11928131Y-15725536D01*
X11928131Y-15725536D02*
X11918607Y-15735060D01*
X11918607Y-15735060D02*
X11899559Y-15744584D01*
X11899559Y-15744584D02*
X11880512Y-15744584D01*
X11880512Y-15744584D02*
X11861464Y-15735060D01*
X11861464Y-15735060D02*
X11851940Y-15725536D01*
X11851940Y-15725536D02*
X11842416Y-15706488D01*
X11842416Y-15706488D02*
X11832893Y-15668393D01*
X11832893Y-15668393D02*
X11832893Y-15620774D01*
X11832893Y-15620774D02*
X11842416Y-15582679D01*
X11842416Y-15582679D02*
X11851940Y-15563631D01*
X11851940Y-15563631D02*
X11861464Y-15554108D01*
X11861464Y-15554108D02*
X11880512Y-15544584D01*
X12137654Y-15744584D02*
X12023369Y-15744584D01*
X12080512Y-15744584D02*
X12080512Y-15544584D01*
X12080512Y-15544584D02*
X12061464Y-15573155D01*
X12061464Y-15573155D02*
X12042416Y-15592203D01*
X12042416Y-15592203D02*
X12023369Y-15601727D01*
X12318607Y-15544584D02*
X12223369Y-15544584D01*
X12223369Y-15544584D02*
X12213845Y-15639822D01*
X12213845Y-15639822D02*
X12223369Y-15630298D01*
X12223369Y-15630298D02*
X12242416Y-15620774D01*
X12242416Y-15620774D02*
X12290035Y-15620774D01*
X12290035Y-15620774D02*
X12309083Y-15630298D01*
X12309083Y-15630298D02*
X12318607Y-15639822D01*
X12318607Y-15639822D02*
X12328131Y-15658869D01*
X12328131Y-15658869D02*
X12328131Y-15706488D01*
X12328131Y-15706488D02*
X12318607Y-15725536D01*
X12318607Y-15725536D02*
X12309083Y-15735060D01*
X12309083Y-15735060D02*
X12290035Y-15744584D01*
X12290035Y-15744584D02*
X12242416Y-15744584D01*
X12242416Y-15744584D02*
X12223369Y-15735060D01*
X12223369Y-15735060D02*
X12213845Y-15725536D01*
X12394797Y-15544584D02*
X12528131Y-15544584D01*
X12528131Y-15544584D02*
X12442416Y-15744584D01*
X12594797Y-15544584D02*
X12594797Y-15582679D01*
X12670988Y-15544584D02*
X12670988Y-15582679D01*
X12966226Y-15820774D02*
X12956702Y-15811250D01*
X12956702Y-15811250D02*
X12937655Y-15782679D01*
X12937655Y-15782679D02*
X12928131Y-15763631D01*
X12928131Y-15763631D02*
X12918607Y-15735060D01*
X12918607Y-15735060D02*
X12909083Y-15687441D01*
X12909083Y-15687441D02*
X12909083Y-15649346D01*
X12909083Y-15649346D02*
X12918607Y-15601727D01*
X12918607Y-15601727D02*
X12928131Y-15573155D01*
X12928131Y-15573155D02*
X12937655Y-15554108D01*
X12937655Y-15554108D02*
X12956702Y-15525536D01*
X12956702Y-15525536D02*
X12966226Y-15516012D01*
X13032893Y-15563631D02*
X13042416Y-15554108D01*
X13042416Y-15554108D02*
X13061464Y-15544584D01*
X13061464Y-15544584D02*
X13109083Y-15544584D01*
X13109083Y-15544584D02*
X13128131Y-15554108D01*
X13128131Y-15554108D02*
X13137655Y-15563631D01*
X13137655Y-15563631D02*
X13147178Y-15582679D01*
X13147178Y-15582679D02*
X13147178Y-15601727D01*
X13147178Y-15601727D02*
X13137655Y-15630298D01*
X13137655Y-15630298D02*
X13023369Y-15744584D01*
X13023369Y-15744584D02*
X13147178Y-15744584D01*
X13337655Y-15744584D02*
X13223369Y-15744584D01*
X13280512Y-15744584D02*
X13280512Y-15544584D01*
X13280512Y-15544584D02*
X13261464Y-15573155D01*
X13261464Y-15573155D02*
X13242416Y-15592203D01*
X13242416Y-15592203D02*
X13223369Y-15601727D01*
X13528131Y-15744584D02*
X13413845Y-15744584D01*
X13470988Y-15744584D02*
X13470988Y-15544584D01*
X13470988Y-15544584D02*
X13451940Y-15573155D01*
X13451940Y-15573155D02*
X13432893Y-15592203D01*
X13432893Y-15592203D02*
X13413845Y-15601727D01*
X13766226Y-15744584D02*
X13766226Y-15544584D01*
X13851940Y-15744584D02*
X13851940Y-15639822D01*
X13851940Y-15639822D02*
X13842417Y-15620774D01*
X13842417Y-15620774D02*
X13823369Y-15611250D01*
X13823369Y-15611250D02*
X13794797Y-15611250D01*
X13794797Y-15611250D02*
X13775750Y-15620774D01*
X13775750Y-15620774D02*
X13766226Y-15630298D01*
X13975750Y-15744584D02*
X13956702Y-15735060D01*
X13956702Y-15735060D02*
X13947178Y-15725536D01*
X13947178Y-15725536D02*
X13937655Y-15706488D01*
X13937655Y-15706488D02*
X13937655Y-15649346D01*
X13937655Y-15649346D02*
X13947178Y-15630298D01*
X13947178Y-15630298D02*
X13956702Y-15620774D01*
X13956702Y-15620774D02*
X13975750Y-15611250D01*
X13975750Y-15611250D02*
X14004321Y-15611250D01*
X14004321Y-15611250D02*
X14023369Y-15620774D01*
X14023369Y-15620774D02*
X14032893Y-15630298D01*
X14032893Y-15630298D02*
X14042417Y-15649346D01*
X14042417Y-15649346D02*
X14042417Y-15706488D01*
X14042417Y-15706488D02*
X14032893Y-15725536D01*
X14032893Y-15725536D02*
X14023369Y-15735060D01*
X14023369Y-15735060D02*
X14004321Y-15744584D01*
X14004321Y-15744584D02*
X13975750Y-15744584D01*
X14156702Y-15744584D02*
X14137655Y-15735060D01*
X14137655Y-15735060D02*
X14128131Y-15716012D01*
X14128131Y-15716012D02*
X14128131Y-15544584D01*
X14309083Y-15735060D02*
X14290036Y-15744584D01*
X14290036Y-15744584D02*
X14251940Y-15744584D01*
X14251940Y-15744584D02*
X14232893Y-15735060D01*
X14232893Y-15735060D02*
X14223369Y-15716012D01*
X14223369Y-15716012D02*
X14223369Y-15639822D01*
X14223369Y-15639822D02*
X14232893Y-15620774D01*
X14232893Y-15620774D02*
X14251940Y-15611250D01*
X14251940Y-15611250D02*
X14290036Y-15611250D01*
X14290036Y-15611250D02*
X14309083Y-15620774D01*
X14309083Y-15620774D02*
X14318607Y-15639822D01*
X14318607Y-15639822D02*
X14318607Y-15658869D01*
X14318607Y-15658869D02*
X14223369Y-15677917D01*
X14394798Y-15735060D02*
X14413845Y-15744584D01*
X14413845Y-15744584D02*
X14451940Y-15744584D01*
X14451940Y-15744584D02*
X14470988Y-15735060D01*
X14470988Y-15735060D02*
X14480512Y-15716012D01*
X14480512Y-15716012D02*
X14480512Y-15706488D01*
X14480512Y-15706488D02*
X14470988Y-15687441D01*
X14470988Y-15687441D02*
X14451940Y-15677917D01*
X14451940Y-15677917D02*
X14423369Y-15677917D01*
X14423369Y-15677917D02*
X14404321Y-15668393D01*
X14404321Y-15668393D02*
X14394798Y-15649346D01*
X14394798Y-15649346D02*
X14394798Y-15639822D01*
X14394798Y-15639822D02*
X14404321Y-15620774D01*
X14404321Y-15620774D02*
X14423369Y-15611250D01*
X14423369Y-15611250D02*
X14451940Y-15611250D01*
X14451940Y-15611250D02*
X14470988Y-15620774D01*
X14547179Y-15820774D02*
X14556702Y-15811250D01*
X14556702Y-15811250D02*
X14575750Y-15782679D01*
X14575750Y-15782679D02*
X14585274Y-15763631D01*
X14585274Y-15763631D02*
X14594798Y-15735060D01*
X14594798Y-15735060D02*
X14604321Y-15687441D01*
X14604321Y-15687441D02*
X14604321Y-15649346D01*
X14604321Y-15649346D02*
X14594798Y-15601727D01*
X14594798Y-15601727D02*
X14585274Y-15573155D01*
X14585274Y-15573155D02*
X14575750Y-15554108D01*
X14575750Y-15554108D02*
X14556702Y-15525536D01*
X14556702Y-15525536D02*
X14547179Y-15516012D01*
D13*
X9391163Y-15917100D02*
G75*
G02*
X9311163Y-15917100I-40000J0D01*
G01*
X9311163Y-15917100D02*
G75*
G02*
X9391163Y-15917100I40000J0D01*
G01*
D12*
X9690035Y-15808584D02*
X9709083Y-15808584D01*
X9709083Y-15808584D02*
X9728131Y-15818108D01*
X9728131Y-15818108D02*
X9737654Y-15827631D01*
X9737654Y-15827631D02*
X9747178Y-15846679D01*
X9747178Y-15846679D02*
X9756702Y-15884774D01*
X9756702Y-15884774D02*
X9756702Y-15932393D01*
X9756702Y-15932393D02*
X9747178Y-15970488D01*
X9747178Y-15970488D02*
X9737654Y-15989536D01*
X9737654Y-15989536D02*
X9728131Y-15999060D01*
X9728131Y-15999060D02*
X9709083Y-16008584D01*
X9709083Y-16008584D02*
X9690035Y-16008584D01*
X9690035Y-16008584D02*
X9670988Y-15999060D01*
X9670988Y-15999060D02*
X9661464Y-15989536D01*
X9661464Y-15989536D02*
X9651940Y-15970488D01*
X9651940Y-15970488D02*
X9642416Y-15932393D01*
X9642416Y-15932393D02*
X9642416Y-15884774D01*
X9642416Y-15884774D02*
X9651940Y-15846679D01*
X9651940Y-15846679D02*
X9661464Y-15827631D01*
X9661464Y-15827631D02*
X9670988Y-15818108D01*
X9670988Y-15818108D02*
X9690035Y-15808584D01*
X9842416Y-15989536D02*
X9851940Y-15999060D01*
X9851940Y-15999060D02*
X9842416Y-16008584D01*
X9842416Y-16008584D02*
X9832892Y-15999060D01*
X9832892Y-15999060D02*
X9842416Y-15989536D01*
X9842416Y-15989536D02*
X9842416Y-16008584D01*
X9966226Y-15894298D02*
X9947178Y-15884774D01*
X9947178Y-15884774D02*
X9937654Y-15875250D01*
X9937654Y-15875250D02*
X9928131Y-15856203D01*
X9928131Y-15856203D02*
X9928131Y-15846679D01*
X9928131Y-15846679D02*
X9937654Y-15827631D01*
X9937654Y-15827631D02*
X9947178Y-15818108D01*
X9947178Y-15818108D02*
X9966226Y-15808584D01*
X9966226Y-15808584D02*
X10004321Y-15808584D01*
X10004321Y-15808584D02*
X10023369Y-15818108D01*
X10023369Y-15818108D02*
X10032892Y-15827631D01*
X10032892Y-15827631D02*
X10042416Y-15846679D01*
X10042416Y-15846679D02*
X10042416Y-15856203D01*
X10042416Y-15856203D02*
X10032892Y-15875250D01*
X10032892Y-15875250D02*
X10023369Y-15884774D01*
X10023369Y-15884774D02*
X10004321Y-15894298D01*
X10004321Y-15894298D02*
X9966226Y-15894298D01*
X9966226Y-15894298D02*
X9947178Y-15903822D01*
X9947178Y-15903822D02*
X9937654Y-15913346D01*
X9937654Y-15913346D02*
X9928131Y-15932393D01*
X9928131Y-15932393D02*
X9928131Y-15970488D01*
X9928131Y-15970488D02*
X9937654Y-15989536D01*
X9937654Y-15989536D02*
X9947178Y-15999060D01*
X9947178Y-15999060D02*
X9966226Y-16008584D01*
X9966226Y-16008584D02*
X10004321Y-16008584D01*
X10004321Y-16008584D02*
X10023369Y-15999060D01*
X10023369Y-15999060D02*
X10032892Y-15989536D01*
X10032892Y-15989536D02*
X10042416Y-15970488D01*
X10042416Y-15970488D02*
X10042416Y-15932393D01*
X10042416Y-15932393D02*
X10032892Y-15913346D01*
X10032892Y-15913346D02*
X10023369Y-15903822D01*
X10023369Y-15903822D02*
X10004321Y-15894298D01*
X10166226Y-15808584D02*
X10185273Y-15808584D01*
X10185273Y-15808584D02*
X10204321Y-15818108D01*
X10204321Y-15818108D02*
X10213845Y-15827631D01*
X10213845Y-15827631D02*
X10223369Y-15846679D01*
X10223369Y-15846679D02*
X10232892Y-15884774D01*
X10232892Y-15884774D02*
X10232892Y-15932393D01*
X10232892Y-15932393D02*
X10223369Y-15970488D01*
X10223369Y-15970488D02*
X10213845Y-15989536D01*
X10213845Y-15989536D02*
X10204321Y-15999060D01*
X10204321Y-15999060D02*
X10185273Y-16008584D01*
X10185273Y-16008584D02*
X10166226Y-16008584D01*
X10166226Y-16008584D02*
X10147178Y-15999060D01*
X10147178Y-15999060D02*
X10137654Y-15989536D01*
X10137654Y-15989536D02*
X10128131Y-15970488D01*
X10128131Y-15970488D02*
X10118607Y-15932393D01*
X10118607Y-15932393D02*
X10118607Y-15884774D01*
X10118607Y-15884774D02*
X10128131Y-15846679D01*
X10128131Y-15846679D02*
X10137654Y-15827631D01*
X10137654Y-15827631D02*
X10147178Y-15818108D01*
X10147178Y-15818108D02*
X10166226Y-15808584D01*
X10356702Y-15808584D02*
X10375750Y-15808584D01*
X10375750Y-15808584D02*
X10394797Y-15818108D01*
X10394797Y-15818108D02*
X10404321Y-15827631D01*
X10404321Y-15827631D02*
X10413845Y-15846679D01*
X10413845Y-15846679D02*
X10423369Y-15884774D01*
X10423369Y-15884774D02*
X10423369Y-15932393D01*
X10423369Y-15932393D02*
X10413845Y-15970488D01*
X10413845Y-15970488D02*
X10404321Y-15989536D01*
X10404321Y-15989536D02*
X10394797Y-15999060D01*
X10394797Y-15999060D02*
X10375750Y-16008584D01*
X10375750Y-16008584D02*
X10356702Y-16008584D01*
X10356702Y-16008584D02*
X10337654Y-15999060D01*
X10337654Y-15999060D02*
X10328131Y-15989536D01*
X10328131Y-15989536D02*
X10318607Y-15970488D01*
X10318607Y-15970488D02*
X10309083Y-15932393D01*
X10309083Y-15932393D02*
X10309083Y-15884774D01*
X10309083Y-15884774D02*
X10318607Y-15846679D01*
X10318607Y-15846679D02*
X10328131Y-15827631D01*
X10328131Y-15827631D02*
X10337654Y-15818108D01*
X10337654Y-15818108D02*
X10356702Y-15808584D01*
X10509083Y-16008584D02*
X10509083Y-15875250D01*
X10509083Y-15894298D02*
X10518607Y-15884774D01*
X10518607Y-15884774D02*
X10537654Y-15875250D01*
X10537654Y-15875250D02*
X10566226Y-15875250D01*
X10566226Y-15875250D02*
X10585273Y-15884774D01*
X10585273Y-15884774D02*
X10594797Y-15903822D01*
X10594797Y-15903822D02*
X10594797Y-16008584D01*
X10594797Y-15903822D02*
X10604321Y-15884774D01*
X10604321Y-15884774D02*
X10623369Y-15875250D01*
X10623369Y-15875250D02*
X10651940Y-15875250D01*
X10651940Y-15875250D02*
X10670988Y-15884774D01*
X10670988Y-15884774D02*
X10680512Y-15903822D01*
X10680512Y-15903822D02*
X10680512Y-16008584D01*
X10775750Y-16008584D02*
X10775750Y-15875250D01*
X10775750Y-15894298D02*
X10785273Y-15884774D01*
X10785273Y-15884774D02*
X10804321Y-15875250D01*
X10804321Y-15875250D02*
X10832893Y-15875250D01*
X10832893Y-15875250D02*
X10851940Y-15884774D01*
X10851940Y-15884774D02*
X10861464Y-15903822D01*
X10861464Y-15903822D02*
X10861464Y-16008584D01*
X10861464Y-15903822D02*
X10870988Y-15884774D01*
X10870988Y-15884774D02*
X10890035Y-15875250D01*
X10890035Y-15875250D02*
X10918607Y-15875250D01*
X10918607Y-15875250D02*
X10937654Y-15884774D01*
X10937654Y-15884774D02*
X10947178Y-15903822D01*
X10947178Y-15903822D02*
X10947178Y-16008584D01*
X11337654Y-15799060D02*
X11166226Y-16056203D01*
X11594797Y-15808584D02*
X11613845Y-15808584D01*
X11613845Y-15808584D02*
X11632893Y-15818108D01*
X11632893Y-15818108D02*
X11642416Y-15827631D01*
X11642416Y-15827631D02*
X11651940Y-15846679D01*
X11651940Y-15846679D02*
X11661464Y-15884774D01*
X11661464Y-15884774D02*
X11661464Y-15932393D01*
X11661464Y-15932393D02*
X11651940Y-15970488D01*
X11651940Y-15970488D02*
X11642416Y-15989536D01*
X11642416Y-15989536D02*
X11632893Y-15999060D01*
X11632893Y-15999060D02*
X11613845Y-16008584D01*
X11613845Y-16008584D02*
X11594797Y-16008584D01*
X11594797Y-16008584D02*
X11575750Y-15999060D01*
X11575750Y-15999060D02*
X11566226Y-15989536D01*
X11566226Y-15989536D02*
X11556702Y-15970488D01*
X11556702Y-15970488D02*
X11547178Y-15932393D01*
X11547178Y-15932393D02*
X11547178Y-15884774D01*
X11547178Y-15884774D02*
X11556702Y-15846679D01*
X11556702Y-15846679D02*
X11566226Y-15827631D01*
X11566226Y-15827631D02*
X11575750Y-15818108D01*
X11575750Y-15818108D02*
X11594797Y-15808584D01*
X11747178Y-15989536D02*
X11756702Y-15999060D01*
X11756702Y-15999060D02*
X11747178Y-16008584D01*
X11747178Y-16008584D02*
X11737654Y-15999060D01*
X11737654Y-15999060D02*
X11747178Y-15989536D01*
X11747178Y-15989536D02*
X11747178Y-16008584D01*
X11880512Y-15808584D02*
X11899559Y-15808584D01*
X11899559Y-15808584D02*
X11918607Y-15818108D01*
X11918607Y-15818108D02*
X11928131Y-15827631D01*
X11928131Y-15827631D02*
X11937654Y-15846679D01*
X11937654Y-15846679D02*
X11947178Y-15884774D01*
X11947178Y-15884774D02*
X11947178Y-15932393D01*
X11947178Y-15932393D02*
X11937654Y-15970488D01*
X11937654Y-15970488D02*
X11928131Y-15989536D01*
X11928131Y-15989536D02*
X11918607Y-15999060D01*
X11918607Y-15999060D02*
X11899559Y-16008584D01*
X11899559Y-16008584D02*
X11880512Y-16008584D01*
X11880512Y-16008584D02*
X11861464Y-15999060D01*
X11861464Y-15999060D02*
X11851940Y-15989536D01*
X11851940Y-15989536D02*
X11842416Y-15970488D01*
X11842416Y-15970488D02*
X11832893Y-15932393D01*
X11832893Y-15932393D02*
X11832893Y-15884774D01*
X11832893Y-15884774D02*
X11842416Y-15846679D01*
X11842416Y-15846679D02*
X11851940Y-15827631D01*
X11851940Y-15827631D02*
X11861464Y-15818108D01*
X11861464Y-15818108D02*
X11880512Y-15808584D01*
X12013845Y-15808584D02*
X12137654Y-15808584D01*
X12137654Y-15808584D02*
X12070988Y-15884774D01*
X12070988Y-15884774D02*
X12099559Y-15884774D01*
X12099559Y-15884774D02*
X12118607Y-15894298D01*
X12118607Y-15894298D02*
X12128131Y-15903822D01*
X12128131Y-15903822D02*
X12137654Y-15922869D01*
X12137654Y-15922869D02*
X12137654Y-15970488D01*
X12137654Y-15970488D02*
X12128131Y-15989536D01*
X12128131Y-15989536D02*
X12118607Y-15999060D01*
X12118607Y-15999060D02*
X12099559Y-16008584D01*
X12099559Y-16008584D02*
X12042416Y-16008584D01*
X12042416Y-16008584D02*
X12023369Y-15999060D01*
X12023369Y-15999060D02*
X12013845Y-15989536D01*
X12328131Y-16008584D02*
X12213845Y-16008584D01*
X12270988Y-16008584D02*
X12270988Y-15808584D01*
X12270988Y-15808584D02*
X12251940Y-15837155D01*
X12251940Y-15837155D02*
X12232893Y-15856203D01*
X12232893Y-15856203D02*
X12213845Y-15865727D01*
X12509083Y-15808584D02*
X12413845Y-15808584D01*
X12413845Y-15808584D02*
X12404321Y-15903822D01*
X12404321Y-15903822D02*
X12413845Y-15894298D01*
X12413845Y-15894298D02*
X12432893Y-15884774D01*
X12432893Y-15884774D02*
X12480512Y-15884774D01*
X12480512Y-15884774D02*
X12499559Y-15894298D01*
X12499559Y-15894298D02*
X12509083Y-15903822D01*
X12509083Y-15903822D02*
X12518607Y-15922869D01*
X12518607Y-15922869D02*
X12518607Y-15970488D01*
X12518607Y-15970488D02*
X12509083Y-15989536D01*
X12509083Y-15989536D02*
X12499559Y-15999060D01*
X12499559Y-15999060D02*
X12480512Y-16008584D01*
X12480512Y-16008584D02*
X12432893Y-16008584D01*
X12432893Y-16008584D02*
X12413845Y-15999060D01*
X12413845Y-15999060D02*
X12404321Y-15989536D01*
X12594797Y-15808584D02*
X12594797Y-15846679D01*
X12670988Y-15808584D02*
X12670988Y-15846679D01*
X12966226Y-16084774D02*
X12956702Y-16075250D01*
X12956702Y-16075250D02*
X12937655Y-16046679D01*
X12937655Y-16046679D02*
X12928131Y-16027631D01*
X12928131Y-16027631D02*
X12918607Y-15999060D01*
X12918607Y-15999060D02*
X12909083Y-15951441D01*
X12909083Y-15951441D02*
X12909083Y-15913346D01*
X12909083Y-15913346D02*
X12918607Y-15865727D01*
X12918607Y-15865727D02*
X12928131Y-15837155D01*
X12928131Y-15837155D02*
X12937655Y-15818108D01*
X12937655Y-15818108D02*
X12956702Y-15789536D01*
X12956702Y-15789536D02*
X12966226Y-15780012D01*
X13023369Y-15808584D02*
X13147178Y-15808584D01*
X13147178Y-15808584D02*
X13080512Y-15884774D01*
X13080512Y-15884774D02*
X13109083Y-15884774D01*
X13109083Y-15884774D02*
X13128131Y-15894298D01*
X13128131Y-15894298D02*
X13137655Y-15903822D01*
X13137655Y-15903822D02*
X13147178Y-15922869D01*
X13147178Y-15922869D02*
X13147178Y-15970488D01*
X13147178Y-15970488D02*
X13137655Y-15989536D01*
X13137655Y-15989536D02*
X13128131Y-15999060D01*
X13128131Y-15999060D02*
X13109083Y-16008584D01*
X13109083Y-16008584D02*
X13051940Y-16008584D01*
X13051940Y-16008584D02*
X13032893Y-15999060D01*
X13032893Y-15999060D02*
X13023369Y-15989536D01*
X13385274Y-16008584D02*
X13385274Y-15808584D01*
X13470988Y-16008584D02*
X13470988Y-15903822D01*
X13470988Y-15903822D02*
X13461464Y-15884774D01*
X13461464Y-15884774D02*
X13442417Y-15875250D01*
X13442417Y-15875250D02*
X13413845Y-15875250D01*
X13413845Y-15875250D02*
X13394797Y-15884774D01*
X13394797Y-15884774D02*
X13385274Y-15894298D01*
X13594797Y-16008584D02*
X13575750Y-15999060D01*
X13575750Y-15999060D02*
X13566226Y-15989536D01*
X13566226Y-15989536D02*
X13556702Y-15970488D01*
X13556702Y-15970488D02*
X13556702Y-15913346D01*
X13556702Y-15913346D02*
X13566226Y-15894298D01*
X13566226Y-15894298D02*
X13575750Y-15884774D01*
X13575750Y-15884774D02*
X13594797Y-15875250D01*
X13594797Y-15875250D02*
X13623369Y-15875250D01*
X13623369Y-15875250D02*
X13642417Y-15884774D01*
X13642417Y-15884774D02*
X13651940Y-15894298D01*
X13651940Y-15894298D02*
X13661464Y-15913346D01*
X13661464Y-15913346D02*
X13661464Y-15970488D01*
X13661464Y-15970488D02*
X13651940Y-15989536D01*
X13651940Y-15989536D02*
X13642417Y-15999060D01*
X13642417Y-15999060D02*
X13623369Y-16008584D01*
X13623369Y-16008584D02*
X13594797Y-16008584D01*
X13775750Y-16008584D02*
X13756702Y-15999060D01*
X13756702Y-15999060D02*
X13747178Y-15980012D01*
X13747178Y-15980012D02*
X13747178Y-15808584D01*
X13928131Y-15999060D02*
X13909083Y-16008584D01*
X13909083Y-16008584D02*
X13870988Y-16008584D01*
X13870988Y-16008584D02*
X13851940Y-15999060D01*
X13851940Y-15999060D02*
X13842417Y-15980012D01*
X13842417Y-15980012D02*
X13842417Y-15903822D01*
X13842417Y-15903822D02*
X13851940Y-15884774D01*
X13851940Y-15884774D02*
X13870988Y-15875250D01*
X13870988Y-15875250D02*
X13909083Y-15875250D01*
X13909083Y-15875250D02*
X13928131Y-15884774D01*
X13928131Y-15884774D02*
X13937655Y-15903822D01*
X13937655Y-15903822D02*
X13937655Y-15922869D01*
X13937655Y-15922869D02*
X13842417Y-15941917D01*
X14013845Y-15999060D02*
X14032893Y-16008584D01*
X14032893Y-16008584D02*
X14070988Y-16008584D01*
X14070988Y-16008584D02*
X14090036Y-15999060D01*
X14090036Y-15999060D02*
X14099559Y-15980012D01*
X14099559Y-15980012D02*
X14099559Y-15970488D01*
X14099559Y-15970488D02*
X14090036Y-15951441D01*
X14090036Y-15951441D02*
X14070988Y-15941917D01*
X14070988Y-15941917D02*
X14042417Y-15941917D01*
X14042417Y-15941917D02*
X14023369Y-15932393D01*
X14023369Y-15932393D02*
X14013845Y-15913346D01*
X14013845Y-15913346D02*
X14013845Y-15903822D01*
X14013845Y-15903822D02*
X14023369Y-15884774D01*
X14023369Y-15884774D02*
X14042417Y-15875250D01*
X14042417Y-15875250D02*
X14070988Y-15875250D01*
X14070988Y-15875250D02*
X14090036Y-15884774D01*
X14166226Y-16084774D02*
X14175750Y-16075250D01*
X14175750Y-16075250D02*
X14194798Y-16046679D01*
X14194798Y-16046679D02*
X14204321Y-16027631D01*
X14204321Y-16027631D02*
X14213845Y-15999060D01*
X14213845Y-15999060D02*
X14223369Y-15951441D01*
X14223369Y-15951441D02*
X14223369Y-15913346D01*
X14223369Y-15913346D02*
X14213845Y-15865727D01*
X14213845Y-15865727D02*
X14204321Y-15837155D01*
X14204321Y-15837155D02*
X14194798Y-15818108D01*
X14194798Y-15818108D02*
X14175750Y-15789536D01*
X14175750Y-15789536D02*
X14166226Y-15780012D01*
D13*
X9351163Y-16141100D02*
X9351163Y-16221100D01*
X9311163Y-16181100D02*
X9391163Y-16181100D01*
D12*
X9690035Y-16072584D02*
X9709083Y-16072584D01*
X9709083Y-16072584D02*
X9728131Y-16082108D01*
X9728131Y-16082108D02*
X9737654Y-16091631D01*
X9737654Y-16091631D02*
X9747178Y-16110679D01*
X9747178Y-16110679D02*
X9756702Y-16148774D01*
X9756702Y-16148774D02*
X9756702Y-16196393D01*
X9756702Y-16196393D02*
X9747178Y-16234488D01*
X9747178Y-16234488D02*
X9737654Y-16253536D01*
X9737654Y-16253536D02*
X9728131Y-16263060D01*
X9728131Y-16263060D02*
X9709083Y-16272584D01*
X9709083Y-16272584D02*
X9690035Y-16272584D01*
X9690035Y-16272584D02*
X9670988Y-16263060D01*
X9670988Y-16263060D02*
X9661464Y-16253536D01*
X9661464Y-16253536D02*
X9651940Y-16234488D01*
X9651940Y-16234488D02*
X9642416Y-16196393D01*
X9642416Y-16196393D02*
X9642416Y-16148774D01*
X9642416Y-16148774D02*
X9651940Y-16110679D01*
X9651940Y-16110679D02*
X9661464Y-16091631D01*
X9661464Y-16091631D02*
X9670988Y-16082108D01*
X9670988Y-16082108D02*
X9690035Y-16072584D01*
X9842416Y-16253536D02*
X9851940Y-16263060D01*
X9851940Y-16263060D02*
X9842416Y-16272584D01*
X9842416Y-16272584D02*
X9832892Y-16263060D01*
X9832892Y-16263060D02*
X9842416Y-16253536D01*
X9842416Y-16253536D02*
X9842416Y-16272584D01*
X9966226Y-16158298D02*
X9947178Y-16148774D01*
X9947178Y-16148774D02*
X9937654Y-16139250D01*
X9937654Y-16139250D02*
X9928131Y-16120203D01*
X9928131Y-16120203D02*
X9928131Y-16110679D01*
X9928131Y-16110679D02*
X9937654Y-16091631D01*
X9937654Y-16091631D02*
X9947178Y-16082108D01*
X9947178Y-16082108D02*
X9966226Y-16072584D01*
X9966226Y-16072584D02*
X10004321Y-16072584D01*
X10004321Y-16072584D02*
X10023369Y-16082108D01*
X10023369Y-16082108D02*
X10032892Y-16091631D01*
X10032892Y-16091631D02*
X10042416Y-16110679D01*
X10042416Y-16110679D02*
X10042416Y-16120203D01*
X10042416Y-16120203D02*
X10032892Y-16139250D01*
X10032892Y-16139250D02*
X10023369Y-16148774D01*
X10023369Y-16148774D02*
X10004321Y-16158298D01*
X10004321Y-16158298D02*
X9966226Y-16158298D01*
X9966226Y-16158298D02*
X9947178Y-16167822D01*
X9947178Y-16167822D02*
X9937654Y-16177346D01*
X9937654Y-16177346D02*
X9928131Y-16196393D01*
X9928131Y-16196393D02*
X9928131Y-16234488D01*
X9928131Y-16234488D02*
X9937654Y-16253536D01*
X9937654Y-16253536D02*
X9947178Y-16263060D01*
X9947178Y-16263060D02*
X9966226Y-16272584D01*
X9966226Y-16272584D02*
X10004321Y-16272584D01*
X10004321Y-16272584D02*
X10023369Y-16263060D01*
X10023369Y-16263060D02*
X10032892Y-16253536D01*
X10032892Y-16253536D02*
X10042416Y-16234488D01*
X10042416Y-16234488D02*
X10042416Y-16196393D01*
X10042416Y-16196393D02*
X10032892Y-16177346D01*
X10032892Y-16177346D02*
X10023369Y-16167822D01*
X10023369Y-16167822D02*
X10004321Y-16158298D01*
X10166226Y-16072584D02*
X10185273Y-16072584D01*
X10185273Y-16072584D02*
X10204321Y-16082108D01*
X10204321Y-16082108D02*
X10213845Y-16091631D01*
X10213845Y-16091631D02*
X10223369Y-16110679D01*
X10223369Y-16110679D02*
X10232892Y-16148774D01*
X10232892Y-16148774D02*
X10232892Y-16196393D01*
X10232892Y-16196393D02*
X10223369Y-16234488D01*
X10223369Y-16234488D02*
X10213845Y-16253536D01*
X10213845Y-16253536D02*
X10204321Y-16263060D01*
X10204321Y-16263060D02*
X10185273Y-16272584D01*
X10185273Y-16272584D02*
X10166226Y-16272584D01*
X10166226Y-16272584D02*
X10147178Y-16263060D01*
X10147178Y-16263060D02*
X10137654Y-16253536D01*
X10137654Y-16253536D02*
X10128131Y-16234488D01*
X10128131Y-16234488D02*
X10118607Y-16196393D01*
X10118607Y-16196393D02*
X10118607Y-16148774D01*
X10118607Y-16148774D02*
X10128131Y-16110679D01*
X10128131Y-16110679D02*
X10137654Y-16091631D01*
X10137654Y-16091631D02*
X10147178Y-16082108D01*
X10147178Y-16082108D02*
X10166226Y-16072584D01*
X10356702Y-16072584D02*
X10375750Y-16072584D01*
X10375750Y-16072584D02*
X10394797Y-16082108D01*
X10394797Y-16082108D02*
X10404321Y-16091631D01*
X10404321Y-16091631D02*
X10413845Y-16110679D01*
X10413845Y-16110679D02*
X10423369Y-16148774D01*
X10423369Y-16148774D02*
X10423369Y-16196393D01*
X10423369Y-16196393D02*
X10413845Y-16234488D01*
X10413845Y-16234488D02*
X10404321Y-16253536D01*
X10404321Y-16253536D02*
X10394797Y-16263060D01*
X10394797Y-16263060D02*
X10375750Y-16272584D01*
X10375750Y-16272584D02*
X10356702Y-16272584D01*
X10356702Y-16272584D02*
X10337654Y-16263060D01*
X10337654Y-16263060D02*
X10328131Y-16253536D01*
X10328131Y-16253536D02*
X10318607Y-16234488D01*
X10318607Y-16234488D02*
X10309083Y-16196393D01*
X10309083Y-16196393D02*
X10309083Y-16148774D01*
X10309083Y-16148774D02*
X10318607Y-16110679D01*
X10318607Y-16110679D02*
X10328131Y-16091631D01*
X10328131Y-16091631D02*
X10337654Y-16082108D01*
X10337654Y-16082108D02*
X10356702Y-16072584D01*
X10509083Y-16272584D02*
X10509083Y-16139250D01*
X10509083Y-16158298D02*
X10518607Y-16148774D01*
X10518607Y-16148774D02*
X10537654Y-16139250D01*
X10537654Y-16139250D02*
X10566226Y-16139250D01*
X10566226Y-16139250D02*
X10585273Y-16148774D01*
X10585273Y-16148774D02*
X10594797Y-16167822D01*
X10594797Y-16167822D02*
X10594797Y-16272584D01*
X10594797Y-16167822D02*
X10604321Y-16148774D01*
X10604321Y-16148774D02*
X10623369Y-16139250D01*
X10623369Y-16139250D02*
X10651940Y-16139250D01*
X10651940Y-16139250D02*
X10670988Y-16148774D01*
X10670988Y-16148774D02*
X10680512Y-16167822D01*
X10680512Y-16167822D02*
X10680512Y-16272584D01*
X10775750Y-16272584D02*
X10775750Y-16139250D01*
X10775750Y-16158298D02*
X10785273Y-16148774D01*
X10785273Y-16148774D02*
X10804321Y-16139250D01*
X10804321Y-16139250D02*
X10832893Y-16139250D01*
X10832893Y-16139250D02*
X10851940Y-16148774D01*
X10851940Y-16148774D02*
X10861464Y-16167822D01*
X10861464Y-16167822D02*
X10861464Y-16272584D01*
X10861464Y-16167822D02*
X10870988Y-16148774D01*
X10870988Y-16148774D02*
X10890035Y-16139250D01*
X10890035Y-16139250D02*
X10918607Y-16139250D01*
X10918607Y-16139250D02*
X10937654Y-16148774D01*
X10937654Y-16148774D02*
X10947178Y-16167822D01*
X10947178Y-16167822D02*
X10947178Y-16272584D01*
X11337654Y-16063060D02*
X11166226Y-16320203D01*
X11594797Y-16072584D02*
X11613845Y-16072584D01*
X11613845Y-16072584D02*
X11632893Y-16082108D01*
X11632893Y-16082108D02*
X11642416Y-16091631D01*
X11642416Y-16091631D02*
X11651940Y-16110679D01*
X11651940Y-16110679D02*
X11661464Y-16148774D01*
X11661464Y-16148774D02*
X11661464Y-16196393D01*
X11661464Y-16196393D02*
X11651940Y-16234488D01*
X11651940Y-16234488D02*
X11642416Y-16253536D01*
X11642416Y-16253536D02*
X11632893Y-16263060D01*
X11632893Y-16263060D02*
X11613845Y-16272584D01*
X11613845Y-16272584D02*
X11594797Y-16272584D01*
X11594797Y-16272584D02*
X11575750Y-16263060D01*
X11575750Y-16263060D02*
X11566226Y-16253536D01*
X11566226Y-16253536D02*
X11556702Y-16234488D01*
X11556702Y-16234488D02*
X11547178Y-16196393D01*
X11547178Y-16196393D02*
X11547178Y-16148774D01*
X11547178Y-16148774D02*
X11556702Y-16110679D01*
X11556702Y-16110679D02*
X11566226Y-16091631D01*
X11566226Y-16091631D02*
X11575750Y-16082108D01*
X11575750Y-16082108D02*
X11594797Y-16072584D01*
X11747178Y-16253536D02*
X11756702Y-16263060D01*
X11756702Y-16263060D02*
X11747178Y-16272584D01*
X11747178Y-16272584D02*
X11737654Y-16263060D01*
X11737654Y-16263060D02*
X11747178Y-16253536D01*
X11747178Y-16253536D02*
X11747178Y-16272584D01*
X11880512Y-16072584D02*
X11899559Y-16072584D01*
X11899559Y-16072584D02*
X11918607Y-16082108D01*
X11918607Y-16082108D02*
X11928131Y-16091631D01*
X11928131Y-16091631D02*
X11937654Y-16110679D01*
X11937654Y-16110679D02*
X11947178Y-16148774D01*
X11947178Y-16148774D02*
X11947178Y-16196393D01*
X11947178Y-16196393D02*
X11937654Y-16234488D01*
X11937654Y-16234488D02*
X11928131Y-16253536D01*
X11928131Y-16253536D02*
X11918607Y-16263060D01*
X11918607Y-16263060D02*
X11899559Y-16272584D01*
X11899559Y-16272584D02*
X11880512Y-16272584D01*
X11880512Y-16272584D02*
X11861464Y-16263060D01*
X11861464Y-16263060D02*
X11851940Y-16253536D01*
X11851940Y-16253536D02*
X11842416Y-16234488D01*
X11842416Y-16234488D02*
X11832893Y-16196393D01*
X11832893Y-16196393D02*
X11832893Y-16148774D01*
X11832893Y-16148774D02*
X11842416Y-16110679D01*
X11842416Y-16110679D02*
X11851940Y-16091631D01*
X11851940Y-16091631D02*
X11861464Y-16082108D01*
X11861464Y-16082108D02*
X11880512Y-16072584D01*
X12013845Y-16072584D02*
X12137654Y-16072584D01*
X12137654Y-16072584D02*
X12070988Y-16148774D01*
X12070988Y-16148774D02*
X12099559Y-16148774D01*
X12099559Y-16148774D02*
X12118607Y-16158298D01*
X12118607Y-16158298D02*
X12128131Y-16167822D01*
X12128131Y-16167822D02*
X12137654Y-16186869D01*
X12137654Y-16186869D02*
X12137654Y-16234488D01*
X12137654Y-16234488D02*
X12128131Y-16253536D01*
X12128131Y-16253536D02*
X12118607Y-16263060D01*
X12118607Y-16263060D02*
X12099559Y-16272584D01*
X12099559Y-16272584D02*
X12042416Y-16272584D01*
X12042416Y-16272584D02*
X12023369Y-16263060D01*
X12023369Y-16263060D02*
X12013845Y-16253536D01*
X12328131Y-16272584D02*
X12213845Y-16272584D01*
X12270988Y-16272584D02*
X12270988Y-16072584D01*
X12270988Y-16072584D02*
X12251940Y-16101155D01*
X12251940Y-16101155D02*
X12232893Y-16120203D01*
X12232893Y-16120203D02*
X12213845Y-16129727D01*
X12509083Y-16072584D02*
X12413845Y-16072584D01*
X12413845Y-16072584D02*
X12404321Y-16167822D01*
X12404321Y-16167822D02*
X12413845Y-16158298D01*
X12413845Y-16158298D02*
X12432893Y-16148774D01*
X12432893Y-16148774D02*
X12480512Y-16148774D01*
X12480512Y-16148774D02*
X12499559Y-16158298D01*
X12499559Y-16158298D02*
X12509083Y-16167822D01*
X12509083Y-16167822D02*
X12518607Y-16186869D01*
X12518607Y-16186869D02*
X12518607Y-16234488D01*
X12518607Y-16234488D02*
X12509083Y-16253536D01*
X12509083Y-16253536D02*
X12499559Y-16263060D01*
X12499559Y-16263060D02*
X12480512Y-16272584D01*
X12480512Y-16272584D02*
X12432893Y-16272584D01*
X12432893Y-16272584D02*
X12413845Y-16263060D01*
X12413845Y-16263060D02*
X12404321Y-16253536D01*
X12594797Y-16072584D02*
X12594797Y-16110679D01*
X12670988Y-16072584D02*
X12670988Y-16110679D01*
X12966226Y-16348774D02*
X12956702Y-16339250D01*
X12956702Y-16339250D02*
X12937655Y-16310679D01*
X12937655Y-16310679D02*
X12928131Y-16291631D01*
X12928131Y-16291631D02*
X12918607Y-16263060D01*
X12918607Y-16263060D02*
X12909083Y-16215441D01*
X12909083Y-16215441D02*
X12909083Y-16177346D01*
X12909083Y-16177346D02*
X12918607Y-16129727D01*
X12918607Y-16129727D02*
X12928131Y-16101155D01*
X12928131Y-16101155D02*
X12937655Y-16082108D01*
X12937655Y-16082108D02*
X12956702Y-16053536D01*
X12956702Y-16053536D02*
X12966226Y-16044012D01*
X13032893Y-16091631D02*
X13042416Y-16082108D01*
X13042416Y-16082108D02*
X13061464Y-16072584D01*
X13061464Y-16072584D02*
X13109083Y-16072584D01*
X13109083Y-16072584D02*
X13128131Y-16082108D01*
X13128131Y-16082108D02*
X13137655Y-16091631D01*
X13137655Y-16091631D02*
X13147178Y-16110679D01*
X13147178Y-16110679D02*
X13147178Y-16129727D01*
X13147178Y-16129727D02*
X13137655Y-16158298D01*
X13137655Y-16158298D02*
X13023369Y-16272584D01*
X13023369Y-16272584D02*
X13147178Y-16272584D01*
X13385274Y-16272584D02*
X13385274Y-16072584D01*
X13470988Y-16272584D02*
X13470988Y-16167822D01*
X13470988Y-16167822D02*
X13461464Y-16148774D01*
X13461464Y-16148774D02*
X13442417Y-16139250D01*
X13442417Y-16139250D02*
X13413845Y-16139250D01*
X13413845Y-16139250D02*
X13394797Y-16148774D01*
X13394797Y-16148774D02*
X13385274Y-16158298D01*
X13594797Y-16272584D02*
X13575750Y-16263060D01*
X13575750Y-16263060D02*
X13566226Y-16253536D01*
X13566226Y-16253536D02*
X13556702Y-16234488D01*
X13556702Y-16234488D02*
X13556702Y-16177346D01*
X13556702Y-16177346D02*
X13566226Y-16158298D01*
X13566226Y-16158298D02*
X13575750Y-16148774D01*
X13575750Y-16148774D02*
X13594797Y-16139250D01*
X13594797Y-16139250D02*
X13623369Y-16139250D01*
X13623369Y-16139250D02*
X13642417Y-16148774D01*
X13642417Y-16148774D02*
X13651940Y-16158298D01*
X13651940Y-16158298D02*
X13661464Y-16177346D01*
X13661464Y-16177346D02*
X13661464Y-16234488D01*
X13661464Y-16234488D02*
X13651940Y-16253536D01*
X13651940Y-16253536D02*
X13642417Y-16263060D01*
X13642417Y-16263060D02*
X13623369Y-16272584D01*
X13623369Y-16272584D02*
X13594797Y-16272584D01*
X13775750Y-16272584D02*
X13756702Y-16263060D01*
X13756702Y-16263060D02*
X13747178Y-16244012D01*
X13747178Y-16244012D02*
X13747178Y-16072584D01*
X13928131Y-16263060D02*
X13909083Y-16272584D01*
X13909083Y-16272584D02*
X13870988Y-16272584D01*
X13870988Y-16272584D02*
X13851940Y-16263060D01*
X13851940Y-16263060D02*
X13842417Y-16244012D01*
X13842417Y-16244012D02*
X13842417Y-16167822D01*
X13842417Y-16167822D02*
X13851940Y-16148774D01*
X13851940Y-16148774D02*
X13870988Y-16139250D01*
X13870988Y-16139250D02*
X13909083Y-16139250D01*
X13909083Y-16139250D02*
X13928131Y-16148774D01*
X13928131Y-16148774D02*
X13937655Y-16167822D01*
X13937655Y-16167822D02*
X13937655Y-16186869D01*
X13937655Y-16186869D02*
X13842417Y-16205917D01*
X14013845Y-16263060D02*
X14032893Y-16272584D01*
X14032893Y-16272584D02*
X14070988Y-16272584D01*
X14070988Y-16272584D02*
X14090036Y-16263060D01*
X14090036Y-16263060D02*
X14099559Y-16244012D01*
X14099559Y-16244012D02*
X14099559Y-16234488D01*
X14099559Y-16234488D02*
X14090036Y-16215441D01*
X14090036Y-16215441D02*
X14070988Y-16205917D01*
X14070988Y-16205917D02*
X14042417Y-16205917D01*
X14042417Y-16205917D02*
X14023369Y-16196393D01*
X14023369Y-16196393D02*
X14013845Y-16177346D01*
X14013845Y-16177346D02*
X14013845Y-16167822D01*
X14013845Y-16167822D02*
X14023369Y-16148774D01*
X14023369Y-16148774D02*
X14042417Y-16139250D01*
X14042417Y-16139250D02*
X14070988Y-16139250D01*
X14070988Y-16139250D02*
X14090036Y-16148774D01*
X14166226Y-16348774D02*
X14175750Y-16339250D01*
X14175750Y-16339250D02*
X14194798Y-16310679D01*
X14194798Y-16310679D02*
X14204321Y-16291631D01*
X14204321Y-16291631D02*
X14213845Y-16263060D01*
X14213845Y-16263060D02*
X14223369Y-16215441D01*
X14223369Y-16215441D02*
X14223369Y-16177346D01*
X14223369Y-16177346D02*
X14213845Y-16129727D01*
X14213845Y-16129727D02*
X14204321Y-16101155D01*
X14204321Y-16101155D02*
X14194798Y-16082108D01*
X14194798Y-16082108D02*
X14175750Y-16053536D01*
X14175750Y-16053536D02*
X14166226Y-16044012D01*
D13*
X9377544Y-16477981D02*
X9377544Y-16412219D01*
X9311782Y-16412219D01*
X9311782Y-16477981D01*
X9377544Y-16477981D01*
D12*
X9690035Y-16336584D02*
X9709083Y-16336584D01*
X9709083Y-16336584D02*
X9728131Y-16346108D01*
X9728131Y-16346108D02*
X9737654Y-16355631D01*
X9737654Y-16355631D02*
X9747178Y-16374679D01*
X9747178Y-16374679D02*
X9756702Y-16412774D01*
X9756702Y-16412774D02*
X9756702Y-16460393D01*
X9756702Y-16460393D02*
X9747178Y-16498488D01*
X9747178Y-16498488D02*
X9737654Y-16517536D01*
X9737654Y-16517536D02*
X9728131Y-16527060D01*
X9728131Y-16527060D02*
X9709083Y-16536584D01*
X9709083Y-16536584D02*
X9690035Y-16536584D01*
X9690035Y-16536584D02*
X9670988Y-16527060D01*
X9670988Y-16527060D02*
X9661464Y-16517536D01*
X9661464Y-16517536D02*
X9651940Y-16498488D01*
X9651940Y-16498488D02*
X9642416Y-16460393D01*
X9642416Y-16460393D02*
X9642416Y-16412774D01*
X9642416Y-16412774D02*
X9651940Y-16374679D01*
X9651940Y-16374679D02*
X9661464Y-16355631D01*
X9661464Y-16355631D02*
X9670988Y-16346108D01*
X9670988Y-16346108D02*
X9690035Y-16336584D01*
X9842416Y-16517536D02*
X9851940Y-16527060D01*
X9851940Y-16527060D02*
X9842416Y-16536584D01*
X9842416Y-16536584D02*
X9832892Y-16527060D01*
X9832892Y-16527060D02*
X9842416Y-16517536D01*
X9842416Y-16517536D02*
X9842416Y-16536584D01*
X9947178Y-16536584D02*
X9985273Y-16536584D01*
X9985273Y-16536584D02*
X10004321Y-16527060D01*
X10004321Y-16527060D02*
X10013845Y-16517536D01*
X10013845Y-16517536D02*
X10032892Y-16488965D01*
X10032892Y-16488965D02*
X10042416Y-16450869D01*
X10042416Y-16450869D02*
X10042416Y-16374679D01*
X10042416Y-16374679D02*
X10032892Y-16355631D01*
X10032892Y-16355631D02*
X10023369Y-16346108D01*
X10023369Y-16346108D02*
X10004321Y-16336584D01*
X10004321Y-16336584D02*
X9966226Y-16336584D01*
X9966226Y-16336584D02*
X9947178Y-16346108D01*
X9947178Y-16346108D02*
X9937654Y-16355631D01*
X9937654Y-16355631D02*
X9928131Y-16374679D01*
X9928131Y-16374679D02*
X9928131Y-16422298D01*
X9928131Y-16422298D02*
X9937654Y-16441346D01*
X9937654Y-16441346D02*
X9947178Y-16450869D01*
X9947178Y-16450869D02*
X9966226Y-16460393D01*
X9966226Y-16460393D02*
X10004321Y-16460393D01*
X10004321Y-16460393D02*
X10023369Y-16450869D01*
X10023369Y-16450869D02*
X10032892Y-16441346D01*
X10032892Y-16441346D02*
X10042416Y-16422298D01*
X10109083Y-16336584D02*
X10232892Y-16336584D01*
X10232892Y-16336584D02*
X10166226Y-16412774D01*
X10166226Y-16412774D02*
X10194797Y-16412774D01*
X10194797Y-16412774D02*
X10213845Y-16422298D01*
X10213845Y-16422298D02*
X10223369Y-16431822D01*
X10223369Y-16431822D02*
X10232892Y-16450869D01*
X10232892Y-16450869D02*
X10232892Y-16498488D01*
X10232892Y-16498488D02*
X10223369Y-16517536D01*
X10223369Y-16517536D02*
X10213845Y-16527060D01*
X10213845Y-16527060D02*
X10194797Y-16536584D01*
X10194797Y-16536584D02*
X10137654Y-16536584D01*
X10137654Y-16536584D02*
X10118607Y-16527060D01*
X10118607Y-16527060D02*
X10109083Y-16517536D01*
X10356702Y-16336584D02*
X10375750Y-16336584D01*
X10375750Y-16336584D02*
X10394797Y-16346108D01*
X10394797Y-16346108D02*
X10404321Y-16355631D01*
X10404321Y-16355631D02*
X10413845Y-16374679D01*
X10413845Y-16374679D02*
X10423369Y-16412774D01*
X10423369Y-16412774D02*
X10423369Y-16460393D01*
X10423369Y-16460393D02*
X10413845Y-16498488D01*
X10413845Y-16498488D02*
X10404321Y-16517536D01*
X10404321Y-16517536D02*
X10394797Y-16527060D01*
X10394797Y-16527060D02*
X10375750Y-16536584D01*
X10375750Y-16536584D02*
X10356702Y-16536584D01*
X10356702Y-16536584D02*
X10337654Y-16527060D01*
X10337654Y-16527060D02*
X10328131Y-16517536D01*
X10328131Y-16517536D02*
X10318607Y-16498488D01*
X10318607Y-16498488D02*
X10309083Y-16460393D01*
X10309083Y-16460393D02*
X10309083Y-16412774D01*
X10309083Y-16412774D02*
X10318607Y-16374679D01*
X10318607Y-16374679D02*
X10328131Y-16355631D01*
X10328131Y-16355631D02*
X10337654Y-16346108D01*
X10337654Y-16346108D02*
X10356702Y-16336584D01*
X10509083Y-16536584D02*
X10509083Y-16403250D01*
X10509083Y-16422298D02*
X10518607Y-16412774D01*
X10518607Y-16412774D02*
X10537654Y-16403250D01*
X10537654Y-16403250D02*
X10566226Y-16403250D01*
X10566226Y-16403250D02*
X10585273Y-16412774D01*
X10585273Y-16412774D02*
X10594797Y-16431822D01*
X10594797Y-16431822D02*
X10594797Y-16536584D01*
X10594797Y-16431822D02*
X10604321Y-16412774D01*
X10604321Y-16412774D02*
X10623369Y-16403250D01*
X10623369Y-16403250D02*
X10651940Y-16403250D01*
X10651940Y-16403250D02*
X10670988Y-16412774D01*
X10670988Y-16412774D02*
X10680512Y-16431822D01*
X10680512Y-16431822D02*
X10680512Y-16536584D01*
X10775750Y-16536584D02*
X10775750Y-16403250D01*
X10775750Y-16422298D02*
X10785273Y-16412774D01*
X10785273Y-16412774D02*
X10804321Y-16403250D01*
X10804321Y-16403250D02*
X10832893Y-16403250D01*
X10832893Y-16403250D02*
X10851940Y-16412774D01*
X10851940Y-16412774D02*
X10861464Y-16431822D01*
X10861464Y-16431822D02*
X10861464Y-16536584D01*
X10861464Y-16431822D02*
X10870988Y-16412774D01*
X10870988Y-16412774D02*
X10890035Y-16403250D01*
X10890035Y-16403250D02*
X10918607Y-16403250D01*
X10918607Y-16403250D02*
X10937654Y-16412774D01*
X10937654Y-16412774D02*
X10947178Y-16431822D01*
X10947178Y-16431822D02*
X10947178Y-16536584D01*
X11337654Y-16327060D02*
X11166226Y-16584203D01*
X11594797Y-16336584D02*
X11613845Y-16336584D01*
X11613845Y-16336584D02*
X11632893Y-16346108D01*
X11632893Y-16346108D02*
X11642416Y-16355631D01*
X11642416Y-16355631D02*
X11651940Y-16374679D01*
X11651940Y-16374679D02*
X11661464Y-16412774D01*
X11661464Y-16412774D02*
X11661464Y-16460393D01*
X11661464Y-16460393D02*
X11651940Y-16498488D01*
X11651940Y-16498488D02*
X11642416Y-16517536D01*
X11642416Y-16517536D02*
X11632893Y-16527060D01*
X11632893Y-16527060D02*
X11613845Y-16536584D01*
X11613845Y-16536584D02*
X11594797Y-16536584D01*
X11594797Y-16536584D02*
X11575750Y-16527060D01*
X11575750Y-16527060D02*
X11566226Y-16517536D01*
X11566226Y-16517536D02*
X11556702Y-16498488D01*
X11556702Y-16498488D02*
X11547178Y-16460393D01*
X11547178Y-16460393D02*
X11547178Y-16412774D01*
X11547178Y-16412774D02*
X11556702Y-16374679D01*
X11556702Y-16374679D02*
X11566226Y-16355631D01*
X11566226Y-16355631D02*
X11575750Y-16346108D01*
X11575750Y-16346108D02*
X11594797Y-16336584D01*
X11747178Y-16517536D02*
X11756702Y-16527060D01*
X11756702Y-16527060D02*
X11747178Y-16536584D01*
X11747178Y-16536584D02*
X11737654Y-16527060D01*
X11737654Y-16527060D02*
X11747178Y-16517536D01*
X11747178Y-16517536D02*
X11747178Y-16536584D01*
X11880512Y-16336584D02*
X11899559Y-16336584D01*
X11899559Y-16336584D02*
X11918607Y-16346108D01*
X11918607Y-16346108D02*
X11928131Y-16355631D01*
X11928131Y-16355631D02*
X11937654Y-16374679D01*
X11937654Y-16374679D02*
X11947178Y-16412774D01*
X11947178Y-16412774D02*
X11947178Y-16460393D01*
X11947178Y-16460393D02*
X11937654Y-16498488D01*
X11937654Y-16498488D02*
X11928131Y-16517536D01*
X11928131Y-16517536D02*
X11918607Y-16527060D01*
X11918607Y-16527060D02*
X11899559Y-16536584D01*
X11899559Y-16536584D02*
X11880512Y-16536584D01*
X11880512Y-16536584D02*
X11861464Y-16527060D01*
X11861464Y-16527060D02*
X11851940Y-16517536D01*
X11851940Y-16517536D02*
X11842416Y-16498488D01*
X11842416Y-16498488D02*
X11832893Y-16460393D01*
X11832893Y-16460393D02*
X11832893Y-16412774D01*
X11832893Y-16412774D02*
X11842416Y-16374679D01*
X11842416Y-16374679D02*
X11851940Y-16355631D01*
X11851940Y-16355631D02*
X11861464Y-16346108D01*
X11861464Y-16346108D02*
X11880512Y-16336584D01*
X12013845Y-16336584D02*
X12137654Y-16336584D01*
X12137654Y-16336584D02*
X12070988Y-16412774D01*
X12070988Y-16412774D02*
X12099559Y-16412774D01*
X12099559Y-16412774D02*
X12118607Y-16422298D01*
X12118607Y-16422298D02*
X12128131Y-16431822D01*
X12128131Y-16431822D02*
X12137654Y-16450869D01*
X12137654Y-16450869D02*
X12137654Y-16498488D01*
X12137654Y-16498488D02*
X12128131Y-16517536D01*
X12128131Y-16517536D02*
X12118607Y-16527060D01*
X12118607Y-16527060D02*
X12099559Y-16536584D01*
X12099559Y-16536584D02*
X12042416Y-16536584D01*
X12042416Y-16536584D02*
X12023369Y-16527060D01*
X12023369Y-16527060D02*
X12013845Y-16517536D01*
X12309083Y-16336584D02*
X12270988Y-16336584D01*
X12270988Y-16336584D02*
X12251940Y-16346108D01*
X12251940Y-16346108D02*
X12242416Y-16355631D01*
X12242416Y-16355631D02*
X12223369Y-16384203D01*
X12223369Y-16384203D02*
X12213845Y-16422298D01*
X12213845Y-16422298D02*
X12213845Y-16498488D01*
X12213845Y-16498488D02*
X12223369Y-16517536D01*
X12223369Y-16517536D02*
X12232893Y-16527060D01*
X12232893Y-16527060D02*
X12251940Y-16536584D01*
X12251940Y-16536584D02*
X12290035Y-16536584D01*
X12290035Y-16536584D02*
X12309083Y-16527060D01*
X12309083Y-16527060D02*
X12318607Y-16517536D01*
X12318607Y-16517536D02*
X12328131Y-16498488D01*
X12328131Y-16498488D02*
X12328131Y-16450869D01*
X12328131Y-16450869D02*
X12318607Y-16431822D01*
X12318607Y-16431822D02*
X12309083Y-16422298D01*
X12309083Y-16422298D02*
X12290035Y-16412774D01*
X12290035Y-16412774D02*
X12251940Y-16412774D01*
X12251940Y-16412774D02*
X12232893Y-16422298D01*
X12232893Y-16422298D02*
X12223369Y-16431822D01*
X12223369Y-16431822D02*
X12213845Y-16450869D01*
X12499559Y-16336584D02*
X12461464Y-16336584D01*
X12461464Y-16336584D02*
X12442416Y-16346108D01*
X12442416Y-16346108D02*
X12432893Y-16355631D01*
X12432893Y-16355631D02*
X12413845Y-16384203D01*
X12413845Y-16384203D02*
X12404321Y-16422298D01*
X12404321Y-16422298D02*
X12404321Y-16498488D01*
X12404321Y-16498488D02*
X12413845Y-16517536D01*
X12413845Y-16517536D02*
X12423369Y-16527060D01*
X12423369Y-16527060D02*
X12442416Y-16536584D01*
X12442416Y-16536584D02*
X12480512Y-16536584D01*
X12480512Y-16536584D02*
X12499559Y-16527060D01*
X12499559Y-16527060D02*
X12509083Y-16517536D01*
X12509083Y-16517536D02*
X12518607Y-16498488D01*
X12518607Y-16498488D02*
X12518607Y-16450869D01*
X12518607Y-16450869D02*
X12509083Y-16431822D01*
X12509083Y-16431822D02*
X12499559Y-16422298D01*
X12499559Y-16422298D02*
X12480512Y-16412774D01*
X12480512Y-16412774D02*
X12442416Y-16412774D01*
X12442416Y-16412774D02*
X12423369Y-16422298D01*
X12423369Y-16422298D02*
X12413845Y-16431822D01*
X12413845Y-16431822D02*
X12404321Y-16450869D01*
X12594797Y-16336584D02*
X12594797Y-16374679D01*
X12670988Y-16336584D02*
X12670988Y-16374679D01*
X12966226Y-16612774D02*
X12956702Y-16603250D01*
X12956702Y-16603250D02*
X12937655Y-16574679D01*
X12937655Y-16574679D02*
X12928131Y-16555631D01*
X12928131Y-16555631D02*
X12918607Y-16527060D01*
X12918607Y-16527060D02*
X12909083Y-16479441D01*
X12909083Y-16479441D02*
X12909083Y-16441346D01*
X12909083Y-16441346D02*
X12918607Y-16393727D01*
X12918607Y-16393727D02*
X12928131Y-16365155D01*
X12928131Y-16365155D02*
X12937655Y-16346108D01*
X12937655Y-16346108D02*
X12956702Y-16317536D01*
X12956702Y-16317536D02*
X12966226Y-16308012D01*
X13128131Y-16403250D02*
X13128131Y-16536584D01*
X13080512Y-16327060D02*
X13032893Y-16469917D01*
X13032893Y-16469917D02*
X13156702Y-16469917D01*
X13385274Y-16536584D02*
X13385274Y-16336584D01*
X13470988Y-16536584D02*
X13470988Y-16431822D01*
X13470988Y-16431822D02*
X13461464Y-16412774D01*
X13461464Y-16412774D02*
X13442417Y-16403250D01*
X13442417Y-16403250D02*
X13413845Y-16403250D01*
X13413845Y-16403250D02*
X13394797Y-16412774D01*
X13394797Y-16412774D02*
X13385274Y-16422298D01*
X13594797Y-16536584D02*
X13575750Y-16527060D01*
X13575750Y-16527060D02*
X13566226Y-16517536D01*
X13566226Y-16517536D02*
X13556702Y-16498488D01*
X13556702Y-16498488D02*
X13556702Y-16441346D01*
X13556702Y-16441346D02*
X13566226Y-16422298D01*
X13566226Y-16422298D02*
X13575750Y-16412774D01*
X13575750Y-16412774D02*
X13594797Y-16403250D01*
X13594797Y-16403250D02*
X13623369Y-16403250D01*
X13623369Y-16403250D02*
X13642417Y-16412774D01*
X13642417Y-16412774D02*
X13651940Y-16422298D01*
X13651940Y-16422298D02*
X13661464Y-16441346D01*
X13661464Y-16441346D02*
X13661464Y-16498488D01*
X13661464Y-16498488D02*
X13651940Y-16517536D01*
X13651940Y-16517536D02*
X13642417Y-16527060D01*
X13642417Y-16527060D02*
X13623369Y-16536584D01*
X13623369Y-16536584D02*
X13594797Y-16536584D01*
X13775750Y-16536584D02*
X13756702Y-16527060D01*
X13756702Y-16527060D02*
X13747178Y-16508012D01*
X13747178Y-16508012D02*
X13747178Y-16336584D01*
X13928131Y-16527060D02*
X13909083Y-16536584D01*
X13909083Y-16536584D02*
X13870988Y-16536584D01*
X13870988Y-16536584D02*
X13851940Y-16527060D01*
X13851940Y-16527060D02*
X13842417Y-16508012D01*
X13842417Y-16508012D02*
X13842417Y-16431822D01*
X13842417Y-16431822D02*
X13851940Y-16412774D01*
X13851940Y-16412774D02*
X13870988Y-16403250D01*
X13870988Y-16403250D02*
X13909083Y-16403250D01*
X13909083Y-16403250D02*
X13928131Y-16412774D01*
X13928131Y-16412774D02*
X13937655Y-16431822D01*
X13937655Y-16431822D02*
X13937655Y-16450869D01*
X13937655Y-16450869D02*
X13842417Y-16469917D01*
X14013845Y-16527060D02*
X14032893Y-16536584D01*
X14032893Y-16536584D02*
X14070988Y-16536584D01*
X14070988Y-16536584D02*
X14090036Y-16527060D01*
X14090036Y-16527060D02*
X14099559Y-16508012D01*
X14099559Y-16508012D02*
X14099559Y-16498488D01*
X14099559Y-16498488D02*
X14090036Y-16479441D01*
X14090036Y-16479441D02*
X14070988Y-16469917D01*
X14070988Y-16469917D02*
X14042417Y-16469917D01*
X14042417Y-16469917D02*
X14023369Y-16460393D01*
X14023369Y-16460393D02*
X14013845Y-16441346D01*
X14013845Y-16441346D02*
X14013845Y-16431822D01*
X14013845Y-16431822D02*
X14023369Y-16412774D01*
X14023369Y-16412774D02*
X14042417Y-16403250D01*
X14042417Y-16403250D02*
X14070988Y-16403250D01*
X14070988Y-16403250D02*
X14090036Y-16412774D01*
X14166226Y-16612774D02*
X14175750Y-16603250D01*
X14175750Y-16603250D02*
X14194798Y-16574679D01*
X14194798Y-16574679D02*
X14204321Y-16555631D01*
X14204321Y-16555631D02*
X14213845Y-16527060D01*
X14213845Y-16527060D02*
X14223369Y-16479441D01*
X14223369Y-16479441D02*
X14223369Y-16441346D01*
X14223369Y-16441346D02*
X14213845Y-16393727D01*
X14213845Y-16393727D02*
X14204321Y-16365155D01*
X14204321Y-16365155D02*
X14194798Y-16346108D01*
X14194798Y-16346108D02*
X14175750Y-16317536D01*
X14175750Y-16317536D02*
X14166226Y-16308012D01*
D13*
X9341163Y-16759100D02*
X9391163Y-16709100D01*
X9341163Y-16659100D01*
X9291163Y-16709100D01*
X9341163Y-16759100D01*
D12*
X9756702Y-16800584D02*
X9642416Y-16800584D01*
X9699559Y-16800584D02*
X9699559Y-16600584D01*
X9699559Y-16600584D02*
X9680511Y-16629155D01*
X9680511Y-16629155D02*
X9661464Y-16648203D01*
X9661464Y-16648203D02*
X9642416Y-16657727D01*
X9842416Y-16781536D02*
X9851940Y-16791060D01*
X9851940Y-16791060D02*
X9842416Y-16800584D01*
X9842416Y-16800584D02*
X9832892Y-16791060D01*
X9832892Y-16791060D02*
X9842416Y-16781536D01*
X9842416Y-16781536D02*
X9842416Y-16800584D01*
X9975750Y-16600584D02*
X9994797Y-16600584D01*
X9994797Y-16600584D02*
X10013845Y-16610108D01*
X10013845Y-16610108D02*
X10023369Y-16619631D01*
X10023369Y-16619631D02*
X10032892Y-16638679D01*
X10032892Y-16638679D02*
X10042416Y-16676774D01*
X10042416Y-16676774D02*
X10042416Y-16724393D01*
X10042416Y-16724393D02*
X10032892Y-16762488D01*
X10032892Y-16762488D02*
X10023369Y-16781536D01*
X10023369Y-16781536D02*
X10013845Y-16791060D01*
X10013845Y-16791060D02*
X9994797Y-16800584D01*
X9994797Y-16800584D02*
X9975750Y-16800584D01*
X9975750Y-16800584D02*
X9956702Y-16791060D01*
X9956702Y-16791060D02*
X9947178Y-16781536D01*
X9947178Y-16781536D02*
X9937654Y-16762488D01*
X9937654Y-16762488D02*
X9928131Y-16724393D01*
X9928131Y-16724393D02*
X9928131Y-16676774D01*
X9928131Y-16676774D02*
X9937654Y-16638679D01*
X9937654Y-16638679D02*
X9947178Y-16619631D01*
X9947178Y-16619631D02*
X9956702Y-16610108D01*
X9956702Y-16610108D02*
X9975750Y-16600584D01*
X10166226Y-16600584D02*
X10185273Y-16600584D01*
X10185273Y-16600584D02*
X10204321Y-16610108D01*
X10204321Y-16610108D02*
X10213845Y-16619631D01*
X10213845Y-16619631D02*
X10223369Y-16638679D01*
X10223369Y-16638679D02*
X10232892Y-16676774D01*
X10232892Y-16676774D02*
X10232892Y-16724393D01*
X10232892Y-16724393D02*
X10223369Y-16762488D01*
X10223369Y-16762488D02*
X10213845Y-16781536D01*
X10213845Y-16781536D02*
X10204321Y-16791060D01*
X10204321Y-16791060D02*
X10185273Y-16800584D01*
X10185273Y-16800584D02*
X10166226Y-16800584D01*
X10166226Y-16800584D02*
X10147178Y-16791060D01*
X10147178Y-16791060D02*
X10137654Y-16781536D01*
X10137654Y-16781536D02*
X10128131Y-16762488D01*
X10128131Y-16762488D02*
X10118607Y-16724393D01*
X10118607Y-16724393D02*
X10118607Y-16676774D01*
X10118607Y-16676774D02*
X10128131Y-16638679D01*
X10128131Y-16638679D02*
X10137654Y-16619631D01*
X10137654Y-16619631D02*
X10147178Y-16610108D01*
X10147178Y-16610108D02*
X10166226Y-16600584D01*
X10356702Y-16600584D02*
X10375750Y-16600584D01*
X10375750Y-16600584D02*
X10394797Y-16610108D01*
X10394797Y-16610108D02*
X10404321Y-16619631D01*
X10404321Y-16619631D02*
X10413845Y-16638679D01*
X10413845Y-16638679D02*
X10423369Y-16676774D01*
X10423369Y-16676774D02*
X10423369Y-16724393D01*
X10423369Y-16724393D02*
X10413845Y-16762488D01*
X10413845Y-16762488D02*
X10404321Y-16781536D01*
X10404321Y-16781536D02*
X10394797Y-16791060D01*
X10394797Y-16791060D02*
X10375750Y-16800584D01*
X10375750Y-16800584D02*
X10356702Y-16800584D01*
X10356702Y-16800584D02*
X10337654Y-16791060D01*
X10337654Y-16791060D02*
X10328131Y-16781536D01*
X10328131Y-16781536D02*
X10318607Y-16762488D01*
X10318607Y-16762488D02*
X10309083Y-16724393D01*
X10309083Y-16724393D02*
X10309083Y-16676774D01*
X10309083Y-16676774D02*
X10318607Y-16638679D01*
X10318607Y-16638679D02*
X10328131Y-16619631D01*
X10328131Y-16619631D02*
X10337654Y-16610108D01*
X10337654Y-16610108D02*
X10356702Y-16600584D01*
X10509083Y-16800584D02*
X10509083Y-16667250D01*
X10509083Y-16686298D02*
X10518607Y-16676774D01*
X10518607Y-16676774D02*
X10537654Y-16667250D01*
X10537654Y-16667250D02*
X10566226Y-16667250D01*
X10566226Y-16667250D02*
X10585273Y-16676774D01*
X10585273Y-16676774D02*
X10594797Y-16695822D01*
X10594797Y-16695822D02*
X10594797Y-16800584D01*
X10594797Y-16695822D02*
X10604321Y-16676774D01*
X10604321Y-16676774D02*
X10623369Y-16667250D01*
X10623369Y-16667250D02*
X10651940Y-16667250D01*
X10651940Y-16667250D02*
X10670988Y-16676774D01*
X10670988Y-16676774D02*
X10680512Y-16695822D01*
X10680512Y-16695822D02*
X10680512Y-16800584D01*
X10775750Y-16800584D02*
X10775750Y-16667250D01*
X10775750Y-16686298D02*
X10785273Y-16676774D01*
X10785273Y-16676774D02*
X10804321Y-16667250D01*
X10804321Y-16667250D02*
X10832893Y-16667250D01*
X10832893Y-16667250D02*
X10851940Y-16676774D01*
X10851940Y-16676774D02*
X10861464Y-16695822D01*
X10861464Y-16695822D02*
X10861464Y-16800584D01*
X10861464Y-16695822D02*
X10870988Y-16676774D01*
X10870988Y-16676774D02*
X10890035Y-16667250D01*
X10890035Y-16667250D02*
X10918607Y-16667250D01*
X10918607Y-16667250D02*
X10937654Y-16676774D01*
X10937654Y-16676774D02*
X10947178Y-16695822D01*
X10947178Y-16695822D02*
X10947178Y-16800584D01*
X11337654Y-16591060D02*
X11166226Y-16848203D01*
X11594797Y-16600584D02*
X11613845Y-16600584D01*
X11613845Y-16600584D02*
X11632893Y-16610108D01*
X11632893Y-16610108D02*
X11642416Y-16619631D01*
X11642416Y-16619631D02*
X11651940Y-16638679D01*
X11651940Y-16638679D02*
X11661464Y-16676774D01*
X11661464Y-16676774D02*
X11661464Y-16724393D01*
X11661464Y-16724393D02*
X11651940Y-16762488D01*
X11651940Y-16762488D02*
X11642416Y-16781536D01*
X11642416Y-16781536D02*
X11632893Y-16791060D01*
X11632893Y-16791060D02*
X11613845Y-16800584D01*
X11613845Y-16800584D02*
X11594797Y-16800584D01*
X11594797Y-16800584D02*
X11575750Y-16791060D01*
X11575750Y-16791060D02*
X11566226Y-16781536D01*
X11566226Y-16781536D02*
X11556702Y-16762488D01*
X11556702Y-16762488D02*
X11547178Y-16724393D01*
X11547178Y-16724393D02*
X11547178Y-16676774D01*
X11547178Y-16676774D02*
X11556702Y-16638679D01*
X11556702Y-16638679D02*
X11566226Y-16619631D01*
X11566226Y-16619631D02*
X11575750Y-16610108D01*
X11575750Y-16610108D02*
X11594797Y-16600584D01*
X11747178Y-16781536D02*
X11756702Y-16791060D01*
X11756702Y-16791060D02*
X11747178Y-16800584D01*
X11747178Y-16800584D02*
X11737654Y-16791060D01*
X11737654Y-16791060D02*
X11747178Y-16781536D01*
X11747178Y-16781536D02*
X11747178Y-16800584D01*
X11880512Y-16600584D02*
X11899559Y-16600584D01*
X11899559Y-16600584D02*
X11918607Y-16610108D01*
X11918607Y-16610108D02*
X11928131Y-16619631D01*
X11928131Y-16619631D02*
X11937654Y-16638679D01*
X11937654Y-16638679D02*
X11947178Y-16676774D01*
X11947178Y-16676774D02*
X11947178Y-16724393D01*
X11947178Y-16724393D02*
X11937654Y-16762488D01*
X11937654Y-16762488D02*
X11928131Y-16781536D01*
X11928131Y-16781536D02*
X11918607Y-16791060D01*
X11918607Y-16791060D02*
X11899559Y-16800584D01*
X11899559Y-16800584D02*
X11880512Y-16800584D01*
X11880512Y-16800584D02*
X11861464Y-16791060D01*
X11861464Y-16791060D02*
X11851940Y-16781536D01*
X11851940Y-16781536D02*
X11842416Y-16762488D01*
X11842416Y-16762488D02*
X11832893Y-16724393D01*
X11832893Y-16724393D02*
X11832893Y-16676774D01*
X11832893Y-16676774D02*
X11842416Y-16638679D01*
X11842416Y-16638679D02*
X11851940Y-16619631D01*
X11851940Y-16619631D02*
X11861464Y-16610108D01*
X11861464Y-16610108D02*
X11880512Y-16600584D01*
X12013845Y-16600584D02*
X12137654Y-16600584D01*
X12137654Y-16600584D02*
X12070988Y-16676774D01*
X12070988Y-16676774D02*
X12099559Y-16676774D01*
X12099559Y-16676774D02*
X12118607Y-16686298D01*
X12118607Y-16686298D02*
X12128131Y-16695822D01*
X12128131Y-16695822D02*
X12137654Y-16714869D01*
X12137654Y-16714869D02*
X12137654Y-16762488D01*
X12137654Y-16762488D02*
X12128131Y-16781536D01*
X12128131Y-16781536D02*
X12118607Y-16791060D01*
X12118607Y-16791060D02*
X12099559Y-16800584D01*
X12099559Y-16800584D02*
X12042416Y-16800584D01*
X12042416Y-16800584D02*
X12023369Y-16791060D01*
X12023369Y-16791060D02*
X12013845Y-16781536D01*
X12232893Y-16800584D02*
X12270988Y-16800584D01*
X12270988Y-16800584D02*
X12290035Y-16791060D01*
X12290035Y-16791060D02*
X12299559Y-16781536D01*
X12299559Y-16781536D02*
X12318607Y-16752965D01*
X12318607Y-16752965D02*
X12328131Y-16714869D01*
X12328131Y-16714869D02*
X12328131Y-16638679D01*
X12328131Y-16638679D02*
X12318607Y-16619631D01*
X12318607Y-16619631D02*
X12309083Y-16610108D01*
X12309083Y-16610108D02*
X12290035Y-16600584D01*
X12290035Y-16600584D02*
X12251940Y-16600584D01*
X12251940Y-16600584D02*
X12232893Y-16610108D01*
X12232893Y-16610108D02*
X12223369Y-16619631D01*
X12223369Y-16619631D02*
X12213845Y-16638679D01*
X12213845Y-16638679D02*
X12213845Y-16686298D01*
X12213845Y-16686298D02*
X12223369Y-16705346D01*
X12223369Y-16705346D02*
X12232893Y-16714869D01*
X12232893Y-16714869D02*
X12251940Y-16724393D01*
X12251940Y-16724393D02*
X12290035Y-16724393D01*
X12290035Y-16724393D02*
X12309083Y-16714869D01*
X12309083Y-16714869D02*
X12318607Y-16705346D01*
X12318607Y-16705346D02*
X12328131Y-16686298D01*
X12499559Y-16667250D02*
X12499559Y-16800584D01*
X12451940Y-16591060D02*
X12404321Y-16733917D01*
X12404321Y-16733917D02*
X12528131Y-16733917D01*
X12594797Y-16600584D02*
X12594797Y-16638679D01*
X12670988Y-16600584D02*
X12670988Y-16638679D01*
X12966226Y-16876774D02*
X12956702Y-16867250D01*
X12956702Y-16867250D02*
X12937655Y-16838679D01*
X12937655Y-16838679D02*
X12928131Y-16819631D01*
X12928131Y-16819631D02*
X12918607Y-16791060D01*
X12918607Y-16791060D02*
X12909083Y-16743441D01*
X12909083Y-16743441D02*
X12909083Y-16705346D01*
X12909083Y-16705346D02*
X12918607Y-16657727D01*
X12918607Y-16657727D02*
X12928131Y-16629155D01*
X12928131Y-16629155D02*
X12937655Y-16610108D01*
X12937655Y-16610108D02*
X12956702Y-16581536D01*
X12956702Y-16581536D02*
X12966226Y-16572012D01*
X13032893Y-16619631D02*
X13042416Y-16610108D01*
X13042416Y-16610108D02*
X13061464Y-16600584D01*
X13061464Y-16600584D02*
X13109083Y-16600584D01*
X13109083Y-16600584D02*
X13128131Y-16610108D01*
X13128131Y-16610108D02*
X13137655Y-16619631D01*
X13137655Y-16619631D02*
X13147178Y-16638679D01*
X13147178Y-16638679D02*
X13147178Y-16657727D01*
X13147178Y-16657727D02*
X13137655Y-16686298D01*
X13137655Y-16686298D02*
X13023369Y-16800584D01*
X13023369Y-16800584D02*
X13147178Y-16800584D01*
X13213845Y-16600584D02*
X13347178Y-16600584D01*
X13347178Y-16600584D02*
X13261464Y-16800584D01*
X13575750Y-16800584D02*
X13575750Y-16600584D01*
X13661464Y-16800584D02*
X13661464Y-16695822D01*
X13661464Y-16695822D02*
X13651940Y-16676774D01*
X13651940Y-16676774D02*
X13632893Y-16667250D01*
X13632893Y-16667250D02*
X13604321Y-16667250D01*
X13604321Y-16667250D02*
X13585274Y-16676774D01*
X13585274Y-16676774D02*
X13575750Y-16686298D01*
X13785274Y-16800584D02*
X13766226Y-16791060D01*
X13766226Y-16791060D02*
X13756702Y-16781536D01*
X13756702Y-16781536D02*
X13747178Y-16762488D01*
X13747178Y-16762488D02*
X13747178Y-16705346D01*
X13747178Y-16705346D02*
X13756702Y-16686298D01*
X13756702Y-16686298D02*
X13766226Y-16676774D01*
X13766226Y-16676774D02*
X13785274Y-16667250D01*
X13785274Y-16667250D02*
X13813845Y-16667250D01*
X13813845Y-16667250D02*
X13832893Y-16676774D01*
X13832893Y-16676774D02*
X13842417Y-16686298D01*
X13842417Y-16686298D02*
X13851940Y-16705346D01*
X13851940Y-16705346D02*
X13851940Y-16762488D01*
X13851940Y-16762488D02*
X13842417Y-16781536D01*
X13842417Y-16781536D02*
X13832893Y-16791060D01*
X13832893Y-16791060D02*
X13813845Y-16800584D01*
X13813845Y-16800584D02*
X13785274Y-16800584D01*
X13966226Y-16800584D02*
X13947178Y-16791060D01*
X13947178Y-16791060D02*
X13937655Y-16772012D01*
X13937655Y-16772012D02*
X13937655Y-16600584D01*
X14118607Y-16791060D02*
X14099559Y-16800584D01*
X14099559Y-16800584D02*
X14061464Y-16800584D01*
X14061464Y-16800584D02*
X14042417Y-16791060D01*
X14042417Y-16791060D02*
X14032893Y-16772012D01*
X14032893Y-16772012D02*
X14032893Y-16695822D01*
X14032893Y-16695822D02*
X14042417Y-16676774D01*
X14042417Y-16676774D02*
X14061464Y-16667250D01*
X14061464Y-16667250D02*
X14099559Y-16667250D01*
X14099559Y-16667250D02*
X14118607Y-16676774D01*
X14118607Y-16676774D02*
X14128131Y-16695822D01*
X14128131Y-16695822D02*
X14128131Y-16714869D01*
X14128131Y-16714869D02*
X14032893Y-16733917D01*
X14204321Y-16791060D02*
X14223369Y-16800584D01*
X14223369Y-16800584D02*
X14261464Y-16800584D01*
X14261464Y-16800584D02*
X14280512Y-16791060D01*
X14280512Y-16791060D02*
X14290036Y-16772012D01*
X14290036Y-16772012D02*
X14290036Y-16762488D01*
X14290036Y-16762488D02*
X14280512Y-16743441D01*
X14280512Y-16743441D02*
X14261464Y-16733917D01*
X14261464Y-16733917D02*
X14232893Y-16733917D01*
X14232893Y-16733917D02*
X14213845Y-16724393D01*
X14213845Y-16724393D02*
X14204321Y-16705346D01*
X14204321Y-16705346D02*
X14204321Y-16695822D01*
X14204321Y-16695822D02*
X14213845Y-16676774D01*
X14213845Y-16676774D02*
X14232893Y-16667250D01*
X14232893Y-16667250D02*
X14261464Y-16667250D01*
X14261464Y-16667250D02*
X14280512Y-16676774D01*
X14356702Y-16876774D02*
X14366226Y-16867250D01*
X14366226Y-16867250D02*
X14385274Y-16838679D01*
X14385274Y-16838679D02*
X14394798Y-16819631D01*
X14394798Y-16819631D02*
X14404321Y-16791060D01*
X14404321Y-16791060D02*
X14413845Y-16743441D01*
X14413845Y-16743441D02*
X14413845Y-16705346D01*
X14413845Y-16705346D02*
X14404321Y-16657727D01*
X14404321Y-16657727D02*
X14394798Y-16629155D01*
X14394798Y-16629155D02*
X14385274Y-16610108D01*
X14385274Y-16610108D02*
X14366226Y-16581536D01*
X14366226Y-16581536D02*
X14356702Y-16572012D01*
D14*
X9286163Y-16920600D02*
X9391163Y-17025600D01*
X9391163Y-16920600D02*
X9286163Y-17025600D01*
X9391163Y-16973100D02*
G75*
G02*
X9286163Y-16973100I-52500J0D01*
G01*
X9286163Y-16973100D02*
G75*
G02*
X9391163Y-16973100I52500J0D01*
G01*
D12*
X9756702Y-17064584D02*
X9642416Y-17064584D01*
X9699559Y-17064584D02*
X9699559Y-16864584D01*
X9699559Y-16864584D02*
X9680511Y-16893155D01*
X9680511Y-16893155D02*
X9661464Y-16912203D01*
X9661464Y-16912203D02*
X9642416Y-16921727D01*
X9842416Y-17045536D02*
X9851940Y-17055060D01*
X9851940Y-17055060D02*
X9842416Y-17064584D01*
X9842416Y-17064584D02*
X9832892Y-17055060D01*
X9832892Y-17055060D02*
X9842416Y-17045536D01*
X9842416Y-17045536D02*
X9842416Y-17064584D01*
X9975750Y-16864584D02*
X9994797Y-16864584D01*
X9994797Y-16864584D02*
X10013845Y-16874108D01*
X10013845Y-16874108D02*
X10023369Y-16883631D01*
X10023369Y-16883631D02*
X10032892Y-16902679D01*
X10032892Y-16902679D02*
X10042416Y-16940774D01*
X10042416Y-16940774D02*
X10042416Y-16988393D01*
X10042416Y-16988393D02*
X10032892Y-17026489D01*
X10032892Y-17026489D02*
X10023369Y-17045536D01*
X10023369Y-17045536D02*
X10013845Y-17055060D01*
X10013845Y-17055060D02*
X9994797Y-17064584D01*
X9994797Y-17064584D02*
X9975750Y-17064584D01*
X9975750Y-17064584D02*
X9956702Y-17055060D01*
X9956702Y-17055060D02*
X9947178Y-17045536D01*
X9947178Y-17045536D02*
X9937654Y-17026489D01*
X9937654Y-17026489D02*
X9928131Y-16988393D01*
X9928131Y-16988393D02*
X9928131Y-16940774D01*
X9928131Y-16940774D02*
X9937654Y-16902679D01*
X9937654Y-16902679D02*
X9947178Y-16883631D01*
X9947178Y-16883631D02*
X9956702Y-16874108D01*
X9956702Y-16874108D02*
X9975750Y-16864584D01*
X10223369Y-16864584D02*
X10128131Y-16864584D01*
X10128131Y-16864584D02*
X10118607Y-16959822D01*
X10118607Y-16959822D02*
X10128131Y-16950298D01*
X10128131Y-16950298D02*
X10147178Y-16940774D01*
X10147178Y-16940774D02*
X10194797Y-16940774D01*
X10194797Y-16940774D02*
X10213845Y-16950298D01*
X10213845Y-16950298D02*
X10223369Y-16959822D01*
X10223369Y-16959822D02*
X10232892Y-16978870D01*
X10232892Y-16978870D02*
X10232892Y-17026489D01*
X10232892Y-17026489D02*
X10223369Y-17045536D01*
X10223369Y-17045536D02*
X10213845Y-17055060D01*
X10213845Y-17055060D02*
X10194797Y-17064584D01*
X10194797Y-17064584D02*
X10147178Y-17064584D01*
X10147178Y-17064584D02*
X10128131Y-17055060D01*
X10128131Y-17055060D02*
X10118607Y-17045536D01*
X10356702Y-16864584D02*
X10375750Y-16864584D01*
X10375750Y-16864584D02*
X10394797Y-16874108D01*
X10394797Y-16874108D02*
X10404321Y-16883631D01*
X10404321Y-16883631D02*
X10413845Y-16902679D01*
X10413845Y-16902679D02*
X10423369Y-16940774D01*
X10423369Y-16940774D02*
X10423369Y-16988393D01*
X10423369Y-16988393D02*
X10413845Y-17026489D01*
X10413845Y-17026489D02*
X10404321Y-17045536D01*
X10404321Y-17045536D02*
X10394797Y-17055060D01*
X10394797Y-17055060D02*
X10375750Y-17064584D01*
X10375750Y-17064584D02*
X10356702Y-17064584D01*
X10356702Y-17064584D02*
X10337654Y-17055060D01*
X10337654Y-17055060D02*
X10328131Y-17045536D01*
X10328131Y-17045536D02*
X10318607Y-17026489D01*
X10318607Y-17026489D02*
X10309083Y-16988393D01*
X10309083Y-16988393D02*
X10309083Y-16940774D01*
X10309083Y-16940774D02*
X10318607Y-16902679D01*
X10318607Y-16902679D02*
X10328131Y-16883631D01*
X10328131Y-16883631D02*
X10337654Y-16874108D01*
X10337654Y-16874108D02*
X10356702Y-16864584D01*
X10509083Y-17064584D02*
X10509083Y-16931250D01*
X10509083Y-16950298D02*
X10518607Y-16940774D01*
X10518607Y-16940774D02*
X10537654Y-16931250D01*
X10537654Y-16931250D02*
X10566226Y-16931250D01*
X10566226Y-16931250D02*
X10585273Y-16940774D01*
X10585273Y-16940774D02*
X10594797Y-16959822D01*
X10594797Y-16959822D02*
X10594797Y-17064584D01*
X10594797Y-16959822D02*
X10604321Y-16940774D01*
X10604321Y-16940774D02*
X10623369Y-16931250D01*
X10623369Y-16931250D02*
X10651940Y-16931250D01*
X10651940Y-16931250D02*
X10670988Y-16940774D01*
X10670988Y-16940774D02*
X10680512Y-16959822D01*
X10680512Y-16959822D02*
X10680512Y-17064584D01*
X10775750Y-17064584D02*
X10775750Y-16931250D01*
X10775750Y-16950298D02*
X10785273Y-16940774D01*
X10785273Y-16940774D02*
X10804321Y-16931250D01*
X10804321Y-16931250D02*
X10832893Y-16931250D01*
X10832893Y-16931250D02*
X10851940Y-16940774D01*
X10851940Y-16940774D02*
X10861464Y-16959822D01*
X10861464Y-16959822D02*
X10861464Y-17064584D01*
X10861464Y-16959822D02*
X10870988Y-16940774D01*
X10870988Y-16940774D02*
X10890035Y-16931250D01*
X10890035Y-16931250D02*
X10918607Y-16931250D01*
X10918607Y-16931250D02*
X10937654Y-16940774D01*
X10937654Y-16940774D02*
X10947178Y-16959822D01*
X10947178Y-16959822D02*
X10947178Y-17064584D01*
X11337654Y-16855060D02*
X11166226Y-17112203D01*
X11594797Y-16864584D02*
X11613845Y-16864584D01*
X11613845Y-16864584D02*
X11632893Y-16874108D01*
X11632893Y-16874108D02*
X11642416Y-16883631D01*
X11642416Y-16883631D02*
X11651940Y-16902679D01*
X11651940Y-16902679D02*
X11661464Y-16940774D01*
X11661464Y-16940774D02*
X11661464Y-16988393D01*
X11661464Y-16988393D02*
X11651940Y-17026489D01*
X11651940Y-17026489D02*
X11642416Y-17045536D01*
X11642416Y-17045536D02*
X11632893Y-17055060D01*
X11632893Y-17055060D02*
X11613845Y-17064584D01*
X11613845Y-17064584D02*
X11594797Y-17064584D01*
X11594797Y-17064584D02*
X11575750Y-17055060D01*
X11575750Y-17055060D02*
X11566226Y-17045536D01*
X11566226Y-17045536D02*
X11556702Y-17026489D01*
X11556702Y-17026489D02*
X11547178Y-16988393D01*
X11547178Y-16988393D02*
X11547178Y-16940774D01*
X11547178Y-16940774D02*
X11556702Y-16902679D01*
X11556702Y-16902679D02*
X11566226Y-16883631D01*
X11566226Y-16883631D02*
X11575750Y-16874108D01*
X11575750Y-16874108D02*
X11594797Y-16864584D01*
X11747178Y-17045536D02*
X11756702Y-17055060D01*
X11756702Y-17055060D02*
X11747178Y-17064584D01*
X11747178Y-17064584D02*
X11737654Y-17055060D01*
X11737654Y-17055060D02*
X11747178Y-17045536D01*
X11747178Y-17045536D02*
X11747178Y-17064584D01*
X11880512Y-16864584D02*
X11899559Y-16864584D01*
X11899559Y-16864584D02*
X11918607Y-16874108D01*
X11918607Y-16874108D02*
X11928131Y-16883631D01*
X11928131Y-16883631D02*
X11937654Y-16902679D01*
X11937654Y-16902679D02*
X11947178Y-16940774D01*
X11947178Y-16940774D02*
X11947178Y-16988393D01*
X11947178Y-16988393D02*
X11937654Y-17026489D01*
X11937654Y-17026489D02*
X11928131Y-17045536D01*
X11928131Y-17045536D02*
X11918607Y-17055060D01*
X11918607Y-17055060D02*
X11899559Y-17064584D01*
X11899559Y-17064584D02*
X11880512Y-17064584D01*
X11880512Y-17064584D02*
X11861464Y-17055060D01*
X11861464Y-17055060D02*
X11851940Y-17045536D01*
X11851940Y-17045536D02*
X11842416Y-17026489D01*
X11842416Y-17026489D02*
X11832893Y-16988393D01*
X11832893Y-16988393D02*
X11832893Y-16940774D01*
X11832893Y-16940774D02*
X11842416Y-16902679D01*
X11842416Y-16902679D02*
X11851940Y-16883631D01*
X11851940Y-16883631D02*
X11861464Y-16874108D01*
X11861464Y-16874108D02*
X11880512Y-16864584D01*
X12118607Y-16931250D02*
X12118607Y-17064584D01*
X12070988Y-16855060D02*
X12023369Y-16997917D01*
X12023369Y-16997917D02*
X12147178Y-16997917D01*
X12328131Y-17064584D02*
X12213845Y-17064584D01*
X12270988Y-17064584D02*
X12270988Y-16864584D01*
X12270988Y-16864584D02*
X12251940Y-16893155D01*
X12251940Y-16893155D02*
X12232893Y-16912203D01*
X12232893Y-16912203D02*
X12213845Y-16921727D01*
X12394797Y-16864584D02*
X12518607Y-16864584D01*
X12518607Y-16864584D02*
X12451940Y-16940774D01*
X12451940Y-16940774D02*
X12480512Y-16940774D01*
X12480512Y-16940774D02*
X12499559Y-16950298D01*
X12499559Y-16950298D02*
X12509083Y-16959822D01*
X12509083Y-16959822D02*
X12518607Y-16978870D01*
X12518607Y-16978870D02*
X12518607Y-17026489D01*
X12518607Y-17026489D02*
X12509083Y-17045536D01*
X12509083Y-17045536D02*
X12499559Y-17055060D01*
X12499559Y-17055060D02*
X12480512Y-17064584D01*
X12480512Y-17064584D02*
X12423369Y-17064584D01*
X12423369Y-17064584D02*
X12404321Y-17055060D01*
X12404321Y-17055060D02*
X12394797Y-17045536D01*
X12594797Y-16864584D02*
X12594797Y-16902679D01*
X12670988Y-16864584D02*
X12670988Y-16902679D01*
X12966226Y-17140774D02*
X12956702Y-17131250D01*
X12956702Y-17131250D02*
X12937655Y-17102679D01*
X12937655Y-17102679D02*
X12928131Y-17083631D01*
X12928131Y-17083631D02*
X12918607Y-17055060D01*
X12918607Y-17055060D02*
X12909083Y-17007441D01*
X12909083Y-17007441D02*
X12909083Y-16969346D01*
X12909083Y-16969346D02*
X12918607Y-16921727D01*
X12918607Y-16921727D02*
X12928131Y-16893155D01*
X12928131Y-16893155D02*
X12937655Y-16874108D01*
X12937655Y-16874108D02*
X12956702Y-16845536D01*
X12956702Y-16845536D02*
X12966226Y-16836012D01*
X13147178Y-17064584D02*
X13032893Y-17064584D01*
X13090035Y-17064584D02*
X13090035Y-16864584D01*
X13090035Y-16864584D02*
X13070988Y-16893155D01*
X13070988Y-16893155D02*
X13051940Y-16912203D01*
X13051940Y-16912203D02*
X13032893Y-16921727D01*
X13270988Y-16864584D02*
X13290036Y-16864584D01*
X13290036Y-16864584D02*
X13309083Y-16874108D01*
X13309083Y-16874108D02*
X13318607Y-16883631D01*
X13318607Y-16883631D02*
X13328131Y-16902679D01*
X13328131Y-16902679D02*
X13337655Y-16940774D01*
X13337655Y-16940774D02*
X13337655Y-16988393D01*
X13337655Y-16988393D02*
X13328131Y-17026489D01*
X13328131Y-17026489D02*
X13318607Y-17045536D01*
X13318607Y-17045536D02*
X13309083Y-17055060D01*
X13309083Y-17055060D02*
X13290036Y-17064584D01*
X13290036Y-17064584D02*
X13270988Y-17064584D01*
X13270988Y-17064584D02*
X13251940Y-17055060D01*
X13251940Y-17055060D02*
X13242416Y-17045536D01*
X13242416Y-17045536D02*
X13232893Y-17026489D01*
X13232893Y-17026489D02*
X13223369Y-16988393D01*
X13223369Y-16988393D02*
X13223369Y-16940774D01*
X13223369Y-16940774D02*
X13232893Y-16902679D01*
X13232893Y-16902679D02*
X13242416Y-16883631D01*
X13242416Y-16883631D02*
X13251940Y-16874108D01*
X13251940Y-16874108D02*
X13270988Y-16864584D01*
X13575750Y-17064584D02*
X13575750Y-16864584D01*
X13661464Y-17064584D02*
X13661464Y-16959822D01*
X13661464Y-16959822D02*
X13651940Y-16940774D01*
X13651940Y-16940774D02*
X13632893Y-16931250D01*
X13632893Y-16931250D02*
X13604321Y-16931250D01*
X13604321Y-16931250D02*
X13585274Y-16940774D01*
X13585274Y-16940774D02*
X13575750Y-16950298D01*
X13785274Y-17064584D02*
X13766226Y-17055060D01*
X13766226Y-17055060D02*
X13756702Y-17045536D01*
X13756702Y-17045536D02*
X13747178Y-17026489D01*
X13747178Y-17026489D02*
X13747178Y-16969346D01*
X13747178Y-16969346D02*
X13756702Y-16950298D01*
X13756702Y-16950298D02*
X13766226Y-16940774D01*
X13766226Y-16940774D02*
X13785274Y-16931250D01*
X13785274Y-16931250D02*
X13813845Y-16931250D01*
X13813845Y-16931250D02*
X13832893Y-16940774D01*
X13832893Y-16940774D02*
X13842417Y-16950298D01*
X13842417Y-16950298D02*
X13851940Y-16969346D01*
X13851940Y-16969346D02*
X13851940Y-17026489D01*
X13851940Y-17026489D02*
X13842417Y-17045536D01*
X13842417Y-17045536D02*
X13832893Y-17055060D01*
X13832893Y-17055060D02*
X13813845Y-17064584D01*
X13813845Y-17064584D02*
X13785274Y-17064584D01*
X13966226Y-17064584D02*
X13947178Y-17055060D01*
X13947178Y-17055060D02*
X13937655Y-17036012D01*
X13937655Y-17036012D02*
X13937655Y-16864584D01*
X14118607Y-17055060D02*
X14099559Y-17064584D01*
X14099559Y-17064584D02*
X14061464Y-17064584D01*
X14061464Y-17064584D02*
X14042417Y-17055060D01*
X14042417Y-17055060D02*
X14032893Y-17036012D01*
X14032893Y-17036012D02*
X14032893Y-16959822D01*
X14032893Y-16959822D02*
X14042417Y-16940774D01*
X14042417Y-16940774D02*
X14061464Y-16931250D01*
X14061464Y-16931250D02*
X14099559Y-16931250D01*
X14099559Y-16931250D02*
X14118607Y-16940774D01*
X14118607Y-16940774D02*
X14128131Y-16959822D01*
X14128131Y-16959822D02*
X14128131Y-16978870D01*
X14128131Y-16978870D02*
X14032893Y-16997917D01*
X14204321Y-17055060D02*
X14223369Y-17064584D01*
X14223369Y-17064584D02*
X14261464Y-17064584D01*
X14261464Y-17064584D02*
X14280512Y-17055060D01*
X14280512Y-17055060D02*
X14290036Y-17036012D01*
X14290036Y-17036012D02*
X14290036Y-17026489D01*
X14290036Y-17026489D02*
X14280512Y-17007441D01*
X14280512Y-17007441D02*
X14261464Y-16997917D01*
X14261464Y-16997917D02*
X14232893Y-16997917D01*
X14232893Y-16997917D02*
X14213845Y-16988393D01*
X14213845Y-16988393D02*
X14204321Y-16969346D01*
X14204321Y-16969346D02*
X14204321Y-16959822D01*
X14204321Y-16959822D02*
X14213845Y-16940774D01*
X14213845Y-16940774D02*
X14232893Y-16931250D01*
X14232893Y-16931250D02*
X14261464Y-16931250D01*
X14261464Y-16931250D02*
X14280512Y-16940774D01*
X14356702Y-17140774D02*
X14366226Y-17131250D01*
X14366226Y-17131250D02*
X14385274Y-17102679D01*
X14385274Y-17102679D02*
X14394798Y-17083631D01*
X14394798Y-17083631D02*
X14404321Y-17055060D01*
X14404321Y-17055060D02*
X14413845Y-17007441D01*
X14413845Y-17007441D02*
X14413845Y-16969346D01*
X14413845Y-16969346D02*
X14404321Y-16921727D01*
X14404321Y-16921727D02*
X14394798Y-16893155D01*
X14394798Y-16893155D02*
X14385274Y-16874108D01*
X14385274Y-16874108D02*
X14366226Y-16845536D01*
X14366226Y-16845536D02*
X14356702Y-16836012D01*
D15*
X9281163Y-17182100D02*
X9391163Y-17292100D01*
X9391163Y-17182100D02*
X9281163Y-17292100D01*
X9336163Y-17182100D02*
X9336163Y-17292100D01*
X9281163Y-17237100D02*
X9391163Y-17237100D01*
D12*
X9756702Y-17328584D02*
X9642416Y-17328584D01*
X9699559Y-17328584D02*
X9699559Y-17128584D01*
X9699559Y-17128584D02*
X9680511Y-17157155D01*
X9680511Y-17157155D02*
X9661464Y-17176203D01*
X9661464Y-17176203D02*
X9642416Y-17185727D01*
X9842416Y-17309536D02*
X9851940Y-17319060D01*
X9851940Y-17319060D02*
X9842416Y-17328584D01*
X9842416Y-17328584D02*
X9832892Y-17319060D01*
X9832892Y-17319060D02*
X9842416Y-17309536D01*
X9842416Y-17309536D02*
X9842416Y-17328584D01*
X10042416Y-17328584D02*
X9928131Y-17328584D01*
X9985273Y-17328584D02*
X9985273Y-17128584D01*
X9985273Y-17128584D02*
X9966226Y-17157155D01*
X9966226Y-17157155D02*
X9947178Y-17176203D01*
X9947178Y-17176203D02*
X9928131Y-17185727D01*
X10166226Y-17128584D02*
X10185273Y-17128584D01*
X10185273Y-17128584D02*
X10204321Y-17138108D01*
X10204321Y-17138108D02*
X10213845Y-17147631D01*
X10213845Y-17147631D02*
X10223369Y-17166679D01*
X10223369Y-17166679D02*
X10232892Y-17204774D01*
X10232892Y-17204774D02*
X10232892Y-17252393D01*
X10232892Y-17252393D02*
X10223369Y-17290489D01*
X10223369Y-17290489D02*
X10213845Y-17309536D01*
X10213845Y-17309536D02*
X10204321Y-17319060D01*
X10204321Y-17319060D02*
X10185273Y-17328584D01*
X10185273Y-17328584D02*
X10166226Y-17328584D01*
X10166226Y-17328584D02*
X10147178Y-17319060D01*
X10147178Y-17319060D02*
X10137654Y-17309536D01*
X10137654Y-17309536D02*
X10128131Y-17290489D01*
X10128131Y-17290489D02*
X10118607Y-17252393D01*
X10118607Y-17252393D02*
X10118607Y-17204774D01*
X10118607Y-17204774D02*
X10128131Y-17166679D01*
X10128131Y-17166679D02*
X10137654Y-17147631D01*
X10137654Y-17147631D02*
X10147178Y-17138108D01*
X10147178Y-17138108D02*
X10166226Y-17128584D01*
X10356702Y-17128584D02*
X10375750Y-17128584D01*
X10375750Y-17128584D02*
X10394797Y-17138108D01*
X10394797Y-17138108D02*
X10404321Y-17147631D01*
X10404321Y-17147631D02*
X10413845Y-17166679D01*
X10413845Y-17166679D02*
X10423369Y-17204774D01*
X10423369Y-17204774D02*
X10423369Y-17252393D01*
X10423369Y-17252393D02*
X10413845Y-17290489D01*
X10413845Y-17290489D02*
X10404321Y-17309536D01*
X10404321Y-17309536D02*
X10394797Y-17319060D01*
X10394797Y-17319060D02*
X10375750Y-17328584D01*
X10375750Y-17328584D02*
X10356702Y-17328584D01*
X10356702Y-17328584D02*
X10337654Y-17319060D01*
X10337654Y-17319060D02*
X10328131Y-17309536D01*
X10328131Y-17309536D02*
X10318607Y-17290489D01*
X10318607Y-17290489D02*
X10309083Y-17252393D01*
X10309083Y-17252393D02*
X10309083Y-17204774D01*
X10309083Y-17204774D02*
X10318607Y-17166679D01*
X10318607Y-17166679D02*
X10328131Y-17147631D01*
X10328131Y-17147631D02*
X10337654Y-17138108D01*
X10337654Y-17138108D02*
X10356702Y-17128584D01*
X10509083Y-17328584D02*
X10509083Y-17195250D01*
X10509083Y-17214298D02*
X10518607Y-17204774D01*
X10518607Y-17204774D02*
X10537654Y-17195250D01*
X10537654Y-17195250D02*
X10566226Y-17195250D01*
X10566226Y-17195250D02*
X10585273Y-17204774D01*
X10585273Y-17204774D02*
X10594797Y-17223822D01*
X10594797Y-17223822D02*
X10594797Y-17328584D01*
X10594797Y-17223822D02*
X10604321Y-17204774D01*
X10604321Y-17204774D02*
X10623369Y-17195250D01*
X10623369Y-17195250D02*
X10651940Y-17195250D01*
X10651940Y-17195250D02*
X10670988Y-17204774D01*
X10670988Y-17204774D02*
X10680512Y-17223822D01*
X10680512Y-17223822D02*
X10680512Y-17328584D01*
X10775750Y-17328584D02*
X10775750Y-17195250D01*
X10775750Y-17214298D02*
X10785273Y-17204774D01*
X10785273Y-17204774D02*
X10804321Y-17195250D01*
X10804321Y-17195250D02*
X10832893Y-17195250D01*
X10832893Y-17195250D02*
X10851940Y-17204774D01*
X10851940Y-17204774D02*
X10861464Y-17223822D01*
X10861464Y-17223822D02*
X10861464Y-17328584D01*
X10861464Y-17223822D02*
X10870988Y-17204774D01*
X10870988Y-17204774D02*
X10890035Y-17195250D01*
X10890035Y-17195250D02*
X10918607Y-17195250D01*
X10918607Y-17195250D02*
X10937654Y-17204774D01*
X10937654Y-17204774D02*
X10947178Y-17223822D01*
X10947178Y-17223822D02*
X10947178Y-17328584D01*
X11337654Y-17119060D02*
X11166226Y-17376203D01*
X11594797Y-17128584D02*
X11613845Y-17128584D01*
X11613845Y-17128584D02*
X11632893Y-17138108D01*
X11632893Y-17138108D02*
X11642416Y-17147631D01*
X11642416Y-17147631D02*
X11651940Y-17166679D01*
X11651940Y-17166679D02*
X11661464Y-17204774D01*
X11661464Y-17204774D02*
X11661464Y-17252393D01*
X11661464Y-17252393D02*
X11651940Y-17290489D01*
X11651940Y-17290489D02*
X11642416Y-17309536D01*
X11642416Y-17309536D02*
X11632893Y-17319060D01*
X11632893Y-17319060D02*
X11613845Y-17328584D01*
X11613845Y-17328584D02*
X11594797Y-17328584D01*
X11594797Y-17328584D02*
X11575750Y-17319060D01*
X11575750Y-17319060D02*
X11566226Y-17309536D01*
X11566226Y-17309536D02*
X11556702Y-17290489D01*
X11556702Y-17290489D02*
X11547178Y-17252393D01*
X11547178Y-17252393D02*
X11547178Y-17204774D01*
X11547178Y-17204774D02*
X11556702Y-17166679D01*
X11556702Y-17166679D02*
X11566226Y-17147631D01*
X11566226Y-17147631D02*
X11575750Y-17138108D01*
X11575750Y-17138108D02*
X11594797Y-17128584D01*
X11747178Y-17309536D02*
X11756702Y-17319060D01*
X11756702Y-17319060D02*
X11747178Y-17328584D01*
X11747178Y-17328584D02*
X11737654Y-17319060D01*
X11737654Y-17319060D02*
X11747178Y-17309536D01*
X11747178Y-17309536D02*
X11747178Y-17328584D01*
X11880512Y-17128584D02*
X11899559Y-17128584D01*
X11899559Y-17128584D02*
X11918607Y-17138108D01*
X11918607Y-17138108D02*
X11928131Y-17147631D01*
X11928131Y-17147631D02*
X11937654Y-17166679D01*
X11937654Y-17166679D02*
X11947178Y-17204774D01*
X11947178Y-17204774D02*
X11947178Y-17252393D01*
X11947178Y-17252393D02*
X11937654Y-17290489D01*
X11937654Y-17290489D02*
X11928131Y-17309536D01*
X11928131Y-17309536D02*
X11918607Y-17319060D01*
X11918607Y-17319060D02*
X11899559Y-17328584D01*
X11899559Y-17328584D02*
X11880512Y-17328584D01*
X11880512Y-17328584D02*
X11861464Y-17319060D01*
X11861464Y-17319060D02*
X11851940Y-17309536D01*
X11851940Y-17309536D02*
X11842416Y-17290489D01*
X11842416Y-17290489D02*
X11832893Y-17252393D01*
X11832893Y-17252393D02*
X11832893Y-17204774D01*
X11832893Y-17204774D02*
X11842416Y-17166679D01*
X11842416Y-17166679D02*
X11851940Y-17147631D01*
X11851940Y-17147631D02*
X11861464Y-17138108D01*
X11861464Y-17138108D02*
X11880512Y-17128584D01*
X12118607Y-17195250D02*
X12118607Y-17328584D01*
X12070988Y-17119060D02*
X12023369Y-17261917D01*
X12023369Y-17261917D02*
X12147178Y-17261917D01*
X12204321Y-17128584D02*
X12328131Y-17128584D01*
X12328131Y-17128584D02*
X12261464Y-17204774D01*
X12261464Y-17204774D02*
X12290035Y-17204774D01*
X12290035Y-17204774D02*
X12309083Y-17214298D01*
X12309083Y-17214298D02*
X12318607Y-17223822D01*
X12318607Y-17223822D02*
X12328131Y-17242870D01*
X12328131Y-17242870D02*
X12328131Y-17290489D01*
X12328131Y-17290489D02*
X12318607Y-17309536D01*
X12318607Y-17309536D02*
X12309083Y-17319060D01*
X12309083Y-17319060D02*
X12290035Y-17328584D01*
X12290035Y-17328584D02*
X12232893Y-17328584D01*
X12232893Y-17328584D02*
X12213845Y-17319060D01*
X12213845Y-17319060D02*
X12204321Y-17309536D01*
X12394797Y-17128584D02*
X12518607Y-17128584D01*
X12518607Y-17128584D02*
X12451940Y-17204774D01*
X12451940Y-17204774D02*
X12480512Y-17204774D01*
X12480512Y-17204774D02*
X12499559Y-17214298D01*
X12499559Y-17214298D02*
X12509083Y-17223822D01*
X12509083Y-17223822D02*
X12518607Y-17242870D01*
X12518607Y-17242870D02*
X12518607Y-17290489D01*
X12518607Y-17290489D02*
X12509083Y-17309536D01*
X12509083Y-17309536D02*
X12499559Y-17319060D01*
X12499559Y-17319060D02*
X12480512Y-17328584D01*
X12480512Y-17328584D02*
X12423369Y-17328584D01*
X12423369Y-17328584D02*
X12404321Y-17319060D01*
X12404321Y-17319060D02*
X12394797Y-17309536D01*
X12594797Y-17128584D02*
X12594797Y-17166679D01*
X12670988Y-17128584D02*
X12670988Y-17166679D01*
X12966226Y-17404774D02*
X12956702Y-17395250D01*
X12956702Y-17395250D02*
X12937655Y-17366679D01*
X12937655Y-17366679D02*
X12928131Y-17347631D01*
X12928131Y-17347631D02*
X12918607Y-17319060D01*
X12918607Y-17319060D02*
X12909083Y-17271441D01*
X12909083Y-17271441D02*
X12909083Y-17233346D01*
X12909083Y-17233346D02*
X12918607Y-17185727D01*
X12918607Y-17185727D02*
X12928131Y-17157155D01*
X12928131Y-17157155D02*
X12937655Y-17138108D01*
X12937655Y-17138108D02*
X12956702Y-17109536D01*
X12956702Y-17109536D02*
X12966226Y-17100012D01*
X13023369Y-17128584D02*
X13147178Y-17128584D01*
X13147178Y-17128584D02*
X13080512Y-17204774D01*
X13080512Y-17204774D02*
X13109083Y-17204774D01*
X13109083Y-17204774D02*
X13128131Y-17214298D01*
X13128131Y-17214298D02*
X13137655Y-17223822D01*
X13137655Y-17223822D02*
X13147178Y-17242870D01*
X13147178Y-17242870D02*
X13147178Y-17290489D01*
X13147178Y-17290489D02*
X13137655Y-17309536D01*
X13137655Y-17309536D02*
X13128131Y-17319060D01*
X13128131Y-17319060D02*
X13109083Y-17328584D01*
X13109083Y-17328584D02*
X13051940Y-17328584D01*
X13051940Y-17328584D02*
X13032893Y-17319060D01*
X13032893Y-17319060D02*
X13023369Y-17309536D01*
X13385274Y-17328584D02*
X13385274Y-17128584D01*
X13470988Y-17328584D02*
X13470988Y-17223822D01*
X13470988Y-17223822D02*
X13461464Y-17204774D01*
X13461464Y-17204774D02*
X13442417Y-17195250D01*
X13442417Y-17195250D02*
X13413845Y-17195250D01*
X13413845Y-17195250D02*
X13394797Y-17204774D01*
X13394797Y-17204774D02*
X13385274Y-17214298D01*
X13594797Y-17328584D02*
X13575750Y-17319060D01*
X13575750Y-17319060D02*
X13566226Y-17309536D01*
X13566226Y-17309536D02*
X13556702Y-17290489D01*
X13556702Y-17290489D02*
X13556702Y-17233346D01*
X13556702Y-17233346D02*
X13566226Y-17214298D01*
X13566226Y-17214298D02*
X13575750Y-17204774D01*
X13575750Y-17204774D02*
X13594797Y-17195250D01*
X13594797Y-17195250D02*
X13623369Y-17195250D01*
X13623369Y-17195250D02*
X13642417Y-17204774D01*
X13642417Y-17204774D02*
X13651940Y-17214298D01*
X13651940Y-17214298D02*
X13661464Y-17233346D01*
X13661464Y-17233346D02*
X13661464Y-17290489D01*
X13661464Y-17290489D02*
X13651940Y-17309536D01*
X13651940Y-17309536D02*
X13642417Y-17319060D01*
X13642417Y-17319060D02*
X13623369Y-17328584D01*
X13623369Y-17328584D02*
X13594797Y-17328584D01*
X13775750Y-17328584D02*
X13756702Y-17319060D01*
X13756702Y-17319060D02*
X13747178Y-17300012D01*
X13747178Y-17300012D02*
X13747178Y-17128584D01*
X13928131Y-17319060D02*
X13909083Y-17328584D01*
X13909083Y-17328584D02*
X13870988Y-17328584D01*
X13870988Y-17328584D02*
X13851940Y-17319060D01*
X13851940Y-17319060D02*
X13842417Y-17300012D01*
X13842417Y-17300012D02*
X13842417Y-17223822D01*
X13842417Y-17223822D02*
X13851940Y-17204774D01*
X13851940Y-17204774D02*
X13870988Y-17195250D01*
X13870988Y-17195250D02*
X13909083Y-17195250D01*
X13909083Y-17195250D02*
X13928131Y-17204774D01*
X13928131Y-17204774D02*
X13937655Y-17223822D01*
X13937655Y-17223822D02*
X13937655Y-17242870D01*
X13937655Y-17242870D02*
X13842417Y-17261917D01*
X14013845Y-17319060D02*
X14032893Y-17328584D01*
X14032893Y-17328584D02*
X14070988Y-17328584D01*
X14070988Y-17328584D02*
X14090036Y-17319060D01*
X14090036Y-17319060D02*
X14099559Y-17300012D01*
X14099559Y-17300012D02*
X14099559Y-17290489D01*
X14099559Y-17290489D02*
X14090036Y-17271441D01*
X14090036Y-17271441D02*
X14070988Y-17261917D01*
X14070988Y-17261917D02*
X14042417Y-17261917D01*
X14042417Y-17261917D02*
X14023369Y-17252393D01*
X14023369Y-17252393D02*
X14013845Y-17233346D01*
X14013845Y-17233346D02*
X14013845Y-17223822D01*
X14013845Y-17223822D02*
X14023369Y-17204774D01*
X14023369Y-17204774D02*
X14042417Y-17195250D01*
X14042417Y-17195250D02*
X14070988Y-17195250D01*
X14070988Y-17195250D02*
X14090036Y-17204774D01*
X14166226Y-17404774D02*
X14175750Y-17395250D01*
X14175750Y-17395250D02*
X14194798Y-17366679D01*
X14194798Y-17366679D02*
X14204321Y-17347631D01*
X14204321Y-17347631D02*
X14213845Y-17319060D01*
X14213845Y-17319060D02*
X14223369Y-17271441D01*
X14223369Y-17271441D02*
X14223369Y-17233346D01*
X14223369Y-17233346D02*
X14213845Y-17185727D01*
X14213845Y-17185727D02*
X14204321Y-17157155D01*
X14204321Y-17157155D02*
X14194798Y-17138108D01*
X14194798Y-17138108D02*
X14175750Y-17109536D01*
X14175750Y-17109536D02*
X14166226Y-17100012D01*
D16*
X9280163Y-17445600D02*
X9391163Y-17556600D01*
X9391163Y-17445600D02*
X9280163Y-17556600D01*
X9374908Y-17540345D02*
X9374908Y-17461855D01*
X9296418Y-17461855D01*
X9296418Y-17540345D01*
X9374908Y-17540345D01*
D12*
X9756702Y-17592584D02*
X9642416Y-17592584D01*
X9699559Y-17592584D02*
X9699559Y-17392584D01*
X9699559Y-17392584D02*
X9680511Y-17421155D01*
X9680511Y-17421155D02*
X9661464Y-17440203D01*
X9661464Y-17440203D02*
X9642416Y-17449727D01*
X9842416Y-17573536D02*
X9851940Y-17583060D01*
X9851940Y-17583060D02*
X9842416Y-17592584D01*
X9842416Y-17592584D02*
X9832892Y-17583060D01*
X9832892Y-17583060D02*
X9842416Y-17573536D01*
X9842416Y-17573536D02*
X9842416Y-17592584D01*
X10042416Y-17592584D02*
X9928131Y-17592584D01*
X9985273Y-17592584D02*
X9985273Y-17392584D01*
X9985273Y-17392584D02*
X9966226Y-17421155D01*
X9966226Y-17421155D02*
X9947178Y-17440203D01*
X9947178Y-17440203D02*
X9928131Y-17449727D01*
X10232892Y-17592584D02*
X10118607Y-17592584D01*
X10175750Y-17592584D02*
X10175750Y-17392584D01*
X10175750Y-17392584D02*
X10156702Y-17421155D01*
X10156702Y-17421155D02*
X10137654Y-17440203D01*
X10137654Y-17440203D02*
X10118607Y-17449727D01*
X10356702Y-17392584D02*
X10375750Y-17392584D01*
X10375750Y-17392584D02*
X10394797Y-17402108D01*
X10394797Y-17402108D02*
X10404321Y-17411631D01*
X10404321Y-17411631D02*
X10413845Y-17430679D01*
X10413845Y-17430679D02*
X10423369Y-17468774D01*
X10423369Y-17468774D02*
X10423369Y-17516393D01*
X10423369Y-17516393D02*
X10413845Y-17554489D01*
X10413845Y-17554489D02*
X10404321Y-17573536D01*
X10404321Y-17573536D02*
X10394797Y-17583060D01*
X10394797Y-17583060D02*
X10375750Y-17592584D01*
X10375750Y-17592584D02*
X10356702Y-17592584D01*
X10356702Y-17592584D02*
X10337654Y-17583060D01*
X10337654Y-17583060D02*
X10328131Y-17573536D01*
X10328131Y-17573536D02*
X10318607Y-17554489D01*
X10318607Y-17554489D02*
X10309083Y-17516393D01*
X10309083Y-17516393D02*
X10309083Y-17468774D01*
X10309083Y-17468774D02*
X10318607Y-17430679D01*
X10318607Y-17430679D02*
X10328131Y-17411631D01*
X10328131Y-17411631D02*
X10337654Y-17402108D01*
X10337654Y-17402108D02*
X10356702Y-17392584D01*
X10509083Y-17592584D02*
X10509083Y-17459250D01*
X10509083Y-17478298D02*
X10518607Y-17468774D01*
X10518607Y-17468774D02*
X10537654Y-17459250D01*
X10537654Y-17459250D02*
X10566226Y-17459250D01*
X10566226Y-17459250D02*
X10585273Y-17468774D01*
X10585273Y-17468774D02*
X10594797Y-17487822D01*
X10594797Y-17487822D02*
X10594797Y-17592584D01*
X10594797Y-17487822D02*
X10604321Y-17468774D01*
X10604321Y-17468774D02*
X10623369Y-17459250D01*
X10623369Y-17459250D02*
X10651940Y-17459250D01*
X10651940Y-17459250D02*
X10670988Y-17468774D01*
X10670988Y-17468774D02*
X10680512Y-17487822D01*
X10680512Y-17487822D02*
X10680512Y-17592584D01*
X10775750Y-17592584D02*
X10775750Y-17459250D01*
X10775750Y-17478298D02*
X10785273Y-17468774D01*
X10785273Y-17468774D02*
X10804321Y-17459250D01*
X10804321Y-17459250D02*
X10832893Y-17459250D01*
X10832893Y-17459250D02*
X10851940Y-17468774D01*
X10851940Y-17468774D02*
X10861464Y-17487822D01*
X10861464Y-17487822D02*
X10861464Y-17592584D01*
X10861464Y-17487822D02*
X10870988Y-17468774D01*
X10870988Y-17468774D02*
X10890035Y-17459250D01*
X10890035Y-17459250D02*
X10918607Y-17459250D01*
X10918607Y-17459250D02*
X10937654Y-17468774D01*
X10937654Y-17468774D02*
X10947178Y-17487822D01*
X10947178Y-17487822D02*
X10947178Y-17592584D01*
X11337654Y-17383060D02*
X11166226Y-17640203D01*
X11594797Y-17392584D02*
X11613845Y-17392584D01*
X11613845Y-17392584D02*
X11632893Y-17402108D01*
X11632893Y-17402108D02*
X11642416Y-17411631D01*
X11642416Y-17411631D02*
X11651940Y-17430679D01*
X11651940Y-17430679D02*
X11661464Y-17468774D01*
X11661464Y-17468774D02*
X11661464Y-17516393D01*
X11661464Y-17516393D02*
X11651940Y-17554489D01*
X11651940Y-17554489D02*
X11642416Y-17573536D01*
X11642416Y-17573536D02*
X11632893Y-17583060D01*
X11632893Y-17583060D02*
X11613845Y-17592584D01*
X11613845Y-17592584D02*
X11594797Y-17592584D01*
X11594797Y-17592584D02*
X11575750Y-17583060D01*
X11575750Y-17583060D02*
X11566226Y-17573536D01*
X11566226Y-17573536D02*
X11556702Y-17554489D01*
X11556702Y-17554489D02*
X11547178Y-17516393D01*
X11547178Y-17516393D02*
X11547178Y-17468774D01*
X11547178Y-17468774D02*
X11556702Y-17430679D01*
X11556702Y-17430679D02*
X11566226Y-17411631D01*
X11566226Y-17411631D02*
X11575750Y-17402108D01*
X11575750Y-17402108D02*
X11594797Y-17392584D01*
X11747178Y-17573536D02*
X11756702Y-17583060D01*
X11756702Y-17583060D02*
X11747178Y-17592584D01*
X11747178Y-17592584D02*
X11737654Y-17583060D01*
X11737654Y-17583060D02*
X11747178Y-17573536D01*
X11747178Y-17573536D02*
X11747178Y-17592584D01*
X11880512Y-17392584D02*
X11899559Y-17392584D01*
X11899559Y-17392584D02*
X11918607Y-17402108D01*
X11918607Y-17402108D02*
X11928131Y-17411631D01*
X11928131Y-17411631D02*
X11937654Y-17430679D01*
X11937654Y-17430679D02*
X11947178Y-17468774D01*
X11947178Y-17468774D02*
X11947178Y-17516393D01*
X11947178Y-17516393D02*
X11937654Y-17554489D01*
X11937654Y-17554489D02*
X11928131Y-17573536D01*
X11928131Y-17573536D02*
X11918607Y-17583060D01*
X11918607Y-17583060D02*
X11899559Y-17592584D01*
X11899559Y-17592584D02*
X11880512Y-17592584D01*
X11880512Y-17592584D02*
X11861464Y-17583060D01*
X11861464Y-17583060D02*
X11851940Y-17573536D01*
X11851940Y-17573536D02*
X11842416Y-17554489D01*
X11842416Y-17554489D02*
X11832893Y-17516393D01*
X11832893Y-17516393D02*
X11832893Y-17468774D01*
X11832893Y-17468774D02*
X11842416Y-17430679D01*
X11842416Y-17430679D02*
X11851940Y-17411631D01*
X11851940Y-17411631D02*
X11861464Y-17402108D01*
X11861464Y-17402108D02*
X11880512Y-17392584D01*
X12118607Y-17459250D02*
X12118607Y-17592584D01*
X12070988Y-17383060D02*
X12023369Y-17525917D01*
X12023369Y-17525917D02*
X12147178Y-17525917D01*
X12204321Y-17392584D02*
X12328131Y-17392584D01*
X12328131Y-17392584D02*
X12261464Y-17468774D01*
X12261464Y-17468774D02*
X12290035Y-17468774D01*
X12290035Y-17468774D02*
X12309083Y-17478298D01*
X12309083Y-17478298D02*
X12318607Y-17487822D01*
X12318607Y-17487822D02*
X12328131Y-17506870D01*
X12328131Y-17506870D02*
X12328131Y-17554489D01*
X12328131Y-17554489D02*
X12318607Y-17573536D01*
X12318607Y-17573536D02*
X12309083Y-17583060D01*
X12309083Y-17583060D02*
X12290035Y-17592584D01*
X12290035Y-17592584D02*
X12232893Y-17592584D01*
X12232893Y-17592584D02*
X12213845Y-17583060D01*
X12213845Y-17583060D02*
X12204321Y-17573536D01*
X12394797Y-17392584D02*
X12528131Y-17392584D01*
X12528131Y-17392584D02*
X12442416Y-17592584D01*
X12594797Y-17392584D02*
X12594797Y-17430679D01*
X12670988Y-17392584D02*
X12670988Y-17430679D01*
X12966226Y-17668774D02*
X12956702Y-17659250D01*
X12956702Y-17659250D02*
X12937655Y-17630679D01*
X12937655Y-17630679D02*
X12928131Y-17611631D01*
X12928131Y-17611631D02*
X12918607Y-17583060D01*
X12918607Y-17583060D02*
X12909083Y-17535441D01*
X12909083Y-17535441D02*
X12909083Y-17497346D01*
X12909083Y-17497346D02*
X12918607Y-17449727D01*
X12918607Y-17449727D02*
X12928131Y-17421155D01*
X12928131Y-17421155D02*
X12937655Y-17402108D01*
X12937655Y-17402108D02*
X12956702Y-17373536D01*
X12956702Y-17373536D02*
X12966226Y-17364012D01*
X13128131Y-17392584D02*
X13090035Y-17392584D01*
X13090035Y-17392584D02*
X13070988Y-17402108D01*
X13070988Y-17402108D02*
X13061464Y-17411631D01*
X13061464Y-17411631D02*
X13042416Y-17440203D01*
X13042416Y-17440203D02*
X13032893Y-17478298D01*
X13032893Y-17478298D02*
X13032893Y-17554489D01*
X13032893Y-17554489D02*
X13042416Y-17573536D01*
X13042416Y-17573536D02*
X13051940Y-17583060D01*
X13051940Y-17583060D02*
X13070988Y-17592584D01*
X13070988Y-17592584D02*
X13109083Y-17592584D01*
X13109083Y-17592584D02*
X13128131Y-17583060D01*
X13128131Y-17583060D02*
X13137655Y-17573536D01*
X13137655Y-17573536D02*
X13147178Y-17554489D01*
X13147178Y-17554489D02*
X13147178Y-17506870D01*
X13147178Y-17506870D02*
X13137655Y-17487822D01*
X13137655Y-17487822D02*
X13128131Y-17478298D01*
X13128131Y-17478298D02*
X13109083Y-17468774D01*
X13109083Y-17468774D02*
X13070988Y-17468774D01*
X13070988Y-17468774D02*
X13051940Y-17478298D01*
X13051940Y-17478298D02*
X13042416Y-17487822D01*
X13042416Y-17487822D02*
X13032893Y-17506870D01*
X13385274Y-17592584D02*
X13385274Y-17392584D01*
X13470988Y-17592584D02*
X13470988Y-17487822D01*
X13470988Y-17487822D02*
X13461464Y-17468774D01*
X13461464Y-17468774D02*
X13442417Y-17459250D01*
X13442417Y-17459250D02*
X13413845Y-17459250D01*
X13413845Y-17459250D02*
X13394797Y-17468774D01*
X13394797Y-17468774D02*
X13385274Y-17478298D01*
X13594797Y-17592584D02*
X13575750Y-17583060D01*
X13575750Y-17583060D02*
X13566226Y-17573536D01*
X13566226Y-17573536D02*
X13556702Y-17554489D01*
X13556702Y-17554489D02*
X13556702Y-17497346D01*
X13556702Y-17497346D02*
X13566226Y-17478298D01*
X13566226Y-17478298D02*
X13575750Y-17468774D01*
X13575750Y-17468774D02*
X13594797Y-17459250D01*
X13594797Y-17459250D02*
X13623369Y-17459250D01*
X13623369Y-17459250D02*
X13642417Y-17468774D01*
X13642417Y-17468774D02*
X13651940Y-17478298D01*
X13651940Y-17478298D02*
X13661464Y-17497346D01*
X13661464Y-17497346D02*
X13661464Y-17554489D01*
X13661464Y-17554489D02*
X13651940Y-17573536D01*
X13651940Y-17573536D02*
X13642417Y-17583060D01*
X13642417Y-17583060D02*
X13623369Y-17592584D01*
X13623369Y-17592584D02*
X13594797Y-17592584D01*
X13775750Y-17592584D02*
X13756702Y-17583060D01*
X13756702Y-17583060D02*
X13747178Y-17564012D01*
X13747178Y-17564012D02*
X13747178Y-17392584D01*
X13928131Y-17583060D02*
X13909083Y-17592584D01*
X13909083Y-17592584D02*
X13870988Y-17592584D01*
X13870988Y-17592584D02*
X13851940Y-17583060D01*
X13851940Y-17583060D02*
X13842417Y-17564012D01*
X13842417Y-17564012D02*
X13842417Y-17487822D01*
X13842417Y-17487822D02*
X13851940Y-17468774D01*
X13851940Y-17468774D02*
X13870988Y-17459250D01*
X13870988Y-17459250D02*
X13909083Y-17459250D01*
X13909083Y-17459250D02*
X13928131Y-17468774D01*
X13928131Y-17468774D02*
X13937655Y-17487822D01*
X13937655Y-17487822D02*
X13937655Y-17506870D01*
X13937655Y-17506870D02*
X13842417Y-17525917D01*
X14013845Y-17583060D02*
X14032893Y-17592584D01*
X14032893Y-17592584D02*
X14070988Y-17592584D01*
X14070988Y-17592584D02*
X14090036Y-17583060D01*
X14090036Y-17583060D02*
X14099559Y-17564012D01*
X14099559Y-17564012D02*
X14099559Y-17554489D01*
X14099559Y-17554489D02*
X14090036Y-17535441D01*
X14090036Y-17535441D02*
X14070988Y-17525917D01*
X14070988Y-17525917D02*
X14042417Y-17525917D01*
X14042417Y-17525917D02*
X14023369Y-17516393D01*
X14023369Y-17516393D02*
X14013845Y-17497346D01*
X14013845Y-17497346D02*
X14013845Y-17487822D01*
X14013845Y-17487822D02*
X14023369Y-17468774D01*
X14023369Y-17468774D02*
X14042417Y-17459250D01*
X14042417Y-17459250D02*
X14070988Y-17459250D01*
X14070988Y-17459250D02*
X14090036Y-17468774D01*
X14166226Y-17668774D02*
X14175750Y-17659250D01*
X14175750Y-17659250D02*
X14194798Y-17630679D01*
X14194798Y-17630679D02*
X14204321Y-17611631D01*
X14204321Y-17611631D02*
X14213845Y-17583060D01*
X14213845Y-17583060D02*
X14223369Y-17535441D01*
X14223369Y-17535441D02*
X14223369Y-17497346D01*
X14223369Y-17497346D02*
X14213845Y-17449727D01*
X14213845Y-17449727D02*
X14204321Y-17421155D01*
X14204321Y-17421155D02*
X14194798Y-17402108D01*
X14194798Y-17402108D02*
X14175750Y-17373536D01*
X14175750Y-17373536D02*
X14166226Y-17364012D01*
D17*
X9231163Y-17685100D02*
X9391163Y-17845100D01*
X9391163Y-17685100D02*
X9231163Y-17845100D01*
X9311163Y-17845100D02*
X9391163Y-17765100D01*
X9311163Y-17685100D01*
X9231163Y-17765100D01*
X9311163Y-17845100D01*
D12*
X9756702Y-17856584D02*
X9642416Y-17856584D01*
X9699559Y-17856584D02*
X9699559Y-17656584D01*
X9699559Y-17656584D02*
X9680511Y-17685155D01*
X9680511Y-17685155D02*
X9661464Y-17704203D01*
X9661464Y-17704203D02*
X9642416Y-17713727D01*
X9842416Y-17837536D02*
X9851940Y-17847060D01*
X9851940Y-17847060D02*
X9842416Y-17856584D01*
X9842416Y-17856584D02*
X9832892Y-17847060D01*
X9832892Y-17847060D02*
X9842416Y-17837536D01*
X9842416Y-17837536D02*
X9842416Y-17856584D01*
X10023369Y-17656584D02*
X9985273Y-17656584D01*
X9985273Y-17656584D02*
X9966226Y-17666108D01*
X9966226Y-17666108D02*
X9956702Y-17675631D01*
X9956702Y-17675631D02*
X9937654Y-17704203D01*
X9937654Y-17704203D02*
X9928131Y-17742298D01*
X9928131Y-17742298D02*
X9928131Y-17818489D01*
X9928131Y-17818489D02*
X9937654Y-17837536D01*
X9937654Y-17837536D02*
X9947178Y-17847060D01*
X9947178Y-17847060D02*
X9966226Y-17856584D01*
X9966226Y-17856584D02*
X10004321Y-17856584D01*
X10004321Y-17856584D02*
X10023369Y-17847060D01*
X10023369Y-17847060D02*
X10032892Y-17837536D01*
X10032892Y-17837536D02*
X10042416Y-17818489D01*
X10042416Y-17818489D02*
X10042416Y-17770870D01*
X10042416Y-17770870D02*
X10032892Y-17751822D01*
X10032892Y-17751822D02*
X10023369Y-17742298D01*
X10023369Y-17742298D02*
X10004321Y-17732774D01*
X10004321Y-17732774D02*
X9966226Y-17732774D01*
X9966226Y-17732774D02*
X9947178Y-17742298D01*
X9947178Y-17742298D02*
X9937654Y-17751822D01*
X9937654Y-17751822D02*
X9928131Y-17770870D01*
X10166226Y-17656584D02*
X10185273Y-17656584D01*
X10185273Y-17656584D02*
X10204321Y-17666108D01*
X10204321Y-17666108D02*
X10213845Y-17675631D01*
X10213845Y-17675631D02*
X10223369Y-17694679D01*
X10223369Y-17694679D02*
X10232892Y-17732774D01*
X10232892Y-17732774D02*
X10232892Y-17780393D01*
X10232892Y-17780393D02*
X10223369Y-17818489D01*
X10223369Y-17818489D02*
X10213845Y-17837536D01*
X10213845Y-17837536D02*
X10204321Y-17847060D01*
X10204321Y-17847060D02*
X10185273Y-17856584D01*
X10185273Y-17856584D02*
X10166226Y-17856584D01*
X10166226Y-17856584D02*
X10147178Y-17847060D01*
X10147178Y-17847060D02*
X10137654Y-17837536D01*
X10137654Y-17837536D02*
X10128131Y-17818489D01*
X10128131Y-17818489D02*
X10118607Y-17780393D01*
X10118607Y-17780393D02*
X10118607Y-17732774D01*
X10118607Y-17732774D02*
X10128131Y-17694679D01*
X10128131Y-17694679D02*
X10137654Y-17675631D01*
X10137654Y-17675631D02*
X10147178Y-17666108D01*
X10147178Y-17666108D02*
X10166226Y-17656584D01*
X10356702Y-17656584D02*
X10375750Y-17656584D01*
X10375750Y-17656584D02*
X10394797Y-17666108D01*
X10394797Y-17666108D02*
X10404321Y-17675631D01*
X10404321Y-17675631D02*
X10413845Y-17694679D01*
X10413845Y-17694679D02*
X10423369Y-17732774D01*
X10423369Y-17732774D02*
X10423369Y-17780393D01*
X10423369Y-17780393D02*
X10413845Y-17818489D01*
X10413845Y-17818489D02*
X10404321Y-17837536D01*
X10404321Y-17837536D02*
X10394797Y-17847060D01*
X10394797Y-17847060D02*
X10375750Y-17856584D01*
X10375750Y-17856584D02*
X10356702Y-17856584D01*
X10356702Y-17856584D02*
X10337654Y-17847060D01*
X10337654Y-17847060D02*
X10328131Y-17837536D01*
X10328131Y-17837536D02*
X10318607Y-17818489D01*
X10318607Y-17818489D02*
X10309083Y-17780393D01*
X10309083Y-17780393D02*
X10309083Y-17732774D01*
X10309083Y-17732774D02*
X10318607Y-17694679D01*
X10318607Y-17694679D02*
X10328131Y-17675631D01*
X10328131Y-17675631D02*
X10337654Y-17666108D01*
X10337654Y-17666108D02*
X10356702Y-17656584D01*
X10509083Y-17856584D02*
X10509083Y-17723250D01*
X10509083Y-17742298D02*
X10518607Y-17732774D01*
X10518607Y-17732774D02*
X10537654Y-17723250D01*
X10537654Y-17723250D02*
X10566226Y-17723250D01*
X10566226Y-17723250D02*
X10585273Y-17732774D01*
X10585273Y-17732774D02*
X10594797Y-17751822D01*
X10594797Y-17751822D02*
X10594797Y-17856584D01*
X10594797Y-17751822D02*
X10604321Y-17732774D01*
X10604321Y-17732774D02*
X10623369Y-17723250D01*
X10623369Y-17723250D02*
X10651940Y-17723250D01*
X10651940Y-17723250D02*
X10670988Y-17732774D01*
X10670988Y-17732774D02*
X10680512Y-17751822D01*
X10680512Y-17751822D02*
X10680512Y-17856584D01*
X10775750Y-17856584D02*
X10775750Y-17723250D01*
X10775750Y-17742298D02*
X10785273Y-17732774D01*
X10785273Y-17732774D02*
X10804321Y-17723250D01*
X10804321Y-17723250D02*
X10832893Y-17723250D01*
X10832893Y-17723250D02*
X10851940Y-17732774D01*
X10851940Y-17732774D02*
X10861464Y-17751822D01*
X10861464Y-17751822D02*
X10861464Y-17856584D01*
X10861464Y-17751822D02*
X10870988Y-17732774D01*
X10870988Y-17732774D02*
X10890035Y-17723250D01*
X10890035Y-17723250D02*
X10918607Y-17723250D01*
X10918607Y-17723250D02*
X10937654Y-17732774D01*
X10937654Y-17732774D02*
X10947178Y-17751822D01*
X10947178Y-17751822D02*
X10947178Y-17856584D01*
X11337654Y-17647060D02*
X11166226Y-17904203D01*
X11594797Y-17656584D02*
X11613845Y-17656584D01*
X11613845Y-17656584D02*
X11632893Y-17666108D01*
X11632893Y-17666108D02*
X11642416Y-17675631D01*
X11642416Y-17675631D02*
X11651940Y-17694679D01*
X11651940Y-17694679D02*
X11661464Y-17732774D01*
X11661464Y-17732774D02*
X11661464Y-17780393D01*
X11661464Y-17780393D02*
X11651940Y-17818489D01*
X11651940Y-17818489D02*
X11642416Y-17837536D01*
X11642416Y-17837536D02*
X11632893Y-17847060D01*
X11632893Y-17847060D02*
X11613845Y-17856584D01*
X11613845Y-17856584D02*
X11594797Y-17856584D01*
X11594797Y-17856584D02*
X11575750Y-17847060D01*
X11575750Y-17847060D02*
X11566226Y-17837536D01*
X11566226Y-17837536D02*
X11556702Y-17818489D01*
X11556702Y-17818489D02*
X11547178Y-17780393D01*
X11547178Y-17780393D02*
X11547178Y-17732774D01*
X11547178Y-17732774D02*
X11556702Y-17694679D01*
X11556702Y-17694679D02*
X11566226Y-17675631D01*
X11566226Y-17675631D02*
X11575750Y-17666108D01*
X11575750Y-17666108D02*
X11594797Y-17656584D01*
X11747178Y-17837536D02*
X11756702Y-17847060D01*
X11756702Y-17847060D02*
X11747178Y-17856584D01*
X11747178Y-17856584D02*
X11737654Y-17847060D01*
X11737654Y-17847060D02*
X11747178Y-17837536D01*
X11747178Y-17837536D02*
X11747178Y-17856584D01*
X11880512Y-17656584D02*
X11899559Y-17656584D01*
X11899559Y-17656584D02*
X11918607Y-17666108D01*
X11918607Y-17666108D02*
X11928131Y-17675631D01*
X11928131Y-17675631D02*
X11937654Y-17694679D01*
X11937654Y-17694679D02*
X11947178Y-17732774D01*
X11947178Y-17732774D02*
X11947178Y-17780393D01*
X11947178Y-17780393D02*
X11937654Y-17818489D01*
X11937654Y-17818489D02*
X11928131Y-17837536D01*
X11928131Y-17837536D02*
X11918607Y-17847060D01*
X11918607Y-17847060D02*
X11899559Y-17856584D01*
X11899559Y-17856584D02*
X11880512Y-17856584D01*
X11880512Y-17856584D02*
X11861464Y-17847060D01*
X11861464Y-17847060D02*
X11851940Y-17837536D01*
X11851940Y-17837536D02*
X11842416Y-17818489D01*
X11842416Y-17818489D02*
X11832893Y-17780393D01*
X11832893Y-17780393D02*
X11832893Y-17732774D01*
X11832893Y-17732774D02*
X11842416Y-17694679D01*
X11842416Y-17694679D02*
X11851940Y-17675631D01*
X11851940Y-17675631D02*
X11861464Y-17666108D01*
X11861464Y-17666108D02*
X11880512Y-17656584D01*
X12118607Y-17656584D02*
X12080512Y-17656584D01*
X12080512Y-17656584D02*
X12061464Y-17666108D01*
X12061464Y-17666108D02*
X12051940Y-17675631D01*
X12051940Y-17675631D02*
X12032893Y-17704203D01*
X12032893Y-17704203D02*
X12023369Y-17742298D01*
X12023369Y-17742298D02*
X12023369Y-17818489D01*
X12023369Y-17818489D02*
X12032893Y-17837536D01*
X12032893Y-17837536D02*
X12042416Y-17847060D01*
X12042416Y-17847060D02*
X12061464Y-17856584D01*
X12061464Y-17856584D02*
X12099559Y-17856584D01*
X12099559Y-17856584D02*
X12118607Y-17847060D01*
X12118607Y-17847060D02*
X12128131Y-17837536D01*
X12128131Y-17837536D02*
X12137654Y-17818489D01*
X12137654Y-17818489D02*
X12137654Y-17770870D01*
X12137654Y-17770870D02*
X12128131Y-17751822D01*
X12128131Y-17751822D02*
X12118607Y-17742298D01*
X12118607Y-17742298D02*
X12099559Y-17732774D01*
X12099559Y-17732774D02*
X12061464Y-17732774D01*
X12061464Y-17732774D02*
X12042416Y-17742298D01*
X12042416Y-17742298D02*
X12032893Y-17751822D01*
X12032893Y-17751822D02*
X12023369Y-17770870D01*
X12204321Y-17656584D02*
X12328131Y-17656584D01*
X12328131Y-17656584D02*
X12261464Y-17732774D01*
X12261464Y-17732774D02*
X12290035Y-17732774D01*
X12290035Y-17732774D02*
X12309083Y-17742298D01*
X12309083Y-17742298D02*
X12318607Y-17751822D01*
X12318607Y-17751822D02*
X12328131Y-17770870D01*
X12328131Y-17770870D02*
X12328131Y-17818489D01*
X12328131Y-17818489D02*
X12318607Y-17837536D01*
X12318607Y-17837536D02*
X12309083Y-17847060D01*
X12309083Y-17847060D02*
X12290035Y-17856584D01*
X12290035Y-17856584D02*
X12232893Y-17856584D01*
X12232893Y-17856584D02*
X12213845Y-17847060D01*
X12213845Y-17847060D02*
X12204321Y-17837536D01*
X12451940Y-17656584D02*
X12470988Y-17656584D01*
X12470988Y-17656584D02*
X12490035Y-17666108D01*
X12490035Y-17666108D02*
X12499559Y-17675631D01*
X12499559Y-17675631D02*
X12509083Y-17694679D01*
X12509083Y-17694679D02*
X12518607Y-17732774D01*
X12518607Y-17732774D02*
X12518607Y-17780393D01*
X12518607Y-17780393D02*
X12509083Y-17818489D01*
X12509083Y-17818489D02*
X12499559Y-17837536D01*
X12499559Y-17837536D02*
X12490035Y-17847060D01*
X12490035Y-17847060D02*
X12470988Y-17856584D01*
X12470988Y-17856584D02*
X12451940Y-17856584D01*
X12451940Y-17856584D02*
X12432893Y-17847060D01*
X12432893Y-17847060D02*
X12423369Y-17837536D01*
X12423369Y-17837536D02*
X12413845Y-17818489D01*
X12413845Y-17818489D02*
X12404321Y-17780393D01*
X12404321Y-17780393D02*
X12404321Y-17732774D01*
X12404321Y-17732774D02*
X12413845Y-17694679D01*
X12413845Y-17694679D02*
X12423369Y-17675631D01*
X12423369Y-17675631D02*
X12432893Y-17666108D01*
X12432893Y-17666108D02*
X12451940Y-17656584D01*
X12594797Y-17656584D02*
X12594797Y-17694679D01*
X12670988Y-17656584D02*
X12670988Y-17694679D01*
X12966226Y-17932774D02*
X12956702Y-17923250D01*
X12956702Y-17923250D02*
X12937655Y-17894679D01*
X12937655Y-17894679D02*
X12928131Y-17875631D01*
X12928131Y-17875631D02*
X12918607Y-17847060D01*
X12918607Y-17847060D02*
X12909083Y-17799441D01*
X12909083Y-17799441D02*
X12909083Y-17761346D01*
X12909083Y-17761346D02*
X12918607Y-17713727D01*
X12918607Y-17713727D02*
X12928131Y-17685155D01*
X12928131Y-17685155D02*
X12937655Y-17666108D01*
X12937655Y-17666108D02*
X12956702Y-17637536D01*
X12956702Y-17637536D02*
X12966226Y-17628012D01*
X13128131Y-17723250D02*
X13128131Y-17856584D01*
X13080512Y-17647060D02*
X13032893Y-17789917D01*
X13032893Y-17789917D02*
X13156702Y-17789917D01*
X13385274Y-17856584D02*
X13385274Y-17656584D01*
X13470988Y-17856584D02*
X13470988Y-17751822D01*
X13470988Y-17751822D02*
X13461464Y-17732774D01*
X13461464Y-17732774D02*
X13442417Y-17723250D01*
X13442417Y-17723250D02*
X13413845Y-17723250D01*
X13413845Y-17723250D02*
X13394797Y-17732774D01*
X13394797Y-17732774D02*
X13385274Y-17742298D01*
X13594797Y-17856584D02*
X13575750Y-17847060D01*
X13575750Y-17847060D02*
X13566226Y-17837536D01*
X13566226Y-17837536D02*
X13556702Y-17818489D01*
X13556702Y-17818489D02*
X13556702Y-17761346D01*
X13556702Y-17761346D02*
X13566226Y-17742298D01*
X13566226Y-17742298D02*
X13575750Y-17732774D01*
X13575750Y-17732774D02*
X13594797Y-17723250D01*
X13594797Y-17723250D02*
X13623369Y-17723250D01*
X13623369Y-17723250D02*
X13642417Y-17732774D01*
X13642417Y-17732774D02*
X13651940Y-17742298D01*
X13651940Y-17742298D02*
X13661464Y-17761346D01*
X13661464Y-17761346D02*
X13661464Y-17818489D01*
X13661464Y-17818489D02*
X13651940Y-17837536D01*
X13651940Y-17837536D02*
X13642417Y-17847060D01*
X13642417Y-17847060D02*
X13623369Y-17856584D01*
X13623369Y-17856584D02*
X13594797Y-17856584D01*
X13775750Y-17856584D02*
X13756702Y-17847060D01*
X13756702Y-17847060D02*
X13747178Y-17828012D01*
X13747178Y-17828012D02*
X13747178Y-17656584D01*
X13928131Y-17847060D02*
X13909083Y-17856584D01*
X13909083Y-17856584D02*
X13870988Y-17856584D01*
X13870988Y-17856584D02*
X13851940Y-17847060D01*
X13851940Y-17847060D02*
X13842417Y-17828012D01*
X13842417Y-17828012D02*
X13842417Y-17751822D01*
X13842417Y-17751822D02*
X13851940Y-17732774D01*
X13851940Y-17732774D02*
X13870988Y-17723250D01*
X13870988Y-17723250D02*
X13909083Y-17723250D01*
X13909083Y-17723250D02*
X13928131Y-17732774D01*
X13928131Y-17732774D02*
X13937655Y-17751822D01*
X13937655Y-17751822D02*
X13937655Y-17770870D01*
X13937655Y-17770870D02*
X13842417Y-17789917D01*
X14013845Y-17847060D02*
X14032893Y-17856584D01*
X14032893Y-17856584D02*
X14070988Y-17856584D01*
X14070988Y-17856584D02*
X14090036Y-17847060D01*
X14090036Y-17847060D02*
X14099559Y-17828012D01*
X14099559Y-17828012D02*
X14099559Y-17818489D01*
X14099559Y-17818489D02*
X14090036Y-17799441D01*
X14090036Y-17799441D02*
X14070988Y-17789917D01*
X14070988Y-17789917D02*
X14042417Y-17789917D01*
X14042417Y-17789917D02*
X14023369Y-17780393D01*
X14023369Y-17780393D02*
X14013845Y-17761346D01*
X14013845Y-17761346D02*
X14013845Y-17751822D01*
X14013845Y-17751822D02*
X14023369Y-17732774D01*
X14023369Y-17732774D02*
X14042417Y-17723250D01*
X14042417Y-17723250D02*
X14070988Y-17723250D01*
X14070988Y-17723250D02*
X14090036Y-17732774D01*
X14166226Y-17932774D02*
X14175750Y-17923250D01*
X14175750Y-17923250D02*
X14194798Y-17894679D01*
X14194798Y-17894679D02*
X14204321Y-17875631D01*
X14204321Y-17875631D02*
X14213845Y-17847060D01*
X14213845Y-17847060D02*
X14223369Y-17799441D01*
X14223369Y-17799441D02*
X14223369Y-17761346D01*
X14223369Y-17761346D02*
X14213845Y-17713727D01*
X14213845Y-17713727D02*
X14204321Y-17685155D01*
X14204321Y-17685155D02*
X14194798Y-17666108D01*
X14194798Y-17666108D02*
X14175750Y-17637536D01*
X14175750Y-17637536D02*
X14166226Y-17628012D01*
D18*
X9306163Y-17960100D02*
X9306163Y-18130100D01*
X9221163Y-18045100D02*
X9391163Y-18045100D01*
X9391163Y-18045100D02*
G75*
G02*
X9221163Y-18045100I-85000J0D01*
G01*
X9221163Y-18045100D02*
G75*
G02*
X9391163Y-18045100I85000J0D01*
G01*
D12*
X9756702Y-18136584D02*
X9642416Y-18136584D01*
X9699559Y-18136584D02*
X9699559Y-17936584D01*
X9699559Y-17936584D02*
X9680511Y-17965155D01*
X9680511Y-17965155D02*
X9661464Y-17984203D01*
X9661464Y-17984203D02*
X9642416Y-17993727D01*
X9842416Y-18117536D02*
X9851940Y-18127060D01*
X9851940Y-18127060D02*
X9842416Y-18136584D01*
X9842416Y-18136584D02*
X9832892Y-18127060D01*
X9832892Y-18127060D02*
X9842416Y-18117536D01*
X9842416Y-18117536D02*
X9842416Y-18136584D01*
X9918607Y-17936584D02*
X10051940Y-17936584D01*
X10051940Y-17936584D02*
X9966226Y-18136584D01*
X10166226Y-17936584D02*
X10185273Y-17936584D01*
X10185273Y-17936584D02*
X10204321Y-17946108D01*
X10204321Y-17946108D02*
X10213845Y-17955631D01*
X10213845Y-17955631D02*
X10223369Y-17974679D01*
X10223369Y-17974679D02*
X10232892Y-18012774D01*
X10232892Y-18012774D02*
X10232892Y-18060393D01*
X10232892Y-18060393D02*
X10223369Y-18098489D01*
X10223369Y-18098489D02*
X10213845Y-18117536D01*
X10213845Y-18117536D02*
X10204321Y-18127060D01*
X10204321Y-18127060D02*
X10185273Y-18136584D01*
X10185273Y-18136584D02*
X10166226Y-18136584D01*
X10166226Y-18136584D02*
X10147178Y-18127060D01*
X10147178Y-18127060D02*
X10137654Y-18117536D01*
X10137654Y-18117536D02*
X10128131Y-18098489D01*
X10128131Y-18098489D02*
X10118607Y-18060393D01*
X10118607Y-18060393D02*
X10118607Y-18012774D01*
X10118607Y-18012774D02*
X10128131Y-17974679D01*
X10128131Y-17974679D02*
X10137654Y-17955631D01*
X10137654Y-17955631D02*
X10147178Y-17946108D01*
X10147178Y-17946108D02*
X10166226Y-17936584D01*
X10356702Y-17936584D02*
X10375750Y-17936584D01*
X10375750Y-17936584D02*
X10394797Y-17946108D01*
X10394797Y-17946108D02*
X10404321Y-17955631D01*
X10404321Y-17955631D02*
X10413845Y-17974679D01*
X10413845Y-17974679D02*
X10423369Y-18012774D01*
X10423369Y-18012774D02*
X10423369Y-18060393D01*
X10423369Y-18060393D02*
X10413845Y-18098489D01*
X10413845Y-18098489D02*
X10404321Y-18117536D01*
X10404321Y-18117536D02*
X10394797Y-18127060D01*
X10394797Y-18127060D02*
X10375750Y-18136584D01*
X10375750Y-18136584D02*
X10356702Y-18136584D01*
X10356702Y-18136584D02*
X10337654Y-18127060D01*
X10337654Y-18127060D02*
X10328131Y-18117536D01*
X10328131Y-18117536D02*
X10318607Y-18098489D01*
X10318607Y-18098489D02*
X10309083Y-18060393D01*
X10309083Y-18060393D02*
X10309083Y-18012774D01*
X10309083Y-18012774D02*
X10318607Y-17974679D01*
X10318607Y-17974679D02*
X10328131Y-17955631D01*
X10328131Y-17955631D02*
X10337654Y-17946108D01*
X10337654Y-17946108D02*
X10356702Y-17936584D01*
X10509083Y-18136584D02*
X10509083Y-18003250D01*
X10509083Y-18022298D02*
X10518607Y-18012774D01*
X10518607Y-18012774D02*
X10537654Y-18003250D01*
X10537654Y-18003250D02*
X10566226Y-18003250D01*
X10566226Y-18003250D02*
X10585273Y-18012774D01*
X10585273Y-18012774D02*
X10594797Y-18031822D01*
X10594797Y-18031822D02*
X10594797Y-18136584D01*
X10594797Y-18031822D02*
X10604321Y-18012774D01*
X10604321Y-18012774D02*
X10623369Y-18003250D01*
X10623369Y-18003250D02*
X10651940Y-18003250D01*
X10651940Y-18003250D02*
X10670988Y-18012774D01*
X10670988Y-18012774D02*
X10680512Y-18031822D01*
X10680512Y-18031822D02*
X10680512Y-18136584D01*
X10775750Y-18136584D02*
X10775750Y-18003250D01*
X10775750Y-18022298D02*
X10785273Y-18012774D01*
X10785273Y-18012774D02*
X10804321Y-18003250D01*
X10804321Y-18003250D02*
X10832893Y-18003250D01*
X10832893Y-18003250D02*
X10851940Y-18012774D01*
X10851940Y-18012774D02*
X10861464Y-18031822D01*
X10861464Y-18031822D02*
X10861464Y-18136584D01*
X10861464Y-18031822D02*
X10870988Y-18012774D01*
X10870988Y-18012774D02*
X10890035Y-18003250D01*
X10890035Y-18003250D02*
X10918607Y-18003250D01*
X10918607Y-18003250D02*
X10937654Y-18012774D01*
X10937654Y-18012774D02*
X10947178Y-18031822D01*
X10947178Y-18031822D02*
X10947178Y-18136584D01*
X11337654Y-17927060D02*
X11166226Y-18184203D01*
X11594797Y-17936584D02*
X11613845Y-17936584D01*
X11613845Y-17936584D02*
X11632893Y-17946108D01*
X11632893Y-17946108D02*
X11642416Y-17955631D01*
X11642416Y-17955631D02*
X11651940Y-17974679D01*
X11651940Y-17974679D02*
X11661464Y-18012774D01*
X11661464Y-18012774D02*
X11661464Y-18060393D01*
X11661464Y-18060393D02*
X11651940Y-18098489D01*
X11651940Y-18098489D02*
X11642416Y-18117536D01*
X11642416Y-18117536D02*
X11632893Y-18127060D01*
X11632893Y-18127060D02*
X11613845Y-18136584D01*
X11613845Y-18136584D02*
X11594797Y-18136584D01*
X11594797Y-18136584D02*
X11575750Y-18127060D01*
X11575750Y-18127060D02*
X11566226Y-18117536D01*
X11566226Y-18117536D02*
X11556702Y-18098489D01*
X11556702Y-18098489D02*
X11547178Y-18060393D01*
X11547178Y-18060393D02*
X11547178Y-18012774D01*
X11547178Y-18012774D02*
X11556702Y-17974679D01*
X11556702Y-17974679D02*
X11566226Y-17955631D01*
X11566226Y-17955631D02*
X11575750Y-17946108D01*
X11575750Y-17946108D02*
X11594797Y-17936584D01*
X11747178Y-18117536D02*
X11756702Y-18127060D01*
X11756702Y-18127060D02*
X11747178Y-18136584D01*
X11747178Y-18136584D02*
X11737654Y-18127060D01*
X11737654Y-18127060D02*
X11747178Y-18117536D01*
X11747178Y-18117536D02*
X11747178Y-18136584D01*
X11880512Y-17936584D02*
X11899559Y-17936584D01*
X11899559Y-17936584D02*
X11918607Y-17946108D01*
X11918607Y-17946108D02*
X11928131Y-17955631D01*
X11928131Y-17955631D02*
X11937654Y-17974679D01*
X11937654Y-17974679D02*
X11947178Y-18012774D01*
X11947178Y-18012774D02*
X11947178Y-18060393D01*
X11947178Y-18060393D02*
X11937654Y-18098489D01*
X11937654Y-18098489D02*
X11928131Y-18117536D01*
X11928131Y-18117536D02*
X11918607Y-18127060D01*
X11918607Y-18127060D02*
X11899559Y-18136584D01*
X11899559Y-18136584D02*
X11880512Y-18136584D01*
X11880512Y-18136584D02*
X11861464Y-18127060D01*
X11861464Y-18127060D02*
X11851940Y-18117536D01*
X11851940Y-18117536D02*
X11842416Y-18098489D01*
X11842416Y-18098489D02*
X11832893Y-18060393D01*
X11832893Y-18060393D02*
X11832893Y-18012774D01*
X11832893Y-18012774D02*
X11842416Y-17974679D01*
X11842416Y-17974679D02*
X11851940Y-17955631D01*
X11851940Y-17955631D02*
X11861464Y-17946108D01*
X11861464Y-17946108D02*
X11880512Y-17936584D01*
X12118607Y-17936584D02*
X12080512Y-17936584D01*
X12080512Y-17936584D02*
X12061464Y-17946108D01*
X12061464Y-17946108D02*
X12051940Y-17955631D01*
X12051940Y-17955631D02*
X12032893Y-17984203D01*
X12032893Y-17984203D02*
X12023369Y-18022298D01*
X12023369Y-18022298D02*
X12023369Y-18098489D01*
X12023369Y-18098489D02*
X12032893Y-18117536D01*
X12032893Y-18117536D02*
X12042416Y-18127060D01*
X12042416Y-18127060D02*
X12061464Y-18136584D01*
X12061464Y-18136584D02*
X12099559Y-18136584D01*
X12099559Y-18136584D02*
X12118607Y-18127060D01*
X12118607Y-18127060D02*
X12128131Y-18117536D01*
X12128131Y-18117536D02*
X12137654Y-18098489D01*
X12137654Y-18098489D02*
X12137654Y-18050870D01*
X12137654Y-18050870D02*
X12128131Y-18031822D01*
X12128131Y-18031822D02*
X12118607Y-18022298D01*
X12118607Y-18022298D02*
X12099559Y-18012774D01*
X12099559Y-18012774D02*
X12061464Y-18012774D01*
X12061464Y-18012774D02*
X12042416Y-18022298D01*
X12042416Y-18022298D02*
X12032893Y-18031822D01*
X12032893Y-18031822D02*
X12023369Y-18050870D01*
X12309083Y-17936584D02*
X12270988Y-17936584D01*
X12270988Y-17936584D02*
X12251940Y-17946108D01*
X12251940Y-17946108D02*
X12242416Y-17955631D01*
X12242416Y-17955631D02*
X12223369Y-17984203D01*
X12223369Y-17984203D02*
X12213845Y-18022298D01*
X12213845Y-18022298D02*
X12213845Y-18098489D01*
X12213845Y-18098489D02*
X12223369Y-18117536D01*
X12223369Y-18117536D02*
X12232893Y-18127060D01*
X12232893Y-18127060D02*
X12251940Y-18136584D01*
X12251940Y-18136584D02*
X12290035Y-18136584D01*
X12290035Y-18136584D02*
X12309083Y-18127060D01*
X12309083Y-18127060D02*
X12318607Y-18117536D01*
X12318607Y-18117536D02*
X12328131Y-18098489D01*
X12328131Y-18098489D02*
X12328131Y-18050870D01*
X12328131Y-18050870D02*
X12318607Y-18031822D01*
X12318607Y-18031822D02*
X12309083Y-18022298D01*
X12309083Y-18022298D02*
X12290035Y-18012774D01*
X12290035Y-18012774D02*
X12251940Y-18012774D01*
X12251940Y-18012774D02*
X12232893Y-18022298D01*
X12232893Y-18022298D02*
X12223369Y-18031822D01*
X12223369Y-18031822D02*
X12213845Y-18050870D01*
X12423369Y-18136584D02*
X12461464Y-18136584D01*
X12461464Y-18136584D02*
X12480512Y-18127060D01*
X12480512Y-18127060D02*
X12490035Y-18117536D01*
X12490035Y-18117536D02*
X12509083Y-18088965D01*
X12509083Y-18088965D02*
X12518607Y-18050870D01*
X12518607Y-18050870D02*
X12518607Y-17974679D01*
X12518607Y-17974679D02*
X12509083Y-17955631D01*
X12509083Y-17955631D02*
X12499559Y-17946108D01*
X12499559Y-17946108D02*
X12480512Y-17936584D01*
X12480512Y-17936584D02*
X12442416Y-17936584D01*
X12442416Y-17936584D02*
X12423369Y-17946108D01*
X12423369Y-17946108D02*
X12413845Y-17955631D01*
X12413845Y-17955631D02*
X12404321Y-17974679D01*
X12404321Y-17974679D02*
X12404321Y-18022298D01*
X12404321Y-18022298D02*
X12413845Y-18041346D01*
X12413845Y-18041346D02*
X12423369Y-18050870D01*
X12423369Y-18050870D02*
X12442416Y-18060393D01*
X12442416Y-18060393D02*
X12480512Y-18060393D01*
X12480512Y-18060393D02*
X12499559Y-18050870D01*
X12499559Y-18050870D02*
X12509083Y-18041346D01*
X12509083Y-18041346D02*
X12518607Y-18022298D01*
X12594797Y-17936584D02*
X12594797Y-17974679D01*
X12670988Y-17936584D02*
X12670988Y-17974679D01*
X12966226Y-18212774D02*
X12956702Y-18203250D01*
X12956702Y-18203250D02*
X12937655Y-18174679D01*
X12937655Y-18174679D02*
X12928131Y-18155631D01*
X12928131Y-18155631D02*
X12918607Y-18127060D01*
X12918607Y-18127060D02*
X12909083Y-18079441D01*
X12909083Y-18079441D02*
X12909083Y-18041346D01*
X12909083Y-18041346D02*
X12918607Y-17993727D01*
X12918607Y-17993727D02*
X12928131Y-17965155D01*
X12928131Y-17965155D02*
X12937655Y-17946108D01*
X12937655Y-17946108D02*
X12956702Y-17917536D01*
X12956702Y-17917536D02*
X12966226Y-17908012D01*
X13128131Y-18003250D02*
X13128131Y-18136584D01*
X13080512Y-17927060D02*
X13032893Y-18069917D01*
X13032893Y-18069917D02*
X13156702Y-18069917D01*
X13385274Y-18136584D02*
X13385274Y-17936584D01*
X13470988Y-18136584D02*
X13470988Y-18031822D01*
X13470988Y-18031822D02*
X13461464Y-18012774D01*
X13461464Y-18012774D02*
X13442417Y-18003250D01*
X13442417Y-18003250D02*
X13413845Y-18003250D01*
X13413845Y-18003250D02*
X13394797Y-18012774D01*
X13394797Y-18012774D02*
X13385274Y-18022298D01*
X13594797Y-18136584D02*
X13575750Y-18127060D01*
X13575750Y-18127060D02*
X13566226Y-18117536D01*
X13566226Y-18117536D02*
X13556702Y-18098489D01*
X13556702Y-18098489D02*
X13556702Y-18041346D01*
X13556702Y-18041346D02*
X13566226Y-18022298D01*
X13566226Y-18022298D02*
X13575750Y-18012774D01*
X13575750Y-18012774D02*
X13594797Y-18003250D01*
X13594797Y-18003250D02*
X13623369Y-18003250D01*
X13623369Y-18003250D02*
X13642417Y-18012774D01*
X13642417Y-18012774D02*
X13651940Y-18022298D01*
X13651940Y-18022298D02*
X13661464Y-18041346D01*
X13661464Y-18041346D02*
X13661464Y-18098489D01*
X13661464Y-18098489D02*
X13651940Y-18117536D01*
X13651940Y-18117536D02*
X13642417Y-18127060D01*
X13642417Y-18127060D02*
X13623369Y-18136584D01*
X13623369Y-18136584D02*
X13594797Y-18136584D01*
X13775750Y-18136584D02*
X13756702Y-18127060D01*
X13756702Y-18127060D02*
X13747178Y-18108012D01*
X13747178Y-18108012D02*
X13747178Y-17936584D01*
X13928131Y-18127060D02*
X13909083Y-18136584D01*
X13909083Y-18136584D02*
X13870988Y-18136584D01*
X13870988Y-18136584D02*
X13851940Y-18127060D01*
X13851940Y-18127060D02*
X13842417Y-18108012D01*
X13842417Y-18108012D02*
X13842417Y-18031822D01*
X13842417Y-18031822D02*
X13851940Y-18012774D01*
X13851940Y-18012774D02*
X13870988Y-18003250D01*
X13870988Y-18003250D02*
X13909083Y-18003250D01*
X13909083Y-18003250D02*
X13928131Y-18012774D01*
X13928131Y-18012774D02*
X13937655Y-18031822D01*
X13937655Y-18031822D02*
X13937655Y-18050870D01*
X13937655Y-18050870D02*
X13842417Y-18069917D01*
X14013845Y-18127060D02*
X14032893Y-18136584D01*
X14032893Y-18136584D02*
X14070988Y-18136584D01*
X14070988Y-18136584D02*
X14090036Y-18127060D01*
X14090036Y-18127060D02*
X14099559Y-18108012D01*
X14099559Y-18108012D02*
X14099559Y-18098489D01*
X14099559Y-18098489D02*
X14090036Y-18079441D01*
X14090036Y-18079441D02*
X14070988Y-18069917D01*
X14070988Y-18069917D02*
X14042417Y-18069917D01*
X14042417Y-18069917D02*
X14023369Y-18060393D01*
X14023369Y-18060393D02*
X14013845Y-18041346D01*
X14013845Y-18041346D02*
X14013845Y-18031822D01*
X14013845Y-18031822D02*
X14023369Y-18012774D01*
X14023369Y-18012774D02*
X14042417Y-18003250D01*
X14042417Y-18003250D02*
X14070988Y-18003250D01*
X14070988Y-18003250D02*
X14090036Y-18012774D01*
X14166226Y-18212774D02*
X14175750Y-18203250D01*
X14175750Y-18203250D02*
X14194798Y-18174679D01*
X14194798Y-18174679D02*
X14204321Y-18155631D01*
X14204321Y-18155631D02*
X14213845Y-18127060D01*
X14213845Y-18127060D02*
X14223369Y-18079441D01*
X14223369Y-18079441D02*
X14223369Y-18041346D01*
X14223369Y-18041346D02*
X14213845Y-17993727D01*
X14213845Y-17993727D02*
X14204321Y-17965155D01*
X14204321Y-17965155D02*
X14194798Y-17946108D01*
X14194798Y-17946108D02*
X14175750Y-17917536D01*
X14175750Y-17917536D02*
X14166226Y-17908012D01*
M02*
