G04 #@! TF.GenerationSoftware,KiCad,Pcbnew,8.0.9-8.0.9-0~ubuntu22.04.1*
G04 #@! TF.CreationDate,2026-05-27T12:16:12+02:00*
G04 #@! TF.ProjectId,Carte_puissance,43617274-655f-4707-9569-7373616e6365,2.0*
G04 #@! TF.SameCoordinates,Original*
G04 #@! TF.FileFunction,Soldermask,Bot*
G04 #@! TF.FilePolarity,Negative*
%FSLAX46Y46*%
G04 Gerber Fmt 4.6, Leading zero omitted, Abs format (unit mm)*
G04 Created by KiCad (PCBNEW 8.0.9-8.0.9-0~ubuntu22.04.1) date 2026-05-27 12:16:12*
%MOMM*%
%LPD*%
G01*
G04 APERTURE LIST*
G04 Aperture macros list*
%AMRoundRect*
0 Rectangle with rounded corners*
0 $1 Rounding radius*
0 $2 $3 $4 $5 $6 $7 $8 $9 X,Y pos of 4 corners*
0 Add a 4 corners polygon primitive as box body*
4,1,4,$2,$3,$4,$5,$6,$7,$8,$9,$2,$3,0*
0 Add four circle primitives for the rounded corners*
1,1,$1+$1,$2,$3*
1,1,$1+$1,$4,$5*
1,1,$1+$1,$6,$7*
1,1,$1+$1,$8,$9*
0 Add four rect primitives between the rounded corners*
20,1,$1+$1,$2,$3,$4,$5,0*
20,1,$1+$1,$4,$5,$6,$7,0*
20,1,$1+$1,$6,$7,$8,$9,0*
20,1,$1+$1,$8,$9,$2,$3,0*%
G04 Aperture macros list end*
%ADD10R,1.700000X1.700000*%
%ADD11O,1.700000X1.700000*%
%ADD12R,1.575000X1.575000*%
%ADD13C,1.575000*%
%ADD14C,3.200000*%
%ADD15R,1.665000X1.665000*%
%ADD16C,1.665000*%
%ADD17C,2.400000*%
%ADD18RoundRect,0.250001X0.899999X0.899999X-0.899999X0.899999X-0.899999X-0.899999X0.899999X-0.899999X0*%
%ADD19C,2.300000*%
%ADD20C,1.500000*%
%ADD21C,1.300000*%
%ADD22RoundRect,0.250001X-1.099999X-1.099999X1.099999X-1.099999X1.099999X1.099999X-1.099999X1.099999X0*%
%ADD23C,2.700000*%
%ADD24RoundRect,0.250000X0.750000X-0.600000X0.750000X0.600000X-0.750000X0.600000X-0.750000X-0.600000X0*%
%ADD25O,2.000000X1.700000*%
%ADD26RoundRect,0.250000X-0.600000X-0.750000X0.600000X-0.750000X0.600000X0.750000X-0.600000X0.750000X0*%
%ADD27O,1.700000X2.000000*%
%ADD28RoundRect,0.102000X0.719000X0.719000X-0.719000X0.719000X-0.719000X-0.719000X0.719000X-0.719000X0*%
%ADD29C,1.642000*%
%ADD30RoundRect,0.250000X-0.450000X0.262500X-0.450000X-0.262500X0.450000X-0.262500X0.450000X0.262500X0*%
%ADD31RoundRect,0.250000X0.250000X0.475000X-0.250000X0.475000X-0.250000X-0.475000X0.250000X-0.475000X0*%
%ADD32RoundRect,0.250000X-0.262500X-0.450000X0.262500X-0.450000X0.262500X0.450000X-0.262500X0.450000X0*%
%ADD33RoundRect,0.250000X-0.475000X0.250000X-0.475000X-0.250000X0.475000X-0.250000X0.475000X0.250000X0*%
%ADD34RoundRect,0.250000X-0.250000X-0.475000X0.250000X-0.475000X0.250000X0.475000X-0.250000X0.475000X0*%
%ADD35RoundRect,0.250000X0.475000X-0.250000X0.475000X0.250000X-0.475000X0.250000X-0.475000X-0.250000X0*%
G04 APERTURE END LIST*
D10*
X179986666Y-142531000D03*
D11*
X179986666Y-145071000D03*
X179986666Y-147611000D03*
D12*
X125186666Y-143556000D03*
D13*
X123186666Y-143556000D03*
X121186666Y-143556000D03*
X119186666Y-143556000D03*
X117186666Y-143556000D03*
D12*
X195986666Y-143556000D03*
D13*
X193986666Y-143556000D03*
X191986666Y-143556000D03*
X189986666Y-143556000D03*
X187986666Y-143556000D03*
D14*
X125096666Y-97911000D03*
X188096666Y-97911000D03*
D10*
X142986666Y-91056000D03*
D15*
X171486666Y-105096000D03*
D16*
X171486666Y-102556000D03*
X171486666Y-100016000D03*
D17*
X160906666Y-104356000D03*
X160906666Y-107756000D03*
X150986666Y-104356000D03*
X150986666Y-107756000D03*
D10*
X133986666Y-124516000D03*
D11*
X133986666Y-127056000D03*
X133986666Y-129596000D03*
D10*
X145986666Y-127056000D03*
X117486666Y-139556000D03*
X145986666Y-132056000D03*
D14*
X188096666Y-132911000D03*
D18*
X178486666Y-91556000D03*
D19*
X173686666Y-91556000D03*
X168886666Y-91556000D03*
D20*
X135986666Y-142306000D03*
X141986666Y-142306000D03*
X135986666Y-146806000D03*
X141986666Y-146806000D03*
D21*
X138986666Y-141406000D03*
X138986666Y-147706000D03*
D15*
X140846666Y-99516000D03*
D16*
X140846666Y-102056000D03*
X140846666Y-104596000D03*
D10*
X117486666Y-97056000D03*
D22*
X101006666Y-136281000D03*
D23*
X104966666Y-136281000D03*
D14*
X125096666Y-132911000D03*
D24*
X134961666Y-118056000D03*
D25*
X134961666Y-115556000D03*
D10*
X151486666Y-148056000D03*
D26*
X207736666Y-95031000D03*
D27*
X210236666Y-95031000D03*
D10*
X166986666Y-96556000D03*
X165486666Y-122056000D03*
X194986666Y-139556000D03*
X97486666Y-119556000D03*
X179486666Y-116056000D03*
X166986666Y-148056000D03*
D28*
X106486666Y-97056000D03*
D29*
X104486666Y-97056000D03*
X102486666Y-97056000D03*
X100486666Y-97056000D03*
D10*
X214986666Y-114056000D03*
D22*
X207006666Y-136281000D03*
D23*
X210966666Y-136281000D03*
D30*
X153986666Y-121118500D03*
X153986666Y-122943500D03*
D31*
X173386666Y-95556000D03*
X171486666Y-95556000D03*
D32*
X107074166Y-110056000D03*
X108899166Y-110056000D03*
D30*
X156486666Y-121143500D03*
X156486666Y-122968500D03*
D33*
X160986666Y-128606000D03*
X160986666Y-130506000D03*
D34*
X155536666Y-136556000D03*
X157436666Y-136556000D03*
D31*
X160936666Y-136556000D03*
X159036666Y-136556000D03*
D35*
X152486666Y-136006000D03*
X152486666Y-134106000D03*
D32*
X107074166Y-113056000D03*
X108899166Y-113056000D03*
D31*
X154936666Y-127556000D03*
X153036666Y-127556000D03*
M02*
